<svg xmlns="http://www.w3.org/2000/svg" width="584" height="208" viewBox="0 0 584 208"><rect x="0" y="0" width="584" height="208" fill="#FFFFFF"/><defs><marker id="arrow-0" viewBox="0 0 10 10" refX="5" refY="5" markerUnits="userSpaceOnUse" markerWidth="8" markerHeight="8" orient="auto"><path d="M 0 0 L 10 5 L 0 10 z" fill="#2F3B4D" stroke="#2F3B4D" stroke-width="1" stroke-dasharray="1,0"/></marker><marker id="arrow-start-0" viewBox="0 0 10 10" refX="4.5" refY="5" markerUnits="userSpaceOnUse" markerWidth="8" markerHeight="8" orient="auto"><path d="M 0 5 L 10 10 L 10 0 z" fill="#2F3B4D" stroke="#2F3B4D" stroke-width="1" stroke-dasharray="1,0"/></marker></defs><g class="architecture-edges"><path d="M 116.000 88.000 L 188.000 88.000" fill="none" stroke="#2F3B4D" stroke-width="3" marker-end="url(#arrow-0)" /><path d="M 252.000 88.000 L 324.000 88.000" fill="none" stroke="#2F3B4D" stroke-width="3" marker-end="url(#arrow-0)" /><path d="M 252.000 88.000 L 460.000 88.000" fill="none" stroke="#2F3B4D" stroke-width="3" marker-end="url(#arrow-0)" /></g><g class="architecture-services"><g id="service-app" class="architecture-service" transform="translate(188.000,56.000)"><rect width="64" height="64" fill="#087ebf" stroke="none" /><rect x="9.6" y="9.6" width="44.8" height="14.9" rx="2" fill="none" stroke="#ffffff" stroke-width="1.5" stroke-linecap="round" stroke-linejoin="round"/><circle cx="49.2" cy="17.1" r="1.8" fill="#ffffff" stroke="none"/><rect x="9.6" y="24.5" width="44.8" height="14.9" rx="2" fill="none" stroke="#ffffff" stroke-width="1.5" stroke-linecap="round" stroke-linejoin="round"/><circle cx="49.2" cy="32.0" r="1.8" fill="#ffffff" stroke="none"/><rect x="9.6" y="39.5" width="44.8" height="14.9" rx="2" fill="none" stroke="#ffffff" stroke-width="1.5" stroke-linecap="round" stroke-linejoin="round"/><circle cx="49.2" cy="46.9" r="1.8" fill="#ffffff" stroke="none"/><text x="32.000" y="88.000" text-anchor="middle" font-family="trebuchet ms,verdana,arial,Noto Color Emoji,Apple Color Emoji,Segoe UI Emoji,sans-serif" font-size="16" fill="#333333">App Server</text></g><g id="service-cache" class="architecture-service" transform="translate(460.000,56.000)"><rect width="64" height="64" fill="#087ebf" stroke="none" /><rect x="9.6" y="16.3" width="44.8" height="31.4" fill="none" stroke="#ffffff" stroke-width="1.5" stroke-linecap="round" stroke-linejoin="round"/><ellipse cx="32.0" cy="16.3" rx="22.4" ry="6.7" fill="none" stroke="#ffffff" stroke-width="1.5" stroke-linecap="round" stroke-linejoin="round"/><ellipse cx="32.0" cy="47.7" rx="22.4" ry="6.7" fill="none" stroke="#ffffff" stroke-width="1.5" stroke-linecap="round" stroke-linejoin="round"/><line x1="9.6" y1="16.3" x2="9.6" y2="47.7" fill="none" stroke="#ffffff" stroke-width="1.5" stroke-linecap="round" stroke-linejoin="round"/><line x1="54.4" y1="16.3" x2="54.4" y2="47.7" fill="none" stroke="#ffffff" stroke-width="1.5" stroke-linecap="round" stroke-linejoin="round"/><text x="32.000" y="88.000" text-anchor="middle" font-family="trebuchet ms,verdana,arial,Noto Color Emoji,Apple Color Emoji,Segoe UI Emoji,sans-serif" font-size="16" fill="#333333">Cache</text></g><g id="service-db" class="architecture-service" transform="translate(324.000,56.000)"><rect width="64" height="64" fill="#087ebf" stroke="none" /><rect x="9.6" y="16.3" width="44.8" height="31.4" fill="none" stroke="#ffffff" stroke-width="1.5" stroke-linecap="round" stroke-linejoin="round"/><ellipse cx="32.0" cy="16.3" rx="22.4" ry="6.7" fill="none" stroke="#ffffff" stroke-width="1.5" stroke-linecap="round" stroke-linejoin="round"/><ellipse cx="32.0" cy="47.7" rx="22.4" ry="6.7" fill="none" stroke="#ffffff" stroke-width="1.5" stroke-linecap="round" stroke-linejoin="round"/><line x1="9.6" y1="16.3" x2="9.6" y2="47.7" fill="none" stroke="#ffffff" stroke-width="1.5" stroke-linecap="round" stroke-linejoin="round"/><line x1="54.4" y1="16.3" x2="54.4" y2="47.7" fill="none" stroke="#ffffff" stroke-width="1.5" stroke-linecap="round" stroke-linejoin="round"/><text x="32.000" y="88.000" text-anchor="middle" font-family="trebuchet ms,verdana,arial,Noto Color Emoji,Apple Color Emoji,Segoe UI Emoji,sans-serif" font-size="16" fill="#333333">Database</text></g><g id="service-gateway" class="architecture-service" transform="translate(52.000,56.000)"><rect width="64" height="64" fill="#087ebf" stroke="none" /><circle cx="32.0" cy="32.0" r="22.4" fill="none" stroke="#ffffff" stroke-width="1.5" stroke-linecap="round" stroke-linejoin="round"/><ellipse cx="32.0" cy="32.0" rx="11.2" ry="22.4" fill="none" stroke="#ffffff" stroke-width="1.5" stroke-linecap="round" stroke-linejoin="round"/><line x1="9.6" y1="32.0" x2="54.4" y2="32.0" fill="none" stroke="#ffffff" stroke-width="1.5" stroke-linecap="round" stroke-linejoin="round"/><line x1="32.0" y1="9.6" x2="32.0" y2="54.4" fill="none" stroke="#ffffff" stroke-width="1.5" stroke-linecap="round" stroke-linejoin="round"/><text x="32.000" y="88.000" text-anchor="middle" font-family="trebuchet ms,verdana,arial,Noto Color Emoji,Apple Color Emoji,Segoe UI Emoji,sans-serif" font-size="16" fill="#333333">API Gateway</text></g></g><g class="architecture-groups"><rect id="group-cloud-platform" x="24.000" y="24.000" width="528.000" height="140.000" fill="none" stroke="hsl(240, 60%, 86.2745098039%)" stroke-width="2" stroke-dasharray="8" /><g transform="translate(25.000,25.000)"><rect width="30" height="30" fill="#087ebf" stroke="none" /><path d="M 7.7 15.0 Q 7.7 9.1 15.0 9.1 Q 22.4 9.1 22.4 15.0 Q 22.4 19.4 15.0 19.4 Q 7.7 19.4 7.7 15.0 Z" fill="none" stroke="#ffffff" stroke-width="1.5" stroke-linecap="round" stroke-linejoin="round"/></g><text x="58.000" y="45.000" text-anchor="start" font-family="trebuchet ms,verdana,arial,Noto Color Emoji,Apple Color Emoji,Segoe UI Emoji,sans-serif" font-size="16" fill="#333333">Cloud Platform</text></g></svg>