<svg xmlns="http://www.w3.org/2000/svg" width="513.2127" height="533.2" viewBox="0 0 513.2127 533.2"><rect x="0" y="0" width="513.2127" height="533.2" fill="#FFFFFF"/><defs><marker id="arrow-0" viewBox="0 0 10 10" refX="5" refY="5" markerUnits="userSpaceOnUse" markerWidth="8" markerHeight="8" orient="auto"><path d="M 0 0 L 10 5 L 0 10 z" fill="#2F3B4D" stroke="#2F3B4D" stroke-width="1" stroke-dasharray="1,0"/></marker><marker id="arrow-start-0" viewBox="0 0 10 10" refX="4.5" refY="5" markerUnits="userSpaceOnUse" markerWidth="8" markerHeight="8" orient="auto"><path d="M 0 5 L 10 10 L 10 0 z" fill="#2F3B4D" stroke="#2F3B4D" stroke-width="1" stroke-dasharray="1,0"/></marker><marker id="arrow-class-open-0" viewBox="0 0 20 14" refX="1" refY="7" markerUnits="userSpaceOnUse" markerWidth="20" markerHeight="14" orient="auto"><path d="M 1 7 L 18 13 V 1 Z" fill="none" stroke="#2F3B4D" stroke-width="1" stroke-dasharray="1,0"/></marker><marker id="arrow-class-open-start-0" viewBox="0 0 20 14" refX="18" refY="7" markerUnits="userSpaceOnUse" markerWidth="20" markerHeight="14" orient="auto"><path d="M 1 7 L 18 13 V 1 Z" fill="none" stroke="#2F3B4D" stroke-width="1" stroke-dasharray="1,0"/></marker><marker id="arrow-class-dep-0" viewBox="0 0 20 14" refX="13" refY="7" markerUnits="userSpaceOnUse" markerWidth="20" markerHeight="14" orient="auto"><path d="M 18 7 L 9 13 L 14 7 L 9 1 Z" fill="#2F3B4D" stroke="#2F3B4D" stroke-width="1" stroke-dasharray="1,0"/></marker><marker id="arrow-class-dep-start-0" viewBox="0 0 20 14" refX="6" refY="7" markerUnits="userSpaceOnUse" markerWidth="20" markerHeight="14" orient="auto"><path d="M 5 7 L 9 13 L 1 7 L 9 1 Z" fill="#2F3B4D" stroke="#2F3B4D" stroke-width="1" stroke-dasharray="1,0"/></marker></defs><path id="edge-0" class="edgePath" data-edge-id="edge-0" d="M 382.213,174.800 L 390.300,224.800" fill="none" stroke="#2F3B4D" stroke-width="1"  marker-start="url(#arrow-class-open-start-0)" stroke-dasharray="2" stroke-linecap="round" stroke-linejoin="round" /><path id="edge-1" class="edgePath" data-edge-id="edge-1" d="M 166.129,355.500 L 130.568,421.200" fill="none" stroke="#2F3B4D" stroke-width="1"  marker-start="url(#arrow-class-open-start-0)" stroke-dasharray="2" stroke-linecap="round" stroke-linejoin="round" /><path id="edge-2" class="edgePath" data-edge-id="edge-2" d="M 262.129,355.500 L 297.704,421.200" fill="none" stroke="#2F3B4D" stroke-width="1"  marker-start="url(#arrow-class-open-start-0)" stroke-dasharray="2" stroke-linecap="round" stroke-linejoin="round" /><path id="edge-3" class="edgePath" data-edge-id="edge-3" d="M 254.213,174.800 L 302.171,174.800 L 302.171,229.500 L 242.171,202.150 L 230.129,229.500" fill="none" stroke="#2F3B4D" stroke-width="1"    stroke-linecap="round" stroke-linejoin="round" /><g transform="translate(254.21 174.80) rotate(0.00)"><polygon points="0,0 9,6 18,0 9,-6" fill="none" stroke="#2F3B4D" stroke-width="1" stroke-linejoin="round" stroke-linecap="round"/></g><rect data-edge-id="edge-3" data-label-kind="center" x="263.72" y="212.08" width="76.90" height="28.00" rx="2" ry="2" fill="rgba(248,250,252, 0.92)" fill-opacity="0.85" stroke="#7B88A8" stroke-opacity="0.35" stroke-width="0.8"/><g class="edgeLabel" data-edge-id="edge-3" data-label-kind="center"><text x="302.17" y="230.08" text-anchor="middle" font-family="trebuchet ms,verdana,arial,sans-serif" font-size="16" fill="#333333"><tspan x="302.17" dy="0.00">observers</tspan></text></g><rect x="8.00" y="421.20" width="181.14" height="104.00" rx="3" ry="3" fill="#ECECFF" stroke="#7B88A8" stroke-width="1" stroke-linejoin="round" stroke-linecap="round"/><line x1="14.00" y1="473.40" x2="183.14" y2="473.40" stroke="#7B88A8" stroke-width="1.0"/><text x="98.57" y="458.60" text-anchor="middle" font-family="trebuchet ms,verdana,arial,sans-serif" font-size="16" fill="#333333"><tspan x="98.57" dy="0.00" font-weight="600">ConcreteObserverA</tspan></text><text x="38.00" y="499.40" text-anchor="start" font-family="trebuchet ms,verdana,arial,sans-serif" font-size="16" fill="#333333"><tspan x="38.00" dy="0.00">+update()</tspan></text><rect x="239.14" y="421.20" width="181.14" height="104.00" rx="3" ry="3" fill="#ECECFF" stroke="#7B88A8" stroke-width="1" stroke-linejoin="round" stroke-linecap="round"/><line x1="245.14" y1="473.40" x2="414.27" y2="473.40" stroke="#7B88A8" stroke-width="1.0"/><text x="329.70" y="458.60" text-anchor="middle" font-family="trebuchet ms,verdana,arial,sans-serif" font-size="16" fill="#333333"><tspan x="329.70" dy="0.00" font-weight="600">ConcreteObserverB</tspan></text><text x="269.14" y="499.40" text-anchor="start" font-family="trebuchet ms,verdana,arial,sans-serif" font-size="16" fill="#333333"><tspan x="269.14" dy="0.00">+update()</tspan></text><rect x="339.39" y="224.80" width="165.83" height="146.40" rx="3" ry="3" fill="#ECECFF" stroke="#7B88A8" stroke-width="1" stroke-linejoin="round" stroke-linecap="round"/><line x1="345.39" y1="267.60" x2="499.21" y2="267.60" stroke="#7B88A8" stroke-width="1.0"/><line x1="345.39" y1="308.40" x2="499.21" y2="308.40" stroke="#7B88A8" stroke-width="1.0"/><text x="422.30" y="252.80" text-anchor="middle" font-family="trebuchet ms,verdana,arial,sans-serif" font-size="16" fill="#333333"><tspan x="422.30" dy="0.00" font-weight="600">ConcreteSubject</tspan></text><text x="369.39" y="293.60" text-anchor="start" font-family="trebuchet ms,verdana,arial,sans-serif" font-size="16" fill="#333333"><tspan x="369.39" dy="0.00">-state</tspan><tspan x="369.39" dy="40.80">+getState()</tspan><tspan x="369.39" dy="20.40">+setState()</tspan></text><rect x="138.87" y="229.50" width="150.52" height="126.00" rx="3" ry="3" fill="#ECECFF" stroke="#7B88A8" stroke-width="1" stroke-linejoin="round" stroke-linecap="round"/><line x1="144.87" y1="272.30" x2="283.39" y2="272.30" stroke="#7B88A8" stroke-width="1.0"/><line x1="144.87" y1="313.10" x2="283.39" y2="313.10" stroke="#7B88A8" stroke-width="1.0"/><text x="214.13" y="257.50" text-anchor="middle" font-family="trebuchet ms,verdana,arial,sans-serif" font-size="16" fill="#333333"><tspan x="214.13" dy="0.00" font-weight="600">Observer</tspan></text><text x="168.87" y="298.30" text-anchor="start" font-family="trebuchet ms,verdana,arial,sans-serif" font-size="16" fill="#333333"><tspan x="168.87" dy="0.00">&lt;&lt;interface&gt;&gt;</tspan><tspan x="168.87" dy="40.80">+update()</tspan></text><rect x="227.64" y="8.00" width="181.14" height="166.80" rx="3" ry="3" fill="#ECECFF" stroke="#7B88A8" stroke-width="1" stroke-linejoin="round" stroke-linecap="round"/><line x1="233.64" y1="50.80" x2="402.78" y2="50.80" stroke="#7B88A8" stroke-width="1.0"/><line x1="233.64" y1="91.60" x2="402.78" y2="91.60" stroke="#7B88A8" stroke-width="1.0"/><text x="318.21" y="36.00" text-anchor="middle" font-family="trebuchet ms,verdana,arial,sans-serif" font-size="16" fill="#333333"><tspan x="318.21" dy="0.00" font-weight="600">Subject</tspan></text><text x="257.64" y="76.80" text-anchor="start" font-family="trebuchet ms,verdana,arial,sans-serif" font-size="16" fill="#333333"><tspan x="257.64" dy="0.00">&lt;&lt;interface&gt;&gt;</tspan><tspan x="257.64" dy="40.80">+attach(Observer)</tspan><tspan x="257.64" dy="20.40">+detach(Observer)</tspan><tspan x="257.64" dy="20.40">+notify()</tspan></text></svg>