<svg id="my-svg" width="100%" xmlns="http://www.w3.org/2000/svg" xmlns:xlink="http://www.w3.org/1999/xlink" class="classDiagram" style="max-width: 468.406px; background-color: white;" viewBox="0 0 468.40625 608" role="graphics-document document" aria-roledescription="class"><style>#my-svg{font-family:"trebuchet ms",verdana,arial,sans-serif;font-size:16px;fill:#333;}@keyframes edge-animation-frame{from{stroke-dashoffset:0;}}@keyframes dash{to{stroke-dashoffset:0;}}#my-svg .edge-animation-slow{stroke-dasharray:9,5!important;stroke-dashoffset:900;animation:dash 50s linear infinite;stroke-linecap:round;}#my-svg .edge-animation-fast{stroke-dasharray:9,5!important;stroke-dashoffset:900;animation:dash 20s linear infinite;stroke-linecap:round;}#my-svg .error-icon{fill:#552222;}#my-svg .error-text{fill:#552222;stroke:#552222;}#my-svg .edge-thickness-normal{stroke-width:1px;}#my-svg .edge-thickness-thick{stroke-width:3.5px;}#my-svg .edge-pattern-solid{stroke-dasharray:0;}#my-svg .edge-thickness-invisible{stroke-width:0;fill:none;}#my-svg .edge-pattern-dashed{stroke-dasharray:3;}#my-svg .edge-pattern-dotted{stroke-dasharray:2;}#my-svg .marker{fill:#333333;stroke:#333333;}#my-svg .marker.cross{stroke:#333333;}#my-svg svg{font-family:"trebuchet ms",verdana,arial,sans-serif;font-size:16px;}#my-svg p{margin:0;}#my-svg g.classGroup text{fill:#9370DB;stroke:none;font-family:"trebuchet ms",verdana,arial,sans-serif;font-size:10px;}#my-svg g.classGroup text .title{font-weight:bolder;}#my-svg .nodeLabel,#my-svg .edgeLabel{color:#131300;}#my-svg .edgeLabel .label rect{fill:#ECECFF;}#my-svg .label text{fill:#131300;}#my-svg .labelBkg{background:#ECECFF;}#my-svg .edgeLabel .label span{background:#ECECFF;}#my-svg .classTitle{font-weight:bolder;}#my-svg .node rect,#my-svg .node circle,#my-svg .node ellipse,#my-svg .node polygon,#my-svg .node path{fill:#ECECFF;stroke:#9370DB;stroke-width:1px;}#my-svg .divider{stroke:#9370DB;stroke-width:1;}#my-svg g.clickable{cursor:pointer;}#my-svg g.classGroup rect{fill:#ECECFF;stroke:#9370DB;}#my-svg g.classGroup line{stroke:#9370DB;stroke-width:1;}#my-svg .classLabel .box{stroke:none;stroke-width:0;fill:#ECECFF;opacity:0.5;}#my-svg .classLabel .label{fill:#9370DB;font-size:10px;}#my-svg .relation{stroke:#333333;stroke-width:1;fill:none;}#my-svg .dashed-line{stroke-dasharray:3;}#my-svg .dotted-line{stroke-dasharray:1 2;}#my-svg #compositionStart,#my-svg .composition{fill:#333333!important;stroke:#333333!important;stroke-width:1;}#my-svg #compositionEnd,#my-svg .composition{fill:#333333!important;stroke:#333333!important;stroke-width:1;}#my-svg #dependencyStart,#my-svg .dependency{fill:#333333!important;stroke:#333333!important;stroke-width:1;}#my-svg #dependencyStart,#my-svg .dependency{fill:#333333!important;stroke:#333333!important;stroke-width:1;}#my-svg #extensionStart,#my-svg .extension{fill:transparent!important;stroke:#333333!important;stroke-width:1;}#my-svg #extensionEnd,#my-svg .extension{fill:transparent!important;stroke:#333333!important;stroke-width:1;}#my-svg #aggregationStart,#my-svg .aggregation{fill:transparent!important;stroke:#333333!important;stroke-width:1;}#my-svg #aggregationEnd,#my-svg .aggregation{fill:transparent!important;stroke:#333333!important;stroke-width:1;}#my-svg #lollipopStart,#my-svg .lollipop{fill:#ECECFF!important;stroke:#333333!important;stroke-width:1;}#my-svg #lollipopEnd,#my-svg .lollipop{fill:#ECECFF!important;stroke:#333333!important;stroke-width:1;}#my-svg .edgeTerminals{font-size:11px;line-height:initial;}#my-svg .classTitleText{text-anchor:middle;font-size:18px;fill:#333;}#my-svg .label-icon{display:inline-block;height:1em;overflow:visible;vertical-align:-0.125em;}#my-svg .node .label-icon path{fill:currentColor;stroke:revert;stroke-width:revert;}#my-svg :root{--mermaid-font-family:"trebuchet ms",verdana,arial,sans-serif;}</style><g><defs><marker id="my-svg_class-aggregationStart" class="marker aggregation class" refX="18" refY="7" markerWidth="190" markerHeight="240" orient="auto"><path d="M 18,7 L9,13 L1,7 L9,1 Z"/></marker></defs><defs><marker id="my-svg_class-aggregationEnd" class="marker aggregation class" refX="1" refY="7" markerWidth="20" markerHeight="28" orient="auto"><path d="M 18,7 L9,13 L1,7 L9,1 Z"/></marker></defs><defs><marker id="my-svg_class-extensionStart" class="marker extension class" refX="18" refY="7" markerWidth="190" markerHeight="240" orient="auto"><path d="M 1,7 L18,13 V 1 Z"/></marker></defs><defs><marker id="my-svg_class-extensionEnd" class="marker extension class" refX="1" refY="7" markerWidth="20" markerHeight="28" orient="auto"><path d="M 1,1 V 13 L18,7 Z"/></marker></defs><defs><marker id="my-svg_class-compositionStart" class="marker composition class" refX="18" refY="7" markerWidth="190" markerHeight="240" orient="auto"><path d="M 18,7 L9,13 L1,7 L9,1 Z"/></marker></defs><defs><marker id="my-svg_class-compositionEnd" class="marker composition class" refX="1" refY="7" markerWidth="20" markerHeight="28" orient="auto"><path d="M 18,7 L9,13 L1,7 L9,1 Z"/></marker></defs><defs><marker id="my-svg_class-dependencyStart" class="marker dependency class" refX="6" refY="7" markerWidth="190" markerHeight="240" orient="auto"><path d="M 5,7 L9,13 L1,7 L9,1 Z"/></marker></defs><defs><marker id="my-svg_class-dependencyEnd" class="marker dependency class" refX="13" refY="7" markerWidth="20" markerHeight="28" orient="auto"><path d="M 18,7 L9,13 L14,7 L9,1 Z"/></marker></defs><defs><marker id="my-svg_class-lollipopStart" class="marker lollipop class" refX="13" refY="7" markerWidth="190" markerHeight="240" orient="auto"><circle stroke="black" fill="transparent" cx="7" cy="7" r="6"/></marker></defs><defs><marker id="my-svg_class-lollipopEnd" class="marker lollipop class" refX="1" refY="7" markerWidth="190" markerHeight="240" orient="auto"><circle stroke="black" fill="transparent" cx="7" cy="7" r="6"/></marker></defs><g class="root"><g class="clusters"/><g class="edgePaths"><path d="M119.868,193.481L117.341,195.734C114.815,197.987,109.761,202.494,107.234,210.913C104.707,219.333,104.707,231.667,104.707,237.833L104.707,244" id="id_Shape_Circle_1" class="edge-thickness-normal edge-pattern-dashed relation" style=";;;" data-edge="true" data-et="edge" data-id="id_Shape_Circle_1" data-points="W3sieCI6MTMyLjc0MzA5NDMwODAzNTcyLCJ5IjoxODJ9LHsieCI6MTA0LjcwNzAzMTI1LCJ5IjoyMDd9LHsieCI6MTA0LjcwNzAzMTI1LCJ5IjoyNDR9XQ==" marker-start="url(#my-svg_class-extensionStart)"/><path d="M340.749,193.481L343.276,195.734C345.803,197.987,350.856,202.494,353.383,208.913C355.91,215.333,355.91,223.667,355.91,227.833L355.91,232" id="id_Shape_Rectangle_2" class="edge-thickness-normal edge-pattern-dashed relation" style=";;;" data-edge="true" data-et="edge" data-id="id_Shape_Rectangle_2" data-points="W3sieCI6MzI3Ljg3NDA5MzE5MTk2NDMsInkiOjE4Mn0seyJ4IjozNTUuOTEwMTU2MjUsInkiOjIwN30seyJ4IjozNTUuOTEwMTU2MjUsInkiOjIzMn1d" marker-start="url(#my-svg_class-extensionStart)"/><path d="M355.91,441.25L355.91,442.542C355.91,443.833,355.91,446.417,355.91,451.875C355.91,457.333,355.91,465.667,355.91,469.833L355.91,474" id="id_Rectangle_Square_3" class="edge-thickness-normal edge-pattern-solid relation" style=";;;" data-edge="true" data-et="edge" data-id="id_Rectangle_Square_3" data-points="W3sieCI6MzU1LjkxMDE1NjI1LCJ5Ijo0MjR9LHsieCI6MzU1LjkxMDE1NjI1LCJ5Ijo0NDl9LHsieCI6MzU1LjkxMDE1NjI1LCJ5Ijo0NzR9XQ==" marker-start="url(#my-svg_class-extensionStart)"/></g><g class="edgeLabels"><g class="edgeLabel"><g class="label" data-id="id_Shape_Circle_1" transform="translate(0, 0)"><foreignObject width="0" height="0"><div xmlns="http://www.w3.org/1999/xhtml" class="labelBkg" style="display: table-cell; white-space: nowrap; line-height: 1.5; max-width: 200px; text-align: center;"><span class="edgeLabel"></span></div></foreignObject></g></g><g class="edgeLabel"><g class="label" data-id="id_Shape_Rectangle_2" transform="translate(0, 0)"><foreignObject width="0" height="0"><div xmlns="http://www.w3.org/1999/xhtml" class="labelBkg" style="display: table-cell; white-space: nowrap; line-height: 1.5; max-width: 200px; text-align: center;"><span class="edgeLabel"></span></div></foreignObject></g></g><g class="edgeLabel"><g class="label" data-id="id_Rectangle_Square_3" transform="translate(0, 0)"><foreignObject width="0" height="0"><div xmlns="http://www.w3.org/1999/xhtml" class="labelBkg" style="display: table-cell; white-space: nowrap; line-height: 1.5; max-width: 200px; text-align: center;"><span class="edgeLabel"></span></div></foreignObject></g></g></g><g class="nodes"><g class="node default" id="classId-Shape-0" transform="translate(230.30859375, 95)"><g class="basic label-container"><path d="M-106.27734375 -87 L106.27734375 -87 L106.27734375 87 L-106.27734375 87" stroke="none" stroke-width="0" fill="#ECECFF" style=""/><path d="M-106.27734375 -87 C-31.51724143526755 -87, 43.2428608794649 -87, 106.27734375 -87 M-106.27734375 -87 C-51.575043690790075 -87, 3.12725636841985 -87, 106.27734375 -87 M106.27734375 -87 C106.27734375 -30.087812712165913, 106.27734375 26.824374575668173, 106.27734375 87 M106.27734375 -87 C106.27734375 -46.111445090451234, 106.27734375 -5.222890180902468, 106.27734375 87 M106.27734375 87 C50.00812354463493 87, -6.261096660730146 87, -106.27734375 87 M106.27734375 87 C26.926193796819064 87, -52.42495615636187 87, -106.27734375 87 M-106.27734375 87 C-106.27734375 48.93988702745007, -106.27734375 10.879774054900139, -106.27734375 -87 M-106.27734375 87 C-106.27734375 22.108267194764082, -106.27734375 -42.783465610471836, -106.27734375 -87" stroke="#9370DB" stroke-width="1.3" fill="none" stroke-dasharray="0 0" style=""/></g><g class="annotation-group text" transform="translate(-39.5859375, -63)"><g class="label" style="" transform="translate(0,-12)"><foreignObject width="79.171875" height="24"><div xmlns="http://www.w3.org/1999/xhtml" style="display: table-cell; white-space: nowrap; line-height: 1.5; max-width: 122px; text-align: center;"><span class="nodeLabel markdown-node-label" style=""><p>«interface»</p></span></div></foreignObject></g></g><g class="label-group text" transform="translate(-23.1328125, -39)"><g class="label" style="font-weight: bolder" transform="translate(0,-12)"><foreignObject width="46.265625" height="24"><div xmlns="http://www.w3.org/1999/xhtml" style="display: table-cell; white-space: nowrap; line-height: 1.5; max-width: 89px; text-align: center;"><span class="nodeLabel markdown-node-label" style=""><p>Shape</p></span></div></foreignObject></g></g><g class="members-group text" transform="translate(-94.27734375, 9)"/><g class="methods-group text" transform="translate(-94.27734375, 39)"><g class="label" style="" transform="translate(0,-12)"><foreignObject width="113.40625" height="24"><div xmlns="http://www.w3.org/1999/xhtml" style="display: table-cell; white-space: nowrap; line-height: 1.5; max-width: 157px; text-align: center;"><span class="nodeLabel markdown-node-label" style=""><p>+area() : double</p></span></div></foreignObject></g><g class="label" style="" transform="translate(0,12)"><foreignObject width="148.96875" height="24"><div xmlns="http://www.w3.org/1999/xhtml" style="display: table-cell; white-space: nowrap; line-height: 1.5; max-width: 191px; text-align: center;"><span class="nodeLabel markdown-node-label" style=""><p>+perimeter() : double</p></span></div></foreignObject></g></g><g class="divider" style=""><path d="M-106.27734375 -15 C-51.56880284847452 -15, 3.139738053050962 -15, 106.27734375 -15 M-106.27734375 -15 C-57.463924206710075 -15, -8.65050466342015 -15, 106.27734375 -15" stroke="#9370DB" stroke-width="1.3" fill="none" stroke-dasharray="0 0" style=""/></g><g class="divider" style=""><path d="M-106.27734375 9 C-38.896007332800906 9, 28.485329084398188 9, 106.27734375 9 M-106.27734375 9 C-42.26859175480101 9, 21.740160240397984 9, 106.27734375 9" stroke="#9370DB" stroke-width="1.3" fill="none" stroke-dasharray="0 0" style=""/></g></g><g class="node default" id="classId-Circle-1" transform="translate(104.70703125, 328)"><g class="basic label-container"><path d="M-96.70703125 -84 L96.70703125 -84 L96.70703125 84 L-96.70703125 84" stroke="none" stroke-width="0" fill="#ECECFF" style=""/><path d="M-96.70703125 -84 C-45.91621578452047 -84, 4.874599680959065 -84, 96.70703125 -84 M-96.70703125 -84 C-19.772792090312777 -84, 57.16144706937445 -84, 96.70703125 -84 M96.70703125 -84 C96.70703125 -36.17826255858046, 96.70703125 11.643474882839087, 96.70703125 84 M96.70703125 -84 C96.70703125 -18.718583957403467, 96.70703125 46.562832085193065, 96.70703125 84 M96.70703125 84 C30.42752606284165 84, -35.8519791243167 84, -96.70703125 84 M96.70703125 84 C42.01076122357617 84, -12.685508802847664 84, -96.70703125 84 M-96.70703125 84 C-96.70703125 20.261636123445456, -96.70703125 -43.47672775310909, -96.70703125 -84 M-96.70703125 84 C-96.70703125 48.811216025306685, -96.70703125 13.62243205061337, -96.70703125 -84" stroke="#9370DB" stroke-width="1.3" fill="none" stroke-dasharray="0 0" style=""/></g><g class="annotation-group text" transform="translate(0, -60)"/><g class="label-group text" transform="translate(-20.4453125, -60)"><g class="label" style="font-weight: bolder" transform="translate(0,-12)"><foreignObject width="40.890625" height="24"><div xmlns="http://www.w3.org/1999/xhtml" style="display: table-cell; white-space: nowrap; line-height: 1.5; max-width: 89px; text-align: center;"><span class="nodeLabel markdown-node-label" style=""><p>Circle</p></span></div></foreignObject></g></g><g class="members-group text" transform="translate(-84.70703125, -12)"><g class="label" style="" transform="translate(0,-12)"><foreignObject width="101.40625" height="24"><div xmlns="http://www.w3.org/1999/xhtml" style="display: table-cell; white-space: nowrap; line-height: 1.5; max-width: 146px; text-align: center;"><span class="nodeLabel markdown-node-label" style=""><p>-double radius</p></span></div></foreignObject></g></g><g class="methods-group text" transform="translate(-84.70703125, 36)"><g class="label" style="" transform="translate(0,-12)"><foreignObject width="113.40625" height="24"><div xmlns="http://www.w3.org/1999/xhtml" style="display: table-cell; white-space: nowrap; line-height: 1.5; max-width: 157px; text-align: center;"><span class="nodeLabel markdown-node-label" style=""><p>+area() : double</p></span></div></foreignObject></g><g class="label" style="" transform="translate(0,12)"><foreignObject width="148.96875" height="24"><div xmlns="http://www.w3.org/1999/xhtml" style="display: table-cell; white-space: nowrap; line-height: 1.5; max-width: 191px; text-align: center;"><span class="nodeLabel markdown-node-label" style=""><p>+perimeter() : double</p></span></div></foreignObject></g></g><g class="divider" style=""><path d="M-96.70703125 -36 C-57.079891682738236 -36, -17.45275211547647 -36, 96.70703125 -36 M-96.70703125 -36 C-29.761213744875207 -36, 37.18460376024959 -36, 96.70703125 -36" stroke="#9370DB" stroke-width="1.3" fill="none" stroke-dasharray="0 0" style=""/></g><g class="divider" style=""><path d="M-96.70703125 12 C-45.387662667651696 12, 5.931705914696607 12, 96.70703125 12 M-96.70703125 12 C-55.831335733154845 12, -14.955640216309689 12, 96.70703125 12" stroke="#9370DB" stroke-width="1.3" fill="none" stroke-dasharray="0 0" style=""/></g></g><g class="node default" id="classId-Rectangle-2" transform="translate(355.91015625, 328)"><g class="basic label-container"><path d="M-104.49609375 -96 L104.49609375 -96 L104.49609375 96 L-104.49609375 96" stroke="none" stroke-width="0" fill="#ECECFF" style=""/><path d="M-104.49609375 -96 C-45.446822287761854 -96, 13.602449174476291 -96, 104.49609375 -96 M-104.49609375 -96 C-29.658188331964354 -96, 45.17971708607129 -96, 104.49609375 -96 M104.49609375 -96 C104.49609375 -49.36461935810671, 104.49609375 -2.729238716213416, 104.49609375 96 M104.49609375 -96 C104.49609375 -29.28908914580387, 104.49609375 37.42182170839226, 104.49609375 96 M104.49609375 96 C27.21870877343278 96, -50.05867620313444 96, -104.49609375 96 M104.49609375 96 C60.185929880125734 96, 15.875766010251468 96, -104.49609375 96 M-104.49609375 96 C-104.49609375 32.902459307665694, -104.49609375 -30.19508138466861, -104.49609375 -96 M-104.49609375 96 C-104.49609375 27.556333972847483, -104.49609375 -40.887332054305034, -104.49609375 -96" stroke="#9370DB" stroke-width="1.3" fill="none" stroke-dasharray="0 0" style=""/></g><g class="annotation-group text" transform="translate(0, -72)"/><g class="label-group text" transform="translate(-36.0234375, -72)"><g class="label" style="font-weight: bolder" transform="translate(0,-12)"><foreignObject width="72.046875" height="24"><div xmlns="http://www.w3.org/1999/xhtml" style="display: table-cell; white-space: nowrap; line-height: 1.5; max-width: 114px; text-align: center;"><span class="nodeLabel markdown-node-label" style=""><p>Rectangle</p></span></div></foreignObject></g></g><g class="members-group text" transform="translate(-92.49609375, -24)"><g class="label" style="" transform="translate(0,-12)"><foreignObject width="95.171875" height="24"><div xmlns="http://www.w3.org/1999/xhtml" style="display: table-cell; white-space: nowrap; line-height: 1.5; max-width: 144px; text-align: center;"><span class="nodeLabel markdown-node-label" style=""><p>-double width</p></span></div></foreignObject></g><g class="label" style="" transform="translate(0,12)"><foreignObject width="101.421875" height="24"><div xmlns="http://www.w3.org/1999/xhtml" style="display: table-cell; white-space: nowrap; line-height: 1.5; max-width: 148px; text-align: center;"><span class="nodeLabel markdown-node-label" style=""><p>-double height</p></span></div></foreignObject></g></g><g class="methods-group text" transform="translate(-92.49609375, 48)"><g class="label" style="" transform="translate(0,-12)"><foreignObject width="113.40625" height="24"><div xmlns="http://www.w3.org/1999/xhtml" style="display: table-cell; white-space: nowrap; line-height: 1.5; max-width: 157px; text-align: center;"><span class="nodeLabel markdown-node-label" style=""><p>+area() : double</p></span></div></foreignObject></g><g class="label" style="" transform="translate(0,12)"><foreignObject width="148.96875" height="24"><div xmlns="http://www.w3.org/1999/xhtml" style="display: table-cell; white-space: nowrap; line-height: 1.5; max-width: 191px; text-align: center;"><span class="nodeLabel markdown-node-label" style=""><p>+perimeter() : double</p></span></div></foreignObject></g></g><g class="divider" style=""><path d="M-104.49609375 -48 C-32.89291372956514 -48, 38.710266290869725 -48, 104.49609375 -48 M-104.49609375 -48 C-38.34467914176062 -48, 27.806735466478756 -48, 104.49609375 -48" stroke="#9370DB" stroke-width="1.3" fill="none" stroke-dasharray="0 0" style=""/></g><g class="divider" style=""><path d="M-104.49609375 24 C-22.33301511135366 24, 59.83006352729268 24, 104.49609375 24 M-104.49609375 24 C-35.9330506072435 24, 32.629992535513 24, 104.49609375 24" stroke="#9370DB" stroke-width="1.3" fill="none" stroke-dasharray="0 0" style=""/></g></g><g class="node default" id="classId-Square-3" transform="translate(355.91015625, 537)"><g class="basic label-container"><path d="M-101.6171875 -63 L101.6171875 -63 L101.6171875 63 L-101.6171875 63" stroke="none" stroke-width="0" fill="#ECECFF" style=""/><path d="M-101.6171875 -63 C-52.79196736318942 -63, -3.9667472263788426 -63, 101.6171875 -63 M-101.6171875 -63 C-58.80508881950235 -63, -15.992990139004704 -63, 101.6171875 -63 M101.6171875 -63 C101.6171875 -37.472942178047774, 101.6171875 -11.94588435609554, 101.6171875 63 M101.6171875 -63 C101.6171875 -25.117663091635094, 101.6171875 12.764673816729811, 101.6171875 63 M101.6171875 63 C49.74721248809639 63, -2.122762523807225 63, -101.6171875 63 M101.6171875 63 C51.76277297115092 63, 1.9083584423018465 63, -101.6171875 63 M-101.6171875 63 C-101.6171875 21.012275715537854, -101.6171875 -20.975448568924293, -101.6171875 -63 M-101.6171875 63 C-101.6171875 27.967884907092433, -101.6171875 -7.064230185815134, -101.6171875 -63" stroke="#9370DB" stroke-width="1.3" fill="none" stroke-dasharray="0 0" style=""/></g><g class="annotation-group text" transform="translate(0, -39)"/><g class="label-group text" transform="translate(-25.796875, -39)"><g class="label" style="font-weight: bolder" transform="translate(0,-12)"><foreignObject width="51.59375" height="24"><div xmlns="http://www.w3.org/1999/xhtml" style="display: table-cell; white-space: nowrap; line-height: 1.5; max-width: 94px; text-align: center;"><span class="nodeLabel markdown-node-label" style=""><p>Square</p></span></div></foreignObject></g></g><g class="members-group text" transform="translate(-89.6171875, 9)"/><g class="methods-group text" transform="translate(-89.6171875, 39)"><g class="label" style="" transform="translate(0,-12)"><foreignObject width="153.4375" height="24"><div xmlns="http://www.w3.org/1999/xhtml" style="display: table-cell; white-space: nowrap; line-height: 1.5; max-width: 192px; text-align: center;"><span class="nodeLabel markdown-node-label" style=""><p>+Square(double side)</p></span></div></foreignObject></g></g><g class="divider" style=""><path d="M-101.6171875 -15 C-59.73302958482227 -15, -17.848871669644538 -15, 101.6171875 -15 M-101.6171875 -15 C-57.35956129029219 -15, -13.101935080584383 -15, 101.6171875 -15" stroke="#9370DB" stroke-width="1.3" fill="none" stroke-dasharray="0 0" style=""/></g><g class="divider" style=""><path d="M-101.6171875 9 C-31.554840614702712 9, 38.507506270594575 9, 101.6171875 9 M-101.6171875 9 C-45.566642234942115 9, 10.48390303011577 9, 101.6171875 9" stroke="#9370DB" stroke-width="1.3" fill="none" stroke-dasharray="0 0" style=""/></g></g></g></g></g></svg>