<svg id="my-svg" width="100%" xmlns="http://www.w3.org/2000/svg" xmlns:xlink="http://www.w3.org/1999/xlink" class="classDiagram" style="max-width: 160.062px; background-color: white;" viewBox="0 0 160.0625 318" role="graphics-document document" aria-roledescription="class"><style>#my-svg{font-family:"trebuchet ms",verdana,arial,sans-serif;font-size:16px;fill:#333;}@keyframes edge-animation-frame{from{stroke-dashoffset:0;}}@keyframes dash{to{stroke-dashoffset:0;}}#my-svg .edge-animation-slow{stroke-dasharray:9,5!important;stroke-dashoffset:900;animation:dash 50s linear infinite;stroke-linecap:round;}#my-svg .edge-animation-fast{stroke-dasharray:9,5!important;stroke-dashoffset:900;animation:dash 20s linear infinite;stroke-linecap:round;}#my-svg .error-icon{fill:#552222;}#my-svg .error-text{fill:#552222;stroke:#552222;}#my-svg .edge-thickness-normal{stroke-width:1px;}#my-svg .edge-thickness-thick{stroke-width:3.5px;}#my-svg .edge-pattern-solid{stroke-dasharray:0;}#my-svg .edge-thickness-invisible{stroke-width:0;fill:none;}#my-svg .edge-pattern-dashed{stroke-dasharray:3;}#my-svg .edge-pattern-dotted{stroke-dasharray:2;}#my-svg .marker{fill:#333333;stroke:#333333;}#my-svg .marker.cross{stroke:#333333;}#my-svg svg{font-family:"trebuchet ms",verdana,arial,sans-serif;font-size:16px;}#my-svg p{margin:0;}#my-svg g.classGroup text{fill:#9370DB;stroke:none;font-family:"trebuchet ms",verdana,arial,sans-serif;font-size:10px;}#my-svg g.classGroup text .title{font-weight:bolder;}#my-svg .nodeLabel,#my-svg .edgeLabel{color:#131300;}#my-svg .edgeLabel .label rect{fill:#ECECFF;}#my-svg .label text{fill:#131300;}#my-svg .labelBkg{background:#ECECFF;}#my-svg .edgeLabel .label span{background:#ECECFF;}#my-svg .classTitle{font-weight:bolder;}#my-svg .node rect,#my-svg .node circle,#my-svg .node ellipse,#my-svg .node polygon,#my-svg .node path{fill:#ECECFF;stroke:#9370DB;stroke-width:1px;}#my-svg .divider{stroke:#9370DB;stroke-width:1;}#my-svg g.clickable{cursor:pointer;}#my-svg g.classGroup rect{fill:#ECECFF;stroke:#9370DB;}#my-svg g.classGroup line{stroke:#9370DB;stroke-width:1;}#my-svg .classLabel .box{stroke:none;stroke-width:0;fill:#ECECFF;opacity:0.5;}#my-svg .classLabel .label{fill:#9370DB;font-size:10px;}#my-svg .relation{stroke:#333333;stroke-width:1;fill:none;}#my-svg .dashed-line{stroke-dasharray:3;}#my-svg .dotted-line{stroke-dasharray:1 2;}#my-svg #compositionStart,#my-svg .composition{fill:#333333!important;stroke:#333333!important;stroke-width:1;}#my-svg #compositionEnd,#my-svg .composition{fill:#333333!important;stroke:#333333!important;stroke-width:1;}#my-svg #dependencyStart,#my-svg .dependency{fill:#333333!important;stroke:#333333!important;stroke-width:1;}#my-svg #dependencyStart,#my-svg .dependency{fill:#333333!important;stroke:#333333!important;stroke-width:1;}#my-svg #extensionStart,#my-svg .extension{fill:transparent!important;stroke:#333333!important;stroke-width:1;}#my-svg #extensionEnd,#my-svg .extension{fill:transparent!important;stroke:#333333!important;stroke-width:1;}#my-svg #aggregationStart,#my-svg .aggregation{fill:transparent!important;stroke:#333333!important;stroke-width:1;}#my-svg #aggregationEnd,#my-svg .aggregation{fill:transparent!important;stroke:#333333!important;stroke-width:1;}#my-svg #lollipopStart,#my-svg .lollipop{fill:#ECECFF!important;stroke:#333333!important;stroke-width:1;}#my-svg #lollipopEnd,#my-svg .lollipop{fill:#ECECFF!important;stroke:#333333!important;stroke-width:1;}#my-svg .edgeTerminals{font-size:11px;line-height:initial;}#my-svg .classTitleText{text-anchor:middle;font-size:18px;fill:#333;}#my-svg .label-icon{display:inline-block;height:1em;overflow:visible;vertical-align:-0.125em;}#my-svg .node .label-icon path{fill:currentColor;stroke:revert;stroke-width:revert;}#my-svg :root{--mermaid-font-family:"trebuchet ms",verdana,arial,sans-serif;}</style><g><defs><marker id="my-svg_class-aggregationStart" class="marker aggregation class" refX="18" refY="7" markerWidth="190" markerHeight="240" orient="auto"><path d="M 18,7 L9,13 L1,7 L9,1 Z"/></marker></defs><defs><marker id="my-svg_class-aggregationEnd" class="marker aggregation class" refX="1" refY="7" markerWidth="20" markerHeight="28" orient="auto"><path d="M 18,7 L9,13 L1,7 L9,1 Z"/></marker></defs><defs><marker id="my-svg_class-extensionStart" class="marker extension class" refX="18" refY="7" markerWidth="190" markerHeight="240" orient="auto"><path d="M 1,7 L18,13 V 1 Z"/></marker></defs><defs><marker id="my-svg_class-extensionEnd" class="marker extension class" refX="1" refY="7" markerWidth="20" markerHeight="28" orient="auto"><path d="M 1,1 V 13 L18,7 Z"/></marker></defs><defs><marker id="my-svg_class-compositionStart" class="marker composition class" refX="18" refY="7" markerWidth="190" markerHeight="240" orient="auto"><path d="M 18,7 L9,13 L1,7 L9,1 Z"/></marker></defs><defs><marker id="my-svg_class-compositionEnd" class="marker composition class" refX="1" refY="7" markerWidth="20" markerHeight="28" orient="auto"><path d="M 18,7 L9,13 L1,7 L9,1 Z"/></marker></defs><defs><marker id="my-svg_class-dependencyStart" class="marker dependency class" refX="6" refY="7" markerWidth="190" markerHeight="240" orient="auto"><path d="M 5,7 L9,13 L1,7 L9,1 Z"/></marker></defs><defs><marker id="my-svg_class-dependencyEnd" class="marker dependency class" refX="13" refY="7" markerWidth="20" markerHeight="28" orient="auto"><path d="M 18,7 L9,13 L14,7 L9,1 Z"/></marker></defs><defs><marker id="my-svg_class-lollipopStart" class="marker lollipop class" refX="13" refY="7" markerWidth="190" markerHeight="240" orient="auto"><circle stroke="black" fill="transparent" cx="7" cy="7" r="6"/></marker></defs><defs><marker id="my-svg_class-lollipopEnd" class="marker lollipop class" refX="1" refY="7" markerWidth="190" markerHeight="240" orient="auto"><circle stroke="black" fill="transparent" cx="7" cy="7" r="6"/></marker></defs><g class="root"><g class="clusters"/><g class="edgePaths"><path d="M80.031,169.25L80.031,172.542C80.031,175.833,80.031,182.417,80.031,191.875C80.031,201.333,80.031,213.667,80.031,219.833L80.031,226" id="id_Animal_Dog_1" class="edge-thickness-normal edge-pattern-solid relation" style=";;;" data-edge="true" data-et="edge" data-id="id_Animal_Dog_1" data-points="W3sieCI6ODAuMDMxMjUsInkiOjE1Mn0seyJ4Ijo4MC4wMzEyNSwieSI6MTg5fSx7IngiOjgwLjAzMTI1LCJ5IjoyMjZ9XQ==" marker-start="url(#my-svg_class-extensionStart)"/></g><g class="edgeLabels"><g class="edgeLabel" transform="translate(80.03125, 189)"><g class="label" data-id="id_Animal_Dog_1" transform="translate(-25.7890625, -12)"><foreignObject width="51.578125" height="24"><div xmlns="http://www.w3.org/1999/xhtml" class="labelBkg" style="display: table-cell; white-space: nowrap; line-height: 1.5; max-width: 200px; text-align: center;"><span class="edgeLabel"><p>inherits</p></span></div></foreignObject></g></g></g><g class="nodes"><g class="node default" id="classId-Animal-0" transform="translate(80.03125, 80)"><g class="basic label-container"><path d="M-72.03125 -72 L72.03125 -72 L72.03125 72 L-72.03125 72" stroke="none" stroke-width="0" fill="#ECECFF" style=""/><path d="M-72.03125 -72 C-22.223568107530717 -72, 27.584113784938566 -72, 72.03125 -72 M-72.03125 -72 C-24.0640592879477 -72, 23.9031314241046 -72, 72.03125 -72 M72.03125 -72 C72.03125 -32.272857687063535, 72.03125 7.45428462587293, 72.03125 72 M72.03125 -72 C72.03125 -27.934928198222423, 72.03125 16.130143603555155, 72.03125 72 M72.03125 72 C20.96735914487899 72, -30.09653171024202 72, -72.03125 72 M72.03125 72 C30.353670887226443 72, -11.323908225547115 72, -72.03125 72 M-72.03125 72 C-72.03125 36.242883229847166, -72.03125 0.4857664596943323, -72.03125 -72 M-72.03125 72 C-72.03125 28.20557231534619, -72.03125 -15.588855369307623, -72.03125 -72" stroke="#9370DB" stroke-width="1.3" fill="none" stroke-dasharray="0 0" style=""/></g><g class="annotation-group text" transform="translate(0, -48)"/><g class="label-group text" transform="translate(-24.453125, -48)"><g class="label" style="font-weight: bolder" transform="translate(0,-12)"><foreignObject width="48.90625" height="24"><div xmlns="http://www.w3.org/1999/xhtml" style="display: table-cell; white-space: nowrap; line-height: 1.5; max-width: 99px; text-align: center;"><span class="nodeLabel markdown-node-label" style=""><p>Animal</p></span></div></foreignObject></g></g><g class="members-group text" transform="translate(-60.03125, 0)"><g class="label" style="" transform="translate(0,-12)"><foreignObject width="95.609375" height="24"><div xmlns="http://www.w3.org/1999/xhtml" style="display: table-cell; white-space: nowrap; line-height: 1.5; max-width: 141px; text-align: center;"><span class="nodeLabel markdown-node-label" style=""><p>+String name</p></span></div></foreignObject></g></g><g class="methods-group text" transform="translate(-60.03125, 48)"><g class="label" style="" transform="translate(0,-12)"><foreignObject width="42.25" height="24"><div xmlns="http://www.w3.org/1999/xhtml" style="display: table-cell; white-space: nowrap; line-height: 1.5; max-width: 93px; text-align: center;"><span class="nodeLabel markdown-node-label" style=""><p>+eat()</p></span></div></foreignObject></g></g><g class="divider" style=""><path d="M-72.03125 -24 C-38.58837958848764 -24, -5.145509176975281 -24, 72.03125 -24 M-72.03125 -24 C-35.989253393929296 -24, 0.05274321214140798 -24, 72.03125 -24" stroke="#9370DB" stroke-width="1.3" fill="none" stroke-dasharray="0 0" style=""/></g><g class="divider" style=""><path d="M-72.03125 24 C-22.198888484540383 24, 27.633473030919234 24, 72.03125 24 M-72.03125 24 C-17.08189542025127 24, 37.86745915949746 24, 72.03125 24" stroke="#9370DB" stroke-width="1.3" fill="none" stroke-dasharray="0 0" style=""/></g></g><g class="node default" id="classId-Dog-1" transform="translate(80.03125, 268)"><g class="basic label-container"><path d="M-26.6796875 -42 L26.6796875 -42 L26.6796875 42 L-26.6796875 42" stroke="none" stroke-width="0" fill="#ECECFF" style=""/><path d="M-26.6796875 -42 C-6.248992663953338 -42, 14.181702172093324 -42, 26.6796875 -42 M-26.6796875 -42 C-8.783596555590627 -42, 9.112494388818746 -42, 26.6796875 -42 M26.6796875 -42 C26.6796875 -12.827133002143611, 26.6796875 16.345733995712777, 26.6796875 42 M26.6796875 -42 C26.6796875 -14.892112873822118, 26.6796875 12.215774252355764, 26.6796875 42 M26.6796875 42 C14.869756772042548 42, 3.0598260440850957 42, -26.6796875 42 M26.6796875 42 C6.8242545511883925 42, -13.031178397623215 42, -26.6796875 42 M-26.6796875 42 C-26.6796875 15.131325187773154, -26.6796875 -11.737349624453692, -26.6796875 -42 M-26.6796875 42 C-26.6796875 20.857785436156405, -26.6796875 -0.28442912768719, -26.6796875 -42" stroke="#9370DB" stroke-width="1.3" fill="none" stroke-dasharray="0 0" style=""/></g><g class="annotation-group text" transform="translate(0, -18)"/><g class="label-group text" transform="translate(-14.6796875, -18)"><g class="label" style="font-weight: bolder" transform="translate(0,-12)"><foreignObject width="29.359375" height="24"><div xmlns="http://www.w3.org/1999/xhtml" style="display: table-cell; white-space: nowrap; line-height: 1.5; max-width: 78px; text-align: center;"><span class="nodeLabel markdown-node-label" style=""><p>Dog</p></span></div></foreignObject></g></g><g class="members-group text" transform="translate(-14.6796875, 30)"/><g class="methods-group text" transform="translate(-14.6796875, 60)"/><g class="divider" style=""><path d="M-26.6796875 6 C-6.5327451067566145 6, 13.614197286486771 6, 26.6796875 6 M-26.6796875 6 C-10.385364840711432 6, 5.908957818577136 6, 26.6796875 6" stroke="#9370DB" stroke-width="1.3" fill="none" stroke-dasharray="0 0" style=""/></g><g class="divider" style=""><path d="M-26.6796875 24 C-15.780803384036586 24, -4.8819192680731724 24, 26.6796875 24 M-26.6796875 24 C-6.426906758099008 24, 13.825873983801984 24, 26.6796875 24" stroke="#9370DB" stroke-width="1.3" fill="none" stroke-dasharray="0 0" style=""/></g></g></g></g></g></svg>