<svg id="my-svg" width="100%" xmlns="http://www.w3.org/2000/svg" xmlns:xlink="http://www.w3.org/1999/xlink" class="erDiagram" style="max-width: 180.734px; background-color: white;" viewBox="0 0 180.734375 373.5" role="graphics-document document" aria-roledescription="er"><style>#my-svg{font-family:"trebuchet ms",verdana,arial,sans-serif;font-size:16px;fill:#333;}@keyframes edge-animation-frame{from{stroke-dashoffset:0;}}@keyframes dash{to{stroke-dashoffset:0;}}#my-svg .edge-animation-slow{stroke-dasharray:9,5!important;stroke-dashoffset:900;animation:dash 50s linear infinite;stroke-linecap:round;}#my-svg .edge-animation-fast{stroke-dasharray:9,5!important;stroke-dashoffset:900;animation:dash 20s linear infinite;stroke-linecap:round;}#my-svg .error-icon{fill:#552222;}#my-svg .error-text{fill:#552222;stroke:#552222;}#my-svg .edge-thickness-normal{stroke-width:1px;}#my-svg .edge-thickness-thick{stroke-width:3.5px;}#my-svg .edge-pattern-solid{stroke-dasharray:0;}#my-svg .edge-thickness-invisible{stroke-width:0;fill:none;}#my-svg .edge-pattern-dashed{stroke-dasharray:3;}#my-svg .edge-pattern-dotted{stroke-dasharray:2;}#my-svg .marker{fill:#333333;stroke:#333333;}#my-svg .marker.cross{stroke:#333333;}#my-svg svg{font-family:"trebuchet ms",verdana,arial,sans-serif;font-size:16px;}#my-svg p{margin:0;}#my-svg .entityBox{fill:#ECECFF;stroke:#9370DB;}#my-svg .relationshipLabelBox{fill:hsl(80, 100%, 96.2745098039%);opacity:0.7;background-color:hsl(80, 100%, 96.2745098039%);}#my-svg .relationshipLabelBox rect{opacity:0.5;}#my-svg .labelBkg{background-color:rgba(248.6666666666, 255, 235.9999999999, 0.5);}#my-svg .edgeLabel .label{fill:#9370DB;font-size:14px;}#my-svg .label{font-family:"trebuchet ms",verdana,arial,sans-serif;color:#333;}#my-svg .edge-pattern-dashed{stroke-dasharray:8,8;}#my-svg .node rect,#my-svg .node circle,#my-svg .node ellipse,#my-svg .node polygon{fill:#ECECFF;stroke:#9370DB;stroke-width:1px;}#my-svg .relationshipLine{stroke:#333333;stroke-width:1;fill:none;}#my-svg .marker{fill:none!important;stroke:#333333!important;stroke-width:1;}#my-svg :root{--mermaid-font-family:"trebuchet ms",verdana,arial,sans-serif;}</style><g><defs><marker id="my-svg_er-onlyOneStart" class="marker onlyOne er" refX="0" refY="9" markerWidth="18" markerHeight="18" orient="auto"><path d="M9,0 L9,18 M15,0 L15,18"/></marker></defs><defs><marker id="my-svg_er-onlyOneEnd" class="marker onlyOne er" refX="18" refY="9" markerWidth="18" markerHeight="18" orient="auto"><path d="M3,0 L3,18 M9,0 L9,18"/></marker></defs><defs><marker id="my-svg_er-zeroOrOneStart" class="marker zeroOrOne er" refX="0" refY="9" markerWidth="30" markerHeight="18" orient="auto"><circle fill="white" cx="21" cy="9" r="6"/><path d="M9,0 L9,18"/></marker></defs><defs><marker id="my-svg_er-zeroOrOneEnd" class="marker zeroOrOne er" refX="30" refY="9" markerWidth="30" markerHeight="18" orient="auto"><circle fill="white" cx="9" cy="9" r="6"/><path d="M21,0 L21,18"/></marker></defs><defs><marker id="my-svg_er-oneOrMoreStart" class="marker oneOrMore er" refX="18" refY="18" markerWidth="45" markerHeight="36" orient="auto"><path d="M0,18 Q 18,0 36,18 Q 18,36 0,18 M42,9 L42,27"/></marker></defs><defs><marker id="my-svg_er-oneOrMoreEnd" class="marker oneOrMore er" refX="27" refY="18" markerWidth="45" markerHeight="36" orient="auto"><path d="M3,9 L3,27 M9,18 Q27,0 45,18 Q27,36 9,18"/></marker></defs><defs><marker id="my-svg_er-zeroOrMoreStart" class="marker zeroOrMore er" refX="18" refY="18" markerWidth="57" markerHeight="36" orient="auto"><circle fill="white" cx="48" cy="18" r="6"/><path d="M0,18 Q18,0 36,18 Q18,36 0,18"/></marker></defs><defs><marker id="my-svg_er-zeroOrMoreEnd" class="marker zeroOrMore er" refX="39" refY="18" markerWidth="57" markerHeight="36" orient="auto"><circle fill="white" cx="9" cy="18" r="6"/><path d="M21,18 Q39,0 57,18 Q39,36 21,18"/></marker></defs><g class="root"><g class="clusters"/><g class="edgePaths"><path d="M90.367,136.25L90.367,144.667C90.367,153.083,90.367,169.917,90.367,186.75C90.367,203.583,90.367,220.417,90.367,228.833L90.367,237.25" id="id_entity-CUSTOMER-0_entity-ORDER-1_0" class="edge-thickness-normal edge-pattern-solid relationshipLine" style="undefined;;;undefined" data-edge="true" data-et="edge" data-id="id_entity-CUSTOMER-0_entity-ORDER-1_0" data-points="W3sieCI6OTAuMzY3MTg3NSwieSI6MTM2LjI1fSx7IngiOjkwLjM2NzE4NzUsInkiOjE4Ni43NX0seyJ4Ijo5MC4zNjcxODc1LCJ5IjoyMzcuMjV9XQ==" marker-start="url(#my-svg_er-onlyOneStart)" marker-end="url(#my-svg_er-zeroOrMoreEnd)"/></g><g class="edgeLabels"><g class="edgeLabel" transform="translate(90.3671875, 186.75)"><g class="label" data-id="id_entity-CUSTOMER-0_entity-ORDER-1_0" transform="translate(-20.234375, -10.5)"><foreignObject width="40.46875" height="21"><div xmlns="http://www.w3.org/1999/xhtml" class="labelBkg" style="display: table-cell; white-space: nowrap; line-height: 1.5; max-width: 200px; text-align: center;"><span class="edgeLabel"><p>places</p></span></div></foreignObject></g></g></g><g class="nodes"><g class="node default" id="entity-CUSTOMER-0" transform="translate(90.3671875, 72.125)"><g style=""><path d="M-70.6328125 -64.125 L70.6328125 -64.125 L70.6328125 64.125 L-70.6328125 64.125" stroke="none" stroke-width="0" fill="#ECECFF"/><path d="M-70.6328125 -64.125 C-36.92091301866213 -64.125, -3.209013537324253 -64.125, 70.6328125 -64.125 M-70.6328125 -64.125 C-41.75878860170022 -64.125, -12.884764703400428 -64.125, 70.6328125 -64.125 M70.6328125 -64.125 C70.6328125 -16.351918657924394, 70.6328125 31.421162684151213, 70.6328125 64.125 M70.6328125 -64.125 C70.6328125 -14.798812758309467, 70.6328125 34.52737448338107, 70.6328125 64.125 M70.6328125 64.125 C14.350435463158888 64.125, -41.931941573682224 64.125, -70.6328125 64.125 M70.6328125 64.125 C24.85298522835412 64.125, -20.926842043291757 64.125, -70.6328125 64.125 M-70.6328125 64.125 C-70.6328125 30.0825190558977, -70.6328125 -3.959961888204603, -70.6328125 -64.125 M-70.6328125 64.125 C-70.6328125 29.36766851955789, -70.6328125 -5.389662960884223, -70.6328125 -64.125" stroke="#9370DB" stroke-width="1.3" fill="none" stroke-dasharray="0 0"/></g><g style="" class="row-rect-odd"><path d="M-70.6328125 -21.375 L70.6328125 -21.375 L70.6328125 21.375 L-70.6328125 21.375" stroke="none" stroke-width="0" fill="hsl(240, 100%, 100%)"/><path d="M-70.6328125 -21.375 C-33.27176307172398 -21.375, 4.089286356552037 -21.375, 70.6328125 -21.375 M-70.6328125 -21.375 C-21.759021747528713 -21.375, 27.114769004942573 -21.375, 70.6328125 -21.375 M70.6328125 -21.375 C70.6328125 -5.251322814778778, 70.6328125 10.872354370442444, 70.6328125 21.375 M70.6328125 -21.375 C70.6328125 -5.4544313547666565, 70.6328125 10.466137290466687, 70.6328125 21.375 M70.6328125 21.375 C42.10420402705534 21.375, 13.575595554110677 21.375, -70.6328125 21.375 M70.6328125 21.375 C24.97390172823188 21.375, -20.68500904353624 21.375, -70.6328125 21.375 M-70.6328125 21.375 C-70.6328125 11.057314334420575, -70.6328125 0.7396286688411493, -70.6328125 -21.375 M-70.6328125 21.375 C-70.6328125 4.368663787925897, -70.6328125 -12.637672424148207, -70.6328125 -21.375" stroke="#9370DB" stroke-width="1.3" fill="none" stroke-dasharray="0 0"/></g><g style="" class="row-rect-even"><path d="M-70.6328125 21.375 L70.6328125 21.375 L70.6328125 64.125 L-70.6328125 64.125" stroke="none" stroke-width="0" fill="hsl(240, 100%, 97.2745098039%)"/><path d="M-70.6328125 21.375 C-33.21950640426146 21.375, 4.193799691477082 21.375, 70.6328125 21.375 M-70.6328125 21.375 C-32.81085571355228 21.375, 5.011101072895443 21.375, 70.6328125 21.375 M70.6328125 21.375 C70.6328125 36.53509316082386, 70.6328125 51.695186321647725, 70.6328125 64.125 M70.6328125 21.375 C70.6328125 32.582568326507825, 70.6328125 43.79013665301565, 70.6328125 64.125 M70.6328125 64.125 C14.363637946684598 64.125, -41.905536606630804 64.125, -70.6328125 64.125 M70.6328125 64.125 C26.45191535150935 64.125, -17.7289817969813 64.125, -70.6328125 64.125 M-70.6328125 64.125 C-70.6328125 47.20249841525196, -70.6328125 30.27999683050392, -70.6328125 21.375 M-70.6328125 64.125 C-70.6328125 52.84941022195093, -70.6328125 41.573820443901866, -70.6328125 21.375" stroke="#9370DB" stroke-width="1.3" fill="none" stroke-dasharray="0 0"/></g><g class="label name" transform="translate(-45.6328125, -54.75)" style=""><foreignObject width="91.265625" height="24"><div xmlns="http://www.w3.org/1999/xhtml" style="display: table-cell; white-space: nowrap; line-height: 1.5; max-width: 187px; text-align: start;"><span class="nodeLabel"><p>CUSTOMER</p></span></div></foreignObject></g><g class="label attribute-type" transform="translate(-58.1328125, -12)" style=""><foreignObject width="39.125" height="24"><div xmlns="http://www.w3.org/1999/xhtml" style="display: table-cell; white-space: nowrap; line-height: 1.5; max-width: 136px; text-align: start;"><span class="nodeLabel"><p>string</p></span></div></foreignObject></g><g class="label attribute-name" transform="translate(12.046875, -12)" style=""><foreignObject width="12.453125" height="24"><div xmlns="http://www.w3.org/1999/xhtml" style="display: table-cell; white-space: nowrap; line-height: 1.5; max-width: 112px; text-align: start;"><span class="nodeLabel"><p>id</p></span></div></foreignObject></g><g class="label attribute-keys" transform="translate(83.1328125, -12)" style=""><foreignObject width="0" height="0"><div xmlns="http://www.w3.org/1999/xhtml" style="display: table-cell; white-space: nowrap; line-height: 1.5; max-width: 100px; text-align: start;"><span class="nodeLabel"></span></div></foreignObject></g><g class="label attribute-comment" transform="translate(83.1328125, -12)" style=""><foreignObject width="0" height="0"><div xmlns="http://www.w3.org/1999/xhtml" style="display: table-cell; white-space: nowrap; line-height: 1.5; max-width: 100px; text-align: start;"><span class="nodeLabel"></span></div></foreignObject></g><g class="label attribute-type" transform="translate(-58.1328125, 30.75)" style=""><foreignObject width="39.125" height="24"><div xmlns="http://www.w3.org/1999/xhtml" style="display: table-cell; white-space: nowrap; line-height: 1.5; max-width: 136px; text-align: start;"><span class="nodeLabel"><p>string</p></span></div></foreignObject></g><g class="label attribute-name" transform="translate(12.046875, 30.75)" style=""><foreignObject width="40.03125" height="24"><div xmlns="http://www.w3.org/1999/xhtml" style="display: table-cell; white-space: nowrap; line-height: 1.5; max-width: 135px; text-align: start;"><span class="nodeLabel"><p>name</p></span></div></foreignObject></g><g class="label attribute-keys" transform="translate(83.1328125, 30.75)" style=""><foreignObject width="0" height="0"><div xmlns="http://www.w3.org/1999/xhtml" style="display: table-cell; white-space: nowrap; line-height: 1.5; max-width: 100px; text-align: start;"><span class="nodeLabel"></span></div></foreignObject></g><g class="label attribute-comment" transform="translate(83.1328125, 30.75)" style=""><foreignObject width="0" height="0"><div xmlns="http://www.w3.org/1999/xhtml" style="display: table-cell; white-space: nowrap; line-height: 1.5; max-width: 100px; text-align: start;"><span class="nodeLabel"></span></div></foreignObject></g><g class="divider"><path d="M-70.6328125 -21.375 C-35.46990563937517 -21.375, -0.30699877875034076 -21.375, 70.6328125 -21.375 M-70.6328125 -21.375 C-32.574350142213014 -21.375, 5.4841122155739725 -21.375, 70.6328125 -21.375" stroke="#9370DB" stroke-width="1.3" fill="none" stroke-dasharray="0 0"/></g><g class="divider"><path d="M-0.453125 -21.375 C-0.453125 9.767712486000317, -0.453125 40.910424972000634, -0.453125 64.125 M-0.453125 -21.375 C-0.453125 10.55711128813931, -0.453125 42.48922257627862, -0.453125 64.125" stroke="#9370DB" stroke-width="1.3" fill="none" stroke-dasharray="0 0"/></g><g class="divider"><path d="M-70.6328125 -21.375 C-27.649658899467568 -21.375, 15.333494701064865 -21.375, 70.6328125 -21.375 M-70.6328125 -21.375 C-42.22266966513215 -21.375, -13.812526830264304 -21.375, 70.6328125 -21.375" stroke="#9370DB" stroke-width="1.3" fill="none" stroke-dasharray="0 0"/></g></g><g class="node default" id="entity-ORDER-1" transform="translate(90.3671875, 301.375)"><g style=""><path d="M-82.3671875 -64.125 L82.3671875 -64.125 L82.3671875 64.125 L-82.3671875 64.125" stroke="none" stroke-width="0" fill="#ECECFF"/><path d="M-82.3671875 -64.125 C-24.481989377736497 -64.125, 33.40320874452701 -64.125, 82.3671875 -64.125 M-82.3671875 -64.125 C-28.116275936818525 -64.125, 26.13463562636295 -64.125, 82.3671875 -64.125 M82.3671875 -64.125 C82.3671875 -37.96021013460525, 82.3671875 -11.795420269210503, 82.3671875 64.125 M82.3671875 -64.125 C82.3671875 -17.983735276985186, 82.3671875 28.157529446029628, 82.3671875 64.125 M82.3671875 64.125 C24.38948866222764 64.125, -33.58821017554472 64.125, -82.3671875 64.125 M82.3671875 64.125 C38.04780542299511 64.125, -6.2715766540097775 64.125, -82.3671875 64.125 M-82.3671875 64.125 C-82.3671875 24.967322042346353, -82.3671875 -14.190355915307293, -82.3671875 -64.125 M-82.3671875 64.125 C-82.3671875 36.49116890426892, -82.3671875 8.857337808537835, -82.3671875 -64.125" stroke="#9370DB" stroke-width="1.3" fill="none" stroke-dasharray="0 0"/></g><g style="" class="row-rect-odd"><path d="M-82.3671875 -21.375 L82.3671875 -21.375 L82.3671875 21.375 L-82.3671875 21.375" stroke="none" stroke-width="0" fill="hsl(240, 100%, 100%)"/><path d="M-82.3671875 -21.375 C-45.21310817928741 -21.375, -8.05902885857482 -21.375, 82.3671875 -21.375 M-82.3671875 -21.375 C-38.69374092213926 -21.375, 4.9797056557214745 -21.375, 82.3671875 -21.375 M82.3671875 -21.375 C82.3671875 -12.581961537867063, 82.3671875 -3.7889230757341252, 82.3671875 21.375 M82.3671875 -21.375 C82.3671875 -7.526939335231075, 82.3671875 6.321121329537849, 82.3671875 21.375 M82.3671875 21.375 C39.79013253952495 21.375, -2.7869224209501056 21.375, -82.3671875 21.375 M82.3671875 21.375 C45.5601279048669 21.375, 8.753068309733806 21.375, -82.3671875 21.375 M-82.3671875 21.375 C-82.3671875 6.182842244489123, -82.3671875 -9.009315511021754, -82.3671875 -21.375 M-82.3671875 21.375 C-82.3671875 7.884542539500966, -82.3671875 -5.605914920998067, -82.3671875 -21.375" stroke="#9370DB" stroke-width="1.3" fill="none" stroke-dasharray="0 0"/></g><g style="" class="row-rect-even"><path d="M-82.3671875 21.375 L82.3671875 21.375 L82.3671875 64.125 L-82.3671875 64.125" stroke="none" stroke-width="0" fill="hsl(240, 100%, 97.2745098039%)"/><path d="M-82.3671875 21.375 C-43.44830973428015 21.375, -4.529431968560303 21.375, 82.3671875 21.375 M-82.3671875 21.375 C-22.976567095890665 21.375, 36.41405330821867 21.375, 82.3671875 21.375 M82.3671875 21.375 C82.3671875 30.414601089189695, 82.3671875 39.45420217837939, 82.3671875 64.125 M82.3671875 21.375 C82.3671875 30.29870643582249, 82.3671875 39.22241287164498, 82.3671875 64.125 M82.3671875 64.125 C22.375178707608995 64.125, -37.61683008478201 64.125, -82.3671875 64.125 M82.3671875 64.125 C20.51342864784837 64.125, -41.34033020430326 64.125, -82.3671875 64.125 M-82.3671875 64.125 C-82.3671875 52.20183323091024, -82.3671875 40.278666461820485, -82.3671875 21.375 M-82.3671875 64.125 C-82.3671875 52.532499735227404, -82.3671875 40.93999947045481, -82.3671875 21.375" stroke="#9370DB" stroke-width="1.3" fill="none" stroke-dasharray="0 0"/></g><g class="label name" transform="translate(-28.890625, -54.75)" style=""><foreignObject width="57.78125" height="24"><div xmlns="http://www.w3.org/1999/xhtml" style="display: table-cell; white-space: nowrap; line-height: 1.5; max-width: 155px; text-align: start;"><span class="nodeLabel"><p>ORDER</p></span></div></foreignObject></g><g class="label attribute-type" transform="translate(-69.8671875, -12)" style=""><foreignObject width="39.125" height="24"><div xmlns="http://www.w3.org/1999/xhtml" style="display: table-cell; white-space: nowrap; line-height: 1.5; max-width: 136px; text-align: start;"><span class="nodeLabel"><p>string</p></span></div></foreignObject></g><g class="label attribute-name" transform="translate(-5.7421875, -12)" style=""><foreignObject width="12.453125" height="24"><div xmlns="http://www.w3.org/1999/xhtml" style="display: table-cell; white-space: nowrap; line-height: 1.5; max-width: 112px; text-align: start;"><span class="nodeLabel"><p>id</p></span></div></foreignObject></g><g class="label attribute-keys" transform="translate(94.8671875, -12)" style=""><foreignObject width="0" height="0"><div xmlns="http://www.w3.org/1999/xhtml" style="display: table-cell; white-space: nowrap; line-height: 1.5; max-width: 100px; text-align: start;"><span class="nodeLabel"></span></div></foreignObject></g><g class="label attribute-comment" transform="translate(94.8671875, -12)" style=""><foreignObject width="0" height="0"><div xmlns="http://www.w3.org/1999/xhtml" style="display: table-cell; white-space: nowrap; line-height: 1.5; max-width: 100px; text-align: start;"><span class="nodeLabel"></span></div></foreignObject></g><g class="label attribute-type" transform="translate(-69.8671875, 30.75)" style=""><foreignObject width="31.140625" height="24"><div xmlns="http://www.w3.org/1999/xhtml" style="display: table-cell; white-space: nowrap; line-height: 1.5; max-width: 127px; text-align: start;"><span class="nodeLabel"><p>date</p></span></div></foreignObject></g><g class="label attribute-name" transform="translate(-5.7421875, 30.75)" style=""><foreignObject width="75.609375" height="24"><div xmlns="http://www.w3.org/1999/xhtml" style="display: table-cell; white-space: nowrap; line-height: 1.5; max-width: 176px; text-align: start;"><span class="nodeLabel"><p>created_at</p></span></div></foreignObject></g><g class="label attribute-keys" transform="translate(94.8671875, 30.75)" style=""><foreignObject width="0" height="0"><div xmlns="http://www.w3.org/1999/xhtml" style="display: table-cell; white-space: nowrap; line-height: 1.5; max-width: 100px; text-align: start;"><span class="nodeLabel"></span></div></foreignObject></g><g class="label attribute-comment" transform="translate(94.8671875, 30.75)" style=""><foreignObject width="0" height="0"><div xmlns="http://www.w3.org/1999/xhtml" style="display: table-cell; white-space: nowrap; line-height: 1.5; max-width: 100px; text-align: start;"><span class="nodeLabel"></span></div></foreignObject></g><g class="divider"><path d="M-82.3671875 -21.375 C-44.29108847385856 -21.375, -6.214989447717116 -21.375, 82.3671875 -21.375 M-82.3671875 -21.375 C-41.32244276894647 -21.375, -0.27769803789294656 -21.375, 82.3671875 -21.375" stroke="#9370DB" stroke-width="1.3" fill="none" stroke-dasharray="0 0"/></g><g class="divider"><path d="M-18.2421875 -21.375 C-18.2421875 -2.300842775679264, -18.2421875 16.77331444864147, -18.2421875 64.125 M-18.2421875 -21.375 C-18.2421875 7.245588056324504, -18.2421875 35.86617611264901, -18.2421875 64.125" stroke="#9370DB" stroke-width="1.3" fill="none" stroke-dasharray="0 0"/></g><g class="divider"><path d="M-82.3671875 -21.375 C-32.521986089438506 -21.375, 17.323215321122987 -21.375, 82.3671875 -21.375 M-82.3671875 -21.375 C-46.34110590572505 -21.375, -10.315024311450102 -21.375, 82.3671875 -21.375" stroke="#9370DB" stroke-width="1.3" fill="none" stroke-dasharray="0 0"/></g></g></g></g></g></svg>