<svg xmlns="http://www.w3.org/2000/svg" width="789.085" height="784.27496" viewBox="0 0 789.085 784.27496"><rect x="0" y="0" width="789.085" height="784.27496" fill="#FFFFFF"/><defs><marker id="arrow-0" viewBox="0 0 10 10" refX="5" refY="5" markerUnits="userSpaceOnUse" markerWidth="8" markerHeight="8" orient="auto"><path d="M 0 0 L 10 5 L 0 10 z" fill="#2F3B4D" stroke="#2F3B4D" stroke-width="1" stroke-dasharray="1,0"/></marker><marker id="arrow-start-0" viewBox="0 0 10 10" refX="4.5" refY="5" markerUnits="userSpaceOnUse" markerWidth="8" markerHeight="8" orient="auto"><path d="M 0 5 L 10 10 L 10 0 z" fill="#2F3B4D" stroke="#2F3B4D" stroke-width="1" stroke-dasharray="1,0"/></marker></defs><path id="edge-0" class="edgePath" data-edge-id="edge-0" d="M 542.852,227.425 L 535.174,276.625" fill="none" stroke="#2F3B4D" stroke-width="1"    stroke-linecap="round" stroke-linejoin="round" /><g transform="translate(542.85 227.42) rotate(98.87)"><path d="M 0 -6 L 0 6 M 5 -6 L 5 6" fill="none" stroke="#2F3B4D" stroke-width="1" stroke-linejoin="round" stroke-linecap="round"/></g><g transform="translate(535.17 276.62) rotate(98.87)"><g><circle cx="-4" cy="0" r="4" fill="none" stroke="#2F3B4D" stroke-width="1"/><path d="M 4 0 L 12 -6 M 4 0 L 12 6" fill="none" stroke="#2F3B4D" stroke-width="1" stroke-linejoin="round" stroke-linecap="round"/></g></g><rect data-edge-id="edge-0" data-label-kind="center" x="499.89" y="244.36" width="53.93" height="28.00" rx="2" ry="2" fill="rgba(248,250,252, 0.92)" fill-opacity="0.85" stroke="#7B88A8" stroke-opacity="0.35" stroke-width="0.8"/><g class="edgeLabel" data-edge-id="edge-0" data-label-kind="center"><text x="526.85" y="262.36" text-anchor="middle" font-family="trebuchet ms,verdana,arial,sans-serif" font-size="16" fill="#333333"><tspan x="526.85" dy="0.00">writes</tspan></text></g><path id="edge-1" class="edgePath" data-edge-id="edge-1" d="M 439.174,514.450 L 454.410,563.650" fill="none" stroke="#2F3B4D" stroke-width="1"    stroke-linecap="round" stroke-linejoin="round" /><g transform="translate(439.17 514.45) rotate(72.79)"><path d="M 0 -6 L 0 6 M 5 -6 L 5 6" fill="none" stroke="#2F3B4D" stroke-width="1" stroke-linejoin="round" stroke-linecap="round"/></g><g transform="translate(454.41 563.65) rotate(72.79)"><g><circle cx="-4" cy="0" r="4" fill="none" stroke="#2F3B4D" stroke-width="1"/><path d="M 4 0 L 12 -6 M 4 0 L 12 6" fill="none" stroke="#2F3B4D" stroke-width="1" stroke-linejoin="round" stroke-linecap="round"/></g></g><rect data-edge-id="edge-1" data-label-kind="center" x="418.48" y="520.94" width="30.97" height="28.00" rx="2" ry="2" fill="rgba(248,250,252, 0.92)" fill-opacity="0.85" stroke="#7B88A8" stroke-opacity="0.35" stroke-width="0.8"/><g class="edgeLabel" data-edge-id="edge-1" data-label-kind="center"><text x="433.96" y="538.94" text-anchor="middle" font-family="trebuchet ms,verdana,arial,sans-serif" font-size="16" fill="#333333"><tspan x="433.96" dy="0.00">has</tspan></text></g><path id="edge-2" class="edgePath" data-edge-id="edge-2" d="M 303.033,177.025 L 303.033,178.000 L 306.000,178.000 L 178.000,178.000 L 178.000,514.000 L 370.000,514.000 L 370.000,562.000 L 374.410,562.000 L 374.410,563.650" fill="none" stroke="#2F3B4D" stroke-width="1"    stroke-linecap="round" stroke-linejoin="round" /><g transform="translate(303.03 177.02) rotate(90.00)"><path d="M 0 -6 L 0 6 M 5 -6 L 5 6" fill="none" stroke="#2F3B4D" stroke-width="1" stroke-linejoin="round" stroke-linecap="round"/></g><g transform="translate(374.41 563.65) rotate(90.00)"><g><circle cx="-4" cy="0" r="4" fill="none" stroke="#2F3B4D" stroke-width="1"/><path d="M 4 0 L 12 -6 M 4 0 L 12 6" fill="none" stroke="#2F3B4D" stroke-width="1" stroke-linejoin="round" stroke-linecap="round"/></g></g><rect data-edge-id="edge-2" data-label-kind="center" x="241.69" y="511.04" width="76.90" height="28.00" rx="2" ry="2" fill="rgba(248,250,252, 0.92)" fill-opacity="0.85" stroke="#7B88A8" stroke-opacity="0.35" stroke-width="0.8"/><g class="edgeLabel" data-edge-id="edge-2" data-label-kind="center"><text x="280.13" y="529.04" text-anchor="middle" font-family="trebuchet ms,verdana,arial,sans-serif" font-size="16" fill="#333333"><tspan x="280.13" dy="0.00">&quot;used in&quot;</tspan></text></g><path id="edge-3" class="edgePath" data-edge-id="edge-3" d="M 599.174,514.450 L 642.860,563.650" fill="none" stroke="#2F3B4D" stroke-width="1"    stroke-linecap="round" stroke-linejoin="round" /><g transform="translate(599.17 514.45) rotate(48.40)"><path d="M 0 -6 L 0 6 M 5 -6 L 5 6" fill="none" stroke="#2F3B4D" stroke-width="1" stroke-linejoin="round" stroke-linecap="round"/></g><g transform="translate(642.86 563.65) rotate(48.40)"><g><circle cx="-4" cy="0" r="4" fill="none" stroke="#2F3B4D" stroke-width="1"/><path d="M 4 0 L 12 -6 M 4 0 L 12 6" fill="none" stroke="#2F3B4D" stroke-width="1" stroke-linejoin="round" stroke-linecap="round"/></g></g><rect data-edge-id="edge-3" data-label-kind="center" x="613.35" y="538.78" width="69.24" height="28.00" rx="2" ry="2" fill="rgba(248,250,252, 0.92)" fill-opacity="0.85" stroke="#7B88A8" stroke-opacity="0.35" stroke-width="0.8"/><g class="edgeLabel" data-edge-id="edge-3" data-label-kind="center"><text x="647.97" y="556.78" text-anchor="middle" font-family="trebuchet ms,verdana,arial,sans-serif" font-size="16" fill="#333333"><tspan x="647.97" dy="0.00">receives</tspan></text></g><path id="edge-4" class="edgePath" data-edge-id="edge-4" d="M 136.720,101.425 L 136.720,92.625 L 8.000,92.625 L 8.000,101.425 L 8.000,8.000 L 781.085,8.000 L 781.085,572.450 L 578.860,572.450 L 578.860,563.650" fill="none" stroke="#2F3B4D" stroke-width="1"    stroke-linecap="round" stroke-linejoin="round" /><g transform="translate(136.72 101.42) rotate(-90.00)"><path d="M 0 -6 L 0 6 M 5 -6 L 5 6" fill="none" stroke="#2F3B4D" stroke-width="1" stroke-linejoin="round" stroke-linecap="round"/></g><g transform="translate(578.86 563.65) rotate(-90.00)"><g><circle cx="-4" cy="0" r="4" fill="none" stroke="#2F3B4D" stroke-width="1"/><path d="M 4 0 L 12 -6 M 4 0 L 12 6" fill="none" stroke="#2F3B4D" stroke-width="1" stroke-linejoin="round" stroke-linecap="round"/></g></g><rect data-edge-id="edge-4" data-label-kind="center" x="667.32" y="5.04" width="46.28" height="28.00" rx="2" ry="2" fill="rgba(248,250,252, 0.92)" fill-opacity="0.85" stroke="#7B88A8" stroke-opacity="0.35" stroke-width="0.8"/><g class="edgeLabel" data-edge-id="edge-4" data-label-kind="center"><text x="690.46" y="23.04" text-anchor="middle" font-family="trebuchet ms,verdana,arial,sans-serif" font-size="16" fill="#333333"><tspan x="690.46" dy="0.00">posts</tspan></text></g><path id="edge-5" class="edgePath" data-edge-id="edge-5" d="M 104.720,101.425 L 104.720,213.025 L 268.170,213.025 L 268.170,276.625" fill="none" stroke="#2F3B4D" stroke-width="1"    stroke-linecap="round" stroke-linejoin="round" /><g transform="translate(104.72 101.42) rotate(90.00)"><path d="M 0 -6 L 0 6 M 5 -6 L 5 6" fill="none" stroke="#2F3B4D" stroke-width="1" stroke-linejoin="round" stroke-linecap="round"/></g><g transform="translate(268.17 276.62) rotate(90.00)"><g><circle cx="-4" cy="0" r="4" fill="none" stroke="#2F3B4D" stroke-width="1"/><path d="M 4 0 L 12 -6 M 4 0 L 12 6" fill="none" stroke="#2F3B4D" stroke-width="1" stroke-linejoin="round" stroke-linecap="round"/></g></g><rect data-edge-id="edge-5" data-label-kind="center" x="78.13" y="210.06" width="84.55" height="28.00" rx="2" ry="2" fill="rgba(248,250,252, 0.92)" fill-opacity="0.85" stroke="#7B88A8" stroke-opacity="0.35" stroke-width="0.8"/><g class="edgeLabel" data-edge-id="edge-5" data-label-kind="center"><text x="120.40" y="228.06" text-anchor="middle" font-family="trebuchet ms,verdana,arial,sans-serif" font-size="16" fill="#333333"><tspan x="120.40" dy="0.00">subscribes</tspan></text></g><path id="edge-6" class="edgePath" data-edge-id="edge-6" d="M 436.627,165.712 L 372.949,291.337" fill="none" stroke="#2F3B4D" stroke-width="1"    stroke-linecap="round" stroke-linejoin="round" /><g transform="translate(436.63 165.71) rotate(116.88)"><path d="M 0 -6 L 0 6 M 5 -6 L 5 6" fill="none" stroke="#2F3B4D" stroke-width="1" stroke-linejoin="round" stroke-linecap="round"/></g><g transform="translate(372.95 291.34) rotate(116.88)"><g><circle cx="-4" cy="0" r="4" fill="none" stroke="#2F3B4D" stroke-width="1"/><path d="M 4 0 L 12 -6 M 4 0 L 12 6" fill="none" stroke="#2F3B4D" stroke-width="1" stroke-linejoin="round" stroke-linecap="round"/></g></g><rect data-edge-id="edge-6" data-label-kind="center" x="311.67" y="252.66" width="122.83" height="28.00" rx="2" ry="2" fill="rgba(248,250,252, 0.92)" fill-opacity="0.85" stroke="#7B88A8" stroke-opacity="0.35" stroke-width="0.8"/><g class="edgeLabel" data-edge-id="edge-6" data-label-kind="center"><text x="373.08" y="270.66" text-anchor="middle" font-family="trebuchet ms,verdana,arial,sans-serif" font-size="16" fill="#333333"><tspan x="373.08" dy="0.00">&quot;subscribed to&quot;</tspan></text></g><rect x="412.95" y="276.62" width="212.45" height="237.82" rx="6.00" ry="6.00" fill="#FFFFFF" stroke="#7B88A8" stroke-width="1.2"/><rect x="412.95" y="276.62" width="212.45" height="33.60" rx="6.00" ry="6.00" fill="#FFFFDE"/><text x="519.17" y="297.42" text-anchor="middle" font-family="trebuchet ms,verdana,arial,sans-serif" font-size="16" fill="#333333"><tspan x="519.17" dy="0.00">ARTICLE</tspan></text><line x1="412.95" y1="310.23" x2="625.40" y2="310.23" stroke="#AAAA33" stroke-width="1.0" stroke-opacity="0.6"/><line x1="551.72" y1="310.23" x2="551.72" y2="514.45" stroke="#AAAA33" stroke-width="1.0" stroke-opacity="0.45"/><rect x="425.75" y="315.02" width="27.00" height="14.40" rx="7.20" ry="7.20" fill="#1D4ED8"/><text x="439.25" y="326.39" text-anchor="middle" font-family="trebuchet ms,verdana,arial,sans-serif" font-size="11.52" font-weight="600" fill="#FFFFFF">PK</text><text x="459.15" y="326.23" text-anchor="start" font-family="trebuchet ms,verdana,arial,sans-serif" font-size="16" fill="#333333"><tspan x="459.15" dy="0.00">id</tspan></text><text x="612.60" y="326.23" text-anchor="end" font-family="trebuchet ms,verdana,arial,sans-serif" font-size="16" fill="#2F3B4D"><tspan x="612.60" dy="0.00">int</tspan></text><line x1="412.95" y1="334.23" x2="625.40" y2="334.23" stroke="#AAAA33" stroke-width="1.0" stroke-opacity="0.35"/><rect x="425.75" y="339.02" width="26.47" height="14.40" rx="7.20" ry="7.20" fill="#0F766E"/><text x="438.99" y="350.39" text-anchor="middle" font-family="trebuchet ms,verdana,arial,sans-serif" font-size="11.52" font-weight="600" fill="#FFFFFF">FK</text><text x="458.62" y="350.23" text-anchor="start" font-family="trebuchet ms,verdana,arial,sans-serif" font-size="16" fill="#333333"><tspan x="458.62" dy="0.00">author_id</tspan></text><text x="612.60" y="350.23" text-anchor="end" font-family="trebuchet ms,verdana,arial,sans-serif" font-size="16" fill="#2F3B4D"><tspan x="612.60" dy="0.00">int</tspan></text><line x1="412.95" y1="358.23" x2="625.40" y2="358.23" stroke="#AAAA33" stroke-width="1.0" stroke-opacity="0.35"/><text x="425.75" y="374.23" text-anchor="start" font-family="trebuchet ms,verdana,arial,sans-serif" font-size="16" fill="#333333"><tspan x="425.75" dy="0.00">title</tspan></text><text x="612.60" y="374.23" text-anchor="end" font-family="trebuchet ms,verdana,arial,sans-serif" font-size="16" fill="#2F3B4D"><tspan x="612.60" dy="0.00">string</tspan></text><line x1="412.95" y1="382.23" x2="625.40" y2="382.23" stroke="#AAAA33" stroke-width="1.0" stroke-opacity="0.35"/><text x="425.75" y="398.23" text-anchor="start" font-family="trebuchet ms,verdana,arial,sans-serif" font-size="16" fill="#333333"><tspan x="425.75" dy="0.00">content</tspan></text><text x="612.60" y="398.23" text-anchor="end" font-family="trebuchet ms,verdana,arial,sans-serif" font-size="16" fill="#2F3B4D"><tspan x="612.60" dy="0.00">text</tspan></text><line x1="412.95" y1="406.23" x2="625.40" y2="406.23" stroke="#AAAA33" stroke-width="1.0" stroke-opacity="0.35"/><text x="425.75" y="422.23" text-anchor="start" font-family="trebuchet ms,verdana,arial,sans-serif" font-size="16" fill="#333333"><tspan x="425.75" dy="0.00">published_at</tspan></text><text x="612.60" y="422.23" text-anchor="end" font-family="trebuchet ms,verdana,arial,sans-serif" font-size="16" fill="#2F3B4D"><tspan x="612.60" dy="0.00">date</tspan></text><line x1="412.95" y1="430.23" x2="625.40" y2="430.23" stroke="#AAAA33" stroke-width="1.0" stroke-opacity="0.35"/><text x="425.75" y="446.23" text-anchor="start" font-family="trebuchet ms,verdana,arial,sans-serif" font-size="16" fill="#333333"><tspan x="425.75" dy="0.00">status</tspan></text><text x="612.60" y="446.23" text-anchor="end" font-family="trebuchet ms,verdana,arial,sans-serif" font-size="16" fill="#2F3B4D"><tspan x="612.60" dy="0.00">string</tspan></text><rect x="436.63" y="40.00" width="212.45" height="187.42" rx="6.00" ry="6.00" fill="#FFFFFF" stroke="#7B88A8" stroke-width="1.2"/><rect x="436.63" y="40.00" width="212.45" height="33.60" rx="6.00" ry="6.00" fill="#FFFFDE"/><text x="542.85" y="60.80" text-anchor="middle" font-family="trebuchet ms,verdana,arial,sans-serif" font-size="16" fill="#333333"><tspan x="542.85" dy="0.00">AUTHOR</tspan></text><line x1="436.63" y1="73.60" x2="649.08" y2="73.60" stroke="#AAAA33" stroke-width="1.0" stroke-opacity="0.6"/><line x1="575.40" y1="73.60" x2="575.40" y2="227.42" stroke="#AAAA33" stroke-width="1.0" stroke-opacity="0.45"/><rect x="449.43" y="78.40" width="27.00" height="14.40" rx="7.20" ry="7.20" fill="#1D4ED8"/><text x="462.93" y="89.76" text-anchor="middle" font-family="trebuchet ms,verdana,arial,sans-serif" font-size="11.52" font-weight="600" fill="#FFFFFF">PK</text><text x="482.83" y="89.60" text-anchor="start" font-family="trebuchet ms,verdana,arial,sans-serif" font-size="16" fill="#333333"><tspan x="482.83" dy="0.00">id</tspan></text><text x="636.28" y="89.60" text-anchor="end" font-family="trebuchet ms,verdana,arial,sans-serif" font-size="16" fill="#2F3B4D"><tspan x="636.28" dy="0.00">int</tspan></text><line x1="436.63" y1="97.60" x2="649.08" y2="97.60" stroke="#AAAA33" stroke-width="1.0" stroke-opacity="0.35"/><text x="449.43" y="113.60" text-anchor="start" font-family="trebuchet ms,verdana,arial,sans-serif" font-size="16" fill="#333333"><tspan x="449.43" dy="0.00">name</tspan></text><text x="636.28" y="113.60" text-anchor="end" font-family="trebuchet ms,verdana,arial,sans-serif" font-size="16" fill="#2F3B4D"><tspan x="636.28" dy="0.00">string</tspan></text><line x1="436.63" y1="121.60" x2="649.08" y2="121.60" stroke="#AAAA33" stroke-width="1.0" stroke-opacity="0.35"/><text x="449.43" y="137.60" text-anchor="start" font-family="trebuchet ms,verdana,arial,sans-serif" font-size="16" fill="#333333"><tspan x="449.43" dy="0.00">bio</tspan></text><text x="636.28" y="137.60" text-anchor="end" font-family="trebuchet ms,verdana,arial,sans-serif" font-size="16" fill="#2F3B4D"><tspan x="636.28" dy="0.00">string</tspan></text><line x1="436.63" y1="145.60" x2="649.08" y2="145.60" stroke="#AAAA33" stroke-width="1.0" stroke-opacity="0.35"/><text x="449.43" y="161.60" text-anchor="start" font-family="trebuchet ms,verdana,arial,sans-serif" font-size="16" fill="#333333"><tspan x="449.43" dy="0.00">avatar_url</tspan></text><text x="636.28" y="161.60" text-anchor="end" font-family="trebuchet ms,verdana,arial,sans-serif" font-size="16" fill="#2F3B4D"><tspan x="636.28" dy="0.00">string</tspan></text><rect x="536.64" y="563.65" width="212.45" height="212.62" rx="6.00" ry="6.00" fill="#FFFFFF" stroke="#7B88A8" stroke-width="1.2"/><rect x="536.64" y="563.65" width="212.45" height="33.60" rx="6.00" ry="6.00" fill="#FFFFDE"/><text x="642.86" y="584.45" text-anchor="middle" font-family="trebuchet ms,verdana,arial,sans-serif" font-size="16" fill="#333333"><tspan x="642.86" dy="0.00">COMMENT</tspan></text><line x1="536.64" y1="597.25" x2="749.09" y2="597.25" stroke="#AAAA33" stroke-width="1.0" stroke-opacity="0.6"/><line x1="681.95" y1="597.25" x2="681.95" y2="776.27" stroke="#AAAA33" stroke-width="1.0" stroke-opacity="0.45"/><rect x="549.44" y="602.05" width="27.00" height="14.40" rx="7.20" ry="7.20" fill="#1D4ED8"/><text x="562.94" y="613.41" text-anchor="middle" font-family="trebuchet ms,verdana,arial,sans-serif" font-size="11.52" font-weight="600" fill="#FFFFFF">PK</text><text x="582.84" y="613.25" text-anchor="start" font-family="trebuchet ms,verdana,arial,sans-serif" font-size="16" fill="#333333"><tspan x="582.84" dy="0.00">id</tspan></text><text x="736.29" y="613.25" text-anchor="end" font-family="trebuchet ms,verdana,arial,sans-serif" font-size="16" fill="#2F3B4D"><tspan x="736.29" dy="0.00">int</tspan></text><line x1="536.64" y1="621.25" x2="749.09" y2="621.25" stroke="#AAAA33" stroke-width="1.0" stroke-opacity="0.35"/><rect x="549.44" y="626.05" width="26.47" height="14.40" rx="7.20" ry="7.20" fill="#0F766E"/><text x="562.67" y="637.41" text-anchor="middle" font-family="trebuchet ms,verdana,arial,sans-serif" font-size="11.52" font-weight="600" fill="#FFFFFF">FK</text><text x="582.31" y="637.25" text-anchor="start" font-family="trebuchet ms,verdana,arial,sans-serif" font-size="16" fill="#333333"><tspan x="582.31" dy="0.00">article_id</tspan></text><text x="736.29" y="637.25" text-anchor="end" font-family="trebuchet ms,verdana,arial,sans-serif" font-size="16" fill="#2F3B4D"><tspan x="736.29" dy="0.00">int</tspan></text><line x1="536.64" y1="645.25" x2="749.09" y2="645.25" stroke="#AAAA33" stroke-width="1.0" stroke-opacity="0.35"/><rect x="549.44" y="650.05" width="26.47" height="14.40" rx="7.20" ry="7.20" fill="#0F766E"/><text x="562.67" y="661.41" text-anchor="middle" font-family="trebuchet ms,verdana,arial,sans-serif" font-size="11.52" font-weight="600" fill="#FFFFFF">FK</text><text x="582.31" y="661.25" text-anchor="start" font-family="trebuchet ms,verdana,arial,sans-serif" font-size="16" fill="#333333"><tspan x="582.31" dy="0.00">reader_id</tspan></text><text x="736.29" y="661.25" text-anchor="end" font-family="trebuchet ms,verdana,arial,sans-serif" font-size="16" fill="#2F3B4D"><tspan x="736.29" dy="0.00">int</tspan></text><line x1="536.64" y1="669.25" x2="749.09" y2="669.25" stroke="#AAAA33" stroke-width="1.0" stroke-opacity="0.35"/><text x="549.44" y="685.25" text-anchor="start" font-family="trebuchet ms,verdana,arial,sans-serif" font-size="16" fill="#333333"><tspan x="549.44" dy="0.00">body</tspan></text><text x="736.29" y="685.25" text-anchor="end" font-family="trebuchet ms,verdana,arial,sans-serif" font-size="16" fill="#2F3B4D"><tspan x="736.29" dy="0.00">text</tspan></text><line x1="536.64" y1="693.25" x2="749.09" y2="693.25" stroke="#AAAA33" stroke-width="1.0" stroke-opacity="0.35"/><text x="549.44" y="709.25" text-anchor="start" font-family="trebuchet ms,verdana,arial,sans-serif" font-size="16" fill="#333333"><tspan x="549.44" dy="0.00">created_at</tspan></text><text x="736.29" y="709.25" text-anchor="end" font-family="trebuchet ms,verdana,arial,sans-serif" font-size="16" fill="#2F3B4D"><tspan x="736.29" dy="0.00">date</tspan></text><rect x="40.00" y="40.00" width="129.44" height="61.42" rx="6.00" ry="6.00" fill="#FFFFFF" stroke="#7B88A8" stroke-width="1.2"/><rect x="40.00" y="40.00" width="129.44" height="61.42" rx="6.00" ry="6.00" fill="#FFFFDE"/><text x="104.72" y="74.71" text-anchor="middle" font-family="trebuchet ms,verdana,arial,sans-serif" font-size="16" fill="#333333"><tspan x="104.72" dy="0.00">READER</tspan></text><rect x="195.39" y="276.62" width="177.56" height="61.42" rx="6.00" ry="6.00" fill="#FFFFFF" stroke="#7B88A8" stroke-width="1.2"/><rect x="195.39" y="276.62" width="177.56" height="61.42" rx="6.00" ry="6.00" fill="#FFFFDE"/><text x="284.17" y="311.34" text-anchor="middle" font-family="trebuchet ms,verdana,arial,sans-serif" font-size="16" fill="#333333"><tspan x="284.17" dy="0.00">SUBSCRIPTION</tspan></text><rect x="209.44" y="40.00" width="187.19" height="137.02" rx="6.00" ry="6.00" fill="#FFFFFF" stroke="#7B88A8" stroke-width="1.2"/><rect x="209.44" y="40.00" width="187.19" height="33.60" rx="6.00" ry="6.00" fill="#FFFFDE"/><text x="303.03" y="60.80" text-anchor="middle" font-family="trebuchet ms,verdana,arial,sans-serif" font-size="16" fill="#333333"><tspan x="303.03" dy="0.00">TAG</tspan></text><line x1="209.44" y1="73.60" x2="396.63" y2="73.60" stroke="#AAAA33" stroke-width="1.0" stroke-opacity="0.6"/><line x1="322.95" y1="73.60" x2="322.95" y2="177.02" stroke="#AAAA33" stroke-width="1.0" stroke-opacity="0.45"/><rect x="222.24" y="78.40" width="27.00" height="14.40" rx="7.20" ry="7.20" fill="#1D4ED8"/><text x="235.74" y="89.76" text-anchor="middle" font-family="trebuchet ms,verdana,arial,sans-serif" font-size="11.52" font-weight="600" fill="#FFFFFF">PK</text><text x="255.64" y="89.60" text-anchor="start" font-family="trebuchet ms,verdana,arial,sans-serif" font-size="16" fill="#333333"><tspan x="255.64" dy="0.00">id</tspan></text><text x="383.83" y="89.60" text-anchor="end" font-family="trebuchet ms,verdana,arial,sans-serif" font-size="16" fill="#2F3B4D"><tspan x="383.83" dy="0.00">int</tspan></text><line x1="209.44" y1="97.60" x2="396.63" y2="97.60" stroke="#AAAA33" stroke-width="1.0" stroke-opacity="0.35"/><rect x="222.24" y="102.40" width="27.52" height="14.40" rx="7.20" ry="7.20" fill="#7C3AED"/><text x="236.00" y="113.76" text-anchor="middle" font-family="trebuchet ms,verdana,arial,sans-serif" font-size="11.52" font-weight="600" fill="#FFFFFF">UK</text><text x="256.16" y="113.60" text-anchor="start" font-family="trebuchet ms,verdana,arial,sans-serif" font-size="16" fill="#333333"><tspan x="256.16" dy="0.00">name</tspan></text><text x="383.83" y="113.60" text-anchor="end" font-family="trebuchet ms,verdana,arial,sans-serif" font-size="16" fill="#2F3B4D"><tspan x="383.83" dy="0.00">string</tspan></text><rect x="284.19" y="563.65" width="212.45" height="137.02" rx="6.00" ry="6.00" fill="#FFFFFF" stroke="#7B88A8" stroke-width="1.2"/><rect x="284.19" y="563.65" width="212.45" height="33.60" rx="6.00" ry="6.00" fill="#FFFFDE"/><text x="390.41" y="584.45" text-anchor="middle" font-family="trebuchet ms,verdana,arial,sans-serif" font-size="16" fill="#333333"><tspan x="390.41" dy="0.00">TAG_MAP</tspan></text><line x1="284.19" y1="597.25" x2="496.64" y2="597.25" stroke="#AAAA33" stroke-width="1.0" stroke-opacity="0.6"/><line x1="439.04" y1="597.25" x2="439.04" y2="700.67" stroke="#AAAA33" stroke-width="1.0" stroke-opacity="0.45"/><rect x="296.99" y="602.05" width="26.47" height="14.40" rx="7.20" ry="7.20" fill="#0F766E"/><text x="310.22" y="613.41" text-anchor="middle" font-family="trebuchet ms,verdana,arial,sans-serif" font-size="11.52" font-weight="600" fill="#FFFFFF">FK</text><text x="329.86" y="613.25" text-anchor="start" font-family="trebuchet ms,verdana,arial,sans-serif" font-size="16" fill="#333333"><tspan x="329.86" dy="0.00">article_id</tspan></text><text x="483.84" y="613.25" text-anchor="end" font-family="trebuchet ms,verdana,arial,sans-serif" font-size="16" fill="#2F3B4D"><tspan x="483.84" dy="0.00">int</tspan></text><line x1="284.19" y1="621.25" x2="496.64" y2="621.25" stroke="#AAAA33" stroke-width="1.0" stroke-opacity="0.35"/><rect x="296.99" y="626.05" width="26.47" height="14.40" rx="7.20" ry="7.20" fill="#0F766E"/><text x="310.22" y="637.41" text-anchor="middle" font-family="trebuchet ms,verdana,arial,sans-serif" font-size="11.52" font-weight="600" fill="#FFFFFF">FK</text><text x="329.86" y="637.25" text-anchor="start" font-family="trebuchet ms,verdana,arial,sans-serif" font-size="16" fill="#333333"><tspan x="329.86" dy="0.00">tag_id</tspan></text><text x="483.84" y="637.25" text-anchor="end" font-family="trebuchet ms,verdana,arial,sans-serif" font-size="16" fill="#2F3B4D"><tspan x="483.84" dy="0.00">int</tspan></text></svg>