<svg xmlns="http://www.w3.org/2000/svg" width="253.19807" height="347.25" viewBox="0 0 253.19807 347.25"><rect x="0" y="0" width="253.19807" height="347.25" fill="#FFFFFF"/><defs><marker id="arrow-0" viewBox="0 0 10 10" refX="5" refY="5" markerUnits="userSpaceOnUse" markerWidth="8" markerHeight="8" orient="auto"><path d="M 0 0 L 10 5 L 0 10 z" fill="#2F3B4D" stroke="#2F3B4D" stroke-width="1" stroke-dasharray="1,0"/></marker><marker id="arrow-start-0" viewBox="0 0 10 10" refX="4.5" refY="5" markerUnits="userSpaceOnUse" markerWidth="8" markerHeight="8" orient="auto"><path d="M 0 5 L 10 10 L 10 0 z" fill="#2F3B4D" stroke="#2F3B4D" stroke-width="1" stroke-dasharray="1,0"/></marker></defs><path id="edge-0" class="edgePath" data-edge-id="edge-0" d="M 122.599,145.025 L 122.599,194.225" fill="none" stroke="#2F3B4D" stroke-width="1"    stroke-linecap="round" stroke-linejoin="round" /><g transform="translate(122.60 145.02) rotate(90.00)"><path d="M 0 -6 L 0 6 M 5 -6 L 5 6" fill="none" stroke="#2F3B4D" stroke-width="1" stroke-linejoin="round" stroke-linecap="round"/></g><g transform="translate(122.60 194.22) rotate(90.00)"><g><circle cx="-4" cy="0" r="4" fill="none" stroke="#2F3B4D" stroke-width="1"/><path d="M 4 0 L 12 -6 M 4 0 L 12 6" fill="none" stroke="#2F3B4D" stroke-width="1" stroke-linejoin="round" stroke-linecap="round"/></g></g><rect data-edge-id="edge-0" data-label-kind="center" x="102.76" y="155.62" width="61.76" height="28.00" rx="2" ry="2" fill="rgba(248,250,252, 0.92)" fill-opacity="0.85" stroke="#7B88A8" stroke-opacity="0.35" stroke-width="0.8"/><g class="edgeLabel" data-edge-id="edge-0" data-label-kind="center"><text x="133.64" y="173.62" text-anchor="middle" font-family="trebuchet ms,verdana,arial,Noto Color Emoji,Apple Color Emoji,Segoe UI Emoji,sans-serif" font-size="16" fill="#333333"><tspan x="133.64" dy="0.00">places</tspan></text></g><rect x="27.71" y="8.00" width="189.77" height="137.02" rx="6.00" ry="6.00" fill="#FFFFFF" stroke="#7B88A8" stroke-width="1.2"/><rect x="27.71" y="8.00" width="189.77" height="33.60" rx="6.00" ry="6.00" fill="#FFFFDE"/><text x="122.60" y="28.80" text-anchor="middle" font-family="trebuchet ms,verdana,arial,Noto Color Emoji,Apple Color Emoji,Segoe UI Emoji,sans-serif" font-size="16" fill="#333333"><tspan x="122.60" dy="0.00">CUSTOMER</tspan></text><line x1="27.71" y1="41.60" x2="217.49" y2="41.60" stroke="#AAAA33" stroke-width="1.0" stroke-opacity="0.6"/><line x1="130.81" y1="41.60" x2="130.81" y2="145.02" stroke="#AAAA33" stroke-width="1.0" stroke-opacity="0.45"/><text x="40.51" y="57.60" text-anchor="start" font-family="trebuchet ms,verdana,arial,Noto Color Emoji,Apple Color Emoji,Segoe UI Emoji,sans-serif" font-size="16" fill="#333333"><tspan x="40.51" dy="0.00">id</tspan></text><text x="204.69" y="57.60" text-anchor="end" font-family="trebuchet ms,verdana,arial,Noto Color Emoji,Apple Color Emoji,Segoe UI Emoji,sans-serif" font-size="16" fill="#2F3B4D"><tspan x="204.69" dy="0.00">string</tspan></text><line x1="27.71" y1="65.60" x2="217.49" y2="65.60" stroke="#AAAA33" stroke-width="1.0" stroke-opacity="0.35"/><text x="40.51" y="81.60" text-anchor="start" font-family="trebuchet ms,verdana,arial,Noto Color Emoji,Apple Color Emoji,Segoe UI Emoji,sans-serif" font-size="16" fill="#333333"><tspan x="40.51" dy="0.00">name</tspan></text><text x="204.69" y="81.60" text-anchor="end" font-family="trebuchet ms,verdana,arial,Noto Color Emoji,Apple Color Emoji,Segoe UI Emoji,sans-serif" font-size="16" fill="#2F3B4D"><tspan x="204.69" dy="0.00">string</tspan></text><rect x="8.00" y="194.22" width="229.20" height="137.02" rx="6.00" ry="6.00" fill="#FFFFFF" stroke="#7B88A8" stroke-width="1.2"/><rect x="8.00" y="194.22" width="229.20" height="33.60" rx="6.00" ry="6.00" fill="#FFFFDE"/><text x="122.60" y="215.02" text-anchor="middle" font-family="trebuchet ms,verdana,arial,Noto Color Emoji,Apple Color Emoji,Segoe UI Emoji,sans-serif" font-size="16" fill="#333333"><tspan x="122.60" dy="0.00">ORDER</tspan></text><line x1="8.00" y1="227.82" x2="237.20" y2="227.82" stroke="#AAAA33" stroke-width="1.0" stroke-opacity="0.6"/><line x1="141.84" y1="227.82" x2="141.84" y2="331.25" stroke="#AAAA33" stroke-width="1.0" stroke-opacity="0.45"/><text x="20.80" y="243.82" text-anchor="start" font-family="trebuchet ms,verdana,arial,Noto Color Emoji,Apple Color Emoji,Segoe UI Emoji,sans-serif" font-size="16" fill="#333333"><tspan x="20.80" dy="0.00">id</tspan></text><text x="224.40" y="243.82" text-anchor="end" font-family="trebuchet ms,verdana,arial,Noto Color Emoji,Apple Color Emoji,Segoe UI Emoji,sans-serif" font-size="16" fill="#2F3B4D"><tspan x="224.40" dy="0.00">string</tspan></text><line x1="8.00" y1="251.82" x2="237.20" y2="251.82" stroke="#AAAA33" stroke-width="1.0" stroke-opacity="0.35"/><text x="20.80" y="267.82" text-anchor="start" font-family="trebuchet ms,verdana,arial,Noto Color Emoji,Apple Color Emoji,Segoe UI Emoji,sans-serif" font-size="16" fill="#333333"><tspan x="20.80" dy="0.00">created_at</tspan></text><text x="224.40" y="267.82" text-anchor="end" font-family="trebuchet ms,verdana,arial,Noto Color Emoji,Apple Color Emoji,Segoe UI Emoji,sans-serif" font-size="16" fill="#2F3B4D"><tspan x="224.40" dy="0.00">date</tspan></text></svg>