<svg xmlns="http://www.w3.org/2000/svg" width="833.3977" height="760.27496" viewBox="0 0 833.3977 760.27496"><rect x="0" y="0" width="833.3977" height="760.27496" fill="#FFFFFF"/><defs><marker id="arrow-0" viewBox="0 0 10 10" refX="5" refY="5" markerUnits="userSpaceOnUse" markerWidth="8" markerHeight="8" orient="auto"><path d="M 0 0 L 10 5 L 0 10 z" fill="#2F3B4D" stroke="#2F3B4D" stroke-width="1" stroke-dasharray="1,0"/></marker><marker id="arrow-start-0" viewBox="0 0 10 10" refX="4.5" refY="5" markerUnits="userSpaceOnUse" markerWidth="8" markerHeight="8" orient="auto"><path d="M 0 5 L 10 10 L 10 0 z" fill="#2F3B4D" stroke="#2F3B4D" stroke-width="1" stroke-dasharray="1,0"/></marker></defs><path id="edge-0" class="edgePath" data-edge-id="edge-0" d="M 556.291,195.425 L 555.439,244.625" fill="none" stroke="#2F3B4D" stroke-width="1"    stroke-linecap="round" stroke-linejoin="round" /><g transform="translate(556.29 195.42) rotate(90.99)"><path d="M 0 -6 L 0 6 M 5 -6 L 5 6" fill="none" stroke="#2F3B4D" stroke-width="1" stroke-linejoin="round" stroke-linecap="round"/></g><g transform="translate(555.44 244.62) rotate(90.99)"><g><circle cx="-4" cy="0" r="4" fill="none" stroke="#2F3B4D" stroke-width="1"/><path d="M 4 0 L 12 -6 M 4 0 L 12 6" fill="none" stroke="#2F3B4D" stroke-width="1" stroke-linejoin="round" stroke-linecap="round"/></g></g><rect data-edge-id="edge-0" data-label-kind="center" x="513.95" y="205.83" width="61.76" height="28.00" rx="2" ry="2" fill="rgba(248,250,252, 0.92)" fill-opacity="0.85" stroke="#7B88A8" stroke-opacity="0.35" stroke-width="0.8"/><g class="edgeLabel" data-edge-id="edge-0" data-label-kind="center"><text x="544.83" y="223.83" text-anchor="middle" font-family="trebuchet ms,verdana,arial,Noto Color Emoji,Apple Color Emoji,Segoe UI Emoji,sans-serif" font-size="16" fill="#333333"><tspan x="544.83" dy="0.00">writes</tspan></text></g><path id="edge-1" class="edgePath" data-edge-id="edge-1" d="M 443.439,482.450 L 465.945,531.650" fill="none" stroke="#2F3B4D" stroke-width="1"    stroke-linecap="round" stroke-linejoin="round" /><g transform="translate(443.44 482.45) rotate(65.42)"><path d="M 0 -6 L 0 6 M 5 -6 L 5 6" fill="none" stroke="#2F3B4D" stroke-width="1" stroke-linejoin="round" stroke-linecap="round"/></g><g transform="translate(465.95 531.65) rotate(65.42)"><g><circle cx="-4" cy="0" r="4" fill="none" stroke="#2F3B4D" stroke-width="1"/><path d="M 4 0 L 12 -6 M 4 0 L 12 6" fill="none" stroke="#2F3B4D" stroke-width="1" stroke-linejoin="round" stroke-linecap="round"/></g></g><rect data-edge-id="edge-1" data-label-kind="center" x="421.30" y="484.72" width="34.88" height="28.00" rx="2" ry="2" fill="rgba(248,250,252, 0.92)" fill-opacity="0.85" stroke="#7B88A8" stroke-opacity="0.35" stroke-width="0.8"/><g class="edgeLabel" data-edge-id="edge-1" data-label-kind="center"><text x="438.74" y="502.72" text-anchor="middle" font-family="trebuchet ms,verdana,arial,Noto Color Emoji,Apple Color Emoji,Segoe UI Emoji,sans-serif" font-size="16" fill="#333333"><tspan x="438.74" dy="0.00">has</tspan></text></g><path id="edge-2" class="edgePath" data-edge-id="edge-2" d="M 292.136,145.025 L 395.041,145.025 L 395.041,531.650 L 353.945,531.650" fill="none" stroke="#2F3B4D" stroke-width="1"    stroke-linecap="round" stroke-linejoin="round" /><g transform="translate(292.14 145.02) rotate(0.00)"><path d="M 0 -6 L 0 6 M 5 -6 L 5 6" fill="none" stroke="#2F3B4D" stroke-width="1" stroke-linejoin="round" stroke-linecap="round"/></g><g transform="translate(353.95 531.65) rotate(180.00)"><g><circle cx="-4" cy="0" r="4" fill="none" stroke="#2F3B4D" stroke-width="1"/><path d="M 4 0 L 12 -6 M 4 0 L 12 6" fill="none" stroke="#2F3B4D" stroke-width="1" stroke-linejoin="round" stroke-linecap="round"/></g></g><rect data-edge-id="edge-2" data-label-kind="center" x="304.14" y="506.61" width="99.60" height="28.00" rx="2" ry="2" fill="rgba(248,250,252, 0.92)" fill-opacity="0.85" stroke="#7B88A8" stroke-opacity="0.35" stroke-width="0.8"/><g class="edgeLabel" data-edge-id="edge-2" data-label-kind="center"><text x="353.95" y="524.61" text-anchor="middle" font-family="trebuchet ms,verdana,arial,Noto Color Emoji,Apple Color Emoji,Segoe UI Emoji,sans-serif" font-size="16" fill="#333333"><tspan x="353.95" dy="0.00">&quot;used in&quot;</tspan></text></g><path id="edge-3" class="edgePath" data-edge-id="edge-3" d="M 635.439,482.450 L 686.914,531.650" fill="none" stroke="#2F3B4D" stroke-width="1"    stroke-linecap="round" stroke-linejoin="round" /><g transform="translate(635.44 482.45) rotate(43.71)"><path d="M 0 -6 L 0 6 M 5 -6 L 5 6" fill="none" stroke="#2F3B4D" stroke-width="1" stroke-linejoin="round" stroke-linecap="round"/></g><g transform="translate(686.91 531.65) rotate(43.71)"><g><circle cx="-4" cy="0" r="4" fill="none" stroke="#2F3B4D" stroke-width="1"/><path d="M 4 0 L 12 -6 M 4 0 L 12 6" fill="none" stroke="#2F3B4D" stroke-width="1" stroke-linejoin="round" stroke-linecap="round"/></g></g><rect data-edge-id="edge-3" data-label-kind="center" x="648.28" y="503.53" width="79.68" height="28.00" rx="2" ry="2" fill="rgba(248,250,252, 0.92)" fill-opacity="0.85" stroke="#7B88A8" stroke-opacity="0.35" stroke-width="0.8"/><g class="edgeLabel" data-edge-id="edge-3" data-label-kind="center"><text x="688.12" y="521.53" text-anchor="middle" font-family="trebuchet ms,verdana,arial,Noto Color Emoji,Apple Color Emoji,Segoe UI Emoji,sans-serif" font-size="16" fill="#333333"><tspan x="688.12" dy="0.00">receives</tspan></text></g><path id="edge-4" class="edgePath" data-edge-id="edge-4" d="M 104.218,69.425 L 104.218,66.000 L 71.600,66.000 L 71.600,514.000 L 610.000,514.000 L 610.000,530.000 L 606.914,530.000 L 606.914,531.650" fill="none" stroke="#2F3B4D" stroke-width="1"    stroke-linecap="round" stroke-linejoin="round" /><g transform="translate(104.22 69.42) rotate(-90.00)"><path d="M 0 -6 L 0 6 M 5 -6 L 5 6" fill="none" stroke="#2F3B4D" stroke-width="1" stroke-linejoin="round" stroke-linecap="round"/></g><g transform="translate(606.91 531.65) rotate(90.00)"><g><circle cx="-4" cy="0" r="4" fill="none" stroke="#2F3B4D" stroke-width="1"/><path d="M 4 0 L 12 -6 M 4 0 L 12 6" fill="none" stroke="#2F3B4D" stroke-width="1" stroke-linejoin="round" stroke-linecap="round"/></g></g><rect data-edge-id="edge-4" data-label-kind="center" x="83.63" y="511.04" width="52.80" height="28.00" rx="2" ry="2" fill="rgba(248,250,252, 0.92)" fill-opacity="0.85" stroke="#7B88A8" stroke-opacity="0.35" stroke-width="0.8"/><g class="edgeLabel" data-edge-id="edge-4" data-label-kind="center"><text x="110.03" y="529.04" text-anchor="middle" font-family="trebuchet ms,verdana,arial,Noto Color Emoji,Apple Color Emoji,Segoe UI Emoji,sans-serif" font-size="16" fill="#333333"><tspan x="110.03" dy="0.00">posts</tspan></text></g><path id="edge-5" class="edgePath" data-edge-id="edge-5" d="M 72.218,69.425 L 72.218,181.025 L 264.097,181.025 L 264.097,244.625" fill="none" stroke="#2F3B4D" stroke-width="1"    stroke-linecap="round" stroke-linejoin="round" /><g transform="translate(72.22 69.42) rotate(90.00)"><path d="M 0 -6 L 0 6 M 5 -6 L 5 6" fill="none" stroke="#2F3B4D" stroke-width="1" stroke-linejoin="round" stroke-linecap="round"/></g><g transform="translate(264.10 244.62) rotate(90.00)"><g><circle cx="-4" cy="0" r="4" fill="none" stroke="#2F3B4D" stroke-width="1"/><path d="M 4 0 L 12 -6 M 4 0 L 12 6" fill="none" stroke="#2F3B4D" stroke-width="1" stroke-linejoin="round" stroke-linecap="round"/></g></g><rect data-edge-id="edge-5" data-label-kind="center" x="119.36" y="178.06" width="97.60" height="28.00" rx="2" ry="2" fill="rgba(248,250,252, 0.92)" fill-opacity="0.85" stroke="#7B88A8" stroke-opacity="0.35" stroke-width="0.8"/><g class="edgeLabel" data-edge-id="edge-5" data-label-kind="center"><text x="168.16" y="196.06" text-anchor="middle" font-family="trebuchet ms,verdana,arial,Noto Color Emoji,Apple Color Emoji,Segoe UI Emoji,sans-serif" font-size="16" fill="#333333"><tspan x="168.16" dy="0.00">subscribes</tspan></text></g><path id="edge-6" class="edgePath" data-edge-id="edge-6" d="M 447.836,133.712 L 373.883,259.337" fill="none" stroke="#2F3B4D" stroke-width="1"    stroke-linecap="round" stroke-linejoin="round" /><g transform="translate(447.84 133.71) rotate(120.48)"><path d="M 0 -6 L 0 6 M 5 -6 L 5 6" fill="none" stroke="#2F3B4D" stroke-width="1" stroke-linejoin="round" stroke-linecap="round"/></g><g transform="translate(373.88 259.34) rotate(120.48)"><g><circle cx="-4" cy="0" r="4" fill="none" stroke="#2F3B4D" stroke-width="1"/><path d="M 4 0 L 12 -6 M 4 0 L 12 6" fill="none" stroke="#2F3B4D" stroke-width="1" stroke-linejoin="round" stroke-linecap="round"/></g></g><rect data-edge-id="edge-6" data-label-kind="center" x="304.29" y="211.53" width="153.36" height="28.00" rx="2" ry="2" fill="rgba(248,250,252, 0.92)" fill-opacity="0.85" stroke="#7B88A8" stroke-opacity="0.35" stroke-width="0.8"/><g class="edgeLabel" data-edge-id="edge-6" data-label-kind="center"><text x="380.97" y="229.53" text-anchor="middle" font-family="trebuchet ms,verdana,arial,Noto Color Emoji,Apple Color Emoji,Segoe UI Emoji,sans-serif" font-size="16" fill="#333333"><tspan x="380.97" dy="0.00">&quot;subscribed to&quot;</tspan></text></g><rect x="413.88" y="244.62" width="251.11" height="237.82" rx="6.00" ry="6.00" fill="#FFFFFF" stroke="#7B88A8" stroke-width="1.2"/><rect x="413.88" y="244.62" width="251.11" height="33.60" rx="6.00" ry="6.00" fill="#FFFFDE"/><text x="539.44" y="265.42" text-anchor="middle" font-family="trebuchet ms,verdana,arial,Noto Color Emoji,Apple Color Emoji,Segoe UI Emoji,sans-serif" font-size="16" fill="#333333"><tspan x="539.44" dy="0.00">ARTICLE</tspan></text><line x1="413.88" y1="278.23" x2="664.99" y2="278.23" stroke="#AAAA33" stroke-width="1.0" stroke-opacity="0.6"/><line x1="571.10" y1="278.23" x2="571.10" y2="482.45" stroke="#AAAA33" stroke-width="1.0" stroke-opacity="0.45"/><rect x="426.68" y="283.02" width="27.30" height="14.40" rx="7.20" ry="7.20" fill="#1D4ED8"/><text x="440.33" y="294.39" text-anchor="middle" font-family="trebuchet ms,verdana,arial,Noto Color Emoji,Apple Color Emoji,Segoe UI Emoji,sans-serif" font-size="11.52" font-weight="600" fill="#FFFFFF">PK</text><text x="460.39" y="294.23" text-anchor="start" font-family="trebuchet ms,verdana,arial,Noto Color Emoji,Apple Color Emoji,Segoe UI Emoji,sans-serif" font-size="16" fill="#333333"><tspan x="460.39" dy="0.00">id</tspan></text><text x="652.19" y="294.23" text-anchor="end" font-family="trebuchet ms,verdana,arial,Noto Color Emoji,Apple Color Emoji,Segoe UI Emoji,sans-serif" font-size="16" fill="#2F3B4D"><tspan x="652.19" dy="0.00">int</tspan></text><line x1="413.88" y1="302.23" x2="664.99" y2="302.23" stroke="#AAAA33" stroke-width="1.0" stroke-opacity="0.35"/><rect x="426.68" y="307.02" width="27.30" height="14.40" rx="7.20" ry="7.20" fill="#0F766E"/><text x="440.33" y="318.39" text-anchor="middle" font-family="trebuchet ms,verdana,arial,Noto Color Emoji,Apple Color Emoji,Segoe UI Emoji,sans-serif" font-size="11.52" font-weight="600" fill="#FFFFFF">FK</text><text x="460.39" y="318.23" text-anchor="start" font-family="trebuchet ms,verdana,arial,Noto Color Emoji,Apple Color Emoji,Segoe UI Emoji,sans-serif" font-size="16" fill="#333333"><tspan x="460.39" dy="0.00">author_id</tspan></text><text x="652.19" y="318.23" text-anchor="end" font-family="trebuchet ms,verdana,arial,Noto Color Emoji,Apple Color Emoji,Segoe UI Emoji,sans-serif" font-size="16" fill="#2F3B4D"><tspan x="652.19" dy="0.00">int</tspan></text><line x1="413.88" y1="326.23" x2="664.99" y2="326.23" stroke="#AAAA33" stroke-width="1.0" stroke-opacity="0.35"/><text x="426.68" y="342.23" text-anchor="start" font-family="trebuchet ms,verdana,arial,Noto Color Emoji,Apple Color Emoji,Segoe UI Emoji,sans-serif" font-size="16" fill="#333333"><tspan x="426.68" dy="0.00">title</tspan></text><text x="652.19" y="342.23" text-anchor="end" font-family="trebuchet ms,verdana,arial,Noto Color Emoji,Apple Color Emoji,Segoe UI Emoji,sans-serif" font-size="16" fill="#2F3B4D"><tspan x="652.19" dy="0.00">string</tspan></text><line x1="413.88" y1="350.23" x2="664.99" y2="350.23" stroke="#AAAA33" stroke-width="1.0" stroke-opacity="0.35"/><text x="426.68" y="366.23" text-anchor="start" font-family="trebuchet ms,verdana,arial,Noto Color Emoji,Apple Color Emoji,Segoe UI Emoji,sans-serif" font-size="16" fill="#333333"><tspan x="426.68" dy="0.00">content</tspan></text><text x="652.19" y="366.23" text-anchor="end" font-family="trebuchet ms,verdana,arial,Noto Color Emoji,Apple Color Emoji,Segoe UI Emoji,sans-serif" font-size="16" fill="#2F3B4D"><tspan x="652.19" dy="0.00">text</tspan></text><line x1="413.88" y1="374.23" x2="664.99" y2="374.23" stroke="#AAAA33" stroke-width="1.0" stroke-opacity="0.35"/><text x="426.68" y="390.23" text-anchor="start" font-family="trebuchet ms,verdana,arial,Noto Color Emoji,Apple Color Emoji,Segoe UI Emoji,sans-serif" font-size="16" fill="#333333"><tspan x="426.68" dy="0.00">published_at</tspan></text><text x="652.19" y="390.23" text-anchor="end" font-family="trebuchet ms,verdana,arial,Noto Color Emoji,Apple Color Emoji,Segoe UI Emoji,sans-serif" font-size="16" fill="#2F3B4D"><tspan x="652.19" dy="0.00">date</tspan></text><line x1="413.88" y1="398.23" x2="664.99" y2="398.23" stroke="#AAAA33" stroke-width="1.0" stroke-opacity="0.35"/><text x="426.68" y="414.23" text-anchor="start" font-family="trebuchet ms,verdana,arial,Noto Color Emoji,Apple Color Emoji,Segoe UI Emoji,sans-serif" font-size="16" fill="#333333"><tspan x="426.68" dy="0.00">status</tspan></text><text x="652.19" y="414.23" text-anchor="end" font-family="trebuchet ms,verdana,arial,Noto Color Emoji,Apple Color Emoji,Segoe UI Emoji,sans-serif" font-size="16" fill="#2F3B4D"><tspan x="652.19" dy="0.00">string</tspan></text><rect x="447.84" y="8.00" width="248.91" height="187.42" rx="6.00" ry="6.00" fill="#FFFFFF" stroke="#7B88A8" stroke-width="1.2"/><rect x="447.84" y="8.00" width="248.91" height="33.60" rx="6.00" ry="6.00" fill="#FFFFDE"/><text x="572.29" y="28.80" text-anchor="middle" font-family="trebuchet ms,verdana,arial,Noto Color Emoji,Apple Color Emoji,Segoe UI Emoji,sans-serif" font-size="16" fill="#333333"><tspan x="572.29" dy="0.00">AUTHOR</tspan></text><line x1="447.84" y1="41.60" x2="696.75" y2="41.60" stroke="#AAAA33" stroke-width="1.0" stroke-opacity="0.6"/><line x1="601.39" y1="41.60" x2="601.39" y2="195.42" stroke="#AAAA33" stroke-width="1.0" stroke-opacity="0.45"/><rect x="460.64" y="46.40" width="27.30" height="14.40" rx="7.20" ry="7.20" fill="#1D4ED8"/><text x="474.29" y="57.76" text-anchor="middle" font-family="trebuchet ms,verdana,arial,Noto Color Emoji,Apple Color Emoji,Segoe UI Emoji,sans-serif" font-size="11.52" font-weight="600" fill="#FFFFFF">PK</text><text x="494.34" y="57.60" text-anchor="start" font-family="trebuchet ms,verdana,arial,Noto Color Emoji,Apple Color Emoji,Segoe UI Emoji,sans-serif" font-size="16" fill="#333333"><tspan x="494.34" dy="0.00">id</tspan></text><text x="683.95" y="57.60" text-anchor="end" font-family="trebuchet ms,verdana,arial,Noto Color Emoji,Apple Color Emoji,Segoe UI Emoji,sans-serif" font-size="16" fill="#2F3B4D"><tspan x="683.95" dy="0.00">int</tspan></text><line x1="447.84" y1="65.60" x2="696.75" y2="65.60" stroke="#AAAA33" stroke-width="1.0" stroke-opacity="0.35"/><text x="460.64" y="81.60" text-anchor="start" font-family="trebuchet ms,verdana,arial,Noto Color Emoji,Apple Color Emoji,Segoe UI Emoji,sans-serif" font-size="16" fill="#333333"><tspan x="460.64" dy="0.00">name</tspan></text><text x="683.95" y="81.60" text-anchor="end" font-family="trebuchet ms,verdana,arial,Noto Color Emoji,Apple Color Emoji,Segoe UI Emoji,sans-serif" font-size="16" fill="#2F3B4D"><tspan x="683.95" dy="0.00">string</tspan></text><line x1="447.84" y1="89.60" x2="696.75" y2="89.60" stroke="#AAAA33" stroke-width="1.0" stroke-opacity="0.35"/><text x="460.64" y="105.60" text-anchor="start" font-family="trebuchet ms,verdana,arial,Noto Color Emoji,Apple Color Emoji,Segoe UI Emoji,sans-serif" font-size="16" fill="#333333"><tspan x="460.64" dy="0.00">bio</tspan></text><text x="683.95" y="105.60" text-anchor="end" font-family="trebuchet ms,verdana,arial,Noto Color Emoji,Apple Color Emoji,Segoe UI Emoji,sans-serif" font-size="16" fill="#2F3B4D"><tspan x="683.95" dy="0.00">string</tspan></text><line x1="447.84" y1="113.60" x2="696.75" y2="113.60" stroke="#AAAA33" stroke-width="1.0" stroke-opacity="0.35"/><text x="460.64" y="129.60" text-anchor="start" font-family="trebuchet ms,verdana,arial,Noto Color Emoji,Apple Color Emoji,Segoe UI Emoji,sans-serif" font-size="16" fill="#333333"><tspan x="460.64" dy="0.00">avatar_url</tspan></text><text x="683.95" y="129.60" text-anchor="end" font-family="trebuchet ms,verdana,arial,Noto Color Emoji,Apple Color Emoji,Segoe UI Emoji,sans-serif" font-size="16" fill="#2F3B4D"><tspan x="683.95" dy="0.00">string</tspan></text><rect x="556.43" y="531.65" width="260.97" height="212.62" rx="6.00" ry="6.00" fill="#FFFFFF" stroke="#7B88A8" stroke-width="1.2"/><rect x="556.43" y="531.65" width="260.97" height="33.60" rx="6.00" ry="6.00" fill="#FFFFDE"/><text x="686.91" y="552.45" text-anchor="middle" font-family="trebuchet ms,verdana,arial,Noto Color Emoji,Apple Color Emoji,Segoe UI Emoji,sans-serif" font-size="16" fill="#333333"><tspan x="686.91" dy="0.00">COMMENT</tspan></text><line x1="556.43" y1="565.25" x2="817.40" y2="565.25" stroke="#AAAA33" stroke-width="1.0" stroke-opacity="0.6"/><line x1="739.96" y1="565.25" x2="739.96" y2="744.27" stroke="#AAAA33" stroke-width="1.0" stroke-opacity="0.45"/><rect x="569.23" y="570.05" width="27.30" height="14.40" rx="7.20" ry="7.20" fill="#1D4ED8"/><text x="582.88" y="581.41" text-anchor="middle" font-family="trebuchet ms,verdana,arial,Noto Color Emoji,Apple Color Emoji,Segoe UI Emoji,sans-serif" font-size="11.52" font-weight="600" fill="#FFFFFF">PK</text><text x="602.93" y="581.25" text-anchor="start" font-family="trebuchet ms,verdana,arial,Noto Color Emoji,Apple Color Emoji,Segoe UI Emoji,sans-serif" font-size="16" fill="#333333"><tspan x="602.93" dy="0.00">id</tspan></text><text x="804.60" y="581.25" text-anchor="end" font-family="trebuchet ms,verdana,arial,Noto Color Emoji,Apple Color Emoji,Segoe UI Emoji,sans-serif" font-size="16" fill="#2F3B4D"><tspan x="804.60" dy="0.00">int</tspan></text><line x1="556.43" y1="589.25" x2="817.40" y2="589.25" stroke="#AAAA33" stroke-width="1.0" stroke-opacity="0.35"/><rect x="569.23" y="594.05" width="27.30" height="14.40" rx="7.20" ry="7.20" fill="#0F766E"/><text x="582.88" y="605.41" text-anchor="middle" font-family="trebuchet ms,verdana,arial,Noto Color Emoji,Apple Color Emoji,Segoe UI Emoji,sans-serif" font-size="11.52" font-weight="600" fill="#FFFFFF">FK</text><text x="602.93" y="605.25" text-anchor="start" font-family="trebuchet ms,verdana,arial,Noto Color Emoji,Apple Color Emoji,Segoe UI Emoji,sans-serif" font-size="16" fill="#333333"><tspan x="602.93" dy="0.00">article_id</tspan></text><text x="804.60" y="605.25" text-anchor="end" font-family="trebuchet ms,verdana,arial,Noto Color Emoji,Apple Color Emoji,Segoe UI Emoji,sans-serif" font-size="16" fill="#2F3B4D"><tspan x="804.60" dy="0.00">int</tspan></text><line x1="556.43" y1="613.25" x2="817.40" y2="613.25" stroke="#AAAA33" stroke-width="1.0" stroke-opacity="0.35"/><rect x="569.23" y="618.05" width="27.30" height="14.40" rx="7.20" ry="7.20" fill="#0F766E"/><text x="582.88" y="629.41" text-anchor="middle" font-family="trebuchet ms,verdana,arial,Noto Color Emoji,Apple Color Emoji,Segoe UI Emoji,sans-serif" font-size="11.52" font-weight="600" fill="#FFFFFF">FK</text><text x="602.93" y="629.25" text-anchor="start" font-family="trebuchet ms,verdana,arial,Noto Color Emoji,Apple Color Emoji,Segoe UI Emoji,sans-serif" font-size="16" fill="#333333"><tspan x="602.93" dy="0.00">reader_id</tspan></text><text x="804.60" y="629.25" text-anchor="end" font-family="trebuchet ms,verdana,arial,Noto Color Emoji,Apple Color Emoji,Segoe UI Emoji,sans-serif" font-size="16" fill="#2F3B4D"><tspan x="804.60" dy="0.00">int</tspan></text><line x1="556.43" y1="637.25" x2="817.40" y2="637.25" stroke="#AAAA33" stroke-width="1.0" stroke-opacity="0.35"/><text x="569.23" y="653.25" text-anchor="start" font-family="trebuchet ms,verdana,arial,Noto Color Emoji,Apple Color Emoji,Segoe UI Emoji,sans-serif" font-size="16" fill="#333333"><tspan x="569.23" dy="0.00">body</tspan></text><text x="804.60" y="653.25" text-anchor="end" font-family="trebuchet ms,verdana,arial,Noto Color Emoji,Apple Color Emoji,Segoe UI Emoji,sans-serif" font-size="16" fill="#2F3B4D"><tspan x="804.60" dy="0.00">text</tspan></text><line x1="556.43" y1="661.25" x2="817.40" y2="661.25" stroke="#AAAA33" stroke-width="1.0" stroke-opacity="0.35"/><text x="569.23" y="677.25" text-anchor="start" font-family="trebuchet ms,verdana,arial,Noto Color Emoji,Apple Color Emoji,Segoe UI Emoji,sans-serif" font-size="16" fill="#333333"><tspan x="569.23" dy="0.00">created_at</tspan></text><text x="804.60" y="677.25" text-anchor="end" font-family="trebuchet ms,verdana,arial,Noto Color Emoji,Apple Color Emoji,Segoe UI Emoji,sans-serif" font-size="16" fill="#2F3B4D"><tspan x="804.60" dy="0.00">date</tspan></text><rect x="8.00" y="8.00" width="128.44" height="61.42" rx="6.00" ry="6.00" fill="#FFFFFF" stroke="#7B88A8" stroke-width="1.2"/><rect x="8.00" y="8.00" width="128.44" height="61.42" rx="6.00" ry="6.00" fill="#FFFFDE"/><text x="72.22" y="42.71" text-anchor="middle" font-family="trebuchet ms,verdana,arial,Noto Color Emoji,Apple Color Emoji,Segoe UI Emoji,sans-serif" font-size="16" fill="#333333"><tspan x="72.22" dy="0.00">READER</tspan></text><rect x="186.31" y="244.62" width="187.57" height="61.42" rx="6.00" ry="6.00" fill="#FFFFFF" stroke="#7B88A8" stroke-width="1.2"/><rect x="186.31" y="244.62" width="187.57" height="61.42" rx="6.00" ry="6.00" fill="#FFFFDE"/><text x="280.10" y="279.34" text-anchor="middle" font-family="trebuchet ms,verdana,arial,Noto Color Emoji,Apple Color Emoji,Segoe UI Emoji,sans-serif" font-size="16" fill="#333333"><tspan x="280.10" dy="0.00">SUBSCRIPTION</tspan></text><rect x="176.44" y="8.00" width="231.40" height="137.02" rx="6.00" ry="6.00" fill="#FFFFFF" stroke="#7B88A8" stroke-width="1.2"/><rect x="176.44" y="8.00" width="231.40" height="33.60" rx="6.00" ry="6.00" fill="#FFFFDE"/><text x="292.14" y="28.80" text-anchor="middle" font-family="trebuchet ms,verdana,arial,Noto Color Emoji,Apple Color Emoji,Segoe UI Emoji,sans-serif" font-size="16" fill="#333333"><tspan x="292.14" dy="0.00">TAG</tspan></text><line x1="176.44" y1="41.60" x2="407.84" y2="41.60" stroke="#AAAA33" stroke-width="1.0" stroke-opacity="0.6"/><line x1="312.48" y1="41.60" x2="312.48" y2="145.02" stroke="#AAAA33" stroke-width="1.0" stroke-opacity="0.45"/><rect x="189.24" y="46.40" width="27.30" height="14.40" rx="7.20" ry="7.20" fill="#1D4ED8"/><text x="202.89" y="57.76" text-anchor="middle" font-family="trebuchet ms,verdana,arial,Noto Color Emoji,Apple Color Emoji,Segoe UI Emoji,sans-serif" font-size="11.52" font-weight="600" fill="#FFFFFF">PK</text><text x="222.94" y="57.60" text-anchor="start" font-family="trebuchet ms,verdana,arial,Noto Color Emoji,Apple Color Emoji,Segoe UI Emoji,sans-serif" font-size="16" fill="#333333"><tspan x="222.94" dy="0.00">id</tspan></text><text x="395.04" y="57.60" text-anchor="end" font-family="trebuchet ms,verdana,arial,Noto Color Emoji,Apple Color Emoji,Segoe UI Emoji,sans-serif" font-size="16" fill="#2F3B4D"><tspan x="395.04" dy="0.00">int</tspan></text><line x1="176.44" y1="65.60" x2="407.84" y2="65.60" stroke="#AAAA33" stroke-width="1.0" stroke-opacity="0.35"/><rect x="189.24" y="70.40" width="27.30" height="14.40" rx="7.20" ry="7.20" fill="#7C3AED"/><text x="202.89" y="81.76" text-anchor="middle" font-family="trebuchet ms,verdana,arial,Noto Color Emoji,Apple Color Emoji,Segoe UI Emoji,sans-serif" font-size="11.52" font-weight="600" fill="#FFFFFF">UK</text><text x="222.94" y="81.60" text-anchor="start" font-family="trebuchet ms,verdana,arial,Noto Color Emoji,Apple Color Emoji,Segoe UI Emoji,sans-serif" font-size="16" fill="#333333"><tspan x="222.94" dy="0.00">name</tspan></text><text x="395.04" y="81.60" text-anchor="end" font-family="trebuchet ms,verdana,arial,Noto Color Emoji,Apple Color Emoji,Segoe UI Emoji,sans-serif" font-size="16" fill="#2F3B4D"><tspan x="395.04" dy="0.00">string</tspan></text><rect x="255.46" y="531.65" width="260.97" height="137.02" rx="6.00" ry="6.00" fill="#FFFFFF" stroke="#7B88A8" stroke-width="1.2"/><rect x="255.46" y="531.65" width="260.97" height="33.60" rx="6.00" ry="6.00" fill="#FFFFDE"/><text x="385.95" y="552.45" text-anchor="middle" font-family="trebuchet ms,verdana,arial,Noto Color Emoji,Apple Color Emoji,Segoe UI Emoji,sans-serif" font-size="16" fill="#333333"><tspan x="385.95" dy="0.00">TAG_MAP</tspan></text><line x1="255.46" y1="565.25" x2="516.43" y2="565.25" stroke="#AAAA33" stroke-width="1.0" stroke-opacity="0.6"/><line x1="447.95" y1="565.25" x2="447.95" y2="668.67" stroke="#AAAA33" stroke-width="1.0" stroke-opacity="0.45"/><rect x="268.26" y="570.05" width="27.30" height="14.40" rx="7.20" ry="7.20" fill="#0F766E"/><text x="281.91" y="581.41" text-anchor="middle" font-family="trebuchet ms,verdana,arial,Noto Color Emoji,Apple Color Emoji,Segoe UI Emoji,sans-serif" font-size="11.52" font-weight="600" fill="#FFFFFF">FK</text><text x="301.96" y="581.25" text-anchor="start" font-family="trebuchet ms,verdana,arial,Noto Color Emoji,Apple Color Emoji,Segoe UI Emoji,sans-serif" font-size="16" fill="#333333"><tspan x="301.96" dy="0.00">article_id</tspan></text><text x="503.63" y="581.25" text-anchor="end" font-family="trebuchet ms,verdana,arial,Noto Color Emoji,Apple Color Emoji,Segoe UI Emoji,sans-serif" font-size="16" fill="#2F3B4D"><tspan x="503.63" dy="0.00">int</tspan></text><line x1="255.46" y1="589.25" x2="516.43" y2="589.25" stroke="#AAAA33" stroke-width="1.0" stroke-opacity="0.35"/><rect x="268.26" y="594.05" width="27.30" height="14.40" rx="7.20" ry="7.20" fill="#0F766E"/><text x="281.91" y="605.41" text-anchor="middle" font-family="trebuchet ms,verdana,arial,Noto Color Emoji,Apple Color Emoji,Segoe UI Emoji,sans-serif" font-size="11.52" font-weight="600" fill="#FFFFFF">FK</text><text x="301.96" y="605.25" text-anchor="start" font-family="trebuchet ms,verdana,arial,Noto Color Emoji,Apple Color Emoji,Segoe UI Emoji,sans-serif" font-size="16" fill="#333333"><tspan x="301.96" dy="0.00">tag_id</tspan></text><text x="503.63" y="605.25" text-anchor="end" font-family="trebuchet ms,verdana,arial,Noto Color Emoji,Apple Color Emoji,Segoe UI Emoji,sans-serif" font-size="16" fill="#2F3B4D"><tspan x="503.63" dy="0.00">int</tspan></text></svg>