<svg xmlns="http://www.w3.org/2000/svg" width="497.7411" height="743.075" viewBox="0 0 497.7411 743.075"><rect x="0" y="0" width="497.7411" height="743.075" fill="#FFFFFF"/><defs><marker id="arrow-0" viewBox="0 0 10 10" refX="5" refY="5" markerUnits="userSpaceOnUse" markerWidth="8" markerHeight="8" orient="auto"><path d="M 0 0 L 10 5 L 0 10 z" fill="#2F3B4D" stroke="#2F3B4D" stroke-width="1" stroke-dasharray="1,0"/></marker><marker id="arrow-start-0" viewBox="0 0 10 10" refX="4.5" refY="5" markerUnits="userSpaceOnUse" markerWidth="8" markerHeight="8" orient="auto"><path d="M 0 5 L 10 10 L 10 0 z" fill="#2F3B4D" stroke="#2F3B4D" stroke-width="1" stroke-dasharray="1,0"/></marker></defs><path id="edge-0" class="edgePath" data-edge-id="edge-0" d="M 118.435,195.425 L 118.435,260.625" fill="none" stroke="#2F3B4D" stroke-width="1"    stroke-linecap="round" stroke-linejoin="round" /><g transform="translate(118.44 195.42) rotate(90.00)"><path d="M 0 -6 L 0 6 M 5 -6 L 5 6" fill="none" stroke="#2F3B4D" stroke-width="1" stroke-linejoin="round" stroke-linecap="round"/></g><g transform="translate(118.44 260.62) rotate(90.00)"><g><circle cx="-4" cy="0" r="4" fill="none" stroke="#2F3B4D" stroke-width="1"/><path d="M 4 0 L 12 -6 M 4 0 L 12 6" fill="none" stroke="#2F3B4D" stroke-width="1" stroke-linejoin="round" stroke-linecap="round"/></g></g><rect data-edge-id="edge-0" data-label-kind="center" x="80.43" y="214.02" width="53.93" height="28.00" rx="2" ry="2" fill="rgba(248,250,252, 0.92)" fill-opacity="0.85" stroke="#7B88A8" stroke-opacity="0.35" stroke-width="0.8"/><g class="edgeLabel" data-edge-id="edge-0" data-label-kind="center"><text x="107.40" y="232.02" text-anchor="middle" font-family="trebuchet ms,verdana,arial,sans-serif" font-size="16" fill="#333333"><tspan x="107.40" dy="0.00">places</tspan></text></g><path id="edge-1" class="edgePath" data-edge-id="edge-1" d="M 118.435,473.250 L 102.435,522.450" fill="none" stroke="#2F3B4D" stroke-width="1"    stroke-linecap="round" stroke-linejoin="round" /><g transform="translate(118.44 473.25) rotate(108.01)"><path d="M 0 -6 L 0 6 M 5 -6 L 5 6" fill="none" stroke="#2F3B4D" stroke-width="1" stroke-linejoin="round" stroke-linecap="round"/></g><g transform="translate(102.44 522.45) rotate(108.01)"><path d="M 0 -6 L 0 6 M 0 0 L 8 -6 M 0 0 L 8 6" fill="none" stroke="#2F3B4D" stroke-width="1" stroke-linejoin="round" stroke-linecap="round"/></g><rect data-edge-id="edge-1" data-label-kind="center" x="91.11" y="472.50" width="69.24" height="28.00" rx="2" ry="2" fill="rgba(248,250,252, 0.92)" fill-opacity="0.85" stroke="#7B88A8" stroke-opacity="0.35" stroke-width="0.8"/><g class="edgeLabel" data-edge-id="edge-1" data-label-kind="center"><text x="125.73" y="490.50" text-anchor="middle" font-family="trebuchet ms,verdana,arial,sans-serif" font-size="16" fill="#333333"><tspan x="125.73" dy="0.00">contains</tspan></text></g><path id="edge-2" class="edgePath" data-edge-id="edge-2" d="M 315.306,220.625 L 248.871,220.625 L 248.871,522.450 L 182.435,522.450" fill="none" stroke="#2F3B4D" stroke-width="1"    stroke-linecap="round" stroke-linejoin="round" /><g transform="translate(315.31 220.62) rotate(180.00)"><path d="M 0 -6 L 0 6 M 5 -6 L 5 6" fill="none" stroke="#2F3B4D" stroke-width="1" stroke-linejoin="round" stroke-linecap="round"/></g><g transform="translate(182.44 522.45) rotate(180.00)"><g><circle cx="-4" cy="0" r="4" fill="none" stroke="#2F3B4D" stroke-width="1"/><path d="M 4 0 L 12 -6 M 4 0 L 12 6" fill="none" stroke="#2F3B4D" stroke-width="1" stroke-linejoin="round" stroke-linecap="round"/></g></g><rect data-edge-id="edge-2" data-label-kind="center" x="250.27" y="217.66" width="61.59" height="28.00" rx="2" ry="2" fill="rgba(248,250,252, 0.92)" fill-opacity="0.85" stroke="#7B88A8" stroke-opacity="0.35" stroke-width="0.8"/><g class="edgeLabel" data-edge-id="edge-2" data-label-kind="center"><text x="281.06" y="235.66" text-anchor="middle" font-family="trebuchet ms,verdana,arial,sans-serif" font-size="16" fill="#333333"><tspan x="281.06" dy="0.00">&quot;is in&quot;</tspan></text></g><path id="edge-3" class="edgePath" data-edge-id="edge-3" d="M 395.306,220.625 L 379.306,269.825" fill="none" stroke="#2F3B4D" stroke-width="1"    stroke-linecap="round" stroke-linejoin="round" /><g transform="translate(395.31 220.62) rotate(108.01)"><g><circle cx="-4" cy="0" r="4" fill="none" stroke="#2F3B4D" stroke-width="1"/><path d="M 4 0 L 12 -6 M 4 0 L 12 6" fill="none" stroke="#2F3B4D" stroke-width="1" stroke-linejoin="round" stroke-linecap="round"/></g></g><g transform="translate(379.31 269.82) rotate(108.01)"><path d="M 0 -6 L 0 6 M 5 -6 L 5 6" fill="none" stroke="#2F3B4D" stroke-width="1" stroke-linejoin="round" stroke-linecap="round"/></g><rect data-edge-id="edge-3" data-label-kind="center" x="354.39" y="214.62" width="99.86" height="28.00" rx="2" ry="2" fill="rgba(248,250,252, 0.92)" fill-opacity="0.85" stroke="#7B88A8" stroke-opacity="0.35" stroke-width="0.8"/><g class="edgeLabel" data-edge-id="edge-3" data-label-kind="center"><text x="404.32" y="232.62" text-anchor="middle" font-family="trebuchet ms,verdana,arial,sans-serif" font-size="16" fill="#333333"><tspan x="404.32" dy="0.00">&quot;belongs to&quot;</tspan></text></g><rect x="268.87" y="269.82" width="220.87" height="162.22" rx="6.00" ry="6.00" fill="#FFFFFF" stroke="#7B88A8" stroke-width="1.2"/><rect x="268.87" y="269.82" width="220.87" height="33.60" rx="6.00" ry="6.00" fill="#FFFFDE"/><text x="379.31" y="290.62" text-anchor="middle" font-family="trebuchet ms,verdana,arial,sans-serif" font-size="16" fill="#333333"><tspan x="379.31" dy="0.00">CATEGORY</tspan></text><line x1="268.87" y1="303.42" x2="489.74" y2="303.42" stroke="#AAAA33" stroke-width="1.0" stroke-opacity="0.6"/><line x1="416.06" y1="303.42" x2="416.06" y2="432.05" stroke="#AAAA33" stroke-width="1.0" stroke-opacity="0.45"/><rect x="281.67" y="308.22" width="27.00" height="14.40" rx="7.20" ry="7.20" fill="#1D4ED8"/><text x="295.17" y="319.58" text-anchor="middle" font-family="trebuchet ms,verdana,arial,sans-serif" font-size="11.52" font-weight="600" fill="#FFFFFF">PK</text><text x="315.07" y="319.42" text-anchor="start" font-family="trebuchet ms,verdana,arial,sans-serif" font-size="16" fill="#333333"><tspan x="315.07" dy="0.00">id</tspan></text><text x="476.94" y="319.42" text-anchor="end" font-family="trebuchet ms,verdana,arial,sans-serif" font-size="16" fill="#2F3B4D"><tspan x="476.94" dy="0.00">int</tspan></text><line x1="268.87" y1="327.42" x2="489.74" y2="327.42" stroke="#AAAA33" stroke-width="1.0" stroke-opacity="0.35"/><text x="281.67" y="343.42" text-anchor="start" font-family="trebuchet ms,verdana,arial,sans-serif" font-size="16" fill="#333333"><tspan x="281.67" dy="0.00">name</tspan></text><text x="476.94" y="343.42" text-anchor="end" font-family="trebuchet ms,verdana,arial,sans-serif" font-size="16" fill="#2F3B4D"><tspan x="476.94" dy="0.00">string</tspan></text><line x1="268.87" y1="351.42" x2="489.74" y2="351.42" stroke="#AAAA33" stroke-width="1.0" stroke-opacity="0.35"/><text x="281.67" y="367.42" text-anchor="start" font-family="trebuchet ms,verdana,arial,sans-serif" font-size="16" fill="#333333"><tspan x="281.67" dy="0.00">description</tspan></text><text x="476.94" y="367.42" text-anchor="end" font-family="trebuchet ms,verdana,arial,sans-serif" font-size="16" fill="#2F3B4D"><tspan x="476.94" dy="0.00">string</tspan></text><rect x="20.63" y="8.00" width="195.61" height="187.42" rx="6.00" ry="6.00" fill="#FFFFFF" stroke="#7B88A8" stroke-width="1.2"/><rect x="20.63" y="8.00" width="195.61" height="33.60" rx="6.00" ry="6.00" fill="#FFFFDE"/><text x="118.44" y="28.80" text-anchor="middle" font-family="trebuchet ms,verdana,arial,sans-serif" font-size="16" fill="#333333"><tspan x="118.44" dy="0.00">CUSTOMER</tspan></text><line x1="20.63" y1="41.60" x2="216.24" y2="41.60" stroke="#AAAA33" stroke-width="1.0" stroke-opacity="0.6"/><line x1="142.56" y1="41.60" x2="142.56" y2="195.42" stroke="#AAAA33" stroke-width="1.0" stroke-opacity="0.45"/><rect x="33.43" y="46.40" width="27.00" height="14.40" rx="7.20" ry="7.20" fill="#1D4ED8"/><text x="46.93" y="57.76" text-anchor="middle" font-family="trebuchet ms,verdana,arial,sans-serif" font-size="11.52" font-weight="600" fill="#FFFFFF">PK</text><text x="66.83" y="57.60" text-anchor="start" font-family="trebuchet ms,verdana,arial,sans-serif" font-size="16" fill="#333333"><tspan x="66.83" dy="0.00">id</tspan></text><text x="203.44" y="57.60" text-anchor="end" font-family="trebuchet ms,verdana,arial,sans-serif" font-size="16" fill="#2F3B4D"><tspan x="203.44" dy="0.00">int</tspan></text><line x1="20.63" y1="65.60" x2="216.24" y2="65.60" stroke="#AAAA33" stroke-width="1.0" stroke-opacity="0.35"/><text x="33.43" y="81.60" text-anchor="start" font-family="trebuchet ms,verdana,arial,sans-serif" font-size="16" fill="#333333"><tspan x="33.43" dy="0.00">name</tspan></text><text x="203.44" y="81.60" text-anchor="end" font-family="trebuchet ms,verdana,arial,sans-serif" font-size="16" fill="#2F3B4D"><tspan x="203.44" dy="0.00">string</tspan></text><line x1="20.63" y1="89.60" x2="216.24" y2="89.60" stroke="#AAAA33" stroke-width="1.0" stroke-opacity="0.35"/><rect x="33.43" y="94.40" width="27.52" height="14.40" rx="7.20" ry="7.20" fill="#7C3AED"/><text x="47.19" y="105.76" text-anchor="middle" font-family="trebuchet ms,verdana,arial,sans-serif" font-size="11.52" font-weight="600" fill="#FFFFFF">UK</text><text x="67.35" y="105.60" text-anchor="start" font-family="trebuchet ms,verdana,arial,sans-serif" font-size="16" fill="#333333"><tspan x="67.35" dy="0.00">email</tspan></text><text x="203.44" y="105.60" text-anchor="end" font-family="trebuchet ms,verdana,arial,sans-serif" font-size="16" fill="#2F3B4D"><tspan x="203.44" dy="0.00">string</tspan></text><line x1="20.63" y1="113.60" x2="216.24" y2="113.60" stroke="#AAAA33" stroke-width="1.0" stroke-opacity="0.35"/><text x="33.43" y="129.60" text-anchor="start" font-family="trebuchet ms,verdana,arial,sans-serif" font-size="16" fill="#333333"><tspan x="33.43" dy="0.00">phone</tspan></text><text x="203.44" y="129.60" text-anchor="end" font-family="trebuchet ms,verdana,arial,sans-serif" font-size="16" fill="#2F3B4D"><tspan x="203.44" dy="0.00">string</tspan></text><rect x="12.21" y="522.45" width="212.45" height="212.62" rx="6.00" ry="6.00" fill="#FFFFFF" stroke="#7B88A8" stroke-width="1.2"/><rect x="12.21" y="522.45" width="212.45" height="33.60" rx="6.00" ry="6.00" fill="#FFFFDE"/><text x="118.44" y="543.25" text-anchor="middle" font-family="trebuchet ms,verdana,arial,sans-serif" font-size="16" fill="#333333"><tspan x="118.44" dy="0.00">LINE_ITEM</tspan></text><line x1="12.21" y1="556.05" x2="224.66" y2="556.05" stroke="#AAAA33" stroke-width="1.0" stroke-opacity="0.6"/><line x1="158.26" y1="556.05" x2="158.26" y2="735.08" stroke="#AAAA33" stroke-width="1.0" stroke-opacity="0.45"/><rect x="25.01" y="560.85" width="27.00" height="14.40" rx="7.20" ry="7.20" fill="#1D4ED8"/><text x="38.51" y="572.21" text-anchor="middle" font-family="trebuchet ms,verdana,arial,sans-serif" font-size="11.52" font-weight="600" fill="#FFFFFF">PK</text><text x="58.41" y="572.05" text-anchor="start" font-family="trebuchet ms,verdana,arial,sans-serif" font-size="16" fill="#333333"><tspan x="58.41" dy="0.00">id</tspan></text><text x="211.86" y="572.05" text-anchor="end" font-family="trebuchet ms,verdana,arial,sans-serif" font-size="16" fill="#2F3B4D"><tspan x="211.86" dy="0.00">int</tspan></text><line x1="12.21" y1="580.05" x2="224.66" y2="580.05" stroke="#AAAA33" stroke-width="1.0" stroke-opacity="0.35"/><rect x="25.01" y="584.85" width="26.47" height="14.40" rx="7.20" ry="7.20" fill="#0F766E"/><text x="38.25" y="596.21" text-anchor="middle" font-family="trebuchet ms,verdana,arial,sans-serif" font-size="11.52" font-weight="600" fill="#FFFFFF">FK</text><text x="57.88" y="596.05" text-anchor="start" font-family="trebuchet ms,verdana,arial,sans-serif" font-size="16" fill="#333333"><tspan x="57.88" dy="0.00">order_id</tspan></text><text x="211.86" y="596.05" text-anchor="end" font-family="trebuchet ms,verdana,arial,sans-serif" font-size="16" fill="#2F3B4D"><tspan x="211.86" dy="0.00">int</tspan></text><line x1="12.21" y1="604.05" x2="224.66" y2="604.05" stroke="#AAAA33" stroke-width="1.0" stroke-opacity="0.35"/><rect x="25.01" y="608.85" width="26.47" height="14.40" rx="7.20" ry="7.20" fill="#0F766E"/><text x="38.25" y="620.21" text-anchor="middle" font-family="trebuchet ms,verdana,arial,sans-serif" font-size="11.52" font-weight="600" fill="#FFFFFF">FK</text><text x="57.88" y="620.05" text-anchor="start" font-family="trebuchet ms,verdana,arial,sans-serif" font-size="16" fill="#333333"><tspan x="57.88" dy="0.00">product_id</tspan></text><text x="211.86" y="620.05" text-anchor="end" font-family="trebuchet ms,verdana,arial,sans-serif" font-size="16" fill="#2F3B4D"><tspan x="211.86" dy="0.00">int</tspan></text><line x1="12.21" y1="628.05" x2="224.66" y2="628.05" stroke="#AAAA33" stroke-width="1.0" stroke-opacity="0.35"/><text x="25.01" y="644.05" text-anchor="start" font-family="trebuchet ms,verdana,arial,sans-serif" font-size="16" fill="#333333"><tspan x="25.01" dy="0.00">quantity</tspan></text><text x="211.86" y="644.05" text-anchor="end" font-family="trebuchet ms,verdana,arial,sans-serif" font-size="16" fill="#2F3B4D"><tspan x="211.86" dy="0.00">int</tspan></text><line x1="12.21" y1="652.05" x2="224.66" y2="652.05" stroke="#AAAA33" stroke-width="1.0" stroke-opacity="0.35"/><text x="25.01" y="668.05" text-anchor="start" font-family="trebuchet ms,verdana,arial,sans-serif" font-size="16" fill="#333333"><tspan x="25.01" dy="0.00">unit_price</tspan></text><text x="211.86" y="668.05" text-anchor="end" font-family="trebuchet ms,verdana,arial,sans-serif" font-size="16" fill="#2F3B4D"><tspan x="211.86" dy="0.00">float</tspan></text><rect x="8.00" y="260.62" width="220.87" height="212.62" rx="6.00" ry="6.00" fill="#FFFFFF" stroke="#7B88A8" stroke-width="1.2"/><rect x="8.00" y="260.62" width="220.87" height="33.60" rx="6.00" ry="6.00" fill="#FFFFDE"/><text x="118.44" y="281.42" text-anchor="middle" font-family="trebuchet ms,verdana,arial,sans-serif" font-size="16" fill="#333333"><tspan x="118.44" dy="0.00">ORDER</tspan></text><line x1="8.00" y1="294.23" x2="228.87" y2="294.23" stroke="#AAAA33" stroke-width="1.0" stroke-opacity="0.6"/><line x1="155.19" y1="294.23" x2="155.19" y2="473.25" stroke="#AAAA33" stroke-width="1.0" stroke-opacity="0.45"/><rect x="20.80" y="299.02" width="27.00" height="14.40" rx="7.20" ry="7.20" fill="#1D4ED8"/><text x="34.30" y="310.39" text-anchor="middle" font-family="trebuchet ms,verdana,arial,sans-serif" font-size="11.52" font-weight="600" fill="#FFFFFF">PK</text><text x="54.20" y="310.23" text-anchor="start" font-family="trebuchet ms,verdana,arial,sans-serif" font-size="16" fill="#333333"><tspan x="54.20" dy="0.00">id</tspan></text><text x="216.07" y="310.23" text-anchor="end" font-family="trebuchet ms,verdana,arial,sans-serif" font-size="16" fill="#2F3B4D"><tspan x="216.07" dy="0.00">int</tspan></text><line x1="8.00" y1="318.23" x2="228.87" y2="318.23" stroke="#AAAA33" stroke-width="1.0" stroke-opacity="0.35"/><rect x="20.80" y="323.02" width="26.47" height="14.40" rx="7.20" ry="7.20" fill="#0F766E"/><text x="34.04" y="334.39" text-anchor="middle" font-family="trebuchet ms,verdana,arial,sans-serif" font-size="11.52" font-weight="600" fill="#FFFFFF">FK</text><text x="53.67" y="334.23" text-anchor="start" font-family="trebuchet ms,verdana,arial,sans-serif" font-size="16" fill="#333333"><tspan x="53.67" dy="0.00">customer_id</tspan></text><text x="216.07" y="334.23" text-anchor="end" font-family="trebuchet ms,verdana,arial,sans-serif" font-size="16" fill="#2F3B4D"><tspan x="216.07" dy="0.00">int</tspan></text><line x1="8.00" y1="342.23" x2="228.87" y2="342.23" stroke="#AAAA33" stroke-width="1.0" stroke-opacity="0.35"/><text x="20.80" y="358.23" text-anchor="start" font-family="trebuchet ms,verdana,arial,sans-serif" font-size="16" fill="#333333"><tspan x="20.80" dy="0.00">order_date</tspan></text><text x="216.07" y="358.23" text-anchor="end" font-family="trebuchet ms,verdana,arial,sans-serif" font-size="16" fill="#2F3B4D"><tspan x="216.07" dy="0.00">date</tspan></text><line x1="8.00" y1="366.23" x2="228.87" y2="366.23" stroke="#AAAA33" stroke-width="1.0" stroke-opacity="0.35"/><text x="20.80" y="382.23" text-anchor="start" font-family="trebuchet ms,verdana,arial,sans-serif" font-size="16" fill="#333333"><tspan x="20.80" dy="0.00">status</tspan></text><text x="216.07" y="382.23" text-anchor="end" font-family="trebuchet ms,verdana,arial,sans-serif" font-size="16" fill="#2F3B4D"><tspan x="216.07" dy="0.00">string</tspan></text><line x1="8.00" y1="390.23" x2="228.87" y2="390.23" stroke="#AAAA33" stroke-width="1.0" stroke-opacity="0.35"/><text x="20.80" y="406.23" text-anchor="start" font-family="trebuchet ms,verdana,arial,sans-serif" font-size="16" fill="#333333"><tspan x="20.80" dy="0.00">total</tspan></text><text x="216.07" y="406.23" text-anchor="end" font-family="trebuchet ms,verdana,arial,sans-serif" font-size="16" fill="#2F3B4D"><tspan x="216.07" dy="0.00">float</tspan></text><rect x="281.50" y="8.00" width="195.61" height="212.62" rx="6.00" ry="6.00" fill="#FFFFFF" stroke="#7B88A8" stroke-width="1.2"/><rect x="281.50" y="8.00" width="195.61" height="33.60" rx="6.00" ry="6.00" fill="#FFFFDE"/><text x="379.31" y="28.80" text-anchor="middle" font-family="trebuchet ms,verdana,arial,sans-serif" font-size="16" fill="#333333"><tspan x="379.31" dy="0.00">PRODUCT</tspan></text><line x1="281.50" y1="41.60" x2="477.11" y2="41.60" stroke="#AAAA33" stroke-width="1.0" stroke-opacity="0.6"/><line x1="403.43" y1="41.60" x2="403.43" y2="220.62" stroke="#AAAA33" stroke-width="1.0" stroke-opacity="0.45"/><rect x="294.30" y="46.40" width="27.00" height="14.40" rx="7.20" ry="7.20" fill="#1D4ED8"/><text x="307.80" y="57.76" text-anchor="middle" font-family="trebuchet ms,verdana,arial,sans-serif" font-size="11.52" font-weight="600" fill="#FFFFFF">PK</text><text x="327.70" y="57.60" text-anchor="start" font-family="trebuchet ms,verdana,arial,sans-serif" font-size="16" fill="#333333"><tspan x="327.70" dy="0.00">id</tspan></text><text x="464.31" y="57.60" text-anchor="end" font-family="trebuchet ms,verdana,arial,sans-serif" font-size="16" fill="#2F3B4D"><tspan x="464.31" dy="0.00">int</tspan></text><line x1="281.50" y1="65.60" x2="477.11" y2="65.60" stroke="#AAAA33" stroke-width="1.0" stroke-opacity="0.35"/><text x="294.30" y="81.60" text-anchor="start" font-family="trebuchet ms,verdana,arial,sans-serif" font-size="16" fill="#333333"><tspan x="294.30" dy="0.00">name</tspan></text><text x="464.31" y="81.60" text-anchor="end" font-family="trebuchet ms,verdana,arial,sans-serif" font-size="16" fill="#2F3B4D"><tspan x="464.31" dy="0.00">string</tspan></text><line x1="281.50" y1="89.60" x2="477.11" y2="89.60" stroke="#AAAA33" stroke-width="1.0" stroke-opacity="0.35"/><text x="294.30" y="105.60" text-anchor="start" font-family="trebuchet ms,verdana,arial,sans-serif" font-size="16" fill="#333333"><tspan x="294.30" dy="0.00">category</tspan></text><text x="464.31" y="105.60" text-anchor="end" font-family="trebuchet ms,verdana,arial,sans-serif" font-size="16" fill="#2F3B4D"><tspan x="464.31" dy="0.00">string</tspan></text><line x1="281.50" y1="113.60" x2="477.11" y2="113.60" stroke="#AAAA33" stroke-width="1.0" stroke-opacity="0.35"/><text x="294.30" y="129.60" text-anchor="start" font-family="trebuchet ms,verdana,arial,sans-serif" font-size="16" fill="#333333"><tspan x="294.30" dy="0.00">price</tspan></text><text x="464.31" y="129.60" text-anchor="end" font-family="trebuchet ms,verdana,arial,sans-serif" font-size="16" fill="#2F3B4D"><tspan x="464.31" dy="0.00">float</tspan></text><line x1="281.50" y1="137.60" x2="477.11" y2="137.60" stroke="#AAAA33" stroke-width="1.0" stroke-opacity="0.35"/><text x="294.30" y="153.60" text-anchor="start" font-family="trebuchet ms,verdana,arial,sans-serif" font-size="16" fill="#333333"><tspan x="294.30" dy="0.00">stock</tspan></text><text x="464.31" y="153.60" text-anchor="end" font-family="trebuchet ms,verdana,arial,sans-serif" font-size="16" fill="#2F3B4D"><tspan x="464.31" dy="0.00">int</tspan></text></svg>