<svg xmlns="http://www.w3.org/2000/svg" width="480.89996" height="626.2749" viewBox="0 0 480.89996 626.2749"><rect x="0" y="0" width="480.89996" height="626.2749" fill="#FFFFFF"/><defs><marker id="arrow-0" viewBox="0 0 10 10" refX="5" refY="5" markerUnits="userSpaceOnUse" markerWidth="8" markerHeight="8" orient="auto"><path d="M 0 0 L 10 5 L 0 10 z" fill="#2F3B4D" stroke="#2F3B4D" stroke-width="1" stroke-dasharray="1,0"/></marker><marker id="arrow-start-0" viewBox="0 0 10 10" refX="4.5" refY="5" markerUnits="userSpaceOnUse" markerWidth="8" markerHeight="8" orient="auto"><path d="M 0 5 L 10 10 L 10 0 z" fill="#2F3B4D" stroke="#2F3B4D" stroke-width="1" stroke-dasharray="1,0"/></marker></defs><path id="edge-0" class="edgePath" data-edge-id="edge-0" d="M 176.450,170.225 L 146.225,219.425" fill="none" stroke="#2F3B4D" stroke-width="1"    stroke-linecap="round" stroke-linejoin="round" /><g transform="translate(176.45 170.22) rotate(121.56)"><path d="M 0 -6 L 0 6 M 5 -6 L 5 6" fill="none" stroke="#2F3B4D" stroke-width="1" stroke-linejoin="round" stroke-linecap="round"/></g><g transform="translate(146.22 219.42) rotate(121.56)"><g><circle cx="-4" cy="0" r="4" fill="none" stroke="#2F3B4D" stroke-width="1"/><path d="M 4 0 L 12 -6 M 4 0 L 12 6" fill="none" stroke="#2F3B4D" stroke-width="1" stroke-linejoin="round" stroke-linecap="round"/></g></g><rect data-edge-id="edge-0" data-label-kind="center" x="117.24" y="187.62" width="53.93" height="28.00" rx="2" ry="2" fill="rgba(248,250,252, 0.92)" fill-opacity="0.85" stroke="#7B88A8" stroke-opacity="0.35" stroke-width="0.8"/><g class="edgeLabel" data-edge-id="edge-0" data-label-kind="center"><text x="144.21" y="205.62" text-anchor="middle" font-family="trebuchet ms,verdana,arial,sans-serif" font-size="16" fill="#333333"><tspan x="144.21" dy="0.00">writes</tspan></text></g><path id="edge-1" class="edgePath" data-edge-id="edge-1" d="M 304.450,170.225 L 334.675,219.425" fill="none" stroke="#2F3B4D" stroke-width="1"    stroke-linecap="round" stroke-linejoin="round" /><g transform="translate(304.45 170.22) rotate(58.44)"><path d="M 0 -6 L 0 6 M 5 -6 L 5 6" fill="none" stroke="#2F3B4D" stroke-width="1" stroke-linejoin="round" stroke-linecap="round"/></g><g transform="translate(334.67 219.42) rotate(58.44)"><g><circle cx="-4" cy="0" r="4" fill="none" stroke="#2F3B4D" stroke-width="1"/><path d="M 4 0 L 12 -6 M 4 0 L 12 6" fill="none" stroke="#2F3B4D" stroke-width="1" stroke-linejoin="round" stroke-linecap="round"/></g></g><rect data-edge-id="edge-1" data-label-kind="center" x="285.61" y="171.84" width="30.97" height="28.00" rx="2" ry="2" fill="rgba(248,250,252, 0.92)" fill-opacity="0.85" stroke="#7B88A8" stroke-opacity="0.35" stroke-width="0.8"/><g class="edgeLabel" data-edge-id="edge-1" data-label-kind="center"><text x="301.09" y="189.84" text-anchor="middle" font-family="trebuchet ms,verdana,arial,sans-serif" font-size="16" fill="#333333"><tspan x="301.09" dy="0.00">has</tspan></text></g><path id="edge-2" class="edgePath" data-edge-id="edge-2" d="M 114.225,406.850 L 114.225,456.050" fill="none" stroke="#2F3B4D" stroke-width="1"    stroke-linecap="round" stroke-linejoin="round" /><g transform="translate(114.22 406.85) rotate(90.00)"><path d="M 0 -6 L 0 6 M 5 -6 L 5 6" fill="none" stroke="#2F3B4D" stroke-width="1" stroke-linejoin="round" stroke-linecap="round"/></g><g transform="translate(114.22 456.05) rotate(90.00)"><g><circle cx="-4" cy="0" r="4" fill="none" stroke="#2F3B4D" stroke-width="1"/><path d="M 4 0 L 12 -6 M 4 0 L 12 6" fill="none" stroke="#2F3B4D" stroke-width="1" stroke-linejoin="round" stroke-linecap="round"/></g></g><rect data-edge-id="edge-2" data-label-kind="center" x="68.56" y="417.45" width="69.24" height="28.00" rx="2" ry="2" fill="rgba(248,250,252, 0.92)" fill-opacity="0.85" stroke="#7B88A8" stroke-opacity="0.35" stroke-width="0.8"/><g class="edgeLabel" data-edge-id="edge-2" data-label-kind="center"><text x="103.18" y="435.45" text-anchor="middle" font-family="trebuchet ms,verdana,arial,sans-serif" font-size="16" fill="#333333"><tspan x="103.18" dy="0.00">receives</tspan></text></g><rect x="8.00" y="456.05" width="212.45" height="162.22" rx="6.00" ry="6.00" fill="#FFFFFF" stroke="#7B88A8" stroke-width="1.2"/><rect x="8.00" y="456.05" width="212.45" height="33.60" rx="6.00" ry="6.00" fill="#FFFFDE"/><text x="114.22" y="476.85" text-anchor="middle" font-family="trebuchet ms,verdana,arial,sans-serif" font-size="16" fill="#333333"><tspan x="114.22" dy="0.00">COMMENT</tspan></text><line x1="8.00" y1="489.65" x2="220.45" y2="489.65" stroke="#AAAA33" stroke-width="1.0" stroke-opacity="0.6"/><line x1="146.77" y1="489.65" x2="146.77" y2="618.27" stroke="#AAAA33" stroke-width="1.0" stroke-opacity="0.45"/><rect x="20.80" y="494.45" width="27.00" height="14.40" rx="7.20" ry="7.20" fill="#1D4ED8"/><text x="34.30" y="505.81" text-anchor="middle" font-family="trebuchet ms,verdana,arial,sans-serif" font-size="11.52" font-weight="600" fill="#FFFFFF">PK</text><text x="54.20" y="505.65" text-anchor="start" font-family="trebuchet ms,verdana,arial,sans-serif" font-size="16" fill="#333333"><tspan x="54.20" dy="0.00">id</tspan></text><text x="207.65" y="505.65" text-anchor="end" font-family="trebuchet ms,verdana,arial,sans-serif" font-size="16" fill="#2F3B4D"><tspan x="207.65" dy="0.00">string</tspan></text><line x1="8.00" y1="513.65" x2="220.45" y2="513.65" stroke="#AAAA33" stroke-width="1.0" stroke-opacity="0.35"/><rect x="20.80" y="518.45" width="26.47" height="14.40" rx="7.20" ry="7.20" fill="#0F766E"/><text x="34.04" y="529.81" text-anchor="middle" font-family="trebuchet ms,verdana,arial,sans-serif" font-size="11.52" font-weight="600" fill="#FFFFFF">FK</text><text x="53.67" y="529.65" text-anchor="start" font-family="trebuchet ms,verdana,arial,sans-serif" font-size="16" fill="#333333"><tspan x="53.67" dy="0.00">post_id</tspan></text><text x="207.65" y="529.65" text-anchor="end" font-family="trebuchet ms,verdana,arial,sans-serif" font-size="16" fill="#2F3B4D"><tspan x="207.65" dy="0.00">string</tspan></text><line x1="8.00" y1="537.65" x2="220.45" y2="537.65" stroke="#AAAA33" stroke-width="1.0" stroke-opacity="0.35"/><text x="20.80" y="553.65" text-anchor="start" font-family="trebuchet ms,verdana,arial,sans-serif" font-size="16" fill="#333333"><tspan x="20.80" dy="0.00">body</tspan></text><text x="207.65" y="553.65" text-anchor="end" font-family="trebuchet ms,verdana,arial,sans-serif" font-size="16" fill="#2F3B4D"><tspan x="207.65" dy="0.00">string</tspan></text><rect x="8.00" y="219.42" width="212.45" height="187.42" rx="6.00" ry="6.00" fill="#FFFFFF" stroke="#7B88A8" stroke-width="1.2"/><rect x="8.00" y="219.42" width="212.45" height="33.60" rx="6.00" ry="6.00" fill="#FFFFDE"/><text x="114.22" y="240.22" text-anchor="middle" font-family="trebuchet ms,verdana,arial,sans-serif" font-size="16" fill="#333333"><tspan x="114.22" dy="0.00">POST</tspan></text><line x1="8.00" y1="253.02" x2="220.45" y2="253.02" stroke="#AAAA33" stroke-width="1.0" stroke-opacity="0.6"/><line x1="146.77" y1="253.02" x2="146.77" y2="406.85" stroke="#AAAA33" stroke-width="1.0" stroke-opacity="0.45"/><rect x="20.80" y="257.82" width="27.00" height="14.40" rx="7.20" ry="7.20" fill="#1D4ED8"/><text x="34.30" y="269.18" text-anchor="middle" font-family="trebuchet ms,verdana,arial,sans-serif" font-size="11.52" font-weight="600" fill="#FFFFFF">PK</text><text x="54.20" y="269.02" text-anchor="start" font-family="trebuchet ms,verdana,arial,sans-serif" font-size="16" fill="#333333"><tspan x="54.20" dy="0.00">id</tspan></text><text x="207.65" y="269.02" text-anchor="end" font-family="trebuchet ms,verdana,arial,sans-serif" font-size="16" fill="#2F3B4D"><tspan x="207.65" dy="0.00">string</tspan></text><line x1="8.00" y1="277.02" x2="220.45" y2="277.02" stroke="#AAAA33" stroke-width="1.0" stroke-opacity="0.35"/><rect x="20.80" y="281.82" width="26.47" height="14.40" rx="7.20" ry="7.20" fill="#0F766E"/><text x="34.04" y="293.18" text-anchor="middle" font-family="trebuchet ms,verdana,arial,sans-serif" font-size="11.52" font-weight="600" fill="#FFFFFF">FK</text><text x="53.67" y="293.02" text-anchor="start" font-family="trebuchet ms,verdana,arial,sans-serif" font-size="16" fill="#333333"><tspan x="53.67" dy="0.00">user_id</tspan></text><text x="207.65" y="293.02" text-anchor="end" font-family="trebuchet ms,verdana,arial,sans-serif" font-size="16" fill="#2F3B4D"><tspan x="207.65" dy="0.00">string</tspan></text><line x1="8.00" y1="301.02" x2="220.45" y2="301.02" stroke="#AAAA33" stroke-width="1.0" stroke-opacity="0.35"/><text x="20.80" y="317.02" text-anchor="start" font-family="trebuchet ms,verdana,arial,sans-serif" font-size="16" fill="#333333"><tspan x="20.80" dy="0.00">title</tspan></text><text x="207.65" y="317.02" text-anchor="end" font-family="trebuchet ms,verdana,arial,sans-serif" font-size="16" fill="#2F3B4D"><tspan x="207.65" dy="0.00">string</tspan></text><line x1="8.00" y1="325.02" x2="220.45" y2="325.02" stroke="#AAAA33" stroke-width="1.0" stroke-opacity="0.35"/><text x="20.80" y="341.02" text-anchor="start" font-family="trebuchet ms,verdana,arial,sans-serif" font-size="16" fill="#333333"><tspan x="20.80" dy="0.00">status</tspan></text><text x="207.65" y="341.02" text-anchor="end" font-family="trebuchet ms,verdana,arial,sans-serif" font-size="16" fill="#2F3B4D"><tspan x="207.65" dy="0.00">string</tspan></text><rect x="260.45" y="219.42" width="212.45" height="162.22" rx="6.00" ry="6.00" fill="#FFFFFF" stroke="#7B88A8" stroke-width="1.2"/><rect x="260.45" y="219.42" width="212.45" height="33.60" rx="6.00" ry="6.00" fill="#FFFFDE"/><text x="366.67" y="240.22" text-anchor="middle" font-family="trebuchet ms,verdana,arial,sans-serif" font-size="16" fill="#333333"><tspan x="366.67" dy="0.00">SESSION</tspan></text><line x1="260.45" y1="253.02" x2="472.90" y2="253.02" stroke="#AAAA33" stroke-width="1.0" stroke-opacity="0.6"/><line x1="399.22" y1="253.02" x2="399.22" y2="381.65" stroke="#AAAA33" stroke-width="1.0" stroke-opacity="0.45"/><rect x="273.25" y="257.82" width="27.00" height="14.40" rx="7.20" ry="7.20" fill="#1D4ED8"/><text x="286.75" y="269.18" text-anchor="middle" font-family="trebuchet ms,verdana,arial,sans-serif" font-size="11.52" font-weight="600" fill="#FFFFFF">PK</text><text x="306.65" y="269.02" text-anchor="start" font-family="trebuchet ms,verdana,arial,sans-serif" font-size="16" fill="#333333"><tspan x="306.65" dy="0.00">id</tspan></text><text x="460.10" y="269.02" text-anchor="end" font-family="trebuchet ms,verdana,arial,sans-serif" font-size="16" fill="#2F3B4D"><tspan x="460.10" dy="0.00">string</tspan></text><line x1="260.45" y1="277.02" x2="472.90" y2="277.02" stroke="#AAAA33" stroke-width="1.0" stroke-opacity="0.35"/><rect x="273.25" y="281.82" width="26.47" height="14.40" rx="7.20" ry="7.20" fill="#0F766E"/><text x="286.49" y="293.18" text-anchor="middle" font-family="trebuchet ms,verdana,arial,sans-serif" font-size="11.52" font-weight="600" fill="#FFFFFF">FK</text><text x="306.12" y="293.02" text-anchor="start" font-family="trebuchet ms,verdana,arial,sans-serif" font-size="16" fill="#333333"><tspan x="306.12" dy="0.00">user_id</tspan></text><text x="460.10" y="293.02" text-anchor="end" font-family="trebuchet ms,verdana,arial,sans-serif" font-size="16" fill="#2F3B4D"><tspan x="460.10" dy="0.00">string</tspan></text><line x1="260.45" y1="301.02" x2="472.90" y2="301.02" stroke="#AAAA33" stroke-width="1.0" stroke-opacity="0.35"/><text x="273.25" y="317.02" text-anchor="start" font-family="trebuchet ms,verdana,arial,sans-serif" font-size="16" fill="#333333"><tspan x="273.25" dy="0.00">created_at</tspan></text><text x="460.10" y="317.02" text-anchor="end" font-family="trebuchet ms,verdana,arial,sans-serif" font-size="16" fill="#2F3B4D"><tspan x="460.10" dy="0.00">date</tspan></text><rect x="142.65" y="8.00" width="195.61" height="162.22" rx="6.00" ry="6.00" fill="#FFFFFF" stroke="#7B88A8" stroke-width="1.2"/><rect x="142.65" y="8.00" width="195.61" height="33.60" rx="6.00" ry="6.00" fill="#FFFFDE"/><text x="240.45" y="28.80" text-anchor="middle" font-family="trebuchet ms,verdana,arial,sans-serif" font-size="16" fill="#333333"><tspan x="240.45" dy="0.00">USER</tspan></text><line x1="142.65" y1="41.60" x2="338.25" y2="41.60" stroke="#AAAA33" stroke-width="1.0" stroke-opacity="0.6"/><line x1="264.57" y1="41.60" x2="264.57" y2="170.22" stroke="#AAAA33" stroke-width="1.0" stroke-opacity="0.45"/><rect x="155.45" y="46.40" width="27.00" height="14.40" rx="7.20" ry="7.20" fill="#1D4ED8"/><text x="168.95" y="57.76" text-anchor="middle" font-family="trebuchet ms,verdana,arial,sans-serif" font-size="11.52" font-weight="600" fill="#FFFFFF">PK</text><text x="188.85" y="57.60" text-anchor="start" font-family="trebuchet ms,verdana,arial,sans-serif" font-size="16" fill="#333333"><tspan x="188.85" dy="0.00">id</tspan></text><text x="325.45" y="57.60" text-anchor="end" font-family="trebuchet ms,verdana,arial,sans-serif" font-size="16" fill="#2F3B4D"><tspan x="325.45" dy="0.00">string</tspan></text><line x1="142.65" y1="65.60" x2="338.25" y2="65.60" stroke="#AAAA33" stroke-width="1.0" stroke-opacity="0.35"/><rect x="155.45" y="70.40" width="27.52" height="14.40" rx="7.20" ry="7.20" fill="#7C3AED"/><text x="169.21" y="81.76" text-anchor="middle" font-family="trebuchet ms,verdana,arial,sans-serif" font-size="11.52" font-weight="600" fill="#FFFFFF">UK</text><text x="189.37" y="81.60" text-anchor="start" font-family="trebuchet ms,verdana,arial,sans-serif" font-size="16" fill="#333333"><tspan x="189.37" dy="0.00">email</tspan></text><text x="325.45" y="81.60" text-anchor="end" font-family="trebuchet ms,verdana,arial,sans-serif" font-size="16" fill="#2F3B4D"><tspan x="325.45" dy="0.00">string</tspan></text><line x1="142.65" y1="89.60" x2="338.25" y2="89.60" stroke="#AAAA33" stroke-width="1.0" stroke-opacity="0.35"/><text x="155.45" y="105.60" text-anchor="start" font-family="trebuchet ms,verdana,arial,sans-serif" font-size="16" fill="#333333"><tspan x="155.45" dy="0.00">name</tspan></text><text x="325.45" y="105.60" text-anchor="end" font-family="trebuchet ms,verdana,arial,sans-serif" font-size="16" fill="#2F3B4D"><tspan x="325.45" dy="0.00">string</tspan></text></svg>