<svg xmlns="http://www.w3.org/2000/svg" width="551.66" height="78" viewBox="0 0 551.66 78"><rect x="0" y="0" width="551.66" height="78" fill="#FFFFFF"/><defs><marker id="arrow-0" viewBox="0 0 10 10" refX="5" refY="5" markerUnits="userSpaceOnUse" markerWidth="8" markerHeight="8" orient="auto"><path d="M 0 0 L 10 5 L 0 10 z" fill="#2F3B4D" stroke="#2F3B4D" stroke-width="1" stroke-dasharray="1,0"/></marker><marker id="arrow-start-0" viewBox="0 0 10 10" refX="4.5" refY="5" markerUnits="userSpaceOnUse" markerWidth="8" markerHeight="8" orient="auto"><path d="M 0 5 L 10 10 L 10 0 z" fill="#2F3B4D" stroke="#2F3B4D" stroke-width="1" stroke-dasharray="1,0"/></marker><marker id="arrow-1" viewBox="0 0 10 10" refX="5" refY="5" markerUnits="userSpaceOnUse" markerWidth="8" markerHeight="8" orient="auto"><path d="M 0 0 L 10 5 L 0 10 z" fill="#ff0" stroke="#ff0" stroke-width="1" stroke-dasharray="1,0"/></marker><marker id="arrow-start-1" viewBox="0 0 10 10" refX="4.5" refY="5" markerUnits="userSpaceOnUse" markerWidth="8" markerHeight="8" orient="auto"><path d="M 0 5 L 10 10 L 10 0 z" fill="#ff0" stroke="#ff0" stroke-width="1" stroke-dasharray="1,0"/></marker></defs><path id="edge-0" class="edgePath" data-edge-id="edge-0" d="M 112.800,35.000 L 151.940,35.000" fill="none" stroke="#2F3B4D" stroke-width="2"    stroke-linecap="round" stroke-linejoin="round" /><g transform="translate(151.94 35.00) rotate(0.00)"><polygon points="0,0 -10.40,6.24 -10.40,-6.24" fill="#2F3B4D" stroke="#2F3B4D" stroke-width="2" stroke-linejoin="round" stroke-linecap="round"/></g><path id="edge-1" class="edgePath" data-edge-id="edge-1" d="M 391.720,35.000 L 430.860,35.000" fill="none" stroke="#ff0" stroke-width="4"   stroke-dasharray="5 5" stroke-linecap="round" stroke-linejoin="round" /><g transform="translate(430.86 35.00) rotate(0.00)"><polygon points="0,0 -14.00,8.40 -14.00,-8.40" fill="#ff0" stroke="#ff0" stroke-width="4" stroke-linejoin="round" stroke-linecap="round"/></g><rect x="8.00" y="8.00" width="104.80" height="54.00" rx="3" ry="3" fill="#f00" stroke="#000" stroke-width="2" stroke-linejoin="round" stroke-linecap="round"/><text x="60.40" y="39.00" text-anchor="middle" font-family="trebuchet ms,verdana,arial,Noto Color Emoji,Apple Color Emoji,Segoe UI Emoji,sans-serif" font-size="16" fill="#fff"><tspan x="60.40" dy="0.00">Alpha</tspan></text><rect x="151.94" y="8.00" width="95.84" height="54.00" rx="3" ry="3" fill="#0f0" stroke="#090" stroke-width="3" stroke-linejoin="round" stroke-linecap="round"/><text x="199.86" y="39.00" text-anchor="middle" font-family="trebuchet ms,verdana,arial,Noto Color Emoji,Apple Color Emoji,Segoe UI Emoji,sans-serif" font-size="16" fill="#111"><tspan x="199.86" dy="0.00">Beta</tspan></text><rect x="286.92" y="8.00" width="104.80" height="54.00" rx="3" ry="3" fill="#00f" stroke="#0ff" stroke-width="1" stroke-linejoin="round" stroke-linecap="round"/><text x="339.32" y="39.00" text-anchor="middle" font-family="trebuchet ms,verdana,arial,Noto Color Emoji,Apple Color Emoji,Segoe UI Emoji,sans-serif" font-size="16" fill="#fff"><tspan x="339.32" dy="0.00">Gamma</tspan></text><rect x="430.86" y="8.00" width="104.80" height="54.00" rx="3" ry="3" fill="#ECECFF" stroke="#7B88A8" stroke-width="1" stroke-linejoin="round" stroke-linecap="round"/><text x="483.26" y="39.00" text-anchor="middle" font-family="trebuchet ms,verdana,arial,Noto Color Emoji,Apple Color Emoji,Segoe UI Emoji,sans-serif" font-size="16" fill="#333333"><tspan x="483.26" dy="0.00">Delta</tspan></text></svg>