<svg xmlns="http://www.w3.org/2000/svg" width="532.5503" height="70" viewBox="0 0 532.5503 70"><rect x="0" y="0" width="532.5503" height="70" fill="#FFFFFF"/><defs><marker id="arrow-0" viewBox="0 0 10 10" refX="5" refY="5" markerUnits="userSpaceOnUse" markerWidth="8" markerHeight="8" orient="auto"><path d="M 0 0 L 10 5 L 0 10 z" fill="#2F3B4D" stroke="#2F3B4D" stroke-width="1" stroke-dasharray="1,0"/></marker><marker id="arrow-start-0" viewBox="0 0 10 10" refX="4.5" refY="5" markerUnits="userSpaceOnUse" markerWidth="8" markerHeight="8" orient="auto"><path d="M 0 5 L 10 10 L 10 0 z" fill="#2F3B4D" stroke="#2F3B4D" stroke-width="1" stroke-dasharray="1,0"/></marker><marker id="arrow-1" viewBox="0 0 10 10" refX="5" refY="5" markerUnits="userSpaceOnUse" markerWidth="8" markerHeight="8" orient="auto"><path d="M 0 0 L 10 5 L 0 10 z" fill="#ff0" stroke="#ff0" stroke-width="1" stroke-dasharray="1,0"/></marker><marker id="arrow-start-1" viewBox="0 0 10 10" refX="4.5" refY="5" markerUnits="userSpaceOnUse" markerWidth="8" markerHeight="8" orient="auto"><path d="M 0 5 L 10 10 L 10 0 z" fill="#ff0" stroke="#ff0" stroke-width="1" stroke-dasharray="1,0"/></marker></defs><path id="edge-0" class="edgePath" data-edge-id="edge-0" d="M 106.275,35.000 L 152.770,35.000" fill="none" stroke="#2F3B4D" stroke-width="2"    stroke-linecap="round" stroke-linejoin="round" /><path id="edge-1" class="edgePath" data-edge-id="edge-1" d="M 388.161,35.000 L 426.275,35.000" fill="none" stroke="#ff0" stroke-width="4"   stroke-dasharray="5 5" stroke-linecap="round" stroke-linejoin="round" /><rect x="8.00" y="8.00" width="98.28" height="54.00" rx="3" ry="3" fill="#f00" stroke="#000" stroke-width="2" stroke-linejoin="round" stroke-linecap="round"/><text x="57.14" y="39.00" text-anchor="middle" font-family="trebuchet ms,verdana,arial,sans-serif" font-size="16" fill="#fff"><tspan x="57.14" dy="0.00">Alpha</tspan></text><rect x="152.77" y="8.00" width="90.62" height="54.00" rx="3" ry="3" fill="#0f0" stroke="#090" stroke-width="3" stroke-linejoin="round" stroke-linecap="round"/><text x="198.08" y="39.00" text-anchor="middle" font-family="trebuchet ms,verdana,arial,sans-serif" font-size="16" fill="#111"><tspan x="198.08" dy="0.00">Beta</tspan></text><rect x="281.50" y="8.00" width="106.66" height="54.00" rx="3" ry="3" fill="#00f" stroke="#0ff" stroke-width="1" stroke-linejoin="round" stroke-linecap="round"/><text x="334.83" y="39.00" text-anchor="middle" font-family="trebuchet ms,verdana,arial,sans-serif" font-size="16" fill="#fff"><tspan x="334.83" dy="0.00">Gamma</tspan></text><rect x="426.27" y="8.00" width="98.28" height="54.00" rx="3" ry="3" fill="#ECECFF" stroke="#7B88A8" stroke-width="1" stroke-linejoin="round" stroke-linecap="round"/><text x="475.41" y="39.00" text-anchor="middle" font-family="trebuchet ms,verdana,arial,sans-serif" font-size="16" fill="#333333"><tspan x="475.41" dy="0.00">Delta</tspan></text><g transform="translate(152.77 35.00) rotate(0.00)"><polygon points="0,0 -10.40,6.24 -10.40,-6.24" fill="#2F3B4D" stroke="#2F3B4D" stroke-width="2" stroke-linejoin="round" stroke-linecap="round"/></g><g transform="translate(426.27 35.00) rotate(0.00)"><polygon points="0,0 -14.00,8.40 -14.00,-8.40" fill="#ff0" stroke="#ff0" stroke-width="4" stroke-linejoin="round" stroke-linecap="round"/></g></svg>