<svg xmlns="http://www.w3.org/2000/svg" width="320.29504" height="745.379" viewBox="0 0 320.29504 745.379"><rect x="0" y="0" width="320.29504" height="745.379" fill="#FFFFFF"/><defs><marker id="arrow-0" viewBox="0 0 10 10" refX="5" refY="5" markerUnits="userSpaceOnUse" markerWidth="8" markerHeight="8" orient="auto"><path d="M 0 0 L 10 5 L 0 10 z" fill="#2F3B4D" stroke="#2F3B4D" stroke-width="1" stroke-dasharray="1,0"/></marker><marker id="arrow-start-0" viewBox="0 0 10 10" refX="4.5" refY="5" markerUnits="userSpaceOnUse" markerWidth="8" markerHeight="8" orient="auto"><path d="M 0 5 L 10 10 L 10 0 z" fill="#2F3B4D" stroke="#2F3B4D" stroke-width="1" stroke-dasharray="1,0"/></marker></defs><path id="edge-0" class="edgePath" data-edge-id="edge-0" d="M 79.091,383.039 L 94.541,383.039 L 137.328,51.000 L 152.779,51.000" fill="none" stroke="#2F3B4D" stroke-width="2"    stroke-linecap="round" stroke-linejoin="round" /><path id="edge-1" class="edgePath" data-edge-id="edge-1" d="M 96.720,400.668 L 112.171,400.668 L 137.328,333.799 L 152.779,333.799" fill="none" stroke="#2F3B4D" stroke-width="2"    stroke-linecap="round" stroke-linejoin="round" /><path id="edge-2" class="edgePath" data-edge-id="edge-2" d="M 87.905,391.854 L 87.905,401.566 L 93.644,401.566 L 93.644,391.854 L 103.356,391.854 L 137.328,149.145 L 152.779,149.145" fill="none" stroke="#2F3B4D" stroke-width="2"    stroke-linecap="round" stroke-linejoin="round" /><path id="edge-3" class="edgePath" data-edge-id="edge-3" d="M 107.112,414.104 L 122.563,414.104 L 137.328,415.944 L 152.779,415.944" fill="none" stroke="#2F3B4D" stroke-width="2"    stroke-linecap="round" stroke-linejoin="round" /><path id="edge-4" class="edgePath" data-edge-id="edge-4" d="M 87.258,433.958 L 102.709,433.958 L 137.328,596.234 L 152.779,596.234" fill="none" stroke="#2F3B4D" stroke-width="2"    stroke-linecap="round" stroke-linejoin="round" /><path id="edge-5" class="edgePath" data-edge-id="edge-5" d="M 96.073,425.143 L 111.524,425.143 L 137.328,498.089 L 152.779,498.089" fill="none" stroke="#2F3B4D" stroke-width="2"    stroke-linecap="round" stroke-linejoin="round" /><path id="edge-6" class="edgePath" data-edge-id="edge-6" d="M 78.444,442.773 L 93.895,442.773 L 137.328,694.379 L 152.779,694.379" fill="none" stroke="#2F3B4D" stroke-width="2"    stroke-linecap="round" stroke-linejoin="round" /><path id="edge-7" class="edgePath" data-edge-id="edge-7" d="M 193.572,344.799 L 193.572,286.590 L 26.317,286.590 L 26.317,430.899" fill="none" stroke="#2F3B4D" stroke-width="2"    stroke-linecap="round" stroke-linejoin="round" /><path id="edge-8" class="edgePath" data-edge-id="edge-8" d="M 185.917,388.944 L 185.917,412.853 L 75.749,412.853 L 75.749,378.815 L 90.317,378.815 L 90.317,394.265" fill="none" stroke="#2F3B4D" stroke-width="2"    stroke-linecap="round" stroke-linejoin="round" /><path id="edge-9" class="edgePath" data-edge-id="edge-9" d="M 201.227,487.089 L 201.227,557.387 L 42.317,557.387 L 42.317,378.265" fill="none" stroke="#2F3B4D" stroke-width="2"    stroke-linecap="round" stroke-linejoin="round" /><rect x="152.78" y="8.00" width="105.93" height="54.00" rx="3" ry="3" fill="#ECECFF" stroke="#7B88A8" stroke-width="1" stroke-linejoin="round" stroke-linecap="round"/><text x="205.74" y="39.00" text-anchor="middle" font-family="trebuchet ms,verdana,arial,sans-serif" font-size="16" fill="#333333"><tspan x="205.74" dy="0.00">Search</tspan></text><rect x="152.78" y="290.80" width="113.59" height="54.00" rx="3" ry="3" fill="#ECECFF" stroke="#7B88A8" stroke-width="1" stroke-linejoin="round" stroke-linecap="round"/><text x="209.57" y="321.80" text-anchor="middle" font-family="trebuchet ms,verdana,arial,sans-serif" font-size="16" fill="#333333"><tspan x="209.57" dy="0.00">Billing</tspan></text><rect x="152.78" y="106.15" width="159.52" height="54.00" rx="3" ry="3" fill="#ECECFF" stroke="#7B88A8" stroke-width="1" stroke-linejoin="round" stroke-linecap="round"/><text x="232.54" y="137.15" text-anchor="middle" font-family="trebuchet ms,verdana,arial,sans-serif" font-size="16" fill="#333333"><tspan x="232.54" dy="0.00">Notifications</tspan></text><rect x="152.78" y="388.94" width="98.28" height="54.00" rx="3" ry="3" fill="#ECECFF" stroke="#7B88A8" stroke-width="1" stroke-linejoin="round" stroke-linecap="round"/><text x="201.92" y="419.94" text-anchor="middle" font-family="trebuchet ms,verdana,arial,sans-serif" font-size="16" fill="#333333"><tspan x="201.92" dy="0.00">Fraud</tspan></text><rect x="152.78" y="585.23" width="113.59" height="54.00" rx="3" ry="3" fill="#ECECFF" stroke="#7B88A8" stroke-width="1" stroke-linejoin="round" stroke-linecap="round"/><text x="209.57" y="616.23" text-anchor="middle" font-family="trebuchet ms,verdana,arial,sans-serif" font-size="16" fill="#333333"><tspan x="209.57" dy="0.00">Profile</tspan></text><rect x="152.78" y="487.09" width="128.90" height="54.00" rx="3" ry="3" fill="#ECECFF" stroke="#7B88A8" stroke-width="1" stroke-linejoin="round" stroke-linecap="round"/><text x="217.23" y="518.09" text-anchor="middle" font-family="trebuchet ms,verdana,arial,sans-serif" font-size="16" fill="#333333"><tspan x="217.23" dy="0.00">Analytics</tspan></text><rect x="152.78" y="683.38" width="113.59" height="54.00" rx="3" ry="3" fill="#ECECFF" stroke="#7B88A8" stroke-width="1" stroke-linejoin="round" stroke-linecap="round"/><text x="209.57" y="714.38" text-anchor="middle" font-family="trebuchet ms,verdana,arial,sans-serif" font-size="16" fill="#333333"><tspan x="209.57" dy="0.00">Support</tspan></text><polygon points="58.32,362.27 108.63,412.58 58.32,462.90 8.00,412.58" fill="#ECECFF" stroke="#7B88A8" stroke-width="1" stroke-linejoin="round" stroke-linecap="round"/><text x="58.32" y="416.58" text-anchor="middle" font-family="trebuchet ms,verdana,arial,sans-serif" font-size="16" fill="#333333"><tspan x="58.32" dy="0.00">Router</tspan></text><g transform="translate(152.78 51.00) rotate(0.00)"><polygon points="0,0 -10.40,6.24 -10.40,-6.24" fill="#2F3B4D" stroke="#2F3B4D" stroke-width="2" stroke-linejoin="round" stroke-linecap="round"/></g><g transform="translate(152.78 333.80) rotate(0.00)"><polygon points="0,0 -10.40,6.24 -10.40,-6.24" fill="#2F3B4D" stroke="#2F3B4D" stroke-width="2" stroke-linejoin="round" stroke-linecap="round"/></g><g transform="translate(152.78 149.15) rotate(0.00)"><polygon points="0,0 -10.40,6.24 -10.40,-6.24" fill="#2F3B4D" stroke="#2F3B4D" stroke-width="2" stroke-linejoin="round" stroke-linecap="round"/></g><g transform="translate(152.78 415.94) rotate(0.00)"><polygon points="0,0 -10.40,6.24 -10.40,-6.24" fill="#2F3B4D" stroke="#2F3B4D" stroke-width="2" stroke-linejoin="round" stroke-linecap="round"/></g><g transform="translate(152.78 596.23) rotate(0.00)"><polygon points="0,0 -10.40,6.24 -10.40,-6.24" fill="#2F3B4D" stroke="#2F3B4D" stroke-width="2" stroke-linejoin="round" stroke-linecap="round"/></g><g transform="translate(152.78 498.09) rotate(0.00)"><polygon points="0,0 -10.40,6.24 -10.40,-6.24" fill="#2F3B4D" stroke="#2F3B4D" stroke-width="2" stroke-linejoin="round" stroke-linecap="round"/></g><g transform="translate(152.78 694.38) rotate(0.00)"><polygon points="0,0 -10.40,6.24 -10.40,-6.24" fill="#2F3B4D" stroke="#2F3B4D" stroke-width="2" stroke-linejoin="round" stroke-linecap="round"/></g><g transform="translate(26.32 430.90) rotate(90.00)"><polygon points="0,0 -10.40,6.24 -10.40,-6.24" fill="#2F3B4D" stroke="#2F3B4D" stroke-width="2" stroke-linejoin="round" stroke-linecap="round"/></g><g transform="translate(90.32 394.27) rotate(90.00)"><polygon points="0,0 -10.40,6.24 -10.40,-6.24" fill="#2F3B4D" stroke="#2F3B4D" stroke-width="2" stroke-linejoin="round" stroke-linecap="round"/></g><g transform="translate(42.32 378.27) rotate(-90.00)"><polygon points="0,0 -10.40,6.24 -10.40,-6.24" fill="#2F3B4D" stroke="#2F3B4D" stroke-width="2" stroke-linejoin="round" stroke-linecap="round"/></g></svg>