<svg xmlns="http://www.w3.org/2000/svg" width="346.1151" height="555.551" viewBox="0 0 346.1151 555.551"><rect x="0" y="0" width="346.1151" height="555.551" fill="#FFFFFF"/><defs><marker id="arrow-0" viewBox="0 0 10 10" refX="5" refY="5" markerUnits="userSpaceOnUse" markerWidth="8" markerHeight="8" orient="auto"><path d="M 0 0 L 10 5 L 0 10 z" fill="#2F3B4D" stroke="#2F3B4D" stroke-width="1" stroke-dasharray="1,0"/></marker><marker id="arrow-start-0" viewBox="0 0 10 10" refX="4.5" refY="5" markerUnits="userSpaceOnUse" markerWidth="8" markerHeight="8" orient="auto"><path d="M 0 5 L 10 10 L 10 0 z" fill="#2F3B4D" stroke="#2F3B4D" stroke-width="1" stroke-dasharray="1,0"/></marker></defs><path id="edge-0" class="edgePath" data-edge-id="edge-0" d="M 157.136,47.000 L 157.136,88.703" fill="none" stroke="#2F3B4D" stroke-width="2"    stroke-linecap="round" stroke-linejoin="round" /><path id="edge-1" class="edgePath" data-edge-id="edge-1" d="M 157.126,127.703 L 157.126,141.353 L 163.178,155.757 L 163.178,169.407" fill="none" stroke="#2F3B4D" stroke-width="2"    stroke-linecap="round" stroke-linejoin="round" /><path id="edge-2" class="edgePath" data-edge-id="edge-2" d="M 195.178,238.041 L 195.178,252.637 L 246.185,305.581 L 246.185,320.178" fill="none" stroke="#2F3B4D" stroke-width="2"    stroke-linecap="round" stroke-linejoin="round" /><rect data-edge-id="edge-2" data-label-kind="center" x="238.07" y="266.88" width="31.97" height="28.40" rx="2" ry="2" fill="rgba(248,250,252, 0.92)" fill-opacity="0.00" stroke="#7B88A8" stroke-opacity="0.00" stroke-width="0.8"/><g class="edgeLabel" data-edge-id="edge-2" data-label-kind="center"><text x="254.05" y="285.08" text-anchor="middle" font-family="trebuchet ms,verdana,arial,sans-serif" font-size="16" fill="#333333"><tspan x="254.05" dy="0.00">Yes</tspan></text></g><path id="edge-3" class="edgePath" data-edge-id="edge-3" d="M 131.178,238.041 L 131.178,252.637 L 92.275,305.581 L 92.275,320.178" fill="none" stroke="#2F3B4D" stroke-width="2"    stroke-linecap="round" stroke-linejoin="round" /><rect data-edge-id="edge-3" data-label-kind="center" x="112.73" y="281.13" width="25.77" height="28.40" rx="2" ry="2" fill="rgba(248,250,252, 0.92)" fill-opacity="0.00" stroke="#7B88A8" stroke-opacity="0.00" stroke-width="0.8"/><g class="edgeLabel" data-edge-id="edge-3" data-label-kind="center"><text x="125.61" y="299.33" text-anchor="middle" font-family="trebuchet ms,verdana,arial,sans-serif" font-size="16" fill="#333333"><tspan x="125.61" dy="0.00">No</tspan></text></g><path id="edge-4" class="edgePath" data-edge-id="edge-4" d="M 144.551,331.178 L 83.089,331.178 L 83.089,108.203 L 210.504,108.203" fill="none" stroke="#2F3B4D" stroke-width="2"    stroke-linecap="round" stroke-linejoin="round" /><path id="edge-5" class="edgePath" data-edge-id="edge-5" d="M 262.185,374.178 L 262.185,388.774 L 243.736,392.851 L 243.736,407.448" fill="none" stroke="#2F3B4D" stroke-width="2"    stroke-linecap="round" stroke-linejoin="round" /><path id="edge-6" class="edgePath" data-edge-id="edge-6" d="M 227.730,466.848 L 227.730,508.551" fill="none" stroke="#2F3B4D" stroke-width="2"    stroke-linecap="round" stroke-linejoin="round" /><polygon points="163.18,169.41 213.50,219.72 163.18,270.04 112.86,219.72" fill="#ECECFF" stroke="#7B88A8" stroke-width="1" stroke-linejoin="round" stroke-linecap="round"/><text x="163.18" y="223.72" text-anchor="middle" font-family="trebuchet ms,verdana,arial,sans-serif" font-size="16" fill="#333333"><tspan x="163.18" dy="0.00">Valid?</tspan></text><rect x="203.15" y="508.55" width="49.14" height="39.00" rx="19.50" ry="19.50" fill="#ECECFF" stroke="#7B88A8" stroke-width="1" stroke-linejoin="round" stroke-linecap="round"/><text x="227.72" y="532.05" text-anchor="middle" font-family="trebuchet ms,verdana,arial,sans-serif" font-size="16" fill="#333333"><tspan x="227.72" dy="0.00">End</tspan></text><rect x="8.00" y="320.18" width="136.55" height="54.00" rx="3" ry="3" fill="#ECECFF" stroke="#7B88A8" stroke-width="1" stroke-linejoin="round" stroke-linecap="round"/><text x="76.28" y="351.18" text-anchor="middle" font-family="trebuchet ms,verdana,arial,sans-serif" font-size="16" fill="#333333"><tspan x="76.28" dy="0.00">Show Error</tspan></text><polygon points="115.46,88.70 222.22,88.70 198.79,127.70 92.03,127.70" fill="#ECECFF" stroke="#7B88A8" stroke-width="1" stroke-linejoin="round" stroke-linecap="round"/><text x="157.13" y="112.20" text-anchor="middle" font-family="trebuchet ms,verdana,arial,sans-serif" font-size="16" fill="#333333"><tspan x="157.13" dy="0.00">Read Input</tspan></text><rect x="186.25" y="320.18" width="151.86" height="54.00" rx="3" ry="3" fill="#ECECFF" stroke="#7B88A8" stroke-width="1" stroke-linejoin="round" stroke-linecap="round"/><text x="262.18" y="351.18" text-anchor="middle" font-family="trebuchet ms,verdana,arial,sans-serif" font-size="16" fill="#333333"><tspan x="262.18" dy="0.00">Process Data</tspan></text><ellipse cx="227.74" cy="414.58" rx="75.10" ry="7.13" fill="#ECECFF" stroke="#7B88A8" stroke-width="1" stroke-linejoin="round" stroke-linecap="round"/><rect x="152.63" y="414.58" width="150.21" height="45.14" fill="#ECECFF" stroke="#7B88A8" stroke-width="1" stroke-linejoin="round" stroke-linecap="round"/><ellipse cx="227.74" cy="459.72" rx="75.10" ry="7.13" fill="none" stroke="#7B88A8" stroke-width="1" stroke-linejoin="round" stroke-linecap="round"/><text x="227.74" y="441.15" text-anchor="middle" font-family="trebuchet ms,verdana,arial,sans-serif" font-size="16" fill="#333333"><tspan x="227.74" dy="0.00">Save to DB</tspan></text><rect x="125.11" y="8.00" width="64.08" height="39.00" rx="19.50" ry="19.50" fill="#ECECFF" stroke="#7B88A8" stroke-width="1" stroke-linejoin="round" stroke-linecap="round"/><text x="157.15" y="31.50" text-anchor="middle" font-family="trebuchet ms,verdana,arial,sans-serif" font-size="16" fill="#333333"><tspan x="157.15" dy="0.00">Start</tspan></text><g transform="translate(157.14 88.70) rotate(90.00)"><polygon points="0,0 -10.40,6.24 -10.40,-6.24" fill="#2F3B4D" stroke="#2F3B4D" stroke-width="2" stroke-linejoin="round" stroke-linecap="round"/></g><g transform="translate(163.18 169.41) rotate(90.00)"><polygon points="0,0 -10.40,6.24 -10.40,-6.24" fill="#2F3B4D" stroke="#2F3B4D" stroke-width="2" stroke-linejoin="round" stroke-linecap="round"/></g><g transform="translate(246.18 320.18) rotate(90.00)"><polygon points="0,0 -10.40,6.24 -10.40,-6.24" fill="#2F3B4D" stroke="#2F3B4D" stroke-width="2" stroke-linejoin="round" stroke-linecap="round"/></g><g transform="translate(92.28 320.18) rotate(90.00)"><polygon points="0,0 -10.40,6.24 -10.40,-6.24" fill="#2F3B4D" stroke="#2F3B4D" stroke-width="2" stroke-linejoin="round" stroke-linecap="round"/></g><g transform="translate(210.50 108.20) rotate(0.00)"><polygon points="0,0 -10.40,6.24 -10.40,-6.24" fill="#2F3B4D" stroke="#2F3B4D" stroke-width="2" stroke-linejoin="round" stroke-linecap="round"/></g><g transform="translate(243.74 407.45) rotate(90.00)"><polygon points="0,0 -10.40,6.24 -10.40,-6.24" fill="#2F3B4D" stroke="#2F3B4D" stroke-width="2" stroke-linejoin="round" stroke-linecap="round"/></g><g transform="translate(227.73 508.55) rotate(90.00)"><polygon points="0,0 -10.40,6.24 -10.40,-6.24" fill="#2F3B4D" stroke="#2F3B4D" stroke-width="2" stroke-linejoin="round" stroke-linecap="round"/></g></svg>