<svg xmlns="http://www.w3.org/2000/svg" width="307.92267" height="630.48267" viewBox="0 0 307.92267 630.48267"><rect x="0" y="0" width="307.92267" height="630.48267" fill="#FFFFFF"/><defs><marker id="arrow-0" viewBox="0 0 10 10" refX="5" refY="5" markerUnits="userSpaceOnUse" markerWidth="8" markerHeight="8" orient="auto"><path d="M 0 0 L 10 5 L 0 10 z" fill="#2F3B4D" stroke="#2F3B4D" stroke-width="1" stroke-dasharray="1,0"/></marker><marker id="arrow-start-0" viewBox="0 0 10 10" refX="4.5" refY="5" markerUnits="userSpaceOnUse" markerWidth="8" markerHeight="8" orient="auto"><path d="M 0 5 L 10 10 L 10 0 z" fill="#2F3B4D" stroke="#2F3B4D" stroke-width="1" stroke-dasharray="1,0"/></marker></defs><path id="edge-0" class="edgePath" data-edge-id="edge-0" d="M 147.721,112.800 L 147.721,160.243" fill="none" stroke="#2F3B4D" stroke-width="2"    stroke-linecap="round" stroke-linejoin="round" /><g transform="translate(147.72 160.24) rotate(90.00)"><polygon points="0,0 -10.40,6.24 -10.40,-6.24" fill="#2F3B4D" stroke="#2F3B4D" stroke-width="2" stroke-linejoin="round" stroke-linecap="round"/></g><path id="edge-1" class="edgePath" data-edge-id="edge-1" d="M 147.721,214.243 L 147.721,261.685" fill="none" stroke="#2F3B4D" stroke-width="2"    stroke-linecap="round" stroke-linejoin="round" /><g transform="translate(147.72 261.69) rotate(90.00)"><polygon points="0,0 -10.40,6.24 -10.40,-6.24" fill="#2F3B4D" stroke="#2F3B4D" stroke-width="2" stroke-linejoin="round" stroke-linecap="round"/></g><path id="edge-2" class="edgePath" data-edge-id="edge-2" d="M 179.721,337.757 L 179.721,354.362 L 214.563,406.446 L 214.563,423.051" fill="none" stroke="#2F3B4D" stroke-width="2"    stroke-linecap="round" stroke-linejoin="round" /><g transform="translate(214.56 423.05) rotate(90.00)"><polygon points="0,0 -10.40,6.24 -10.40,-6.24" fill="#2F3B4D" stroke="#2F3B4D" stroke-width="2" stroke-linejoin="round" stroke-linecap="round"/></g><rect data-edge-id="edge-2" data-label-kind="center" x="216.46" y="382.21" width="35.88" height="28.40" rx="2" ry="2" fill="rgba(248,250,252, 0.92)" fill-opacity="0.00" stroke="#7B88A8" stroke-opacity="0.00" stroke-width="0.8"/><g class="edgeLabel" data-edge-id="edge-2" data-label-kind="center"><text x="234.40" y="400.41" text-anchor="middle" font-family="trebuchet ms,verdana,arial,Noto Color Emoji,Apple Color Emoji,Segoe UI Emoji,sans-serif" font-size="16" fill="#333333"><tspan x="234.40" dy="0.00">Yes</tspan></text></g><path id="edge-3" class="edgePath" data-edge-id="edge-3" d="M 115.721,337.757 L 115.721,354.362 L 80.880,406.446 L 80.880,423.051" fill="none" stroke="#2F3B4D" stroke-width="2"    stroke-linecap="round" stroke-linejoin="round" /><g transform="translate(80.88 423.05) rotate(90.00)"><polygon points="0,0 -10.40,6.24 -10.40,-6.24" fill="#2F3B4D" stroke="#2F3B4D" stroke-width="2" stroke-linejoin="round" stroke-linecap="round"/></g><rect data-edge-id="edge-3" data-label-kind="center" x="52.06" y="382.21" width="26.92" height="28.40" rx="2" ry="2" fill="rgba(248,250,252, 0.92)" fill-opacity="0.00" stroke="#7B88A8" stroke-opacity="0.00" stroke-width="0.8"/><g class="edgeLabel" data-edge-id="edge-3" data-label-kind="center"><text x="65.52" y="400.41" text-anchor="middle" font-family="trebuchet ms,verdana,arial,Noto Color Emoji,Apple Color Emoji,Segoe UI Emoji,sans-serif" font-size="16" fill="#333333"><tspan x="65.52" dy="0.00">No</tspan></text></g><path id="edge-4" class="edgePath" data-edge-id="edge-4" d="M 214.563,477.051 L 214.563,493.656 L 179.721,514.288 L 179.721,530.893" fill="none" stroke="#2F3B4D" stroke-width="2"    stroke-linecap="round" stroke-linejoin="round" /><g transform="translate(179.72 530.89) rotate(90.00)"><polygon points="0,0 -10.40,6.24 -10.40,-6.24" fill="#2F3B4D" stroke="#2F3B4D" stroke-width="2" stroke-linejoin="round" stroke-linecap="round"/></g><path id="edge-5" class="edgePath" data-edge-id="edge-5" d="M 80.880,477.051 L 80.880,493.656 L 115.721,514.288 L 115.721,530.893" fill="none" stroke="#2F3B4D" stroke-width="2"    stroke-linecap="round" stroke-linejoin="round" /><g transform="translate(115.72 530.89) rotate(90.00)"><polygon points="0,0 -10.40,6.24 -10.40,-6.24" fill="#2F3B4D" stroke="#2F3B4D" stroke-width="2" stroke-linejoin="round" stroke-linecap="round"/></g><rect x="86.36" y="160.24" width="122.72" height="54.00" rx="3" ry="3" fill="#ECECFF" stroke="#7B88A8" stroke-width="1" stroke-linejoin="round" stroke-linecap="round"/><text x="147.72" y="191.24" text-anchor="middle" font-family="trebuchet ms,verdana,arial,Noto Color Emoji,Apple Color Emoji,Segoe UI Emoji,sans-serif" font-size="16" fill="#333333"><tspan x="147.72" dy="0.00">Collect</tspan></text><polygon points="147.72,261.69 201.76,315.72 147.72,369.76 93.69,315.72" fill="#ECECFF" stroke="#7B88A8" stroke-width="1" stroke-linejoin="round" stroke-linecap="round"/><text x="147.72" y="319.72" text-anchor="middle" font-family="trebuchet ms,verdana,arial,Noto Color Emoji,Apple Color Emoji,Segoe UI Emoji,sans-serif" font-size="16" fill="#333333"><tspan x="147.72" dy="0.00">Valid?</tspan></text><rect x="169.20" y="423.05" width="122.72" height="54.00" rx="3" ry="3" fill="#ECECFF" stroke="#7B88A8" stroke-width="1" stroke-linejoin="round" stroke-linecap="round"/><text x="230.56" y="454.05" text-anchor="middle" font-family="trebuchet ms,verdana,arial,Noto Color Emoji,Apple Color Emoji,Segoe UI Emoji,sans-serif" font-size="16" fill="#333333"><tspan x="230.56" dy="0.00">Process</tspan></text><rect x="8.00" y="423.05" width="113.76" height="54.00" rx="3" ry="3" fill="#ECECFF" stroke="#7B88A8" stroke-width="1" stroke-linejoin="round" stroke-linecap="round"/><text x="64.88" y="454.05" text-anchor="middle" font-family="trebuchet ms,verdana,arial,Noto Color Emoji,Apple Color Emoji,Segoe UI Emoji,sans-serif" font-size="16" fill="#333333"><tspan x="64.88" dy="0.00">Reject</tspan></text><circle cx="147.72" cy="566.56" r="47.92" fill="#ECECFF" stroke="#7B88A8" stroke-width="1" stroke-linejoin="round" stroke-linecap="round"/><circle cx="147.72" cy="566.56" r="43.92" fill="none" stroke="#7B88A8" stroke-width="1" stroke-linejoin="round" stroke-linecap="round"/><text x="147.72" y="570.56" text-anchor="middle" font-family="trebuchet ms,verdana,arial,Noto Color Emoji,Apple Color Emoji,Segoe UI Emoji,sans-serif" font-size="16" fill="#333333"><tspan x="147.72" dy="0.00">Done</tspan></text><circle cx="147.72" cy="60.40" r="52.40" fill="#ECECFF" stroke="#7B88A8" stroke-width="1" stroke-linejoin="round" stroke-linecap="round"/><circle cx="147.72" cy="60.40" r="48.40" fill="none" stroke="#7B88A8" stroke-width="1" stroke-linejoin="round" stroke-linecap="round"/><text x="147.72" y="64.40" text-anchor="middle" font-family="trebuchet ms,verdana,arial,Noto Color Emoji,Apple Color Emoji,Segoe UI Emoji,sans-serif" font-size="16" fill="#333333"><tspan x="147.72" dy="0.00">Start</tspan></text></svg>