<svg xmlns="http://www.w3.org/2000/svg" width="1299.1825" height="902.5687" viewBox="0 0 1299.1825 902.5687"><rect x="0" y="0" width="1299.1825" height="902.5687" fill="#FFFFFF"/><defs><marker id="arrow-0" viewBox="0 0 10 10" refX="5" refY="5" markerUnits="userSpaceOnUse" markerWidth="8" markerHeight="8" orient="auto"><path d="M 0 0 L 10 5 L 0 10 z" fill="#2F3B4D" stroke="#2F3B4D" stroke-width="1" stroke-dasharray="1,0"/></marker><marker id="arrow-start-0" viewBox="0 0 10 10" refX="4.5" refY="5" markerUnits="userSpaceOnUse" markerWidth="8" markerHeight="8" orient="auto"><path d="M 0 5 L 10 10 L 10 0 z" fill="#2F3B4D" stroke="#2F3B4D" stroke-width="1" stroke-dasharray="1,0"/></marker></defs><path id="edge-0" class="edgePath" data-edge-id="edge-0" d="M 452.824,516.455 L 452.824,575.965 L 136.810,575.965 L 136.810,529.975" fill="none" stroke="#2F3B4D" stroke-width="2"    stroke-linecap="round" stroke-linejoin="round" /><rect data-edge-id="edge-0" data-label-kind="center" x="162.22" y="509.01" width="215.69" height="28.40" rx="2" ry="2" fill="rgba(248,250,252, 0.92)" fill-opacity="0.00" stroke="#7B88A8" stroke-opacity="0.00" stroke-width="0.8"/><g class="edgeLabel" data-edge-id="edge-0" data-label-kind="center"><text x="270.07" y="527.21" text-anchor="middle" font-family="trebuchet ms,verdana,arial,sans-serif" font-size="16" fill="#333333"><tspan x="270.07" dy="0.00">1. Prompt to authorise sync</tspan></text></g><path id="edge-1" class="edgePath" data-edge-id="edge-1" d="M 537.253,386.415 L 748.470,386.415 L 748.470,303.918 L 743.970,303.918" fill="none" stroke="#2F3B4D" stroke-width="2"    stroke-linecap="round" stroke-linejoin="round" /><rect data-edge-id="edge-1" data-label-kind="center" x="489.08" y="275.27" width="185.07" height="52.40" rx="2" ry="2" fill="rgba(248,250,252, 0.92)" fill-opacity="0.00" stroke="#7B88A8" stroke-opacity="0.00" stroke-width="0.8"/><g class="edgeLabel" data-edge-id="edge-1" data-label-kind="center"><text x="581.61" y="293.47" text-anchor="middle" font-family="trebuchet ms,verdana,arial,sans-serif" font-size="16" fill="#333333"><tspan x="581.61" dy="0.00">2. Check connectivity &amp;</tspan><tspan x="581.61" dy="24.00">compatibility</tspan></text></g><path id="edge-2" class="edgePath" data-edge-id="edge-2" d="M 864.360,271.918 L 846.367,271.918 L 846.367,123.100 L 1098.874,123.100" fill="none" stroke="#2F3B4D" stroke-width="2"    stroke-linecap="round" stroke-linejoin="round" /><rect data-edge-id="edge-2" data-label-kind="center" x="880.39" y="171.31" width="154.45" height="52.40" rx="2" ry="2" fill="rgba(248,250,252, 0.92)" fill-opacity="0.00" stroke="#7B88A8" stroke-opacity="0.00" stroke-width="0.8"/><g class="edgeLabel" data-edge-id="edge-2" data-label-kind="center"><text x="957.62" y="189.51" text-anchor="middle" font-family="trebuchet ms,verdana,arial,sans-serif" font-size="16" fill="#333333"><tspan x="957.62" dy="0.00">3. Fetch stored</tspan><tspan x="957.62" dy="24.00">elements for OPAQUE</tspan></text></g><path id="edge-3" class="edgePath" data-edge-id="edge-3" d="M 808.418,368.366 L 808.418,389.300 L 410.400,389.300 L 410.400,528.500 L 420.824,528.500 L 420.824,502.844" fill="none" stroke="#2F3B4D" stroke-width="2"    stroke-linecap="round" stroke-linejoin="round" /><rect data-edge-id="edge-3" data-label-kind="center" x="547.73" y="421.40" width="146.79" height="28.40" rx="2" ry="2" fill="rgba(248,250,252, 0.92)" fill-opacity="0.00" stroke="#7B88A8" stroke-opacity="0.00" stroke-width="0.8"/><g class="edgeLabel" data-edge-id="edge-3" data-label-kind="center"><text x="621.12" y="439.60" text-anchor="middle" font-family="trebuchet ms,verdana,arial,sans-serif" font-size="16" fill="#333333"><tspan x="621.12" dy="0.00">4. Sends challenge</tspan></text></g><path id="edge-4" class="edgePath" data-edge-id="edge-4" d="M 166.120,502.975 L 183.620,502.975 L 183.620,450.415 L 188.152,430.495 L 366.253,430.495 L 386.784,450.415" fill="none" stroke="#2F3B4D" stroke-width="2"    stroke-linecap="round" stroke-linejoin="round" /><rect data-edge-id="edge-4" data-label-kind="center" x="196.15" y="438.49" width="162.10" height="76.40" rx="2" ry="2" fill="rgba(248,250,252, 0.92)" fill-opacity="0.00" stroke="#7B88A8" stroke-opacity="0.00" stroke-width="0.8"/><g class="edgeLabel" data-edge-id="edge-4" data-label-kind="center"><text x="277.20" y="456.69" text-anchor="middle" font-family="trebuchet ms,verdana,arial,sans-serif" font-size="16" fill="#333333"><tspan x="277.20" dy="0.00">5. Enter master</tspan><tspan x="277.20" dy="24.00">password and confirm</tspan><tspan x="277.20" dy="24.00">sync</tspan></text></g><path id="edge-5" class="edgePath" data-edge-id="edge-5" d="M 546.042,466.415 L 563.542,466.415 L 645.003,508.916 L 662.503,508.916" fill="none" stroke="#2F3B4D" stroke-width="2"    stroke-linecap="round" stroke-linejoin="round" /><rect data-edge-id="edge-5" data-label-kind="center" x="572.92" y="441.77" width="93.21" height="28.40" rx="2" ry="2" fill="rgba(248,250,252, 0.92)" fill-opacity="0.95" stroke="#7B88A8" stroke-opacity="0.45" stroke-width="0.8"/><g class="edgeLabel" data-edge-id="edge-5" data-label-kind="center"><text x="619.52" y="459.97" text-anchor="middle" font-family="trebuchet ms,verdana,arial,sans-serif" font-size="16" fill="#333333"><tspan x="619.52" dy="0.00">6. Password</tspan></text></g><path id="edge-6" class="edgePath" data-edge-id="edge-6" d="M 735.846,423.284 L 735.846,465.885 L 516.824,465.885 L 516.824,365.986" fill="none" stroke="#2F3B4D" stroke-width="2"    stroke-linecap="round" stroke-linejoin="round" /><rect data-edge-id="edge-6" data-label-kind="center" x="567.62" y="380.44" width="54.93" height="28.40" rx="2" ry="2" fill="rgba(248,250,252, 0.92)" fill-opacity="0.00" stroke="#7B88A8" stroke-opacity="0.00" stroke-width="0.8"/><g class="edgeLabel" data-edge-id="edge-6" data-label-kind="center"><text x="595.09" y="398.64" text-anchor="middle" font-family="trebuchet ms,verdana,arial,sans-serif" font-size="16" fill="#333333"><tspan x="595.09" dy="0.00">7. Ke1</tspan></text></g><path id="edge-7" class="edgePath" data-edge-id="edge-7" d="M 500.824,357.197 L 500.824,270.529 L 776.418,270.529 L 776.418,359.860" fill="none" stroke="#2F3B4D" stroke-width="2"    stroke-linecap="round" stroke-linejoin="round" /><rect data-edge-id="edge-7" data-label-kind="center" x="643.16" y="344.33" width="54.93" height="28.40" rx="2" ry="2" fill="rgba(248,250,252, 0.92)" fill-opacity="0.00" stroke="#7B88A8" stroke-opacity="0.00" stroke-width="0.8"/><g class="edgeLabel" data-edge-id="edge-7" data-label-kind="center"><text x="670.62" y="362.53" text-anchor="middle" font-family="trebuchet ms,verdana,arial,sans-serif" font-size="16" fill="#333333"><tspan x="670.62" dy="0.00">8. Ke1</tspan></text></g><path id="edge-8" class="edgePath" data-edge-id="edge-8" d="M 870.848,287.918 L 888.348,287.918 L 1041.245,260.160 L 1058.745,260.160" fill="none" stroke="#2F3B4D" stroke-width="2"    stroke-linecap="round" stroke-linejoin="round" /><rect data-edge-id="edge-8" data-label-kind="center" x="851.34" y="108.14" width="177.41" height="148.40" rx="2" ry="2" fill="rgba(248,250,252, 0.92)" fill-opacity="0.00" stroke="#7B88A8" stroke-opacity="0.00" stroke-width="0.8"/><g class="edgeLabel" data-edge-id="edge-8" data-label-kind="center"><text x="940.05" y="126.34" text-anchor="middle" font-family="trebuchet ms,verdana,arial,sans-serif" font-size="16" fill="#333333"><tspan x="940.05" dy="0.00">9. self_identity,</tspan><tspan x="940.05" dy="24.00">self_private_key,</tspan><tspan x="940.05" dy="24.00">self_public_key,</tspan><tspan x="940.05" dy="24.00">client_record,</tspan><tspan x="940.05" dy="24.00">credential_identifier,</tspan><tspan x="940.05" dy="24.00">oprf_seed, ke1</tspan></text></g><path id="edge-9" class="edgePath" data-edge-id="edge-9" d="M 1132.087,345.792 L 1132.087,317.076 L 840.418,317.076 L 840.418,359.860" fill="none" stroke="#2F3B4D" stroke-width="2"    stroke-linecap="round" stroke-linejoin="round" /><rect data-edge-id="edge-9" data-label-kind="center" x="931.71" y="338.63" width="62.59" height="28.40" rx="2" ry="2" fill="rgba(248,250,252, 0.92)" fill-opacity="0.00" stroke="#7B88A8" stroke-opacity="0.00" stroke-width="0.8"/><g class="edgeLabel" data-edge-id="edge-9" data-label-kind="center"><text x="963.00" y="356.83" text-anchor="middle" font-family="trebuchet ms,verdana,arial,sans-serif" font-size="16" fill="#333333"><tspan x="963.00" dy="0.00">10. Ke2</tspan></text></g><path id="edge-10" class="edgePath" data-edge-id="edge-10" d="M 824.418,366.348 L 824.418,378.500 L 830.000,378.500 L 830.000,394.500 L 622.000,394.500 L 622.000,472.500 L 430.000,472.500 L 430.000,522.500 L 436.824,522.500 L 436.824,511.632" fill="none" stroke="#2F3B4D" stroke-width="2"    stroke-linecap="round" stroke-linejoin="round" /><rect data-edge-id="edge-10" data-label-kind="center" x="640.83" y="424.79" width="62.59" height="28.40" rx="2" ry="2" fill="rgba(248,250,252, 0.92)" fill-opacity="0.00" stroke="#7B88A8" stroke-opacity="0.00" stroke-width="0.8"/><g class="edgeLabel" data-edge-id="edge-10" data-label-kind="center"><text x="672.12" y="442.99" text-anchor="middle" font-family="trebuchet ms,verdana,arial,sans-serif" font-size="16" fill="#333333"><tspan x="672.12" dy="0.00">11. Ke2</tspan></text></g><path id="edge-11" class="edgePath" data-edge-id="edge-11" d="M 537.253,482.415 L 517.431,482.415 L 517.431,756.018 L 735.110,756.018" fill="none" stroke="#2F3B4D" stroke-width="2"    stroke-linecap="round" stroke-linejoin="round" /><rect data-edge-id="edge-11" data-label-kind="center" x="586.38" y="593.02" width="162.10" height="52.40" rx="2" ry="2" fill="rgba(248,250,252, 0.92)" fill-opacity="0.00" stroke="#7B88A8" stroke-opacity="0.00" stroke-width="0.8"/><g class="edgeLabel" data-edge-id="edge-11" data-label-kind="center"><text x="667.43" y="611.22" text-anchor="middle" font-family="trebuchet ms,verdana,arial,sans-serif" font-size="16" fill="#333333"><tspan x="667.43" dy="0.00">12. self_identity,</tspan><tspan x="667.43" dy="24.00">server_identity, ke2</tspan></text></g><path id="edge-12" class="edgePath" data-edge-id="edge-12" d="M 804.742,686.386 L 804.742,668.886 L 8.000,668.886 L 8.000,350.829 L 468.824,350.829" fill="none" stroke="#2F3B4D" stroke-width="2"    stroke-linecap="round" stroke-linejoin="round" /><rect data-edge-id="edge-12" data-label-kind="center" x="544.65" y="492.41" width="169.76" height="52.40" rx="2" ry="2" fill="rgba(248,250,252, 0.92)" fill-opacity="0.00" stroke="#7B88A8" stroke-opacity="0.00" stroke-width="0.8"/><g class="edgeLabel" data-edge-id="edge-12" data-label-kind="center"><text x="629.53" y="510.61" text-anchor="middle" font-family="trebuchet ms,verdana,arial,sans-serif" font-size="16" fill="#333333"><tspan x="629.53" dy="0.00">13. Ke3, session_key,</tspan><tspan x="629.53" dy="24.00">export_key</tspan></text></g><path id="edge-13" class="edgePath" data-edge-id="edge-13" d="M 550.864,418.415 L 517.426,418.415 L 517.426,319.918 L 745.988,319.918" fill="none" stroke="#2F3B4D" stroke-width="2"    stroke-linecap="round" stroke-linejoin="round" /><rect data-edge-id="edge-13" data-label-kind="center" x="636.13" y="354.97" width="62.59" height="28.40" rx="2" ry="2" fill="rgba(248,250,252, 0.92)" fill-opacity="0.00" stroke="#7B88A8" stroke-opacity="0.00" stroke-width="0.8"/><g class="edgeLabel" data-edge-id="edge-13" data-label-kind="center"><text x="667.43" y="373.17" text-anchor="middle" font-family="trebuchet ms,verdana,arial,sans-serif" font-size="16" fill="#333333"><tspan x="667.43" dy="0.00">14. Ke3</tspan></text></g><path id="edge-14" class="edgePath" data-edge-id="edge-14" d="M 864.360,335.918 L 1033.576,335.918 L 1033.576,463.090 L 1020.293,463.090" fill="none" stroke="#2F3B4D" stroke-width="2"    stroke-linecap="round" stroke-linejoin="round" /><rect data-edge-id="edge-14" data-label-kind="center" x="942.28" y="385.30" width="62.59" height="28.40" rx="2" ry="2" fill="rgba(248,250,252, 0.92)" fill-opacity="0.00" stroke="#7B88A8" stroke-opacity="0.00" stroke-width="0.8"/><g class="edgeLabel" data-edge-id="edge-14" data-label-kind="center"><text x="973.58" y="403.50" text-anchor="middle" font-family="trebuchet ms,verdana,arial,sans-serif" font-size="16" fill="#333333"><tspan x="973.58" dy="0.00">15. Ke3</tspan></text></g><path id="edge-15" class="edgePath" data-edge-id="edge-15" d="M 1071.688,411.695 L 1071.688,394.195 L 810.168,394.195 L 810.168,223.988 L 792.418,223.988 L 792.418,241.488" fill="none" stroke="#2F3B4D" stroke-width="2"    stroke-linecap="round" stroke-linejoin="round" /><rect data-edge-id="edge-15" data-label-kind="center" x="862.89" y="312.39" width="123.83" height="28.40" rx="2" ry="2" fill="rgba(248,250,252, 0.92)" fill-opacity="0.00" stroke="#7B88A8" stroke-opacity="0.00" stroke-width="0.8"/><g class="edgeLabel" data-edge-id="edge-15" data-label-kind="center"><text x="924.80" y="330.59" text-anchor="middle" font-family="trebuchet ms,verdana,arial,sans-serif" font-size="16" fill="#333333"><tspan x="924.80" dy="0.00">16. session_key</tspan></text></g><circle cx="808.42" cy="303.92" r="64.45" fill="#ECECFF" stroke="#7B88A8" stroke-width="1" stroke-linejoin="round" stroke-linecap="round"/><circle cx="808.42" cy="303.92" r="60.45" fill="none" stroke="#7B88A8" stroke-width="1" stroke-linejoin="round" stroke-linecap="round"/><text x="808.42" y="307.92" text-anchor="middle" font-family="trebuchet ms,verdana,arial,sans-serif" font-size="16" fill="#333333"><tspan x="808.42" dy="0.00">Baldr API</tspan></text><circle cx="468.82" cy="434.41" r="83.59" fill="#ECECFF" stroke="#7B88A8" stroke-width="1" stroke-linejoin="round" stroke-linecap="round"/><circle cx="468.82" cy="434.41" r="79.59" fill="none" stroke="#7B88A8" stroke-width="1" stroke-linejoin="round" stroke-linecap="round"/><text x="468.82" y="438.41" text-anchor="middle" font-family="trebuchet ms,verdana,arial,sans-serif" font-size="16" fill="#333333"><tspan x="468.82" dy="0.00">Forseti Client</tspan></text><circle cx="767.85" cy="524.92" r="106.55" fill="#ECECFF" stroke="#7B88A8" stroke-width="1" stroke-linejoin="round" stroke-linecap="round"/><circle cx="767.85" cy="524.92" r="102.55" fill="none" stroke="#7B88A8" stroke-width="1" stroke-linejoin="round" stroke-linecap="round"/><text x="767.85" y="528.92" text-anchor="middle" font-family="trebuchet ms,verdana,arial,sans-serif" font-size="16" fill="#333333"><tspan x="767.85" dy="0.00">GenerateKE1 Function</tspan></text><circle cx="1164.09" cy="244.16" r="106.55" fill="#ECECFF" stroke="#7B88A8" stroke-width="1" stroke-linejoin="round" stroke-linecap="round"/><circle cx="1164.09" cy="244.16" r="102.55" fill="none" stroke="#7B88A8" stroke-width="1" stroke-linejoin="round" stroke-linecap="round"/><text x="1164.09" y="248.16" text-anchor="middle" font-family="trebuchet ms,verdana,arial,sans-serif" font-size="16" fill="#333333"><tspan x="1164.09" dy="0.00">GenerateKE2 Function</tspan></text><circle cx="836.74" cy="788.02" r="106.55" fill="#ECECFF" stroke="#7B88A8" stroke-width="1" stroke-linejoin="round" stroke-linecap="round"/><circle cx="836.74" cy="788.02" r="102.55" fill="none" stroke="#7B88A8" stroke-width="1" stroke-linejoin="round" stroke-linecap="round"/><text x="836.74" y="792.02" text-anchor="middle" font-family="trebuchet ms,verdana,arial,sans-serif" font-size="16" fill="#333333"><tspan x="836.74" dy="0.00">GenerateKE3 Function</tspan></text><ellipse cx="1139.73" cy="15.13" rx="87.73" ry="7.13" fill="#ECECFF" stroke="#7B88A8" stroke-width="1" stroke-linejoin="round" stroke-linecap="round"/><rect x="1052.00" y="15.13" width="175.47" height="45.14" fill="#ECECFF" stroke="#7B88A8" stroke-width="1" stroke-linejoin="round" stroke-linecap="round"/><ellipse cx="1139.73" cy="60.27" rx="87.73" ry="7.13" fill="none" stroke="#7B88A8" stroke-width="1" stroke-linejoin="round" stroke-linecap="round"/><text x="1139.73" y="41.70" text-anchor="middle" font-family="trebuchet ms,verdana,arial,sans-serif" font-size="16" fill="#333333"><tspan x="1139.73" dy="0.00">Database File</tspan></text><ellipse cx="1195.03" cy="84.53" rx="96.15" ry="7.13" fill="#ECECFF" stroke="#7B88A8" stroke-width="1" stroke-linejoin="round" stroke-linecap="round"/><rect x="1098.87" y="84.53" width="192.31" height="45.14" fill="#ECECFF" stroke="#7B88A8" stroke-width="1" stroke-linejoin="round" stroke-linecap="round"/><ellipse cx="1195.03" cy="129.67" rx="96.15" ry="7.13" fill="none" stroke="#7B88A8" stroke-width="1" stroke-linejoin="round" stroke-linecap="round"/><text x="1195.03" y="111.10" text-anchor="middle" font-family="trebuchet ms,verdana,arial,sans-serif" font-size="16" fill="#333333"><tspan x="1195.03" dy="0.00">Server Database</tspan></text><circle cx="1119.69" cy="511.09" r="110.38" fill="#ECECFF" stroke="#7B88A8" stroke-width="1" stroke-linejoin="round" stroke-linecap="round"/><circle cx="1119.69" cy="511.09" r="106.38" fill="none" stroke="#7B88A8" stroke-width="1" stroke-linejoin="round" stroke-linecap="round"/><text x="1119.69" y="515.09" text-anchor="middle" font-family="trebuchet ms,verdana,arial,sans-serif" font-size="16" fill="#333333"><tspan x="1119.69" dy="0.00">ServerFinish Function</tspan></text><rect x="75.50" y="475.97" width="90.62" height="54.00" rx="3" ry="3" fill="#ECECFF" stroke="#7B88A8" stroke-width="1" stroke-linejoin="round" stroke-linecap="round"/><text x="120.81" y="506.97" text-anchor="middle" font-family="trebuchet ms,verdana,arial,sans-serif" font-size="16" fill="#333333"><tspan x="120.81" dy="0.00">User</tspan></text><g transform="translate(136.81 529.97) rotate(-90.00)"><polygon points="0,0 -10.40,6.24 -10.40,-6.24" fill="#2F3B4D" stroke="#2F3B4D" stroke-width="2" stroke-linejoin="round" stroke-linecap="round"/></g><g transform="translate(743.97 303.92) rotate(180.00)"><polygon points="0,0 -10.40,6.24 -10.40,-6.24" fill="#2F3B4D" stroke="#2F3B4D" stroke-width="2" stroke-linejoin="round" stroke-linecap="round"/></g><g transform="translate(1098.87 123.10) rotate(0.00)"><polygon points="0,0 -10.40,6.24 -10.40,-6.24" fill="#2F3B4D" stroke="#2F3B4D" stroke-width="2" stroke-linejoin="round" stroke-linecap="round"/></g><g transform="translate(420.82 502.84) rotate(-90.00)"><polygon points="0,0 -10.40,6.24 -10.40,-6.24" fill="#2F3B4D" stroke="#2F3B4D" stroke-width="2" stroke-linejoin="round" stroke-linecap="round"/></g><g transform="translate(386.78 450.41) rotate(44.13)"><polygon points="0,0 -10.40,6.24 -10.40,-6.24" fill="#2F3B4D" stroke="#2F3B4D" stroke-width="2" stroke-linejoin="round" stroke-linecap="round"/></g><g transform="translate(662.50 508.92) rotate(0.00)"><polygon points="0,0 -10.40,6.24 -10.40,-6.24" fill="#2F3B4D" stroke="#2F3B4D" stroke-width="2" stroke-linejoin="round" stroke-linecap="round"/></g><g transform="translate(516.82 365.99) rotate(-90.00)"><polygon points="0,0 -10.40,6.24 -10.40,-6.24" fill="#2F3B4D" stroke="#2F3B4D" stroke-width="2" stroke-linejoin="round" stroke-linecap="round"/></g><g transform="translate(776.42 359.86) rotate(90.00)"><polygon points="0,0 -10.40,6.24 -10.40,-6.24" fill="#2F3B4D" stroke="#2F3B4D" stroke-width="2" stroke-linejoin="round" stroke-linecap="round"/></g><g transform="translate(1058.74 260.16) rotate(0.00)"><polygon points="0,0 -10.40,6.24 -10.40,-6.24" fill="#2F3B4D" stroke="#2F3B4D" stroke-width="2" stroke-linejoin="round" stroke-linecap="round"/></g><g transform="translate(840.42 359.86) rotate(90.00)"><polygon points="0,0 -10.40,6.24 -10.40,-6.24" fill="#2F3B4D" stroke="#2F3B4D" stroke-width="2" stroke-linejoin="round" stroke-linecap="round"/></g><g transform="translate(436.82 511.63) rotate(-90.00)"><polygon points="0,0 -10.40,6.24 -10.40,-6.24" fill="#2F3B4D" stroke="#2F3B4D" stroke-width="2" stroke-linejoin="round" stroke-linecap="round"/></g><g transform="translate(735.11 756.02) rotate(0.00)"><polygon points="0,0 -10.40,6.24 -10.40,-6.24" fill="#2F3B4D" stroke="#2F3B4D" stroke-width="2" stroke-linejoin="round" stroke-linecap="round"/></g><g transform="translate(468.82 350.83) rotate(0.00)"><polygon points="0,0 -10.40,6.24 -10.40,-6.24" fill="#2F3B4D" stroke="#2F3B4D" stroke-width="2" stroke-linejoin="round" stroke-linecap="round"/></g><g transform="translate(745.99 319.92) rotate(0.00)"><polygon points="0,0 -10.40,6.24 -10.40,-6.24" fill="#2F3B4D" stroke="#2F3B4D" stroke-width="2" stroke-linejoin="round" stroke-linecap="round"/></g><g transform="translate(1020.29 463.09) rotate(180.00)"><polygon points="0,0 -10.40,6.24 -10.40,-6.24" fill="#2F3B4D" stroke="#2F3B4D" stroke-width="2" stroke-linejoin="round" stroke-linecap="round"/></g><g transform="translate(792.42 241.49) rotate(90.00)"><polygon points="0,0 -10.40,6.24 -10.40,-6.24" fill="#2F3B4D" stroke="#2F3B4D" stroke-width="2" stroke-linejoin="round" stroke-linecap="round"/></g></svg>