<svg xmlns="http://www.w3.org/2000/svg" width="703.2523" height="409.6" viewBox="0 0 703.2523 409.6"><rect x="0" y="0" width="703.2523" height="409.6" fill="#FFFFFF"/><defs><marker id="arrow-0" viewBox="0 0 10 10" refX="5" refY="5" markerUnits="userSpaceOnUse" markerWidth="8" markerHeight="8" orient="auto"><path d="M 0 0 L 10 5 L 0 10 z" fill="#2F3B4D" stroke="#2F3B4D" stroke-width="1" stroke-dasharray="1,0"/></marker><marker id="arrow-start-0" viewBox="0 0 10 10" refX="4.5" refY="5" markerUnits="userSpaceOnUse" markerWidth="8" markerHeight="8" orient="auto"><path d="M 0 5 L 10 10 L 10 0 z" fill="#2F3B4D" stroke="#2F3B4D" stroke-width="1" stroke-dasharray="1,0"/></marker></defs><text x="456.63" y="53.60" text-anchor="middle" font-family="trebuchet ms,verdana,arial,sans-serif" font-size="16" fill="#333333"><tspan x="456.63" dy="0.00">Project Timeline</tspan></text><line x1="248.63" y1="64.00" x2="248.63" y2="352.00" stroke="#E2E8F0" stroke-width="1"/><text x="248.63" y="372.40" text-anchor="middle" font-family="trebuchet ms,verdana,arial,sans-serif" font-size="12.8" fill="#333">2024-01-01</text><line x1="352.63" y1="64.00" x2="352.63" y2="352.00" stroke="#E2E8F0" stroke-width="1"/><text x="352.63" y="372.40" text-anchor="middle" font-family="trebuchet ms,verdana,arial,sans-serif" font-size="12.8" fill="#333">2078-01-21</text><line x1="456.63" y1="64.00" x2="456.63" y2="352.00" stroke="#E2E8F0" stroke-width="1"/><text x="456.63" y="372.40" text-anchor="middle" font-family="trebuchet ms,verdana,arial,sans-serif" font-size="12.8" fill="#333">2132-02-11</text><line x1="560.63" y1="64.00" x2="560.63" y2="352.00" stroke="#E2E8F0" stroke-width="1"/><text x="560.63" y="372.40" text-anchor="middle" font-family="trebuchet ms,verdana,arial,sans-serif" font-size="12.8" fill="#333">2186-03-03</text><line x1="664.63" y1="64.00" x2="664.63" y2="352.00" stroke="#E2E8F0" stroke-width="1"/><text x="664.63" y="372.40" text-anchor="middle" font-family="trebuchet ms,verdana,arial,sans-serif" font-size="12.8" fill="#333">2240-03-23</text><line x1="248.63" y1="352.00" x2="664.63" y2="352.00" stroke="#2F3B4D" stroke-width="1"/><line x1="248.63" y1="64.00" x2="248.63" y2="352.00" stroke="#E2E8F0" stroke-width="1"/><rect x="0.00" y="64.00" width="248.63" height="72.00" fill="hsl(222.6666564941, 24.8986320496%, 81.2705841064%)" fill-opacity="0.22" stroke="none"/><rect x="248.63" y="64.00" width="416.00" height="72.00" fill="hsl(222.6666564941, 24.8986320496%, 81.2705841064%)" fill-opacity="0.12" stroke="none"/><rect x="0.00" y="64.00" width="4.80" height="72.00" fill="hsl(222.6666564941, 36.3287696838%, 56.2352943420%)" fill-opacity="0.9" stroke="none"/><text x="20.00" y="80.80" text-anchor="start" font-family="trebuchet ms,verdana,arial,sans-serif" font-size="14.4" fill="#333333"><tspan x="20.00" dy="0.00">Planning</tspan></text><rect x="0.00" y="136.00" width="248.63" height="96.00" fill="hsl(312.6666564941, 24.8986320496%, 81.2705841064%)" fill-opacity="0.22" stroke="none"/><rect x="248.63" y="136.00" width="416.00" height="96.00" fill="hsl(312.6666564941, 24.8986320496%, 81.2705841064%)" fill-opacity="0.12" stroke="none"/><rect x="0.00" y="136.00" width="4.80" height="96.00" fill="hsl(312.6666564941, 36.3287696838%, 56.2352943420%)" fill-opacity="0.9" stroke="none"/><text x="20.00" y="152.80" text-anchor="start" font-family="trebuchet ms,verdana,arial,sans-serif" font-size="14.4" fill="#333333"><tspan x="20.00" dy="0.00">Development</tspan></text><rect x="0.00" y="232.00" width="248.63" height="72.00" fill="hsl(42.6666564941, 24.8986320496%, 81.2705841064%)" fill-opacity="0.22" stroke="none"/><rect x="248.63" y="232.00" width="416.00" height="72.00" fill="hsl(42.6666564941, 24.8986320496%, 81.2705841064%)" fill-opacity="0.12" stroke="none"/><rect x="0.00" y="232.00" width="4.80" height="72.00" fill="hsl(42.6666564941, 36.3287696838%, 56.2352943420%)" fill-opacity="0.9" stroke="none"/><text x="20.00" y="248.80" text-anchor="start" font-family="trebuchet ms,verdana,arial,sans-serif" font-size="14.4" fill="#333333"><tspan x="20.00" dy="0.00">Testing</tspan></text><rect x="0.00" y="304.00" width="248.63" height="48.00" fill="hsl(132.6666564941, 24.8986320496%, 81.2705841064%)" fill-opacity="0.22" stroke="none"/><rect x="248.63" y="304.00" width="416.00" height="48.00" fill="hsl(132.6666564941, 24.8986320496%, 81.2705841064%)" fill-opacity="0.12" stroke="none"/><rect x="0.00" y="304.00" width="4.80" height="48.00" fill="hsl(132.6666564941, 36.3287696838%, 56.2352943420%)" fill-opacity="0.9" stroke="none"/><text x="20.00" y="320.80" text-anchor="start" font-family="trebuchet ms,verdana,arial,sans-serif" font-size="14.4" fill="#333333"><tspan x="20.00" dy="0.00">Release</tspan></text><line x1="0.00" y1="64.00" x2="684.63" y2="64.00" stroke="#E2E8F0" stroke-width="1"/><line x1="0.00" y1="88.00" x2="684.63" y2="88.00" stroke="#E2E8F0" stroke-width="1"/><line x1="0.00" y1="112.00" x2="684.63" y2="112.00" stroke="#E2E8F0" stroke-width="1"/><line x1="0.00" y1="136.00" x2="684.63" y2="136.00" stroke="#E2E8F0" stroke-width="1"/><line x1="0.00" y1="160.00" x2="684.63" y2="160.00" stroke="#E2E8F0" stroke-width="1"/><line x1="0.00" y1="184.00" x2="684.63" y2="184.00" stroke="#E2E8F0" stroke-width="1"/><line x1="0.00" y1="208.00" x2="684.63" y2="208.00" stroke="#E2E8F0" stroke-width="1"/><line x1="0.00" y1="232.00" x2="684.63" y2="232.00" stroke="#E2E8F0" stroke-width="1"/><line x1="0.00" y1="256.00" x2="684.63" y2="256.00" stroke="#E2E8F0" stroke-width="1"/><line x1="0.00" y1="280.00" x2="684.63" y2="280.00" stroke="#E2E8F0" stroke-width="1"/><line x1="0.00" y1="304.00" x2="684.63" y2="304.00" stroke="#E2E8F0" stroke-width="1"/><line x1="0.00" y1="328.00" x2="684.63" y2="328.00" stroke="#E2E8F0" stroke-width="1"/><line x1="0.00" y1="352.00" x2="684.63" y2="352.00" stroke="#E2E8F0" stroke-width="1"/><rect x="248.63" y="66.16" width="12.00" height="19.68" rx="3" fill="hsl(222.6666564941, 31.8986320496%, 72.8705902100%)" stroke="#7B88A8" stroke-width="1"/><text x="117.01" y="79.40" text-anchor="start" font-family="trebuchet ms,verdana,arial,sans-serif" font-size="13.6" fill="#333333"><tspan x="117.01" dy="0.00">Requirements</tspan></text><rect x="248.71" y="90.16" width="12.00" height="19.68" rx="3" fill="hsl(222.6666564941, 31.8986320496%, 72.8705902100%)" stroke="#7B88A8" stroke-width="1"/><text x="117.01" y="103.40" text-anchor="start" font-family="trebuchet ms,verdana,arial,sans-serif" font-size="13.6" fill="#333333"><tspan x="117.01" dy="0.00">Architecture</tspan></text><polygon points="352.62,112.19 364.42,124.00 352.62,135.81 340.81,124.00" fill="hsl(45.0000000000, 65.0000000000%, 56.2352943420%)" stroke="#7B88A8" stroke-width="1"/><text x="117.01" y="127.40" text-anchor="start" font-family="trebuchet ms,verdana,arial,sans-serif" font-size="13.6" fill="#333333"><tspan x="117.01" dy="0.00">Design Review</tspan></text><rect x="456.51" y="138.16" width="12.00" height="19.68" rx="3" fill="hsl(312.6666564941, 56.5315093994%, 53.6941184998%)" stroke="#7B88A8" stroke-width="1"/><text x="117.01" y="151.40" text-anchor="start" font-family="trebuchet ms,verdana,arial,sans-serif" font-size="13.6" fill="#333333"><tspan x="117.01" dy="0.00">Backend API</tspan></text><rect x="560.52" y="162.16" width="12.00" height="19.68" rx="3" fill="hsl(312.6666564941, 56.5315093994%, 53.6941184998%)" stroke="#7B88A8" stroke-width="1"/><text x="117.01" y="175.40" text-anchor="start" font-family="trebuchet ms,verdana,arial,sans-serif" font-size="13.6" fill="#333333"><tspan x="117.01" dy="0.00">Frontend UI</tspan></text><rect x="664.56" y="186.16" width="12.00" height="19.68" rx="3" fill="hsl(0.0000000000, 65.0000000000%, 56.2352943420%)" stroke="#7B88A8" stroke-width="1"/><text x="117.01" y="199.40" text-anchor="start" font-family="trebuchet ms,verdana,arial,sans-serif" font-size="13.6" fill="#333333"><tspan x="117.01" dy="0.00">Database Schema</tspan></text><rect x="456.62" y="210.16" width="12.00" height="19.68" rx="3" fill="hsl(312.6666564941, 36.3287696838%, 56.2352943420%)" stroke="#7B88A8" stroke-width="1"/><text x="117.01" y="223.40" text-anchor="start" font-family="trebuchet ms,verdana,arial,sans-serif" font-size="13.6" fill="#333333"><tspan x="117.01" dy="0.00">Integration</tspan></text><rect x="456.62" y="234.16" width="12.00" height="19.68" rx="3" fill="hsl(42.6666564941, 36.3287696838%, 56.2352943420%)" stroke="#7B88A8" stroke-width="1"/><text x="117.01" y="247.40" text-anchor="start" font-family="trebuchet ms,verdana,arial,sans-serif" font-size="13.6" fill="#333333"><tspan x="117.01" dy="0.00">Unit Tests</tspan></text><rect x="456.70" y="258.16" width="12.00" height="19.68" rx="3" fill="hsl(42.6666564941, 36.3287696838%, 56.2352943420%)" stroke="#7B88A8" stroke-width="1"/><text x="117.01" y="271.40" text-anchor="start" font-family="trebuchet ms,verdana,arial,sans-serif" font-size="13.6" fill="#333333"><tspan x="117.01" dy="0.00">E2E Tests</tspan></text><rect x="456.75" y="282.16" width="12.00" height="19.68" rx="3" fill="hsl(42.6666564941, 36.3287696838%, 56.2352943420%)" stroke="#7B88A8" stroke-width="1"/><text x="117.01" y="295.40" text-anchor="start" font-family="trebuchet ms,verdana,arial,sans-serif" font-size="13.6" fill="#333333"><tspan x="117.01" dy="0.00">Performance</tspan></text><rect x="456.77" y="306.16" width="12.00" height="19.68" rx="3" fill="hsl(132.6666564941, 36.3287696838%, 56.2352943420%)" stroke="#7B88A8" stroke-width="1"/><text x="117.01" y="319.40" text-anchor="start" font-family="trebuchet ms,verdana,arial,sans-serif" font-size="13.6" fill="#333333"><tspan x="117.01" dy="0.00">Staging Deploy</tspan></text><polygon points="456.79,328.19 468.60,340.00 456.79,351.81 444.98,340.00" fill="hsl(45.0000000000, 65.0000000000%, 56.2352943420%)" stroke="#7B88A8" stroke-width="1"/><text x="117.01" y="343.40" text-anchor="start" font-family="trebuchet ms,verdana,arial,sans-serif" font-size="13.6" fill="#333333"><tspan x="117.01" dy="0.00">Production</tspan></text></svg>