<svg xmlns="http://www.w3.org/2000/svg" width="672.632" height="313.6" viewBox="0 0 672.632 313.6"><rect x="0" y="0" width="672.632" height="313.6" fill="#FFFFFF"/><defs><marker id="arrow-0" viewBox="0 0 10 10" refX="5" refY="5" markerUnits="userSpaceOnUse" markerWidth="8" markerHeight="8" orient="auto"><path d="M 0 0 L 10 5 L 0 10 z" fill="#2F3B4D" stroke="#2F3B4D" stroke-width="1" stroke-dasharray="1,0"/></marker><marker id="arrow-start-0" viewBox="0 0 10 10" refX="4.5" refY="5" markerUnits="userSpaceOnUse" markerWidth="8" markerHeight="8" orient="auto"><path d="M 0 5 L 10 10 L 10 0 z" fill="#2F3B4D" stroke="#2F3B4D" stroke-width="1" stroke-dasharray="1,0"/></marker></defs><text x="426.01" y="53.60" text-anchor="middle" font-family="trebuchet ms,verdana,arial,sans-serif" font-size="16" fill="#333333"><tspan x="426.01" dy="0.00">Sprint Plan</tspan></text><line x1="218.01" y1="64.00" x2="218.01" y2="256.00" stroke="#E2E8F0" stroke-width="1"/><text x="218.01" y="276.40" text-anchor="middle" font-family="trebuchet ms,verdana,arial,sans-serif" font-size="12.8" fill="#333">2024-03-01</text><line x1="322.01" y1="64.00" x2="322.01" y2="256.00" stroke="#E2E8F0" stroke-width="1"/><text x="322.01" y="276.40" text-anchor="middle" font-family="trebuchet ms,verdana,arial,sans-serif" font-size="12.8" fill="#333">2024-03-04</text><line x1="426.01" y1="64.00" x2="426.01" y2="256.00" stroke="#E2E8F0" stroke-width="1"/><text x="426.01" y="276.40" text-anchor="middle" font-family="trebuchet ms,verdana,arial,sans-serif" font-size="12.8" fill="#333">2024-03-07</text><line x1="530.01" y1="64.00" x2="530.01" y2="256.00" stroke="#E2E8F0" stroke-width="1"/><text x="530.01" y="276.40" text-anchor="middle" font-family="trebuchet ms,verdana,arial,sans-serif" font-size="12.8" fill="#333">2024-03-10</text><line x1="634.01" y1="64.00" x2="634.01" y2="256.00" stroke="#E2E8F0" stroke-width="1"/><text x="634.01" y="276.40" text-anchor="middle" font-family="trebuchet ms,verdana,arial,sans-serif" font-size="12.8" fill="#333">2024-03-13</text><line x1="218.01" y1="256.00" x2="634.01" y2="256.00" stroke="#2F3B4D" stroke-width="1"/><line x1="218.01" y1="64.00" x2="218.01" y2="256.00" stroke="#E2E8F0" stroke-width="1"/><rect x="0.00" y="64.00" width="218.01" height="72.00" fill="hsl(222.6666564941, 24.8986320496%, 81.2705841064%)" fill-opacity="0.22" stroke="none"/><rect x="218.01" y="64.00" width="416.00" height="72.00" fill="hsl(222.6666564941, 24.8986320496%, 81.2705841064%)" fill-opacity="0.12" stroke="none"/><rect x="0.00" y="64.00" width="4.80" height="72.00" fill="hsl(222.6666564941, 36.3287696838%, 56.2352943420%)" fill-opacity="0.9" stroke="none"/><text x="20.00" y="80.80" text-anchor="start" font-family="trebuchet ms,verdana,arial,sans-serif" font-size="14.4" fill="#333333"><tspan x="20.00" dy="0.00">Backend</tspan></text><rect x="0.00" y="136.00" width="218.01" height="72.00" fill="hsl(342.6666564941, 24.8986320496%, 81.2705841064%)" fill-opacity="0.22" stroke="none"/><rect x="218.01" y="136.00" width="416.00" height="72.00" fill="hsl(342.6666564941, 24.8986320496%, 81.2705841064%)" fill-opacity="0.12" stroke="none"/><rect x="0.00" y="136.00" width="4.80" height="72.00" fill="hsl(342.6666564941, 36.3287696838%, 56.2352943420%)" fill-opacity="0.9" stroke="none"/><text x="20.00" y="152.80" text-anchor="start" font-family="trebuchet ms,verdana,arial,sans-serif" font-size="14.4" fill="#333333"><tspan x="20.00" dy="0.00">Frontend</tspan></text><rect x="0.00" y="208.00" width="218.01" height="48.00" fill="hsl(102.6666564941, 24.8986320496%, 81.2705841064%)" fill-opacity="0.22" stroke="none"/><rect x="218.01" y="208.00" width="416.00" height="48.00" fill="hsl(102.6666564941, 24.8986320496%, 81.2705841064%)" fill-opacity="0.12" stroke="none"/><rect x="0.00" y="208.00" width="4.80" height="48.00" fill="hsl(102.6666564941, 36.3287696838%, 56.2352943420%)" fill-opacity="0.9" stroke="none"/><text x="20.00" y="224.80" text-anchor="start" font-family="trebuchet ms,verdana,arial,sans-serif" font-size="14.4" fill="#333333"><tspan x="20.00" dy="0.00">DevOps</tspan></text><line x1="0.00" y1="64.00" x2="654.01" y2="64.00" stroke="#E2E8F0" stroke-width="1"/><line x1="0.00" y1="88.00" x2="654.01" y2="88.00" stroke="#E2E8F0" stroke-width="1"/><line x1="0.00" y1="112.00" x2="654.01" y2="112.00" stroke="#E2E8F0" stroke-width="1"/><line x1="0.00" y1="136.00" x2="654.01" y2="136.00" stroke="#E2E8F0" stroke-width="1"/><line x1="0.00" y1="160.00" x2="654.01" y2="160.00" stroke="#E2E8F0" stroke-width="1"/><line x1="0.00" y1="184.00" x2="654.01" y2="184.00" stroke="#E2E8F0" stroke-width="1"/><line x1="0.00" y1="208.00" x2="654.01" y2="208.00" stroke="#E2E8F0" stroke-width="1"/><line x1="0.00" y1="232.00" x2="654.01" y2="232.00" stroke="#E2E8F0" stroke-width="1"/><line x1="0.00" y1="256.00" x2="654.01" y2="256.00" stroke="#E2E8F0" stroke-width="1"/><rect x="218.01" y="66.16" width="173.33" height="19.68" rx="3" fill="hsl(222.6666564941, 36.3287696838%, 56.2352943420%)" stroke="#7B88A8" stroke-width="1"/><text x="304.68" y="76.00" text-anchor="middle" dominant-baseline="middle" font-family="trebuchet ms,verdana,arial,sans-serif" font-size="12.92" fill="#0F172A">Auth module</text><rect x="391.35" y="90.16" width="104.00" height="19.68" rx="3" fill="hsl(222.6666564941, 36.3287696838%, 56.2352943420%)" stroke="#7B88A8" stroke-width="1"/><text x="443.35" y="100.00" text-anchor="middle" dominant-baseline="middle" font-family="trebuchet ms,verdana,arial,sans-serif" font-size="12.92" fill="#0F172A">API endpoints</text><rect x="495.35" y="114.16" width="138.67" height="19.68" rx="3" fill="hsl(222.6666564941, 36.3287696838%, 56.2352943420%)" stroke="#7B88A8" stroke-width="1"/><text x="564.68" y="124.00" text-anchor="middle" dominant-baseline="middle" font-family="trebuchet ms,verdana,arial,sans-serif" font-size="12.92" fill="#0F172A">Data migration</text><rect x="218.01" y="138.16" width="104.00" height="19.68" rx="3" fill="hsl(342.6666564941, 36.3287696838%, 56.2352943420%)" stroke="#7B88A8" stroke-width="1"/><text x="270.01" y="148.00" text-anchor="middle" dominant-baseline="middle" font-family="trebuchet ms,verdana,arial,sans-serif" font-size="12.92" fill="#0F172A">Login page</text><rect x="322.01" y="162.16" width="173.33" height="19.68" rx="3" fill="hsl(342.6666564941, 36.3287696838%, 56.2352943420%)" stroke="#7B88A8" stroke-width="1"/><text x="408.68" y="172.00" text-anchor="middle" dominant-baseline="middle" font-family="trebuchet ms,verdana,arial,sans-serif" font-size="12.92" fill="#0F172A">Dashboard</text><rect x="495.35" y="186.16" width="69.33" height="19.68" rx="3" fill="hsl(342.6666564941, 36.3287696838%, 56.2352943420%)" stroke="#7B88A8" stroke-width="1"/><text x="530.01" y="196.00" text-anchor="middle" dominant-baseline="middle" font-family="trebuchet ms,verdana,arial,sans-serif" font-size="12.92" fill="#0F172A">Settings</text><rect x="218.01" y="210.16" width="69.33" height="19.68" rx="3" fill="hsl(102.6666564941, 36.3287696838%, 56.2352943420%)" stroke="#7B88A8" stroke-width="1"/><text x="252.68" y="220.00" text-anchor="middle" dominant-baseline="middle" font-family="trebuchet ms,verdana,arial,sans-serif" font-size="12.92" fill="#0F172A">CI pipeline</text><rect x="287.35" y="234.16" width="69.33" height="19.68" rx="3" fill="hsl(102.6666564941, 36.3287696838%, 56.2352943420%)" stroke="#7B88A8" stroke-width="1"/><text x="94.04" y="247.40" text-anchor="start" font-family="trebuchet ms,verdana,arial,sans-serif" font-size="13.6" fill="#333333"><tspan x="94.04" dy="0.00">Deploy scripts</tspan></text></svg>