<svg xmlns="http://www.w3.org/2000/svg" width="654.15076" height="265.6" viewBox="0 0 654.15076 265.6"><rect x="0" y="0" width="654.15076" height="265.6" fill="#FFFFFF"/><defs><marker id="arrow-0" viewBox="0 0 10 10" refX="5" refY="5" markerUnits="userSpaceOnUse" markerWidth="8" markerHeight="8" orient="auto"><path d="M 0 0 L 10 5 L 0 10 z" fill="#2F3B4D" stroke="#2F3B4D" stroke-width="1" stroke-dasharray="1,0"/></marker><marker id="arrow-start-0" viewBox="0 0 10 10" refX="4.5" refY="5" markerUnits="userSpaceOnUse" markerWidth="8" markerHeight="8" orient="auto"><path d="M 0 5 L 10 10 L 10 0 z" fill="#2F3B4D" stroke="#2F3B4D" stroke-width="1" stroke-dasharray="1,0"/></marker></defs><text x="407.53" y="53.60" text-anchor="middle" font-family="trebuchet ms,verdana,arial,sans-serif" font-size="16" fill="#333333"><tspan x="407.53" dy="0.00">Release Plan</tspan></text><line x1="199.53" y1="64.00" x2="199.53" y2="208.00" stroke="#E2E8F0" stroke-width="1"/><text x="199.53" y="228.40" text-anchor="middle" font-family="trebuchet ms,verdana,arial,sans-serif" font-size="12.8" fill="#333">2026-01-01</text><line x1="303.54" y1="64.00" x2="303.54" y2="208.00" stroke="#E2E8F0" stroke-width="1"/><text x="303.54" y="228.40" text-anchor="middle" font-family="trebuchet ms,verdana,arial,sans-serif" font-size="12.8" fill="#333">2026-01-07</text><line x1="407.55" y1="64.00" x2="407.55" y2="208.00" stroke="#E2E8F0" stroke-width="1"/><text x="407.55" y="228.40" text-anchor="middle" font-family="trebuchet ms,verdana,arial,sans-serif" font-size="12.8" fill="#333">2026-01-14</text><line x1="511.52" y1="64.00" x2="511.52" y2="208.00" stroke="#E2E8F0" stroke-width="1"/><text x="511.52" y="228.40" text-anchor="middle" font-family="trebuchet ms,verdana,arial,sans-serif" font-size="12.8" fill="#333">2026-01-20</text><line x1="615.53" y1="64.00" x2="615.53" y2="208.00" stroke="#E2E8F0" stroke-width="1"/><text x="615.53" y="228.40" text-anchor="middle" font-family="trebuchet ms,verdana,arial,sans-serif" font-size="12.8" fill="#333">2026-01-26</text><line x1="199.53" y1="208.00" x2="615.53" y2="208.00" stroke="#2F3B4D" stroke-width="1"/><line x1="199.53" y1="64.00" x2="199.53" y2="208.00" stroke="#E2E8F0" stroke-width="1"/><rect x="0.00" y="64.00" width="199.53" height="48.00" fill="hsl(222.6666564941, 24.8986320496%, 81.2705841064%)" fill-opacity="0.22" stroke="none"/><rect x="199.53" y="64.00" width="416.00" height="48.00" fill="hsl(222.6666564941, 24.8986320496%, 81.2705841064%)" fill-opacity="0.12" stroke="none"/><rect x="0.00" y="64.00" width="4.80" height="48.00" fill="hsl(222.6666564941, 36.3287696838%, 56.2352943420%)" fill-opacity="0.9" stroke="none"/><text x="20.00" y="80.80" text-anchor="start" font-family="trebuchet ms,verdana,arial,sans-serif" font-size="14.4" fill="#333333"><tspan x="20.00" dy="0.00">Design</tspan></text><rect x="0.00" y="112.00" width="199.53" height="48.00" fill="hsl(342.6666564941, 24.8986320496%, 81.2705841064%)" fill-opacity="0.22" stroke="none"/><rect x="199.53" y="112.00" width="416.00" height="48.00" fill="hsl(342.6666564941, 24.8986320496%, 81.2705841064%)" fill-opacity="0.12" stroke="none"/><rect x="0.00" y="112.00" width="4.80" height="48.00" fill="hsl(342.6666564941, 36.3287696838%, 56.2352943420%)" fill-opacity="0.9" stroke="none"/><text x="20.00" y="128.80" text-anchor="start" font-family="trebuchet ms,verdana,arial,sans-serif" font-size="14.4" fill="#333333"><tspan x="20.00" dy="0.00">Build</tspan></text><rect x="0.00" y="160.00" width="199.53" height="48.00" fill="hsl(102.6666564941, 24.8986320496%, 81.2705841064%)" fill-opacity="0.22" stroke="none"/><rect x="199.53" y="160.00" width="416.00" height="48.00" fill="hsl(102.6666564941, 24.8986320496%, 81.2705841064%)" fill-opacity="0.12" stroke="none"/><rect x="0.00" y="160.00" width="4.80" height="48.00" fill="hsl(102.6666564941, 36.3287696838%, 56.2352943420%)" fill-opacity="0.9" stroke="none"/><text x="20.00" y="176.80" text-anchor="start" font-family="trebuchet ms,verdana,arial,sans-serif" font-size="14.4" fill="#333333"><tspan x="20.00" dy="0.00">Launch</tspan></text><line x1="0.00" y1="64.00" x2="635.53" y2="64.00" stroke="#E2E8F0" stroke-width="1"/><line x1="0.00" y1="88.00" x2="635.53" y2="88.00" stroke="#E2E8F0" stroke-width="1"/><line x1="0.00" y1="112.00" x2="635.53" y2="112.00" stroke="#E2E8F0" stroke-width="1"/><line x1="0.00" y1="136.00" x2="635.53" y2="136.00" stroke="#E2E8F0" stroke-width="1"/><line x1="0.00" y1="160.00" x2="635.53" y2="160.00" stroke="#E2E8F0" stroke-width="1"/><line x1="0.00" y1="184.00" x2="635.53" y2="184.00" stroke="#E2E8F0" stroke-width="1"/><line x1="0.00" y1="208.00" x2="635.53" y2="208.00" stroke="#E2E8F0" stroke-width="1"/><rect x="199.53" y="66.16" width="82.87" height="19.68" rx="3" fill="hsl(222.6666564941, 31.8986320496%, 72.8705902100%)" stroke="#7B88A8" stroke-width="1"/><text x="240.97" y="76.00" text-anchor="middle" dominant-baseline="middle" font-family="trebuchet ms,verdana,arial,sans-serif" font-size="12.92" fill="#0F172A">Research</text><rect x="282.40" y="90.16" width="49.72" height="19.68" rx="3" fill="hsl(222.6666564941, 36.3287696838%, 56.2352943420%)" stroke="#7B88A8" stroke-width="1"/><text x="78.73" y="103.40" text-anchor="start" font-family="trebuchet ms,verdana,arial,sans-serif" font-size="13.6" fill="#333333"><tspan x="78.73" dy="0.00">Review</tspan></text><rect x="348.70" y="114.16" width="116.02" height="19.68" rx="3" fill="hsl(342.6666564941, 36.3287696838%, 56.2352943420%)" stroke="#7B88A8" stroke-width="1"/><text x="406.71" y="124.00" text-anchor="middle" dominant-baseline="middle" font-family="trebuchet ms,verdana,arial,sans-serif" font-size="12.92" fill="#0F172A">API</text><rect x="464.71" y="138.16" width="82.87" height="19.68" rx="3" fill="hsl(342.6666564941, 36.3287696838%, 56.2352943420%)" stroke="#7B88A8" stroke-width="1"/><text x="506.15" y="148.00" text-anchor="middle" dominant-baseline="middle" font-family="trebuchet ms,verdana,arial,sans-serif" font-size="12.92" fill="#0F172A">UI</text><rect x="514.44" y="162.16" width="66.30" height="19.68" rx="3" fill="hsl(102.6666564941, 36.3287696838%, 56.2352943420%)" stroke="#7B88A8" stroke-width="1"/><text x="547.58" y="172.00" text-anchor="middle" dominant-baseline="middle" font-family="trebuchet ms,verdana,arial,sans-serif" font-size="12.92" fill="#0F172A">QA</text><polygon points="613.88,184.19 625.69,196.00 613.88,207.81 602.07,196.00" fill="hsl(45.0000000000, 65.0000000000%, 56.2352943420%)" stroke="#7B88A8" stroke-width="1"/><text x="78.73" y="199.40" text-anchor="start" font-family="trebuchet ms,verdana,arial,sans-serif" font-size="13.6" fill="#333333"><tspan x="78.73" dy="0.00">Release</tspan></text></svg>