<svg xmlns="http://www.w3.org/2000/svg" width="100%" viewBox="-89.84801 -24.64 347.84802 135.36377" style="max-width: 347.848px;"><rect x="-89.84801" y="-24.64" width="347.84802" height="135.36377" fill="#FFFFFF"/><defs><marker id="arrow-0" viewBox="0 0 10 10" refX="5" refY="5" markerUnits="userSpaceOnUse" markerWidth="8" markerHeight="8" orient="auto"><path d="M 0 0 L 10 5 L 0 10 z" fill="#2F3B4D" stroke="#2F3B4D" stroke-width="1" stroke-dasharray="1,0"/></marker><marker id="arrow-start-0" viewBox="0 0 10 10" refX="4.5" refY="5" markerUnits="userSpaceOnUse" markerWidth="8" markerHeight="8" orient="auto"><path d="M 0 5 L 10 10 L 10 0 z" fill="#2F3B4D" stroke="#2F3B4D" stroke-width="1" stroke-dasharray="1,0"/></marker></defs><g><line x1="0.00" y1="0.00" x2="252.00" y2="0.00" stroke="#2F3B4D" stroke-width="0.8" stroke-dasharray="2"/><rect x="-71.43" y="-18.64" width="42.43" height="27.64" rx="4.00" ry="4.00" fill="hsl(240, 100%, 46.2745098039%)" stroke="none"/><text x="-62.43" y="2.68" text-anchor="start" font-family="trebuchet ms,verdana,arial,sans-serif" font-size="16" fill="#ffffff"><tspan x="-62.43" dy="0.00">main</tspan></text><line x1="0.00" y1="72.00" x2="252.00" y2="72.00" stroke="#2F3B4D" stroke-width="0.8" stroke-dasharray="2"/><rect x="-83.85" y="53.36" width="54.85" height="27.64" rx="4.00" ry="4.00" fill="hsl(60, 100%, 43.5294117647%)" stroke="none"/><text x="-74.85" y="74.68" text-anchor="start" font-family="trebuchet ms,verdana,arial,sans-serif" font-size="16" fill="black"><tspan x="-74.85" dy="0.00">feature</tspan></text><g class="commit-arrows"><path d="M 8 0 L 8 56 A 16 16, 0, 0, 0, 24 72 L 50 72" fill="none" stroke="hsl(60, 100%, 43.5294117647%)" stroke-width="6" stroke-linecap="round"/><path d="M 50 72 L 92 72" fill="none" stroke="hsl(60, 100%, 43.5294117647%)" stroke-width="6" stroke-linecap="round"/><path d="M 8 0 L 134 0" fill="none" stroke="hsl(240, 100%, 46.2745098039%)" stroke-width="6" stroke-linecap="round"/><path d="M 134 0 L 176 0" fill="none" stroke="hsl(240, 100%, 46.2745098039%)" stroke-width="6" stroke-linecap="round"/><path d="M 92 72 L 160 72 A 16 16, 0, 0, 0, 176 56 L 176 0" fill="none" stroke="hsl(60, 100%, 43.5294117647%)" stroke-width="6" stroke-linecap="round"/><path d="M 176 0 L 218 0" fill="none" stroke="hsl(240, 100%, 46.2745098039%)" stroke-width="6" stroke-linecap="round"/></g><g class="commit-bullets"><circle cx="8.00" cy="0.00" r="8.00" fill="hsl(240, 100%, 46.2745098039%)" stroke="hsl(240, 100%, 46.2745098039%)"/><circle cx="50.00" cy="72.00" r="8.00" fill="hsl(60, 100%, 43.5294117647%)" stroke="hsl(60, 100%, 43.5294117647%)"/><circle cx="92.00" cy="72.00" r="8.00" fill="hsl(60, 100%, 43.5294117647%)" stroke="hsl(60, 100%, 43.5294117647%)"/><circle cx="134.00" cy="0.00" r="8.00" fill="hsl(240, 100%, 46.2745098039%)" stroke="hsl(240, 100%, 46.2745098039%)"/><circle cx="176.00" cy="0.00" r="7.50" fill="hsl(240, 100%, 46.2745098039%)" stroke="hsl(240, 100%, 46.2745098039%)"/><circle cx="176.00" cy="0.00" r="5.00" fill="#ECECFF" stroke="#ECECFF"/><circle cx="218.00" cy="0.00" r="8.00" fill="hsl(240, 100%, 46.2745098039%)" stroke="hsl(240, 100%, 46.2745098039%)"/></g><g class="commit-labels"><g transform="translate(-12.06, 11.28) rotate(-45.00, 0.00, 0.00)"><rect x="1.03" y="10.50" width="13.94" height="15.00" fill="#ffffde" opacity="0.5"/><text x="2.53" y="20.00" text-anchor="start" font-family="trebuchet ms,verdana,arial,sans-serif" font-size="10" fill="#000021">Init</text></g><g transform="translate(-11.62, 10.87) rotate(-45.00, 42.00, 72.00)"><rect x="43.72" y="82.50" width="12.57" height="15.00" fill="#ffffde" opacity="0.5"/><text x="45.22" y="92.00" text-anchor="start" font-family="trebuchet ms,verdana,arial,sans-serif" font-size="10" fill="#000021">F1</text></g><g transform="translate(-11.62, 10.87) rotate(-45.00, 84.00, 72.00)"><rect x="85.71" y="82.50" width="12.57" height="15.00" fill="#ffffde" opacity="0.5"/><text x="87.21" y="92.00" text-anchor="start" font-family="trebuchet ms,verdana,arial,sans-serif" font-size="10" fill="#000021">F2</text></g><g transform="translate(-12.20, 11.42) rotate(-45.00, 126.00, 0.00)"><rect x="126.80" y="10.50" width="14.39" height="15.00" fill="#ffffde" opacity="0.5"/><text x="128.30" y="20.00" text-anchor="start" font-family="trebuchet ms,verdana,arial,sans-serif" font-size="10" fill="#000021">M1</text></g><g transform="translate(-18.19, 17.02) rotate(-45.00, 210.00, 0.00)"><rect x="201.46" y="10.50" width="33.08" height="15.00" fill="#ffffde" opacity="0.5"/><text x="202.96" y="20.00" text-anchor="start" font-family="trebuchet ms,verdana,arial,sans-serif" font-size="10" fill="#000021">Release</text></g></g></g></svg>