<svg id="my-svg" width="100%" xmlns="http://www.w3.org/2000/svg" xmlns:xlink="http://www.w3.org/1999/xlink" style="max-width: 748.875px; background-color: white;" viewBox="-190.875 -34.70000076293945 748.875 377.3025817871094" role="graphics-document document" aria-roledescription="gitGraph"><style>#my-svg{font-family:"trebuchet ms",verdana,arial,sans-serif;font-size:16px;fill:#333;}@keyframes edge-animation-frame{from{stroke-dashoffset:0;}}@keyframes dash{to{stroke-dashoffset:0;}}#my-svg .edge-animation-slow{stroke-dasharray:9,5!important;stroke-dashoffset:900;animation:dash 50s linear infinite;stroke-linecap:round;}#my-svg .edge-animation-fast{stroke-dasharray:9,5!important;stroke-dashoffset:900;animation:dash 20s linear infinite;stroke-linecap:round;}#my-svg .error-icon{fill:#552222;}#my-svg .error-text{fill:#552222;stroke:#552222;}#my-svg .edge-thickness-normal{stroke-width:1px;}#my-svg .edge-thickness-thick{stroke-width:3.5px;}#my-svg .edge-pattern-solid{stroke-dasharray:0;}#my-svg .edge-thickness-invisible{stroke-width:0;fill:none;}#my-svg .edge-pattern-dashed{stroke-dasharray:3;}#my-svg .edge-pattern-dotted{stroke-dasharray:2;}#my-svg .marker{fill:#333333;stroke:#333333;}#my-svg .marker.cross{stroke:#333333;}#my-svg svg{font-family:"trebuchet ms",verdana,arial,sans-serif;font-size:16px;}#my-svg p{margin:0;}#my-svg .commit-id,#my-svg .commit-msg,#my-svg .branch-label{fill:lightgrey;color:lightgrey;font-family:'trebuchet ms',verdana,arial,sans-serif;font-family:var(--mermaid-font-family);}#my-svg .branch-label0{fill:#ffffff;}#my-svg .commit0{stroke:hsl(240, 100%, 46.2745098039%);fill:hsl(240, 100%, 46.2745098039%);}#my-svg .commit-highlight0{stroke:hsl(60, 100%, 3.7254901961%);fill:hsl(60, 100%, 3.7254901961%);}#my-svg .label0{fill:hsl(240, 100%, 46.2745098039%);}#my-svg .arrow0{stroke:hsl(240, 100%, 46.2745098039%);}#my-svg .branch-label1{fill:black;}#my-svg .commit1{stroke:hsl(60, 100%, 43.5294117647%);fill:hsl(60, 100%, 43.5294117647%);}#my-svg .commit-highlight1{stroke:rgb(0, 0, 160.5);fill:rgb(0, 0, 160.5);}#my-svg .label1{fill:hsl(60, 100%, 43.5294117647%);}#my-svg .arrow1{stroke:hsl(60, 100%, 43.5294117647%);}#my-svg .branch-label2{fill:black;}#my-svg .commit2{stroke:hsl(80, 100%, 46.2745098039%);fill:hsl(80, 100%, 46.2745098039%);}#my-svg .commit-highlight2{stroke:rgb(48.8333333334, 0, 146.5000000001);fill:rgb(48.8333333334, 0, 146.5000000001);}#my-svg .label2{fill:hsl(80, 100%, 46.2745098039%);}#my-svg .arrow2{stroke:hsl(80, 100%, 46.2745098039%);}#my-svg .branch-label3{fill:#ffffff;}#my-svg .commit3{stroke:hsl(210, 100%, 46.2745098039%);fill:hsl(210, 100%, 46.2745098039%);}#my-svg .commit-highlight3{stroke:rgb(146.5000000001, 73.2500000001, 0);fill:rgb(146.5000000001, 73.2500000001, 0);}#my-svg .label3{fill:hsl(210, 100%, 46.2745098039%);}#my-svg .arrow3{stroke:hsl(210, 100%, 46.2745098039%);}#my-svg .branch-label4{fill:black;}#my-svg .commit4{stroke:hsl(180, 100%, 46.2745098039%);fill:hsl(180, 100%, 46.2745098039%);}#my-svg .commit-highlight4{stroke:rgb(146.5000000001, 0, 0);fill:rgb(146.5000000001, 0, 0);}#my-svg .label4{fill:hsl(180, 100%, 46.2745098039%);}#my-svg .arrow4{stroke:hsl(180, 100%, 46.2745098039%);}#my-svg .branch-label5{fill:black;}#my-svg .commit5{stroke:hsl(150, 100%, 46.2745098039%);fill:hsl(150, 100%, 46.2745098039%);}#my-svg .commit-highlight5{stroke:rgb(146.5000000001, 0, 73.2500000001);fill:rgb(146.5000000001, 0, 73.2500000001);}#my-svg .label5{fill:hsl(150, 100%, 46.2745098039%);}#my-svg .arrow5{stroke:hsl(150, 100%, 46.2745098039%);}#my-svg .branch-label6{fill:black;}#my-svg .commit6{stroke:hsl(300, 100%, 46.2745098039%);fill:hsl(300, 100%, 46.2745098039%);}#my-svg .commit-highlight6{stroke:rgb(0, 146.5000000001, 0);fill:rgb(0, 146.5000000001, 0);}#my-svg .label6{fill:hsl(300, 100%, 46.2745098039%);}#my-svg .arrow6{stroke:hsl(300, 100%, 46.2745098039%);}#my-svg .branch-label7{fill:black;}#my-svg .commit7{stroke:hsl(0, 100%, 46.2745098039%);fill:hsl(0, 100%, 46.2745098039%);}#my-svg .commit-highlight7{stroke:rgb(0, 146.5000000001, 146.5000000001);fill:rgb(0, 146.5000000001, 146.5000000001);}#my-svg .label7{fill:hsl(0, 100%, 46.2745098039%);}#my-svg .arrow7{stroke:hsl(0, 100%, 46.2745098039%);}#my-svg .branch{stroke-width:1;stroke:#333333;stroke-dasharray:2;}#my-svg .commit-label{font-size:10px;fill:#000021;}#my-svg .commit-label-bkg{font-size:10px;fill:#ffffde;opacity:0.5;}#my-svg .tag-label{font-size:10px;fill:#131300;}#my-svg .tag-label-bkg{fill:#ECECFF;stroke:hsl(240, 60%, 86.2745098039%);}#my-svg .tag-hole{fill:#333;}#my-svg .commit-merge{stroke:#ECECFF;fill:#ECECFF;}#my-svg .commit-reverse{stroke:#ECECFF;fill:#ECECFF;stroke-width:3;}#my-svg .commit-highlight-inner{stroke:#ECECFF;fill:#ECECFF;}#my-svg .arrow{stroke-width:8;stroke-linecap:round;fill:none;}#my-svg .gitTitleText{text-anchor:middle;font-size:18px;fill:#333;}#my-svg :root{--mermaid-font-family:"trebuchet ms",verdana,arial,sans-serif;}</style><g/><g class="commit-bullets"/><g class="commit-labels"/><g><line x1="0" y1="0" x2="550" y2="0" class="branch branch0"/><rect class="branchLabelBkg label0" rx="4" ry="4" x="-68.6875" y="-0.5" width="52.6875" height="21" transform="translate(-19, -8.5)"/><g class="branchLabel"><g class="label branch-label0" transform="translate(-78.6875, -9.5)"><text><tspan xml:space="preserve" dy="1em" x="0" class="row">main</tspan></text></g></g><line x1="0" y1="90" x2="550" y2="90" class="branch branch1"/><rect class="branchLabelBkg label1" rx="4" ry="4" x="-90.1484375" y="-0.5" width="74.1484375" height="21" transform="translate(-19, 81.5)"/><g class="branchLabel"><g class="label branch-label1" transform="translate(-100.1484375, 80.5)"><text><tspan xml:space="preserve" dy="1em" x="0" class="row">develop</tspan></text></g></g><line x1="0" y1="180" x2="550" y2="180" class="branch branch2"/><rect class="branchLabelBkg label2" rx="4" ry="4" x="-119.40625" y="-0.5" width="103.40625" height="21" transform="translate(-19, 171.5)"/><g class="branchLabel"><g class="label branch-label2" transform="translate(-129.40625, 170.5)"><text><tspan xml:space="preserve" dy="1em" x="0" class="row">feature/auth</tspan></text></g></g><line x1="0" y1="270" x2="550" y2="270" class="branch branch3"/><rect class="branchLabelBkg label3" rx="4" ry="4" x="-163.875" y="-0.5" width="147.875" height="21" transform="translate(-19, 261.5)"/><g class="branchLabel"><g class="label branch-label3" transform="translate(-173.875, 260.5)"><text><tspan xml:space="preserve" dy="1em" x="0" class="row">feature/dashboard</tspan></text></g></g></g><g class="commit-arrows"><path d="M 10 0 L 60 0" class="arrow arrow0"/><path d="M 60 0 L 60 70 A 20 20, 0, 0, 0, 80 90 L 110 90" class="arrow arrow1"/><path d="M 110 90 L 110 160 A 20 20, 0, 0, 0, 130 180 L 160 180" class="arrow arrow2"/><path d="M 160 180 L 210 180" class="arrow arrow2"/><path d="M 110 90 L 260 90" class="arrow arrow1"/><path d="M 210 180 L 240 180 A 20 20, 0, 0, 0, 260 160 L 260 90" class="arrow arrow2"/><path d="M 260 90 L 260 250 A 20 20, 0, 0, 0, 280 270 L 310 270" class="arrow arrow3"/><path d="M 310 270 L 360 270" class="arrow arrow3"/><path d="M 260 90 L 410 90" class="arrow arrow1"/><path d="M 360 270 L 390 270 A 20 20, 0, 0, 0, 410 250 L 410 90" class="arrow arrow3"/><path d="M 60 0 L 460 0" class="arrow arrow0"/><path d="M 410 90 L 440 90 A 20 20, 0, 0, 0, 460 70 L 460 0" class="arrow arrow1"/><path d="M 460 0 L 510 0" class="arrow arrow0"/></g><g class="commit-bullets"><circle cx="10" cy="0" r="10" class="commit init commit0"/><circle cx="60" cy="0" r="10" class="commit add readme commit0"/><circle cx="110" cy="90" r="10" class="commit setup ci commit1"/><circle cx="160" cy="180" r="10" class="commit login page commit2"/><circle cx="210" cy="180" r="10" class="commit auth api commit2"/><circle cx="260" cy="90" r="9" class="commit 5-bf38ccf commit1"/><circle cx="260" cy="90" r="6" class="commit commit-merge 5-bf38ccf commit1"/><circle cx="310" cy="270" r="10" class="commit dashboard ui commit3"/><circle cx="360" cy="270" r="10" class="commit charts commit3"/><circle cx="410" cy="90" r="9" class="commit 8-3fa9028 commit1"/><circle cx="410" cy="90" r="6" class="commit commit-merge 8-3fa9028 commit1"/><circle cx="460" cy="0" r="9" class="commit 9-f2afca5 commit0"/><circle cx="460" cy="0" r="6" class="commit commit-merge 9-f2afca5 commit0"/><circle cx="510" cy="0" r="10" class="commit hotfix commit0"/></g><g class="commit-labels"><g transform="translate(-16.24185546875, 14.421660156249999) rotate(-45, 0, 0)"><rect class="commit-label-bkg" x="1.49755859375" y="13.5" width="17.0048828125" height="15"/><text x="3.49755859375" y="25" class="commit-label">init</text></g><g transform="translate(-31.74689453125, 28.29458984375) rotate(-45, 50, 0)"><rect class="commit-label-bkg" x="31.09619140625" y="13.5" width="57.8076171875" height="15"/><text x="33.09619140625" y="25" class="commit-label">add readme</text></g><g transform="translate(-24.398125, 21.719375) rotate(-45, 100, 90)"><rect class="commit-label-bkg" x="90.765625" y="103.5" width="38.46875" height="15"/><text x="92.765625" y="115" class="commit-label">setup ci</text></g><g transform="translate(-29.00451171875, 25.840878906249998) rotate(-45, 150, 180)"><rect class="commit-label-bkg" x="134.70458984375" y="193.5" width="50.5908203125" height="15"/><text x="136.70458984375" y="205" class="commit-label">login page</text></g><g transform="translate(-24.825625, 22.101875) rotate(-45, 200, 180)"><rect class="commit-label-bkg" x="190.203125" y="193.5" width="39.59375" height="15"/><text x="192.203125" y="205" class="commit-label">auth api</text></g><g transform="translate(-33.2746875, 29.6615625) rotate(-45, 300, 270)"><rect class="commit-label-bkg" x="279.0859375" y="283.5" width="61.828125" height="15"/><text x="281.0859375" y="295" class="commit-label">dashboard ui</text></g><g transform="translate(-21.6490625, 19.2596875) rotate(-45, 350, 270)"><rect class="commit-label-bkg" x="344.3828125" y="283.5" width="31.234375" height="15"/><text x="346.3828125" y="295" class="commit-label">charts</text></g><polygon class="tag-label-bkg" points="438.330078125,-17.2  &#10;      438.330078125,-21.2&#10;      446.330078125,-26.7&#10;      473.669921875,-26.7&#10;      473.669921875,-11.7&#10;      446.330078125,-11.7"/><circle cy="-19.2" cx="442.330078125" r="1.5" class="tag-hole"/><text y="-16" class="tag-label" x="450.330078125">v1.0</text><g transform="translate(-20.384375, 18.128125) rotate(-45, 500, 0)"><rect class="commit-label-bkg" x="496.046875" y="13.5" width="27.90625" height="15"/><text x="498.046875" y="25" class="commit-label">hotfix</text></g></g></svg>