<svg xmlns="http://www.w3.org/2000/svg" width="100%" viewBox="-101.51201 -29.5 485.51202 298.6612" style="max-width: 485.512px;"><rect x="-101.51201" y="-29.5" width="485.51202" height="298.6612" fill="#FFFFFF"/><defs><marker id="arrow-0" viewBox="0 0 10 10" refX="5" refY="5" markerUnits="userSpaceOnUse" markerWidth="8" markerHeight="8" orient="auto"><path d="M 0 0 L 10 5 L 0 10 z" fill="#2F3B4D" stroke="#2F3B4D" stroke-width="1" stroke-dasharray="1,0"/></marker><marker id="arrow-start-0" viewBox="0 0 10 10" refX="4.5" refY="5" markerUnits="userSpaceOnUse" markerWidth="8" markerHeight="8" orient="auto"><path d="M 0 5 L 10 10 L 10 0 z" fill="#2F3B4D" stroke="#2F3B4D" stroke-width="1" stroke-dasharray="1,0"/></marker></defs><g><line x1="0.00" y1="0.00" x2="378.00" y2="0.00" stroke="#2F3B4D" stroke-width="0.8" stroke-dasharray="2"/><rect x="-71.43" y="-18.64" width="42.43" height="27.64" rx="4.00" ry="4.00" fill="hsl(240, 100%, 46.2745098039%)" stroke="none"/><text x="-62.43" y="2.68" text-anchor="start" font-family="trebuchet ms,verdana,arial,sans-serif" font-size="16" fill="#ffffff"><tspan x="-62.43" dy="0.00">main</tspan></text><line x1="0.00" y1="72.00" x2="378.00" y2="72.00" stroke="#2F3B4D" stroke-width="0.8" stroke-dasharray="2"/><rect x="-95.51" y="53.36" width="66.51" height="27.64" rx="4.00" ry="4.00" fill="hsl(60, 100%, 43.5294117647%)" stroke="none"/><text x="-86.51" y="74.68" text-anchor="start" font-family="trebuchet ms,verdana,arial,sans-serif" font-size="16" fill="black"><tspan x="-86.51" dy="0.00">feature-a</tspan></text><line x1="0.00" y1="144.00" x2="378.00" y2="144.00" stroke="#2F3B4D" stroke-width="0.8" stroke-dasharray="2"/><rect x="-95.51" y="125.36" width="66.51" height="27.64" rx="4.00" ry="4.00" fill="hsl(80, 100%, 46.2745098039%)" stroke="none"/><text x="-86.51" y="146.68" text-anchor="start" font-family="trebuchet ms,verdana,arial,sans-serif" font-size="16" fill="black"><tspan x="-86.51" dy="0.00">feature-b</tspan></text><line x1="0.00" y1="216.00" x2="378.00" y2="216.00" stroke="#2F3B4D" stroke-width="0.8" stroke-dasharray="2"/><rect x="-94.78" y="197.36" width="65.78" height="27.64" rx="4.00" ry="4.00" fill="hsl(210, 100%, 46.2745098039%)" stroke="none"/><text x="-85.78" y="218.68" text-anchor="start" font-family="trebuchet ms,verdana,arial,sans-serif" font-size="16" fill="#ffffff"><tspan x="-85.78" dy="0.00">feature-c</tspan></text><g class="commit-arrows"><path d="M 8 0 L 8 56 A 16 16, 0, 0, 0, 24 72 L 50 72" fill="none" stroke="hsl(60, 100%, 43.5294117647%)" stroke-width="6" stroke-linecap="round"/><path d="M 50 72 L 92 72" fill="none" stroke="hsl(60, 100%, 43.5294117647%)" stroke-width="6" stroke-linecap="round"/><path d="M 8 0 L 8 128 A 16 16, 0, 0, 0, 24 144 L 134 144" fill="none" stroke="hsl(80, 100%, 46.2745098039%)" stroke-width="6" stroke-linecap="round"/><path d="M 8 0 L 8 200 A 16 16, 0, 0, 0, 24 216 L 176 216" fill="none" stroke="hsl(210, 100%, 46.2745098039%)" stroke-width="6" stroke-linecap="round"/><path d="M 176 216 L 218 216" fill="none" stroke="hsl(210, 100%, 46.2745098039%)" stroke-width="6" stroke-linecap="round"/><path d="M 8 0 L 260 0" fill="none" stroke="hsl(240, 100%, 46.2745098039%)" stroke-width="6" stroke-linecap="round"/><path d="M 92 72 L 244 72 A 16 16, 0, 0, 0, 260 56 L 260 0" fill="none" stroke="hsl(60, 100%, 43.5294117647%)" stroke-width="6" stroke-linecap="round"/><path d="M 260 0 L 302 0" fill="none" stroke="hsl(240, 100%, 46.2745098039%)" stroke-width="6" stroke-linecap="round"/><path d="M 134 144 L 286 144 A 16 16, 0, 0, 0, 302 128 L 302 0" fill="none" stroke="hsl(80, 100%, 46.2745098039%)" stroke-width="6" stroke-linecap="round"/><path d="M 302 0 L 344 0" fill="none" stroke="hsl(240, 100%, 46.2745098039%)" stroke-width="6" stroke-linecap="round"/></g><g class="commit-bullets"><circle cx="8.00" cy="0.00" r="8.00" fill="hsl(240, 100%, 46.2745098039%)" stroke="hsl(240, 100%, 46.2745098039%)"/><circle cx="50.00" cy="72.00" r="8.00" fill="hsl(60, 100%, 43.5294117647%)" stroke="hsl(60, 100%, 43.5294117647%)"/><circle cx="92.00" cy="72.00" r="8.00" fill="hsl(60, 100%, 43.5294117647%)" stroke="hsl(60, 100%, 43.5294117647%)"/><circle cx="134.00" cy="144.00" r="8.00" fill="hsl(80, 100%, 46.2745098039%)" stroke="hsl(80, 100%, 46.2745098039%)"/><circle cx="176.00" cy="216.00" r="8.00" fill="hsl(210, 100%, 46.2745098039%)" stroke="hsl(210, 100%, 46.2745098039%)"/><circle cx="218.00" cy="216.00" r="8.00" fill="hsl(210, 100%, 46.2745098039%)" stroke="hsl(210, 100%, 46.2745098039%)"/><circle cx="260.00" cy="0.00" r="7.50" fill="hsl(240, 100%, 46.2745098039%)" stroke="hsl(240, 100%, 46.2745098039%)"/><circle cx="260.00" cy="0.00" r="5.00" fill="#ECECFF" stroke="#ECECFF"/><circle cx="302.00" cy="0.00" r="7.50" fill="hsl(240, 100%, 46.2745098039%)" stroke="hsl(240, 100%, 46.2745098039%)"/><circle cx="302.00" cy="0.00" r="5.00" fill="#ECECFF" stroke="#ECECFF"/><circle cx="344.00" cy="0.00" r="7.50" fill="hsl(240, 100%, 46.2745098039%)" stroke="hsl(240, 100%, 46.2745098039%)"/><circle cx="344.00" cy="0.00" r="5.00" fill="#ECECFF" stroke="#ECECFF"/></g><g class="commit-labels"><g transform="translate(-14.54, 13.60) rotate(-45.00, 0.00, 0.00)"><rect x="-2.84" y="10.50" width="21.68" height="15.00" fill="#ffffde" opacity="0.5"/><text x="-1.34" y="20.00" text-anchor="start" font-family="trebuchet ms,verdana,arial,sans-serif" font-size="10" fill="#000021">initial</text></g><g transform="translate(-17.60, 16.48) rotate(-45.00, 42.00, 72.00)"><rect x="34.37" y="82.50" width="31.26" height="15.00" fill="#ffffde" opacity="0.5"/><text x="35.87" y="92.00" text-anchor="start" font-family="trebuchet ms,verdana,arial,sans-serif" font-size="10" fill="#000021">feat-a-1</text></g><g transform="translate(-17.60, 16.48) rotate(-45.00, 84.00, 72.00)"><rect x="76.37" y="82.50" width="31.26" height="15.00" fill="#ffffde" opacity="0.5"/><text x="77.87" y="92.00" text-anchor="start" font-family="trebuchet ms,verdana,arial,sans-serif" font-size="10" fill="#000021">feat-a-2</text></g><g transform="translate(-17.60, 16.48) rotate(-45.00, 126.00, 144.00)"><rect x="118.37" y="154.50" width="31.26" height="15.00" fill="#ffffde" opacity="0.5"/><text x="119.87" y="164.00" text-anchor="start" font-family="trebuchet ms,verdana,arial,sans-serif" font-size="10" fill="#000021">feat-b-1</text></g><g transform="translate(-17.46, 16.34) rotate(-45.00, 168.00, 216.00)"><rect x="160.60" y="226.50" width="30.80" height="15.00" fill="#ffffde" opacity="0.5"/><text x="162.10" y="236.00" text-anchor="start" font-family="trebuchet ms,verdana,arial,sans-serif" font-size="10" fill="#000021">feat-c-1</text></g><g transform="translate(-17.46, 16.34) rotate(-45.00, 210.00, 216.00)"><rect x="202.60" y="226.50" width="30.80" height="15.00" fill="#ffffde" opacity="0.5"/><text x="204.10" y="236.00" text-anchor="start" font-family="trebuchet ms,verdana,arial,sans-serif" font-size="10" fill="#000021">feat-c-2</text></g><polygon points="326.75,-14.50 326.75,-17.50 333.25,-23.50 354.75,-23.50 354.75,-8.50 333.25,-8.50" fill="#ECECFF" stroke="hsl(240, 60%, 86.2745098039%)"/><circle cx="329.75" cy="-16.00" r="1.30" fill="#333"/><text x="336.25" y="-13.00" text-anchor="start" font-family="trebuchet ms,verdana,arial,sans-serif" font-size="10" fill="#131300">v2.0</text></g></g></svg>