<svg xmlns="http://www.w3.org/2000/svg" width="100%" viewBox="-155.496 -29.5 623.496 314.1915" style="max-width: 623.496px;"><rect x="-155.496" y="-29.5" width="623.496" height="314.1915" fill="#FFFFFF"/><defs><marker id="arrow-0" viewBox="0 0 10 10" refX="5" refY="5" markerUnits="userSpaceOnUse" markerWidth="8" markerHeight="8" orient="auto"><path d="M 0 0 L 10 5 L 0 10 z" fill="#2F3B4D" stroke="#2F3B4D" stroke-width="1" stroke-dasharray="1,0"/></marker><marker id="arrow-start-0" viewBox="0 0 10 10" refX="4.5" refY="5" markerUnits="userSpaceOnUse" markerWidth="8" markerHeight="8" orient="auto"><path d="M 0 5 L 10 10 L 10 0 z" fill="#2F3B4D" stroke="#2F3B4D" stroke-width="1" stroke-dasharray="1,0"/></marker></defs><g><line x1="0.00" y1="0.00" x2="462.00" y2="0.00" stroke="#2F3B4D" stroke-width="0.8" stroke-dasharray="2"/><rect x="-71.43" y="-18.64" width="42.43" height="27.64" rx="4.00" ry="4.00" fill="hsl(240, 100%, 46.2745098039%)" stroke="none"/><text x="-62.43" y="2.68" text-anchor="start" font-family="trebuchet ms,verdana,arial,sans-serif" font-size="16" fill="#ffffff"><tspan x="-62.43" dy="0.00">main</tspan></text><line x1="0.00" y1="72.00" x2="462.00" y2="72.00" stroke="#2F3B4D" stroke-width="0.8" stroke-dasharray="2"/><rect x="-88.95" y="53.36" width="59.95" height="27.64" rx="4.00" ry="4.00" fill="hsl(60, 100%, 43.5294117647%)" stroke="none"/><text x="-79.95" y="74.68" text-anchor="start" font-family="trebuchet ms,verdana,arial,sans-serif" font-size="16" fill="black"><tspan x="-79.95" dy="0.00">develop</tspan></text><line x1="0.00" y1="144.00" x2="462.00" y2="144.00" stroke="#2F3B4D" stroke-width="0.8" stroke-dasharray="2"/><rect x="-113.03" y="125.36" width="84.03" height="27.64" rx="4.00" ry="4.00" fill="hsl(80, 100%, 46.2745098039%)" stroke="none"/><text x="-104.03" y="146.68" text-anchor="start" font-family="trebuchet ms,verdana,arial,sans-serif" font-size="16" fill="black"><tspan x="-104.03" dy="0.00">feature/auth</tspan></text><line x1="0.00" y1="216.00" x2="462.00" y2="216.00" stroke="#2F3B4D" stroke-width="0.8" stroke-dasharray="2"/><rect x="-149.50" y="197.36" width="120.50" height="27.64" rx="4.00" ry="4.00" fill="hsl(210, 100%, 46.2745098039%)" stroke="none"/><text x="-140.50" y="218.68" text-anchor="start" font-family="trebuchet ms,verdana,arial,sans-serif" font-size="16" fill="#ffffff"><tspan x="-140.50" dy="0.00">feature/dashboard</tspan></text><g class="commit-arrows"><path d="M 8 0 L 50 0" fill="none" stroke="hsl(240, 100%, 46.2745098039%)" stroke-width="6" stroke-linecap="round"/><path d="M 50 0 L 50 56 A 16 16, 0, 0, 0, 66 72 L 92 72" fill="none" stroke="hsl(60, 100%, 43.5294117647%)" stroke-width="6" stroke-linecap="round"/><path d="M 92 72 L 92 128 A 16 16, 0, 0, 0, 108 144 L 134 144" fill="none" stroke="hsl(80, 100%, 46.2745098039%)" stroke-width="6" stroke-linecap="round"/><path d="M 134 144 L 176 144" fill="none" stroke="hsl(80, 100%, 46.2745098039%)" stroke-width="6" stroke-linecap="round"/><path d="M 92 72 L 218 72" fill="none" stroke="hsl(60, 100%, 43.5294117647%)" stroke-width="6" stroke-linecap="round"/><path d="M 176 144 L 202 144 A 16 16, 0, 0, 0, 218 128 L 218 72" fill="none" stroke="hsl(80, 100%, 46.2745098039%)" stroke-width="6" stroke-linecap="round"/><path d="M 218 72 L 218 200 A 16 16, 0, 0, 0, 234 216 L 260 216" fill="none" stroke="hsl(210, 100%, 46.2745098039%)" stroke-width="6" stroke-linecap="round"/><path d="M 260 216 L 302 216" fill="none" stroke="hsl(210, 100%, 46.2745098039%)" stroke-width="6" stroke-linecap="round"/><path d="M 218 72 L 344 72" fill="none" stroke="hsl(60, 100%, 43.5294117647%)" stroke-width="6" stroke-linecap="round"/><path d="M 302 216 L 328 216 A 16 16, 0, 0, 0, 344 200 L 344 72" fill="none" stroke="hsl(210, 100%, 46.2745098039%)" stroke-width="6" stroke-linecap="round"/><path d="M 50 0 L 386 0" fill="none" stroke="hsl(240, 100%, 46.2745098039%)" stroke-width="6" stroke-linecap="round"/><path d="M 386 0 L 428 0" fill="none" stroke="hsl(240, 100%, 46.2745098039%)" stroke-width="6" stroke-linecap="round"/></g><g class="commit-bullets"><circle cx="8.00" cy="0.00" r="8.00" fill="hsl(240, 100%, 46.2745098039%)" stroke="hsl(240, 100%, 46.2745098039%)"/><circle cx="50.00" cy="0.00" r="8.00" fill="hsl(240, 100%, 46.2745098039%)" stroke="hsl(240, 100%, 46.2745098039%)"/><circle cx="92.00" cy="72.00" r="8.00" fill="hsl(60, 100%, 43.5294117647%)" stroke="hsl(60, 100%, 43.5294117647%)"/><circle cx="134.00" cy="144.00" r="8.00" fill="hsl(80, 100%, 46.2745098039%)" stroke="hsl(80, 100%, 46.2745098039%)"/><circle cx="176.00" cy="144.00" r="8.00" fill="hsl(80, 100%, 46.2745098039%)" stroke="hsl(80, 100%, 46.2745098039%)"/><circle cx="218.00" cy="72.00" r="7.50" fill="hsl(60, 100%, 43.5294117647%)" stroke="hsl(60, 100%, 43.5294117647%)"/><circle cx="218.00" cy="72.00" r="5.00" fill="#ECECFF" stroke="#ECECFF"/><circle cx="260.00" cy="216.00" r="8.00" fill="hsl(210, 100%, 46.2745098039%)" stroke="hsl(210, 100%, 46.2745098039%)"/><circle cx="302.00" cy="216.00" r="8.00" fill="hsl(210, 100%, 46.2745098039%)" stroke="hsl(210, 100%, 46.2745098039%)"/><circle cx="344.00" cy="72.00" r="7.50" fill="hsl(60, 100%, 43.5294117647%)" stroke="hsl(60, 100%, 43.5294117647%)"/><circle cx="344.00" cy="72.00" r="5.00" fill="#ECECFF" stroke="#ECECFF"/><circle cx="386.00" cy="0.00" r="7.50" fill="hsl(240, 100%, 46.2745098039%)" stroke="hsl(240, 100%, 46.2745098039%)"/><circle cx="386.00" cy="0.00" r="5.00" fill="#ECECFF" stroke="#ECECFF"/><circle cx="428.00" cy="0.00" r="8.00" fill="hsl(240, 100%, 46.2745098039%)" stroke="hsl(240, 100%, 46.2745098039%)"/></g><g class="commit-labels"><g transform="translate(-11.91, 11.14) rotate(-45.00, 0.00, 0.00)"><rect x="1.26" y="10.50" width="13.48" height="15.00" fill="#ffffde" opacity="0.5"/><text x="2.76" y="20.00" text-anchor="start" font-family="trebuchet ms,verdana,arial,sans-serif" font-size="10" fill="#000021">init</text></g><g transform="translate(-22.56, 21.13) rotate(-45.00, 42.00, 0.00)"><rect x="26.62" y="10.50" width="46.76" height="15.00" fill="#ffffde" opacity="0.5"/><text x="28.12" y="20.00" text-anchor="start" font-family="trebuchet ms,verdana,arial,sans-serif" font-size="10" fill="#000021">add readme</text></g><g transform="translate(-17.60, 16.48) rotate(-45.00, 84.00, 72.00)"><rect x="76.37" y="82.50" width="31.26" height="15.00" fill="#ffffde" opacity="0.5"/><text x="77.87" y="92.00" text-anchor="start" font-family="trebuchet ms,verdana,arial,sans-serif" font-size="10" fill="#000021">setup ci</text></g><g transform="translate(-20.67, 19.35) rotate(-45.00, 126.00, 144.00)"><rect x="113.58" y="154.50" width="40.84" height="15.00" fill="#ffffde" opacity="0.5"/><text x="115.08" y="164.00" text-anchor="start" font-family="trebuchet ms,verdana,arial,sans-serif" font-size="10" fill="#000021">login page</text></g><g transform="translate(-17.90, 16.75) rotate(-45.00, 168.00, 144.00)"><rect x="159.91" y="154.50" width="32.18" height="15.00" fill="#ffffde" opacity="0.5"/><text x="161.41" y="164.00" text-anchor="start" font-family="trebuchet ms,verdana,arial,sans-serif" font-size="10" fill="#000021">auth api</text></g><g transform="translate(-23.73, 22.22) rotate(-45.00, 252.00, 216.00)"><rect x="234.79" y="226.50" width="50.41" height="15.00" fill="#ffffde" opacity="0.5"/><text x="236.29" y="236.00" text-anchor="start" font-family="trebuchet ms,verdana,arial,sans-serif" font-size="10" fill="#000021">dashboard ui</text></g><g transform="translate(-15.71, 14.70) rotate(-45.00, 294.00, 216.00)"><rect x="289.33" y="226.50" width="25.33" height="15.00" fill="#ffffde" opacity="0.5"/><text x="290.83" y="236.00" text-anchor="start" font-family="trebuchet ms,verdana,arial,sans-serif" font-size="10" fill="#000021">charts</text></g><polygon points="368.75,-14.50 368.75,-17.50 375.25,-23.50 396.75,-23.50 396.75,-8.50 375.25,-8.50" fill="#ECECFF" stroke="hsl(240, 60%, 86.2745098039%)"/><circle cx="371.75" cy="-16.00" r="1.30" fill="#333"/><text x="378.25" y="-13.00" text-anchor="start" font-family="trebuchet ms,verdana,arial,sans-serif" font-size="10" fill="#131300">v1.0</text><g transform="translate(-14.83, 13.88) rotate(-45.00, 420.00, 0.00)"><rect x="416.70" y="10.50" width="22.60" height="15.00" fill="#ffffde" opacity="0.5"/><text x="418.20" y="20.00" text-anchor="start" font-family="trebuchet ms,verdana,arial,sans-serif" font-size="10" fill="#000021">hotfix</text></g></g></g></svg>