<svg xmlns="http://www.w3.org/2000/svg" width="100%" viewBox="-129.64 -29.5 513.64 317.55038" style="max-width: 513.640px;"><rect x="-129.64" y="-29.5" width="513.64" height="317.55038" fill="#FFFFFF"/><defs><marker id="arrow-0" viewBox="0 0 10 10" refX="5" refY="5" markerUnits="userSpaceOnUse" markerWidth="8" markerHeight="8" orient="auto"><path d="M 0 0 L 10 5 L 0 10 z" fill="#2F3B4D" stroke="#2F3B4D" stroke-width="1" stroke-dasharray="1,0"/></marker><marker id="arrow-start-0" viewBox="0 0 10 10" refX="4.5" refY="5" markerUnits="userSpaceOnUse" markerWidth="8" markerHeight="8" orient="auto"><path d="M 0 5 L 10 10 L 10 0 z" fill="#2F3B4D" stroke="#2F3B4D" stroke-width="1" stroke-dasharray="1,0"/></marker></defs><g><line x1="0.00" y1="0.00" x2="378.00" y2="0.00" stroke="#2F3B4D" stroke-width="0.8" stroke-dasharray="2"/><rect x="-78.84" y="-18.64" width="49.84" height="27.64" rx="4.00" ry="4.00" fill="hsl(240, 100%, 46.2745098039%)" stroke="none"/><text x="-69.84" y="2.68" text-anchor="start" font-family="trebuchet ms,verdana,arial,Noto Color Emoji,Apple Color Emoji,Segoe UI Emoji,sans-serif" font-size="16" fill="#ffffff"><tspan x="-69.84" dy="0.00">main</tspan></text><line x1="0.00" y1="72.00" x2="378.00" y2="72.00" stroke="#2F3B4D" stroke-width="0.8" stroke-dasharray="2"/><rect x="-123.64" y="53.36" width="94.64" height="27.64" rx="4.00" ry="4.00" fill="hsl(60, 100%, 43.5294117647%)" stroke="none"/><text x="-114.64" y="74.68" text-anchor="start" font-family="trebuchet ms,verdana,arial,Noto Color Emoji,Apple Color Emoji,Segoe UI Emoji,sans-serif" font-size="16" fill="black"><tspan x="-114.64" dy="0.00">feature-a</tspan></text><line x1="0.00" y1="144.00" x2="378.00" y2="144.00" stroke="#2F3B4D" stroke-width="0.8" stroke-dasharray="2"/><rect x="-123.64" y="125.36" width="94.64" height="27.64" rx="4.00" ry="4.00" fill="hsl(80, 100%, 46.2745098039%)" stroke="none"/><text x="-114.64" y="146.68" text-anchor="start" font-family="trebuchet ms,verdana,arial,Noto Color Emoji,Apple Color Emoji,Segoe UI Emoji,sans-serif" font-size="16" fill="black"><tspan x="-114.64" dy="0.00">feature-b</tspan></text><line x1="0.00" y1="216.00" x2="378.00" y2="216.00" stroke="#2F3B4D" stroke-width="0.8" stroke-dasharray="2"/><rect x="-123.64" y="197.36" width="94.64" height="27.64" rx="4.00" ry="4.00" fill="hsl(210, 100%, 46.2745098039%)" stroke="none"/><text x="-114.64" y="218.68" text-anchor="start" font-family="trebuchet ms,verdana,arial,Noto Color Emoji,Apple Color Emoji,Segoe UI Emoji,sans-serif" font-size="16" fill="#ffffff"><tspan x="-114.64" dy="0.00">feature-c</tspan></text><g class="commit-arrows"><path d="M 8 0 L 8 56 A 16 16, 0, 0, 0, 24 72 L 50 72" fill="none" stroke="hsl(60, 100%, 43.5294117647%)" stroke-width="6" stroke-linecap="round"/><path d="M 50 72 L 92 72" fill="none" stroke="hsl(60, 100%, 43.5294117647%)" stroke-width="6" stroke-linecap="round"/><path d="M 8 0 L 8 128 A 16 16, 0, 0, 0, 24 144 L 134 144" fill="none" stroke="hsl(80, 100%, 46.2745098039%)" stroke-width="6" stroke-linecap="round"/><path d="M 8 0 L 8 200 A 16 16, 0, 0, 0, 24 216 L 176 216" fill="none" stroke="hsl(210, 100%, 46.2745098039%)" stroke-width="6" stroke-linecap="round"/><path d="M 176 216 L 218 216" fill="none" stroke="hsl(210, 100%, 46.2745098039%)" stroke-width="6" stroke-linecap="round"/><path d="M 8 0 L 260 0" fill="none" stroke="hsl(240, 100%, 46.2745098039%)" stroke-width="6" stroke-linecap="round"/><path d="M 92 72 L 244 72 A 16 16, 0, 0, 0, 260 56 L 260 0" fill="none" stroke="hsl(60, 100%, 43.5294117647%)" stroke-width="6" stroke-linecap="round"/><path d="M 260 0 L 302 0" fill="none" stroke="hsl(240, 100%, 46.2745098039%)" stroke-width="6" stroke-linecap="round"/><path d="M 134 144 L 286 144 A 16 16, 0, 0, 0, 302 128 L 302 0" fill="none" stroke="hsl(80, 100%, 46.2745098039%)" stroke-width="6" stroke-linecap="round"/><path d="M 302 0 L 344 0" fill="none" stroke="hsl(240, 100%, 46.2745098039%)" stroke-width="6" stroke-linecap="round"/></g><g class="commit-bullets"><circle cx="8.00" cy="0.00" r="8.00" fill="hsl(240, 100%, 46.2745098039%)" stroke="hsl(240, 100%, 46.2745098039%)"/><circle cx="50.00" cy="72.00" r="8.00" fill="hsl(60, 100%, 43.5294117647%)" stroke="hsl(60, 100%, 43.5294117647%)"/><circle cx="92.00" cy="72.00" r="8.00" fill="hsl(60, 100%, 43.5294117647%)" stroke="hsl(60, 100%, 43.5294117647%)"/><circle cx="134.00" cy="144.00" r="8.00" fill="hsl(80, 100%, 46.2745098039%)" stroke="hsl(80, 100%, 46.2745098039%)"/><circle cx="176.00" cy="216.00" r="8.00" fill="hsl(210, 100%, 46.2745098039%)" stroke="hsl(210, 100%, 46.2745098039%)"/><circle cx="218.00" cy="216.00" r="8.00" fill="hsl(210, 100%, 46.2745098039%)" stroke="hsl(210, 100%, 46.2745098039%)"/><circle cx="260.00" cy="0.00" r="7.50" fill="hsl(240, 100%, 46.2745098039%)" stroke="hsl(240, 100%, 46.2745098039%)"/><circle cx="260.00" cy="0.00" r="5.00" fill="#ECECFF" stroke="#ECECFF"/><circle cx="302.00" cy="0.00" r="7.50" fill="hsl(240, 100%, 46.2745098039%)" stroke="hsl(240, 100%, 46.2745098039%)"/><circle cx="302.00" cy="0.00" r="5.00" fill="#ECECFF" stroke="#ECECFF"/><circle cx="344.00" cy="0.00" r="7.50" fill="hsl(240, 100%, 46.2745098039%)" stroke="hsl(240, 100%, 46.2745098039%)"/><circle cx="344.00" cy="0.00" r="5.00" fill="#ECECFF" stroke="#ECECFF"/></g><g class="commit-labels"><g transform="translate(-21.10, 19.76) rotate(-45.00, 0.00, 0.00)"><rect x="-13.10" y="10.50" width="42.20" height="15.00" fill="#ffffde" opacity="0.5"/><text x="-11.60" y="20.00" text-anchor="start" font-family="trebuchet ms,verdana,arial,Noto Color Emoji,Apple Color Emoji,Segoe UI Emoji,sans-serif" font-size="10" fill="#000021">initial</text></g><g transform="translate(-25.09, 23.50) rotate(-45.00, 42.00, 72.00)"><rect x="22.67" y="82.50" width="54.65" height="15.00" fill="#ffffde" opacity="0.5"/><text x="24.17" y="92.00" text-anchor="start" font-family="trebuchet ms,verdana,arial,Noto Color Emoji,Apple Color Emoji,Segoe UI Emoji,sans-serif" font-size="10" fill="#000021">feat-a-1</text></g><g transform="translate(-25.09, 23.50) rotate(-45.00, 84.00, 72.00)"><rect x="64.67" y="82.50" width="54.65" height="15.00" fill="#ffffde" opacity="0.5"/><text x="66.17" y="92.00" text-anchor="start" font-family="trebuchet ms,verdana,arial,Noto Color Emoji,Apple Color Emoji,Segoe UI Emoji,sans-serif" font-size="10" fill="#000021">feat-a-2</text></g><g transform="translate(-25.09, 23.50) rotate(-45.00, 126.00, 144.00)"><rect x="106.67" y="154.50" width="54.65" height="15.00" fill="#ffffde" opacity="0.5"/><text x="108.17" y="164.00" text-anchor="start" font-family="trebuchet ms,verdana,arial,Noto Color Emoji,Apple Color Emoji,Segoe UI Emoji,sans-serif" font-size="10" fill="#000021">feat-b-1</text></g><g transform="translate(-25.09, 23.50) rotate(-45.00, 168.00, 216.00)"><rect x="148.67" y="226.50" width="54.65" height="15.00" fill="#ffffde" opacity="0.5"/><text x="150.17" y="236.00" text-anchor="start" font-family="trebuchet ms,verdana,arial,Noto Color Emoji,Apple Color Emoji,Segoe UI Emoji,sans-serif" font-size="10" fill="#000021">feat-c-1</text></g><g transform="translate(-25.09, 23.50) rotate(-45.00, 210.00, 216.00)"><rect x="190.67" y="226.50" width="54.65" height="15.00" fill="#ffffde" opacity="0.5"/><text x="192.17" y="236.00" text-anchor="start" font-family="trebuchet ms,verdana,arial,Noto Color Emoji,Apple Color Emoji,Segoe UI Emoji,sans-serif" font-size="10" fill="#000021">feat-c-2</text></g><polygon points="316.45,-14.50 316.45,-17.50 322.95,-23.50 365.05,-23.50 365.05,-8.50 322.95,-8.50" fill="#ECECFF" stroke="hsl(240, 60%, 86.2745098039%)"/><circle cx="319.45" cy="-16.00" r="1.30" fill="#333"/><text x="325.95" y="-13.00" text-anchor="start" font-family="trebuchet ms,verdana,arial,Noto Color Emoji,Apple Color Emoji,Segoe UI Emoji,sans-serif" font-size="10" fill="#131300">v2.0</text></g></g></svg>