<svg id="my-svg" width="100%" xmlns="http://www.w3.org/2000/svg" xmlns:xlink="http://www.w3.org/1999/xlink" style="max-width: 583.141px; background-color: white;" viewBox="-125.140625 -34.70000076293945 583.140625 361.01220703125" role="graphics-document document" aria-roledescription="gitGraph"><style>#my-svg{font-family:"trebuchet ms",verdana,arial,sans-serif;font-size:16px;fill:#333;}@keyframes edge-animation-frame{from{stroke-dashoffset:0;}}@keyframes dash{to{stroke-dashoffset:0;}}#my-svg .edge-animation-slow{stroke-dasharray:9,5!important;stroke-dashoffset:900;animation:dash 50s linear infinite;stroke-linecap:round;}#my-svg .edge-animation-fast{stroke-dasharray:9,5!important;stroke-dashoffset:900;animation:dash 20s linear infinite;stroke-linecap:round;}#my-svg .error-icon{fill:#552222;}#my-svg .error-text{fill:#552222;stroke:#552222;}#my-svg .edge-thickness-normal{stroke-width:1px;}#my-svg .edge-thickness-thick{stroke-width:3.5px;}#my-svg .edge-pattern-solid{stroke-dasharray:0;}#my-svg .edge-thickness-invisible{stroke-width:0;fill:none;}#my-svg .edge-pattern-dashed{stroke-dasharray:3;}#my-svg .edge-pattern-dotted{stroke-dasharray:2;}#my-svg .marker{fill:#333333;stroke:#333333;}#my-svg .marker.cross{stroke:#333333;}#my-svg svg{font-family:"trebuchet ms",verdana,arial,sans-serif;font-size:16px;}#my-svg p{margin:0;}#my-svg .commit-id,#my-svg .commit-msg,#my-svg .branch-label{fill:lightgrey;color:lightgrey;font-family:'trebuchet ms',verdana,arial,sans-serif;font-family:var(--mermaid-font-family);}#my-svg .branch-label0{fill:#ffffff;}#my-svg .commit0{stroke:hsl(240, 100%, 46.2745098039%);fill:hsl(240, 100%, 46.2745098039%);}#my-svg .commit-highlight0{stroke:hsl(60, 100%, 3.7254901961%);fill:hsl(60, 100%, 3.7254901961%);}#my-svg .label0{fill:hsl(240, 100%, 46.2745098039%);}#my-svg .arrow0{stroke:hsl(240, 100%, 46.2745098039%);}#my-svg .branch-label1{fill:black;}#my-svg .commit1{stroke:hsl(60, 100%, 43.5294117647%);fill:hsl(60, 100%, 43.5294117647%);}#my-svg .commit-highlight1{stroke:rgb(0, 0, 160.5);fill:rgb(0, 0, 160.5);}#my-svg .label1{fill:hsl(60, 100%, 43.5294117647%);}#my-svg .arrow1{stroke:hsl(60, 100%, 43.5294117647%);}#my-svg .branch-label2{fill:black;}#my-svg .commit2{stroke:hsl(80, 100%, 46.2745098039%);fill:hsl(80, 100%, 46.2745098039%);}#my-svg .commit-highlight2{stroke:rgb(48.8333333334, 0, 146.5000000001);fill:rgb(48.8333333334, 0, 146.5000000001);}#my-svg .label2{fill:hsl(80, 100%, 46.2745098039%);}#my-svg .arrow2{stroke:hsl(80, 100%, 46.2745098039%);}#my-svg .branch-label3{fill:#ffffff;}#my-svg .commit3{stroke:hsl(210, 100%, 46.2745098039%);fill:hsl(210, 100%, 46.2745098039%);}#my-svg .commit-highlight3{stroke:rgb(146.5000000001, 73.2500000001, 0);fill:rgb(146.5000000001, 73.2500000001, 0);}#my-svg .label3{fill:hsl(210, 100%, 46.2745098039%);}#my-svg .arrow3{stroke:hsl(210, 100%, 46.2745098039%);}#my-svg .branch-label4{fill:black;}#my-svg .commit4{stroke:hsl(180, 100%, 46.2745098039%);fill:hsl(180, 100%, 46.2745098039%);}#my-svg .commit-highlight4{stroke:rgb(146.5000000001, 0, 0);fill:rgb(146.5000000001, 0, 0);}#my-svg .label4{fill:hsl(180, 100%, 46.2745098039%);}#my-svg .arrow4{stroke:hsl(180, 100%, 46.2745098039%);}#my-svg .branch-label5{fill:black;}#my-svg .commit5{stroke:hsl(150, 100%, 46.2745098039%);fill:hsl(150, 100%, 46.2745098039%);}#my-svg .commit-highlight5{stroke:rgb(146.5000000001, 0, 73.2500000001);fill:rgb(146.5000000001, 0, 73.2500000001);}#my-svg .label5{fill:hsl(150, 100%, 46.2745098039%);}#my-svg .arrow5{stroke:hsl(150, 100%, 46.2745098039%);}#my-svg .branch-label6{fill:black;}#my-svg .commit6{stroke:hsl(300, 100%, 46.2745098039%);fill:hsl(300, 100%, 46.2745098039%);}#my-svg .commit-highlight6{stroke:rgb(0, 146.5000000001, 0);fill:rgb(0, 146.5000000001, 0);}#my-svg .label6{fill:hsl(300, 100%, 46.2745098039%);}#my-svg .arrow6{stroke:hsl(300, 100%, 46.2745098039%);}#my-svg .branch-label7{fill:black;}#my-svg .commit7{stroke:hsl(0, 100%, 46.2745098039%);fill:hsl(0, 100%, 46.2745098039%);}#my-svg .commit-highlight7{stroke:rgb(0, 146.5000000001, 146.5000000001);fill:rgb(0, 146.5000000001, 146.5000000001);}#my-svg .label7{fill:hsl(0, 100%, 46.2745098039%);}#my-svg .arrow7{stroke:hsl(0, 100%, 46.2745098039%);}#my-svg .branch{stroke-width:1;stroke:#333333;stroke-dasharray:2;}#my-svg .commit-label{font-size:10px;fill:#000021;}#my-svg .commit-label-bkg{font-size:10px;fill:#ffffde;opacity:0.5;}#my-svg .tag-label{font-size:10px;fill:#131300;}#my-svg .tag-label-bkg{fill:#ECECFF;stroke:hsl(240, 60%, 86.2745098039%);}#my-svg .tag-hole{fill:#333;}#my-svg .commit-merge{stroke:#ECECFF;fill:#ECECFF;}#my-svg .commit-reverse{stroke:#ECECFF;fill:#ECECFF;stroke-width:3;}#my-svg .commit-highlight-inner{stroke:#ECECFF;fill:#ECECFF;}#my-svg .arrow{stroke-width:8;stroke-linecap:round;fill:none;}#my-svg .gitTitleText{text-anchor:middle;font-size:18px;fill:#333;}#my-svg :root{--mermaid-font-family:"trebuchet ms",verdana,arial,sans-serif;}</style><g/><g class="commit-bullets"/><g class="commit-labels"/><g><line x1="0" y1="0" x2="450" y2="0" class="branch branch0"/><rect class="branchLabelBkg label0" rx="4" ry="4" x="-68.6875" y="-0.5" width="52.6875" height="21" transform="translate(-19, -8.5)"/><g class="branchLabel"><g class="label branch-label0" transform="translate(-78.6875, -9.5)"><text><tspan xml:space="preserve" dy="1em" x="0" class="row">main</tspan></text></g></g><line x1="0" y1="90" x2="450" y2="90" class="branch branch1"/><rect class="branchLabelBkg label1" rx="4" ry="4" x="-98.140625" y="-0.5" width="82.140625" height="21" transform="translate(-19, 81.5)"/><g class="branchLabel"><g class="label branch-label1" transform="translate(-108.140625, 80.5)"><text><tspan xml:space="preserve" dy="1em" x="0" class="row">feature-a</tspan></text></g></g><line x1="0" y1="180" x2="450" y2="180" class="branch branch2"/><rect class="branchLabelBkg label2" rx="4" ry="4" x="-98.140625" y="-0.5" width="82.140625" height="21" transform="translate(-19, 171.5)"/><g class="branchLabel"><g class="label branch-label2" transform="translate(-108.140625, 170.5)"><text><tspan xml:space="preserve" dy="1em" x="0" class="row">feature-b</tspan></text></g></g><line x1="0" y1="270" x2="450" y2="270" class="branch branch3"/><rect class="branchLabelBkg label3" rx="4" ry="4" x="-97.140625" y="-0.5" width="81.140625" height="21" transform="translate(-19, 261.5)"/><g class="branchLabel"><g class="label branch-label3" transform="translate(-107.140625, 260.5)"><text><tspan xml:space="preserve" dy="1em" x="0" class="row">feature-c</tspan></text></g></g></g><g class="commit-arrows"><path d="M 10 0 L 10 70 A 20 20, 0, 0, 0, 30 90 L 60 90" class="arrow arrow1"/><path d="M 60 90 L 110 90" class="arrow arrow1"/><path d="M 10 0 L 10 160 A 20 20, 0, 0, 0, 30 180 L 160 180" class="arrow arrow2"/><path d="M 10 0 L 10 250 A 20 20, 0, 0, 0, 30 270 L 210 270" class="arrow arrow3"/><path d="M 210 270 L 260 270" class="arrow arrow3"/><path d="M 10 0 L 310 0" class="arrow arrow0"/><path d="M 110 90 L 290 90 A 20 20, 0, 0, 0, 310 70 L 310 0" class="arrow arrow1"/><path d="M 310 0 L 360 0" class="arrow arrow0"/><path d="M 160 180 L 340 180 A 20 20, 0, 0, 0, 360 160 L 360 0" class="arrow arrow2"/><path d="M 360 0 L 410 0" class="arrow arrow0"/><path d="M 260 270 L 390 270 A 20 20, 0, 0, 0, 410 250 L 410 0" class="arrow arrow3"/></g><g class="commit-bullets"><circle cx="10" cy="0" r="10" class="commit initial commit0"/><circle cx="60" cy="90" r="10" class="commit feat-a-1 commit1"/><circle cx="110" cy="90" r="10" class="commit feat-a-2 commit1"/><circle cx="160" cy="180" r="10" class="commit feat-b-1 commit2"/><circle cx="210" cy="270" r="10" class="commit feat-c-1 commit3"/><circle cx="260" cy="270" r="10" class="commit feat-c-2 commit3"/><circle cx="310" cy="0" r="9" class="commit 6-c01c711 commit0"/><circle cx="310" cy="0" r="6" class="commit commit-merge 6-c01c711 commit0"/><circle cx="360" cy="0" r="9" class="commit 7-cc35a59 commit0"/><circle cx="360" cy="0" r="6" class="commit commit-merge 7-cc35a59 commit0"/><circle cx="410" cy="0" r="9" class="commit 8-55b4093 commit0"/><circle cx="410" cy="0" r="6" class="commit commit-merge 8-55b4093 commit0"/></g><g class="commit-labels"><g transform="translate(-19.9628125, 17.7509375) rotate(-45, 0, 0)"><rect class="commit-label-bkg" x="-3.3984375" y="13.5" width="26.796875" height="15"/><text x="-1.3984375" y="25" class="commit-label">initial</text></g><g transform="translate(-24.56251953125, 21.866464843750002) rotate(-45, 50, 90)"><rect class="commit-label-bkg" x="40.54931640625" y="103.5" width="38.9013671875" height="15"/><text x="42.54931640625" y="115" class="commit-label">feat-a-1</text></g><g transform="translate(-24.56251953125, 21.866464843750002) rotate(-45, 100, 90)"><rect class="commit-label-bkg" x="90.54931640625" y="103.5" width="38.9013671875" height="15"/><text x="92.54931640625" y="115" class="commit-label">feat-a-2</text></g><g transform="translate(-24.56251953125, 21.866464843750002) rotate(-45, 150, 180)"><rect class="commit-label-bkg" x="140.54931640625" y="193.5" width="38.9013671875" height="15"/><text x="142.54931640625" y="205" class="commit-label">feat-b-1</text></g><g transform="translate(-24.349140625, 21.675546875000002) rotate(-45, 200, 270)"><rect class="commit-label-bkg" x="190.830078125" y="283.5" width="38.33984375" height="15"/><text x="192.830078125" y="295" class="commit-label">feat-c-1</text></g><g transform="translate(-24.349140625, 21.675546875000002) rotate(-45, 250, 270)"><rect class="commit-label-bkg" x="240.830078125" y="283.5" width="38.33984375" height="15"/><text x="242.830078125" y="295" class="commit-label">feat-c-2</text></g><polygon class="tag-label-bkg" points="388.330078125,-17.2  &#10;      388.330078125,-21.2&#10;      396.330078125,-26.7&#10;      423.669921875,-26.7&#10;      423.669921875,-11.7&#10;      396.330078125,-11.7"/><circle cy="-19.2" cx="392.330078125" r="1.5" class="tag-hole"/><text y="-16" class="tag-label" x="400.330078125">v2.0</text></g></svg>