<svg xmlns="http://www.w3.org/2000/svg" width="2036.8649" height="550.39996" viewBox="0 0 2036.8649 550.39996"><rect x="0" y="0" width="2036.8649" height="550.39996" fill="#FFFFFF"/><defs><marker id="arrow-0" viewBox="0 0 10 10" refX="5" refY="5" markerUnits="userSpaceOnUse" markerWidth="8" markerHeight="8" orient="auto"><path d="M 0 0 L 10 5 L 0 10 z" fill="#2F3B4D" stroke="#2F3B4D" stroke-width="1" stroke-dasharray="1,0"/></marker><marker id="arrow-start-0" viewBox="0 0 10 10" refX="4.5" refY="5" markerUnits="userSpaceOnUse" markerWidth="8" markerHeight="8" orient="auto"><path d="M 0 5 L 10 10 L 10 0 z" fill="#2F3B4D" stroke="#2F3B4D" stroke-width="1" stroke-dasharray="1,0"/></marker></defs><text x="1018.43" y="48.00" text-anchor="middle" font-family="trebuchet ms,verdana,arial,sans-serif" font-size="16" fill="#333333"><tspan x="1018.43" dy="0.00">Online Shopping Experience</tspan></text><circle cx="37.60" cy="71.20" r="5.60" fill="hsl(240, 100%, 46.2745098039%)" stroke="#2F3B4D" stroke-width="1"/><text x="51.20" y="76.80" text-anchor="start" font-family="trebuchet ms,verdana,arial,sans-serif" font-size="16" fill="#333333">Customer</text><circle cx="130.84" cy="71.20" r="5.60" fill="hsl(60, 100%, 43.5294117647%)" stroke="#2F3B4D" stroke-width="1"/><text x="144.44" y="76.80" text-anchor="start" font-family="trebuchet ms,verdana,arial,sans-serif" font-size="16" fill="#333333">Payment System</text><circle cx="270.01" cy="71.20" r="5.60" fill="hsl(80, 100%, 46.2745098039%)" stroke="#2F3B4D" stroke-width="1"/><text x="283.61" y="76.80" text-anchor="start" font-family="trebuchet ms,verdana,arial,sans-serif" font-size="16" fill="#333333">Email System</text><circle cx="393.87" cy="71.20" r="5.60" fill="hsl(210, 100%, 46.2745098039%)" stroke="#2F3B4D" stroke-width="1"/><text x="407.47" y="76.80" text-anchor="start" font-family="trebuchet ms,verdana,arial,sans-serif" font-size="16" fill="#333333">Logistics</text><rect x="22.40" y="89.60" width="593.14" height="25.60" rx="8" ry="8" fill="hsl(240, 100%, 46.2745098039%)" fill-opacity="0.18" stroke="#AAAA33" stroke-width="1"/><text x="318.97" y="106.40" text-anchor="middle" font-family="trebuchet ms,verdana,arial,sans-serif" font-size="16" fill="#333333"><tspan x="318.97" dy="0.00">Discovery</tspan></text><rect x="621.94" y="241.60" width="792.99" height="25.60" rx="8" ry="8" fill="hsl(60, 100%, 43.5294117647%)" fill-opacity="0.18" stroke="#AAAA33" stroke-width="1"/><text x="1018.43" y="258.40" text-anchor="middle" font-family="trebuchet ms,verdana,arial,sans-serif" font-size="16" fill="#333333"><tspan x="1018.43" dy="0.00">Purchase</tspan></text><rect x="1421.33" y="393.60" width="593.14" height="25.60" rx="8" ry="8" fill="hsl(80, 100%, 46.2745098039%)" fill-opacity="0.18" stroke="#AAAA33" stroke-width="1"/><text x="1717.90" y="410.40" text-anchor="middle" font-family="trebuchet ms,verdana,arial,sans-serif" font-size="16" fill="#333333"><tspan x="1717.90" dy="0.00">Delivery</tspan></text><rect x="32.00" y="142.40" width="174.25" height="43.20" rx="10" ry="10" fill="#ECECFF" stroke="#7B88A8" stroke-width="1.2"/><text x="119.12" y="168.00" text-anchor="middle" font-family="trebuchet ms,verdana,arial,sans-serif" font-size="16" fill="#333333"><tspan x="119.12" dy="0.00">Search for product</tspan></text><circle cx="44.00" cy="124.00" r="8.80" fill="#4ADE80" stroke="#2F3B4D" stroke-width="1"/><text x="44.00" y="129.60" text-anchor="middle" font-family="trebuchet ms,verdana,arial,sans-serif" font-size="16" fill="#333333">5</text><circle cx="119.12" cy="197.60" r="5.60" fill="hsl(240, 100%, 46.2745098039%)" stroke="#2F3B4D" stroke-width="1"/><rect x="231.85" y="142.40" width="174.25" height="43.20" rx="10" ry="10" fill="#ECECFF" stroke="#7B88A8" stroke-width="1.2"/><text x="318.97" y="168.00" text-anchor="middle" font-family="trebuchet ms,verdana,arial,sans-serif" font-size="16" fill="#333333"><tspan x="318.97" dy="0.00">Browse categories</tspan></text><circle cx="243.85" cy="124.00" r="8.80" fill="#A1A879" stroke="#2F3B4D" stroke-width="1"/><text x="243.85" y="129.60" text-anchor="middle" font-family="trebuchet ms,verdana,arial,sans-serif" font-size="16" fill="#333333">3</text><circle cx="318.97" cy="197.60" r="5.60" fill="hsl(240, 100%, 46.2745098039%)" stroke="#2F3B4D" stroke-width="1"/><rect x="431.69" y="142.40" width="174.25" height="43.20" rx="10" ry="10" fill="#ECECFF" stroke="#7B88A8" stroke-width="1.2"/><text x="518.82" y="168.00" text-anchor="middle" font-family="trebuchet ms,verdana,arial,sans-serif" font-size="16" fill="#333333"><tspan x="518.82" dy="0.00">Read reviews</tspan></text><circle cx="443.69" cy="124.00" r="8.80" fill="#76C37C" stroke="#2F3B4D" stroke-width="1"/><text x="443.69" y="129.60" text-anchor="middle" font-family="trebuchet ms,verdana,arial,sans-serif" font-size="16" fill="#333333">4</text><circle cx="518.82" cy="197.60" r="5.60" fill="hsl(240, 100%, 46.2745098039%)" stroke="#2F3B4D" stroke-width="1"/><rect x="631.54" y="294.40" width="174.25" height="43.20" rx="10" ry="10" fill="#ECECFF" stroke="#7B88A8" stroke-width="1.2"/><text x="718.66" y="320.00" text-anchor="middle" font-family="trebuchet ms,verdana,arial,sans-serif" font-size="16" fill="#333333"><tspan x="718.66" dy="0.00">Add to cart</tspan></text><circle cx="643.54" cy="276.00" r="8.80" fill="#4ADE80" stroke="#2F3B4D" stroke-width="1"/><text x="643.54" y="281.60" text-anchor="middle" font-family="trebuchet ms,verdana,arial,sans-serif" font-size="16" fill="#333333">5</text><circle cx="718.66" cy="349.60" r="5.60" fill="hsl(240, 100%, 46.2745098039%)" stroke="#2F3B4D" stroke-width="1"/><rect x="831.39" y="294.40" width="174.25" height="43.20" rx="10" ry="10" fill="#ECECFF" stroke="#7B88A8" stroke-width="1.2"/><text x="918.51" y="320.00" text-anchor="middle" font-family="trebuchet ms,verdana,arial,sans-serif" font-size="16" fill="#333333"><tspan x="918.51" dy="0.00">Enter shipping info</tspan></text><circle cx="843.39" cy="276.00" r="8.80" fill="#CD8C75" stroke="#2F3B4D" stroke-width="1"/><text x="843.39" y="281.60" text-anchor="middle" font-family="trebuchet ms,verdana,arial,sans-serif" font-size="16" fill="#333333">2</text><circle cx="918.51" cy="349.60" r="5.60" fill="hsl(240, 100%, 46.2745098039%)" stroke="#2F3B4D" stroke-width="1"/><rect x="1031.23" y="294.40" width="174.25" height="43.20" rx="10" ry="10" fill="#ECECFF" stroke="#7B88A8" stroke-width="1.2"/><text x="1118.36" y="320.00" text-anchor="middle" font-family="trebuchet ms,verdana,arial,sans-serif" font-size="16" fill="#333333"><tspan x="1118.36" dy="0.00">Payment</tspan></text><circle cx="1043.23" cy="276.00" r="8.80" fill="#A1A879" stroke="#2F3B4D" stroke-width="1"/><text x="1043.23" y="281.60" text-anchor="middle" font-family="trebuchet ms,verdana,arial,sans-serif" font-size="16" fill="#333333">3</text><circle cx="1108.76" cy="349.60" r="5.60" fill="hsl(240, 100%, 46.2745098039%)" stroke="#2F3B4D" stroke-width="1"/><circle cx="1127.96" cy="349.60" r="5.60" fill="hsl(60, 100%, 43.5294117647%)" stroke="#2F3B4D" stroke-width="1"/><rect x="1231.08" y="294.40" width="174.25" height="43.20" rx="10" ry="10" fill="#ECECFF" stroke="#7B88A8" stroke-width="1.2"/><text x="1318.20" y="320.00" text-anchor="middle" font-family="trebuchet ms,verdana,arial,sans-serif" font-size="16" fill="#333333"><tspan x="1318.20" dy="0.00">Order confirmation</tspan></text><circle cx="1243.08" cy="276.00" r="8.80" fill="#4ADE80" stroke="#2F3B4D" stroke-width="1"/><text x="1243.08" y="281.60" text-anchor="middle" font-family="trebuchet ms,verdana,arial,sans-serif" font-size="16" fill="#333333">5</text><circle cx="1308.60" cy="349.60" r="5.60" fill="hsl(240, 100%, 46.2745098039%)" stroke="#2F3B4D" stroke-width="1"/><circle cx="1327.80" cy="349.60" r="5.60" fill="hsl(80, 100%, 46.2745098039%)" stroke="#2F3B4D" stroke-width="1"/><rect x="1430.93" y="446.40" width="174.25" height="43.20" rx="10" ry="10" fill="#ECECFF" stroke="#7B88A8" stroke-width="1.2"/><text x="1518.05" y="472.00" text-anchor="middle" font-family="trebuchet ms,verdana,arial,sans-serif" font-size="16" fill="#333333"><tspan x="1518.05" dy="0.00">Track package</tspan></text><circle cx="1442.93" cy="428.00" r="8.80" fill="#76C37C" stroke="#2F3B4D" stroke-width="1"/><text x="1442.93" y="433.60" text-anchor="middle" font-family="trebuchet ms,verdana,arial,sans-serif" font-size="16" fill="#333333">4</text><circle cx="1508.45" cy="501.60" r="5.60" fill="hsl(240, 100%, 46.2745098039%)" stroke="#2F3B4D" stroke-width="1"/><circle cx="1527.65" cy="501.60" r="5.60" fill="hsl(210, 100%, 46.2745098039%)" stroke="#2F3B4D" stroke-width="1"/><rect x="1630.77" y="446.40" width="174.25" height="43.20" rx="10" ry="10" fill="#ECECFF" stroke="#7B88A8" stroke-width="1.2"/><text x="1717.90" y="472.00" text-anchor="middle" font-family="trebuchet ms,verdana,arial,sans-serif" font-size="16" fill="#333333"><tspan x="1717.90" dy="0.00">Receive delivery</tspan></text><circle cx="1642.77" cy="428.00" r="8.80" fill="#4ADE80" stroke="#2F3B4D" stroke-width="1"/><text x="1642.77" y="433.60" text-anchor="middle" font-family="trebuchet ms,verdana,arial,sans-serif" font-size="16" fill="#333333">5</text><circle cx="1708.30" cy="501.60" r="5.60" fill="hsl(240, 100%, 46.2745098039%)" stroke="#2F3B4D" stroke-width="1"/><circle cx="1727.50" cy="501.60" r="5.60" fill="hsl(210, 100%, 46.2745098039%)" stroke="#2F3B4D" stroke-width="1"/><rect x="1830.62" y="446.40" width="174.25" height="43.20" rx="10" ry="10" fill="#ECECFF" stroke="#7B88A8" stroke-width="1.2"/><text x="1917.74" y="472.00" text-anchor="middle" font-family="trebuchet ms,verdana,arial,sans-serif" font-size="16" fill="#333333"><tspan x="1917.74" dy="0.00">Leave review</tspan></text><circle cx="1842.62" cy="428.00" r="8.80" fill="#A1A879" stroke="#2F3B4D" stroke-width="1"/><text x="1842.62" y="433.60" text-anchor="middle" font-family="trebuchet ms,verdana,arial,sans-serif" font-size="16" fill="#333333">3</text><circle cx="1917.74" cy="501.60" r="5.60" fill="hsl(240, 100%, 46.2745098039%)" stroke="#2F3B4D" stroke-width="1"/><line x1="32.00" y1="524.80" x2="2004.86" y2="524.80" stroke="#2F3B4D" stroke-width="2"/><polygon points="2004.86,524.80 1996.86,520.00 1996.86,529.60" fill="#2F3B4D"/></svg>