<svg xmlns="http://www.w3.org/2000/svg" width="281.6" height="246.4" viewBox="0 0 281.6 246.4"><rect x="0" y="0" width="281.6" height="246.4" fill="#FFFFFF"/><defs><marker id="arrow-0" viewBox="0 0 10 10" refX="5" refY="5" markerUnits="userSpaceOnUse" markerWidth="8" markerHeight="8" orient="auto"><path d="M 0 0 L 10 5 L 0 10 z" fill="#2F3B4D" stroke="#2F3B4D" stroke-width="1" stroke-dasharray="1,0"/></marker><marker id="arrow-start-0" viewBox="0 0 10 10" refX="4.5" refY="5" markerUnits="userSpaceOnUse" markerWidth="8" markerHeight="8" orient="auto"><path d="M 0 5 L 10 10 L 10 0 z" fill="#2F3B4D" stroke="#2F3B4D" stroke-width="1" stroke-dasharray="1,0"/></marker></defs><text x="140.80" y="48.00" text-anchor="middle" font-family="trebuchet ms,verdana,arial,sans-serif" font-size="16" fill="#333333"><tspan x="140.80" dy="0.00">My Journey</tspan></text><circle cx="37.60" cy="71.20" r="5.60" fill="hsl(240, 100%, 46.2745098039%)" stroke="#2F3B4D" stroke-width="1"/><text x="51.20" y="76.80" text-anchor="start" font-family="trebuchet ms,verdana,arial,sans-serif" font-size="16" fill="#333333">Alice</text><circle cx="107.88" cy="71.20" r="5.60" fill="hsl(60, 100%, 43.5294117647%)" stroke="#2F3B4D" stroke-width="1"/><text x="121.48" y="76.80" text-anchor="start" font-family="trebuchet ms,verdana,arial,sans-serif" font-size="16" fill="#333333">Bob</text><rect x="22.40" y="89.60" width="236.80" height="25.60" rx="8" ry="8" fill="hsl(240, 100%, 46.2745098039%)" fill-opacity="0.18" stroke="#AAAA33" stroke-width="1"/><text x="140.80" y="106.40" text-anchor="middle" font-family="trebuchet ms,verdana,arial,sans-serif" font-size="16" fill="#333333"><tspan x="140.80" dy="0.00">Start</tspan></text><rect x="32.00" y="142.40" width="96.00" height="43.20" rx="10" ry="10" fill="#ECECFF" stroke="#7B88A8" stroke-width="1.2"/><text x="80.00" y="168.00" text-anchor="middle" font-family="trebuchet ms,verdana,arial,sans-serif" font-size="16" fill="#333333"><tspan x="80.00" dy="0.00">Step one</tspan></text><circle cx="44.00" cy="124.00" r="8.80" fill="#4ADE80" stroke="#2F3B4D" stroke-width="1"/><text x="44.00" y="129.60" text-anchor="middle" font-family="trebuchet ms,verdana,arial,sans-serif" font-size="16" fill="#333333">5</text><circle cx="80.00" cy="197.60" r="5.60" fill="hsl(240, 100%, 46.2745098039%)" stroke="#2F3B4D" stroke-width="1"/><rect x="153.60" y="142.40" width="96.00" height="43.20" rx="10" ry="10" fill="#ECECFF" stroke="#7B88A8" stroke-width="1.2"/><text x="201.60" y="168.00" text-anchor="middle" font-family="trebuchet ms,verdana,arial,sans-serif" font-size="16" fill="#333333"><tspan x="201.60" dy="0.00">Step two</tspan></text><circle cx="165.60" cy="124.00" r="8.80" fill="#A1A879" stroke="#2F3B4D" stroke-width="1"/><text x="165.60" y="129.60" text-anchor="middle" font-family="trebuchet ms,verdana,arial,sans-serif" font-size="16" fill="#333333">3</text><circle cx="192.00" cy="197.60" r="5.60" fill="hsl(240, 100%, 46.2745098039%)" stroke="#2F3B4D" stroke-width="1"/><circle cx="211.20" cy="197.60" r="5.60" fill="hsl(60, 100%, 43.5294117647%)" stroke="#2F3B4D" stroke-width="1"/><line x1="32.00" y1="220.80" x2="249.60" y2="220.80" stroke="#2F3B4D" stroke-width="2"/><polygon points="249.60,220.80 241.60,216.00 241.60,225.60" fill="#2F3B4D"/></svg>