<svg xmlns="http://www.w3.org/2000/svg" width="1599.328" height="145.4" viewBox="0 0 1599.328 145.4"><rect x="0" y="0" width="1599.328" height="145.4" fill="#FFFFFF"/><defs><marker id="arrow-0" viewBox="0 0 10 10" refX="5" refY="5" markerUnits="userSpaceOnUse" markerWidth="8" markerHeight="8" orient="auto"><path d="M 0 0 L 10 5 L 0 10 z" fill="#2F3B4D" stroke="#2F3B4D" stroke-width="1" stroke-dasharray="1,0"/></marker><marker id="arrow-start-0" viewBox="0 0 10 10" refX="4.5" refY="5" markerUnits="userSpaceOnUse" markerWidth="8" markerHeight="8" orient="auto"><path d="M 0 5 L 10 10 L 10 0 z" fill="#2F3B4D" stroke="#2F3B4D" stroke-width="1" stroke-dasharray="1,0"/></marker></defs><rect x="8.00" y="8.00" width="330.07" height="131.40" rx="10" ry="10" fill="#FFFFDE" stroke="#AAAA33" stroke-width="1" /><text x="173.03" y="36.00" text-anchor="middle" font-family="trebuchet ms,verdana,arial,sans-serif" font-size="16" fill="#333333"><tspan x="173.03" dy="0.00">Backlog</tspan></text><rect x="1286.23" y="8.00" width="307.10" height="131.40" rx="10" ry="10" fill="#FFFFDE" stroke="#AAAA33" stroke-width="1" /><text x="1439.78" y="36.00" text-anchor="middle" font-family="trebuchet ms,verdana,arial,sans-serif" font-size="16" fill="#333333"><tspan x="1439.78" dy="0.00">Done</tspan></text><rect x="342.87" y="8.00" width="299.45" height="131.40" rx="10" ry="10" fill="#FFFFDE" stroke="#AAAA33" stroke-width="1" /><text x="492.59" y="36.00" text-anchor="middle" font-family="trebuchet ms,verdana,arial,sans-serif" font-size="16" fill="#333333"><tspan x="492.59" dy="0.00">To Do</tspan></text><rect x="951.36" y="8.00" width="330.07" height="80.10" rx="10" ry="10" fill="#FFFFDE" stroke="#AAAA33" stroke-width="1" /><text x="1116.39" y="36.00" text-anchor="middle" font-family="trebuchet ms,verdana,arial,sans-serif" font-size="16" fill="#333333"><tspan x="1116.39" dy="0.00">Code Review</tspan></text><rect x="647.11" y="8.00" width="299.45" height="80.10" rx="10" ry="10" fill="#FFFFDE" stroke="#AAAA33" stroke-width="1" /><text x="796.84" y="36.00" text-anchor="middle" font-family="trebuchet ms,verdana,arial,sans-serif" font-size="16" fill="#333333"><tspan x="796.84" dy="0.00">In Progress</tspan></text><rect x="16.00" y="36.00" width="314.07" height="44.10" rx="3" ry="3" fill="#ECECFF" stroke="#7B88A8" stroke-width="1" stroke-linejoin="round" stroke-linecap="round"/><text x="173.03" y="62.05" text-anchor="middle" font-family="trebuchet ms,verdana,arial,sans-serif" font-size="16" fill="#333333"><tspan x="173.03" dy="0.00">Design new landing page</tspan></text><rect x="54.28" y="87.30" width="237.52" height="44.10" rx="3" ry="3" fill="#ECECFF" stroke="#7B88A8" stroke-width="1" stroke-linejoin="round" stroke-linecap="round"/><text x="173.03" y="113.35" text-anchor="middle" font-family="trebuchet ms,verdana,arial,sans-serif" font-size="16" fill="#333333"><tspan x="173.03" dy="0.00">Fix login bug</tspan></text><rect x="366.18" y="36.00" width="252.83" height="44.10" rx="3" ry="3" fill="#ECECFF" stroke="#7B88A8" stroke-width="1" stroke-linejoin="round" stroke-linecap="round"/><text x="492.59" y="62.05" text-anchor="middle" font-family="trebuchet ms,verdana,arial,sans-serif" font-size="16" fill="#333333"><tspan x="492.59" dy="0.00">Write API tests</tspan></text><rect x="350.87" y="87.30" width="283.45" height="44.10" rx="3" ry="3" fill="#ECECFF" stroke="#7B88A8" stroke-width="1" stroke-linejoin="round" stroke-linecap="round"/><text x="492.59" y="113.35" text-anchor="middle" font-family="trebuchet ms,verdana,arial,sans-serif" font-size="16" fill="#333333"><tspan x="492.59" dy="0.00">Update dependencies</tspan></text><rect x="655.11" y="36.00" width="283.45" height="44.10" rx="3" ry="3" fill="#ECECFF" stroke="#7B88A8" stroke-width="1" stroke-linejoin="round" stroke-linecap="round"/><text x="796.84" y="62.05" text-anchor="middle" font-family="trebuchet ms,verdana,arial,sans-serif" font-size="16" fill="#333333"><tspan x="796.84" dy="0.00">Implement auth flow</tspan></text><rect x="959.36" y="36.00" width="314.07" height="44.10" rx="3" ry="3" fill="#ECECFF" stroke="#7B88A8" stroke-width="1" stroke-linejoin="round" stroke-linecap="round"/><text x="1116.39" y="62.05" text-anchor="middle" font-family="trebuchet ms,verdana,arial,sans-serif" font-size="16" fill="#333333"><tspan x="1116.39" dy="0.00">Refactor database layer</tspan></text><rect x="1294.23" y="36.00" width="291.10" height="44.10" rx="3" ry="3" fill="#ECECFF" stroke="#7B88A8" stroke-width="1" stroke-linejoin="round" stroke-linecap="round"/><text x="1439.78" y="62.05" text-anchor="middle" font-family="trebuchet ms,verdana,arial,sans-serif" font-size="16" fill="#333333"><tspan x="1439.78" dy="0.00">Setup CI/CD pipeline</tspan></text><rect x="1328.67" y="87.30" width="222.21" height="44.10" rx="3" ry="3" fill="#ECECFF" stroke="#7B88A8" stroke-width="1" stroke-linejoin="round" stroke-linecap="round"/><text x="1439.78" y="113.35" text-anchor="middle" font-family="trebuchet ms,verdana,arial,sans-serif" font-size="16" fill="#333333"><tspan x="1439.78" dy="0.00">Deploy v1.0</tspan></text></svg>