<svg xmlns="http://www.w3.org/2000/svg" width="100%" viewBox="-0.000002861023 -0.000002861023 1058.9419 535.52997" style="max-width: 1058.942px;"><rect x="-0.000002861023" y="-0.000002861023" width="1058.9419" height="535.52997" fill="#FFFFFF"/><defs><marker id="arrow-0" viewBox="0 0 10 10" refX="5" refY="5" markerUnits="userSpaceOnUse" markerWidth="8" markerHeight="8" orient="auto"><path d="M 0 0 L 10 5 L 0 10 z" fill="#2F3B4D" stroke="#2F3B4D" stroke-width="1" stroke-dasharray="1,0"/></marker><marker id="arrow-start-0" viewBox="0 0 10 10" refX="4.5" refY="5" markerUnits="userSpaceOnUse" markerWidth="8" markerHeight="8" orient="auto"><path d="M 0 5 L 10 10 L 10 0 z" fill="#2F3B4D" stroke="#2F3B4D" stroke-width="1" stroke-dasharray="1,0"/></marker><marker id="arrow-1" viewBox="0 0 10 10" refX="5" refY="5" markerUnits="userSpaceOnUse" markerWidth="8" markerHeight="8" orient="auto"><path d="M 0 0 L 10 5 L 0 10 z" fill="hsl(60, 100%, 73.5294117647%)" stroke="hsl(60, 100%, 73.5294117647%)" stroke-width="1" stroke-dasharray="1,0"/></marker><marker id="arrow-start-1" viewBox="0 0 10 10" refX="4.5" refY="5" markerUnits="userSpaceOnUse" markerWidth="8" markerHeight="8" orient="auto"><path d="M 0 5 L 10 10 L 10 0 z" fill="hsl(60, 100%, 73.5294117647%)" stroke="hsl(60, 100%, 73.5294117647%)" stroke-width="1" stroke-dasharray="1,0"/></marker><marker id="arrow-2" viewBox="0 0 10 10" refX="5" refY="5" markerUnits="userSpaceOnUse" markerWidth="8" markerHeight="8" orient="auto"><path d="M 0 0 L 10 5 L 0 10 z" fill="hsl(80, 100%, 76.2745098039%)" stroke="hsl(80, 100%, 76.2745098039%)" stroke-width="1" stroke-dasharray="1,0"/></marker><marker id="arrow-start-2" viewBox="0 0 10 10" refX="4.5" refY="5" markerUnits="userSpaceOnUse" markerWidth="8" markerHeight="8" orient="auto"><path d="M 0 5 L 10 10 L 10 0 z" fill="hsl(80, 100%, 76.2745098039%)" stroke="hsl(80, 100%, 76.2745098039%)" stroke-width="1" stroke-dasharray="1,0"/></marker><marker id="arrow-3" viewBox="0 0 10 10" refX="5" refY="5" markerUnits="userSpaceOnUse" markerWidth="8" markerHeight="8" orient="auto"><path d="M 0 0 L 10 5 L 0 10 z" fill="hsl(270, 100%, 76.2745098039%)" stroke="hsl(270, 100%, 76.2745098039%)" stroke-width="1" stroke-dasharray="1,0"/></marker><marker id="arrow-start-3" viewBox="0 0 10 10" refX="4.5" refY="5" markerUnits="userSpaceOnUse" markerWidth="8" markerHeight="8" orient="auto"><path d="M 0 5 L 10 10 L 10 0 z" fill="hsl(270, 100%, 76.2745098039%)" stroke="hsl(270, 100%, 76.2745098039%)" stroke-width="1" stroke-dasharray="1,0"/></marker></defs><path id="edge-0" class="edgePath" data-edge-id="edge-0" d="M 506.070,267.765 L 640.697,164.486" fill="none" stroke="hsl(60, 100%, 73.5294117647%)" stroke-width="11"    stroke-linecap="round" stroke-linejoin="round" /><path id="edge-1" class="edgePath" data-edge-id="edge-1" d="M 640.697,164.486 L 775.799,95.633" fill="none" stroke="hsl(60, 100%, 73.5294117647%)" stroke-width="8"    stroke-linecap="round" stroke-linejoin="round" /><path id="edge-2" class="edgePath" data-edge-id="edge-2" d="M 775.799,95.633 L 919.861,26.779" fill="none" stroke="hsl(60, 100%, 73.5294117647%)" stroke-width="5"    stroke-linecap="round" stroke-linejoin="round" /><path id="edge-3" class="edgePath" data-edge-id="edge-3" d="M 775.799,95.633 L 897.461,95.632" fill="none" stroke="hsl(60, 100%, 73.5294117647%)" stroke-width="5"    stroke-linecap="round" stroke-linejoin="round" /><path id="edge-4" class="edgePath" data-edge-id="edge-4" d="M 775.799,95.633 L 952.222,164.485" fill="none" stroke="hsl(60, 100%, 73.5294117647%)" stroke-width="5"    stroke-linecap="round" stroke-linejoin="round" /><path id="edge-5" class="edgePath" data-edge-id="edge-5" d="M 640.697,164.486 L 784.759,267.765" fill="none" stroke="hsl(60, 100%, 73.5294117647%)" stroke-width="8"    stroke-linecap="round" stroke-linejoin="round" /><path id="edge-6" class="edgePath" data-edge-id="edge-6" d="M 784.759,267.765 L 947.742,233.339" fill="none" stroke="hsl(60, 100%, 73.5294117647%)" stroke-width="5"    stroke-linecap="round" stroke-linejoin="round" /><path id="edge-7" class="edgePath" data-edge-id="edge-7" d="M 784.759,267.765 L 928.821,302.191" fill="none" stroke="hsl(60, 100%, 73.5294117647%)" stroke-width="5"    stroke-linecap="round" stroke-linejoin="round" /><path id="edge-8" class="edgePath" data-edge-id="edge-8" d="M 506.070,267.765 L 375.923,267.765" fill="none" stroke="hsl(80, 100%, 76.2745098039%)" stroke-width="11"    stroke-linecap="round" stroke-linejoin="round" /><path id="edge-9" class="edgePath" data-edge-id="edge-9" d="M 375.923,267.765 L 236.341,198.912" fill="none" stroke="hsl(80, 100%, 76.2745098039%)" stroke-width="8"    stroke-linecap="round" stroke-linejoin="round" /><path id="edge-10" class="edgePath" data-edge-id="edge-10" d="M 236.341,198.912 L 96.759,164.486" fill="none" stroke="hsl(80, 100%, 76.2745098039%)" stroke-width="5"    stroke-linecap="round" stroke-linejoin="round" /><path id="edge-11" class="edgePath" data-edge-id="edge-11" d="M 236.341,198.912 L 83.319,233.339" fill="none" stroke="hsl(80, 100%, 76.2745098039%)" stroke-width="5"    stroke-linecap="round" stroke-linejoin="round" /><path id="edge-12" class="edgePath" data-edge-id="edge-12" d="M 375.923,267.765 L 231.861,336.618" fill="none" stroke="hsl(80, 100%, 76.2745098039%)" stroke-width="8"    stroke-linecap="round" stroke-linejoin="round" /><path id="edge-13" class="edgePath" data-edge-id="edge-13" d="M 231.861,336.618 L 74.359,302.192" fill="none" stroke="hsl(80, 100%, 76.2745098039%)" stroke-width="5"    stroke-linecap="round" stroke-linejoin="round" /><path id="edge-14" class="edgePath" data-edge-id="edge-14" d="M 231.861,336.618 L 96.759,371.044" fill="none" stroke="hsl(80, 100%, 76.2745098039%)" stroke-width="5"    stroke-linecap="round" stroke-linejoin="round" /><path id="edge-15" class="edgePath" data-edge-id="edge-15" d="M 506.070,267.765 L 631.737,439.898" fill="none" stroke="hsl(270, 100%, 76.2745098039%)" stroke-width="11"    stroke-linecap="round" stroke-linejoin="round" /><path id="edge-16" class="edgePath" data-edge-id="edge-16" d="M 631.737,439.898 L 757.879,371.045" fill="none" stroke="hsl(270, 100%, 76.2745098039%)" stroke-width="8"    stroke-linecap="round" stroke-linejoin="round" /><path id="edge-17" class="edgePath" data-edge-id="edge-17" d="M 631.737,439.898 L 762.359,439.898" fill="none" stroke="hsl(270, 100%, 76.2745098039%)" stroke-width="8"    stroke-linecap="round" stroke-linejoin="round" /><path id="edge-18" class="edgePath" data-edge-id="edge-18" d="M 631.737,439.898 L 780.279,508.750" fill="none" stroke="hsl(270, 100%, 76.2745098039%)" stroke-width="8"    stroke-linecap="round" stroke-linejoin="round" /><path d="M324.86 279.69 v-23.85 q0,-5.00 5.00,-5.00 h92.13 q5.00,0 5.00,5.00 v23.85 q0,5.00 -5.00,5.00 h-92.13 q-5.00,0 -5.00,-5.00 Z" fill="hsl(80, 100%, 76.2745098039%)" stroke="none" stroke-width="0" stroke-linejoin="round" stroke-linecap="round"/><line x1="324.86" y1="283.89" x2="426.99" y2="283.89" stroke="hsl(260, 100%, 86.2745098039%)" stroke-width="3.00" stroke-opacity="0.35"/><text x="375.92" y="271.77" text-anchor="middle" font-family="trebuchet ms,verdana,arial,Noto Color Emoji,Apple Color Emoji,Segoe UI Emoji,sans-serif" font-size="16" fill="black"><tspan x="375.92" dy="0.00">Backend</tspan></text><path d="M715.77 382.97 v-23.85 q0,-5.00 5.00,-5.00 h74.21 q5.00,0 5.00,5.00 v23.85 q0,5.00 -5.00,5.00 h-74.21 q-5.00,0 -5.00,-5.00 Z" fill="hsl(270, 100%, 76.2745098039%)" stroke="none" stroke-width="0" stroke-linejoin="round" stroke-linecap="round"/><line x1="715.77" y1="387.17" x2="799.98" y2="387.17" stroke="hsl(90, 100%, 86.2745098039%)" stroke-width="3.00" stroke-opacity="0.35"/><text x="757.88" y="375.04" text-anchor="middle" font-family="trebuchet ms,verdana,arial,Noto Color Emoji,Apple Color Emoji,Segoe UI Emoji,sans-serif" font-size="16" fill="#ffffff"><tspan x="757.88" dy="0.00">CI/CD</tspan></text><path d="M873.28 245.26 v-23.85 q0,-5.00 5.00,-5.00 h138.93 q5.00,0 5.00,5.00 v23.85 q0,5.00 -5.00,5.00 h-138.93 q-5.00,0 -5.00,-5.00 Z" fill="hsl(60, 100%, 73.5294117647%)" stroke="none" stroke-width="0" stroke-linejoin="round" stroke-linecap="round"/><line x1="873.28" y1="249.46" x2="1022.21" y2="249.46" stroke="hsl(240, 100%, 83.5294117647%)" stroke-width="3.00" stroke-opacity="0.35"/><text x="947.74" y="237.34" text-anchor="middle" font-family="trebuchet ms,verdana,arial,Noto Color Emoji,Apple Color Emoji,Segoe UI Emoji,sans-serif" font-size="16" fill="black"><tspan x="947.74" dy="0.00">CSS Modules</tspan></text><path d="M855.35 38.71 v-23.85 q0,-5.00 5.00,-5.00 h119.01 q5.00,0 5.00,5.00 v23.85 q0,5.00 -5.00,5.00 h-119.01 q-5.00,0 -5.00,-5.00 Z" fill="hsl(60, 100%, 73.5294117647%)" stroke="none" stroke-width="0" stroke-linejoin="round" stroke-linecap="round"/><line x1="855.35" y1="42.91" x2="984.37" y2="42.91" stroke="hsl(240, 100%, 83.5294117647%)" stroke-width="3.00" stroke-opacity="0.35"/><text x="919.86" y="30.78" text-anchor="middle" font-family="trebuchet ms,verdana,arial,Noto Color Emoji,Apple Color Emoji,Segoe UI Emoji,sans-serif" font-size="16" fill="black"><tspan x="919.86" dy="0.00">Components</tspan></text><path d="M176.32 348.54 v-23.85 q0,-5.00 5.00,-5.00 h101.09 q5.00,0 5.00,5.00 v23.85 q0,5.00 -5.00,5.00 h-101.09 q-5.00,0 -5.00,-5.00 Z" fill="hsl(80, 100%, 76.2745098039%)" stroke="none" stroke-width="0" stroke-linejoin="round" stroke-linecap="round"/><line x1="176.32" y1="352.74" x2="287.41" y2="352.74" stroke="hsl(260, 100%, 86.2745098039%)" stroke-width="3.00" stroke-opacity="0.35"/><text x="231.86" y="340.62" text-anchor="middle" font-family="trebuchet ms,verdana,arial,Noto Color Emoji,Apple Color Emoji,Segoe UI Emoji,sans-serif" font-size="16" fill="black"><tspan x="231.86" dy="0.00">Database</tspan></text><path d="M585.15 451.82 v-23.85 q0,-5.00 5.00,-5.00 h83.17 q5.00,0 5.00,5.00 v23.85 q0,5.00 -5.00,5.00 h-83.17 q-5.00,0 -5.00,-5.00 Z" fill="hsl(270, 100%, 76.2745098039%)" stroke="none" stroke-width="0" stroke-linejoin="round" stroke-linecap="round"/><line x1="585.15" y1="456.02" x2="678.32" y2="456.02" stroke="hsl(90, 100%, 86.2745098039%)" stroke-width="3.00" stroke-opacity="0.35"/><text x="631.74" y="443.90" text-anchor="middle" font-family="trebuchet ms,verdana,arial,Noto Color Emoji,Apple Color Emoji,Segoe UI Emoji,sans-serif" font-size="16" fill="#ffffff"><tspan x="631.74" dy="0.00">DevOps</tspan></text><path d="M715.77 451.82 v-23.85 q0,-5.00 5.00,-5.00 h83.17 q5.00,0 5.00,5.00 v23.85 q0,5.00 -5.00,5.00 h-83.17 q-5.00,0 -5.00,-5.00 Z" fill="hsl(270, 100%, 76.2745098039%)" stroke="none" stroke-width="0" stroke-linejoin="round" stroke-linecap="round"/><line x1="715.77" y1="456.02" x2="808.94" y2="456.02" stroke="hsl(90, 100%, 86.2745098039%)" stroke-width="3.00" stroke-opacity="0.35"/><text x="762.36" y="443.90" text-anchor="middle" font-family="trebuchet ms,verdana,arial,Noto Color Emoji,Apple Color Emoji,Segoe UI Emoji,sans-serif" font-size="16" fill="#ffffff"><tspan x="762.36" dy="0.00">Docker</tspan></text><path d="M45.69 176.41 v-23.85 q0,-5.00 5.00,-5.00 h92.13 q5.00,0 5.00,5.00 v23.85 q0,5.00 -5.00,5.00 h-92.13 q-5.00,0 -5.00,-5.00 Z" fill="hsl(80, 100%, 76.2745098039%)" stroke="none" stroke-width="0" stroke-linejoin="round" stroke-linecap="round"/><line x1="45.69" y1="180.61" x2="147.82" y2="180.61" stroke="hsl(260, 100%, 86.2745098039%)" stroke-width="3.00" stroke-opacity="0.35"/><text x="96.76" y="168.49" text-anchor="middle" font-family="trebuchet ms,verdana,arial,Noto Color Emoji,Apple Color Emoji,Segoe UI Emoji,sans-serif" font-size="16" fill="black"><tspan x="96.76" dy="0.00">Express</tspan></text><path d="M585.15 176.41 v-23.85 q0,-5.00 5.00,-5.00 h101.09 q5.00,0 5.00,5.00 v23.85 q0,5.00 -5.00,5.00 h-101.09 q-5.00,0 -5.00,-5.00 Z" fill="hsl(60, 100%, 73.5294117647%)" stroke="none" stroke-width="0" stroke-linejoin="round" stroke-linecap="round"/><line x1="585.15" y1="180.61" x2="696.24" y2="180.61" stroke="hsl(240, 100%, 83.5294117647%)" stroke-width="3.00" stroke-opacity="0.35"/><text x="640.70" y="168.49" text-anchor="middle" font-family="trebuchet ms,verdana,arial,Noto Color Emoji,Apple Color Emoji,Segoe UI Emoji,sans-serif" font-size="16" fill="black"><tspan x="640.70" dy="0.00">Frontend</tspan></text><path d="M855.35 107.56 v-23.85 q0,-5.00 5.00,-5.00 h74.21 q5.00,0 5.00,5.00 v23.85 q0,5.00 -5.00,5.00 h-74.21 q-5.00,0 -5.00,-5.00 Z" fill="hsl(60, 100%, 73.5294117647%)" stroke="none" stroke-width="0" stroke-linejoin="round" stroke-linecap="round"/><line x1="855.35" y1="111.76" x2="939.57" y2="111.76" stroke="hsl(240, 100%, 83.5294117647%)" stroke-width="3.00" stroke-opacity="0.35"/><text x="897.46" y="99.63" text-anchor="middle" font-family="trebuchet ms,verdana,arial,Noto Color Emoji,Apple Color Emoji,Segoe UI Emoji,sans-serif" font-size="16" fill="black"><tspan x="897.46" dy="0.00">Hooks</tspan></text><path d="M715.77 520.68 v-23.85 q0,-5.00 5.00,-5.00 h119.01 q5.00,0 5.00,5.00 v23.85 q0,5.00 -5.00,5.00 h-119.01 q-5.00,0 -5.00,-5.00 Z" fill="hsl(270, 100%, 76.2745098039%)" stroke="none" stroke-width="0" stroke-linejoin="round" stroke-linecap="round"/><line x1="715.77" y1="524.88" x2="844.78" y2="524.88" stroke="hsl(90, 100%, 86.2745098039%)" stroke-width="3.00" stroke-opacity="0.35"/><text x="780.28" y="512.75" text-anchor="middle" font-family="trebuchet ms,verdana,arial,Noto Color Emoji,Apple Color Emoji,Segoe UI Emoji,sans-serif" font-size="16" fill="#ffffff"><tspan x="780.28" dy="0.00">Kubernetes</tspan></text><path d="M18.81 245.27 v-23.85 q0,-5.00 5.00,-5.00 h119.01 q5.00,0 5.00,5.00 v23.85 q0,5.00 -5.00,5.00 h-119.01 q-5.00,0 -5.00,-5.00 Z" fill="hsl(80, 100%, 76.2745098039%)" stroke="none" stroke-width="0" stroke-linejoin="round" stroke-linecap="round"/><line x1="18.81" y1="249.47" x2="147.83" y2="249.47" stroke="hsl(260, 100%, 86.2745098039%)" stroke-width="3.00" stroke-opacity="0.35"/><text x="83.32" y="237.34" text-anchor="middle" font-family="trebuchet ms,verdana,arial,Noto Color Emoji,Apple Color Emoji,Segoe UI Emoji,sans-serif" font-size="16" fill="black"><tspan x="83.32" dy="0.00">Middleware</tspan></text><path d="M185.27 210.84 v-23.85 q0,-5.00 5.00,-5.00 h92.13 q5.00,0 5.00,5.00 v23.85 q0,5.00 -5.00,5.00 h-92.13 q-5.00,0 -5.00,-5.00 Z" fill="hsl(80, 100%, 76.2745098039%)" stroke="none" stroke-width="0" stroke-linejoin="round" stroke-linecap="round"/><line x1="185.27" y1="215.04" x2="287.41" y2="215.04" stroke="hsl(260, 100%, 86.2745098039%)" stroke-width="3.00" stroke-opacity="0.35"/><text x="236.34" y="202.91" text-anchor="middle" font-family="trebuchet ms,verdana,arial,Noto Color Emoji,Apple Color Emoji,Segoe UI Emoji,sans-serif" font-size="16" fill="black"><tspan x="236.34" dy="0.00">Node.js</tspan></text><path d="M9.85 314.12 v-23.85 q0,-5.00 5.00,-5.00 h119.01 q5.00,0 5.00,5.00 v23.85 q0,5.00 -5.00,5.00 h-119.01 q-5.00,0 -5.00,-5.00 Z" fill="hsl(80, 100%, 76.2745098039%)" stroke="none" stroke-width="0" stroke-linejoin="round" stroke-linecap="round"/><line x1="9.85" y1="318.32" x2="138.86" y2="318.32" stroke="hsl(260, 100%, 86.2745098039%)" stroke-width="3.00" stroke-opacity="0.35"/><text x="74.36" y="306.19" text-anchor="middle" font-family="trebuchet ms,verdana,arial,Noto Color Emoji,Apple Color Emoji,Segoe UI Emoji,sans-serif" font-size="16" fill="black"><tspan x="74.36" dy="0.00">PostgreSQL</tspan></text><path d="M733.69 107.56 v-23.85 q0,-5.00 5.00,-5.00 h74.21 q5.00,0 5.00,5.00 v23.85 q0,5.00 -5.00,5.00 h-74.21 q-5.00,0 -5.00,-5.00 Z" fill="hsl(60, 100%, 73.5294117647%)" stroke="none" stroke-width="0" stroke-linejoin="round" stroke-linecap="round"/><line x1="733.69" y1="111.76" x2="817.90" y2="111.76" stroke="hsl(240, 100%, 83.5294117647%)" stroke-width="3.00" stroke-opacity="0.35"/><text x="775.80" y="99.63" text-anchor="middle" font-family="trebuchet ms,verdana,arial,Noto Color Emoji,Apple Color Emoji,Segoe UI Emoji,sans-serif" font-size="16" fill="black"><tspan x="775.80" dy="0.00">React</tspan></text><path d="M54.65 382.97 v-23.85 q0,-5.00 5.00,-5.00 h74.21 q5.00,0 5.00,5.00 v23.85 q0,5.00 -5.00,5.00 h-74.21 q-5.00,0 -5.00,-5.00 Z" fill="hsl(80, 100%, 76.2745098039%)" stroke="none" stroke-width="0" stroke-linejoin="round" stroke-linecap="round"/><line x1="54.65" y1="387.17" x2="138.87" y2="387.17" stroke="hsl(260, 100%, 86.2745098039%)" stroke-width="3.00" stroke-opacity="0.35"/><text x="96.76" y="375.04" text-anchor="middle" font-family="trebuchet ms,verdana,arial,Noto Color Emoji,Apple Color Emoji,Segoe UI Emoji,sans-serif" font-size="16" fill="black"><tspan x="96.76" dy="0.00">Redis</tspan></text><path d="M855.35 176.41 v-23.85 q0,-5.00 5.00,-5.00 h183.73 q5.00,0 5.00,5.00 v23.85 q0,5.00 -5.00,5.00 h-183.73 q-5.00,0 -5.00,-5.00 Z" fill="hsl(60, 100%, 73.5294117647%)" stroke="none" stroke-width="0" stroke-linejoin="round" stroke-linecap="round"/><line x1="855.35" y1="180.61" x2="1049.09" y2="180.61" stroke="hsl(240, 100%, 83.5294117647%)" stroke-width="3.00" stroke-opacity="0.35"/><text x="952.22" y="168.49" text-anchor="middle" font-family="trebuchet ms,verdana,arial,Noto Color Emoji,Apple Color Emoji,Segoe UI Emoji,sans-serif" font-size="16" fill="black"><tspan x="952.22" dy="0.00">State Management</tspan></text><path d="M733.69 279.69 v-23.85 q0,-5.00 5.00,-5.00 h92.13 q5.00,0 5.00,5.00 v23.85 q0,5.00 -5.00,5.00 h-92.13 q-5.00,0 -5.00,-5.00 Z" fill="hsl(60, 100%, 73.5294117647%)" stroke="none" stroke-width="0" stroke-linejoin="round" stroke-linecap="round"/><line x1="733.69" y1="283.89" x2="835.83" y2="283.89" stroke="hsl(240, 100%, 83.5294117647%)" stroke-width="3.00" stroke-opacity="0.35"/><text x="784.76" y="271.77" text-anchor="middle" font-family="trebuchet ms,verdana,arial,Noto Color Emoji,Apple Color Emoji,Segoe UI Emoji,sans-serif" font-size="16" fill="black"><tspan x="784.76" dy="0.00">Styling</tspan></text><path d="M873.27 314.12 v-23.85 q0,-5.00 5.00,-5.00 h101.09 q5.00,0 5.00,5.00 v23.85 q0,5.00 -5.00,5.00 h-101.09 q-5.00,0 -5.00,-5.00 Z" fill="hsl(60, 100%, 73.5294117647%)" stroke="none" stroke-width="0" stroke-linejoin="round" stroke-linecap="round"/><line x1="873.27" y1="318.32" x2="984.37" y2="318.32" stroke="hsl(240, 100%, 83.5294117647%)" stroke-width="3.00" stroke-opacity="0.35"/><text x="928.82" y="306.19" text-anchor="middle" font-family="trebuchet ms,verdana,arial,Noto Color Emoji,Apple Color Emoji,Segoe UI Emoji,sans-serif" font-size="16" fill="black"><tspan x="928.82" dy="0.00">Tailwind</tspan></text><circle cx="506.07" cy="267.77" r="41.63" fill="hsl(240, 100%, 46.2745098039%)" stroke="none" stroke-width="0" stroke-linejoin="round" stroke-linecap="round"/><text x="506.07" y="271.77" text-anchor="middle" font-family="trebuchet ms,verdana,arial,Noto Color Emoji,Apple Color Emoji,Segoe UI Emoji,sans-serif" font-size="16" fill="#ffffff"><tspan x="506.07" dy="0.00">Project</tspan></text></svg>