<svg xmlns="http://www.w3.org/2000/svg" width="100%" viewBox="-0.000002861023 -0.000002861023 747.118 260.11798" style="max-width: 747.118px;"><rect x="-0.000002861023" y="-0.000002861023" width="747.118" height="260.11798" fill="#FFFFFF"/><defs><marker id="arrow-0" viewBox="0 0 10 10" refX="5" refY="5" markerUnits="userSpaceOnUse" markerWidth="8" markerHeight="8" orient="auto"><path d="M 0 0 L 10 5 L 0 10 z" fill="#2F3B4D" stroke="#2F3B4D" stroke-width="1" stroke-dasharray="1,0"/></marker><marker id="arrow-start-0" viewBox="0 0 10 10" refX="4.5" refY="5" markerUnits="userSpaceOnUse" markerWidth="8" markerHeight="8" orient="auto"><path d="M 0 5 L 10 10 L 10 0 z" fill="#2F3B4D" stroke="#2F3B4D" stroke-width="1" stroke-dasharray="1,0"/></marker><marker id="arrow-1" viewBox="0 0 10 10" refX="5" refY="5" markerUnits="userSpaceOnUse" markerWidth="8" markerHeight="8" orient="auto"><path d="M 0 0 L 10 5 L 0 10 z" fill="hsl(60, 100%, 73.5294117647%)" stroke="hsl(60, 100%, 73.5294117647%)" stroke-width="1" stroke-dasharray="1,0"/></marker><marker id="arrow-start-1" viewBox="0 0 10 10" refX="4.5" refY="5" markerUnits="userSpaceOnUse" markerWidth="8" markerHeight="8" orient="auto"><path d="M 0 5 L 10 10 L 10 0 z" fill="hsl(60, 100%, 73.5294117647%)" stroke="hsl(60, 100%, 73.5294117647%)" stroke-width="1" stroke-dasharray="1,0"/></marker><marker id="arrow-2" viewBox="0 0 10 10" refX="5" refY="5" markerUnits="userSpaceOnUse" markerWidth="8" markerHeight="8" orient="auto"><path d="M 0 0 L 10 5 L 0 10 z" fill="hsl(80, 100%, 76.2745098039%)" stroke="hsl(80, 100%, 76.2745098039%)" stroke-width="1" stroke-dasharray="1,0"/></marker><marker id="arrow-start-2" viewBox="0 0 10 10" refX="4.5" refY="5" markerUnits="userSpaceOnUse" markerWidth="8" markerHeight="8" orient="auto"><path d="M 0 5 L 10 10 L 10 0 z" fill="hsl(80, 100%, 76.2745098039%)" stroke="hsl(80, 100%, 76.2745098039%)" stroke-width="1" stroke-dasharray="1,0"/></marker><marker id="arrow-3" viewBox="0 0 10 10" refX="5" refY="5" markerUnits="userSpaceOnUse" markerWidth="8" markerHeight="8" orient="auto"><path d="M 0 0 L 10 5 L 0 10 z" fill="hsl(270, 100%, 76.2745098039%)" stroke="hsl(270, 100%, 76.2745098039%)" stroke-width="1" stroke-dasharray="1,0"/></marker><marker id="arrow-start-3" viewBox="0 0 10 10" refX="4.5" refY="5" markerUnits="userSpaceOnUse" markerWidth="8" markerHeight="8" orient="auto"><path d="M 0 5 L 10 10 L 10 0 z" fill="hsl(270, 100%, 76.2745098039%)" stroke="hsl(270, 100%, 76.2745098039%)" stroke-width="1" stroke-dasharray="1,0"/></marker></defs><path id="edge-0" class="edgePath" data-edge-id="edge-0" d="M 416.470,130.059 L 551.097,61.206" fill="none" stroke="hsl(60, 100%, 73.5294117647%)" stroke-width="11"    stroke-linecap="round" stroke-linejoin="round" /><path id="edge-1" class="edgePath" data-edge-id="edge-1" d="M 551.097,61.206 L 686.199,26.779" fill="none" stroke="hsl(60, 100%, 73.5294117647%)" stroke-width="8"    stroke-linecap="round" stroke-linejoin="round" /><path id="edge-2" class="edgePath" data-edge-id="edge-2" d="M 551.097,61.206 L 690.679,95.632" fill="none" stroke="hsl(60, 100%, 73.5294117647%)" stroke-width="8"    stroke-linecap="round" stroke-linejoin="round" /><path id="edge-3" class="edgePath" data-edge-id="edge-3" d="M 416.470,130.059 L 295.283,130.059" fill="none" stroke="hsl(80, 100%, 76.2745098039%)" stroke-width="11"    stroke-linecap="round" stroke-linejoin="round" /><path id="edge-4" class="edgePath" data-edge-id="edge-4" d="M 295.283,130.059 L 164.661,95.632" fill="none" stroke="hsl(80, 100%, 76.2745098039%)" stroke-width="8"    stroke-linecap="round" stroke-linejoin="round" /><path id="edge-5" class="edgePath" data-edge-id="edge-5" d="M 164.661,95.632 L 42.999,61.206" fill="none" stroke="hsl(80, 100%, 76.2745098039%)" stroke-width="5"    stroke-linecap="round" stroke-linejoin="round" /><path id="edge-6" class="edgePath" data-edge-id="edge-6" d="M 164.661,95.632 L 47.479,130.059" fill="none" stroke="hsl(80, 100%, 76.2745098039%)" stroke-width="5"    stroke-linecap="round" stroke-linejoin="round" /><path id="edge-7" class="edgePath" data-edge-id="edge-7" d="M 295.283,130.059 L 160.181,198.912" fill="none" stroke="hsl(80, 100%, 76.2745098039%)" stroke-width="8"    stroke-linecap="round" stroke-linejoin="round" /><path id="edge-8" class="edgePath" data-edge-id="edge-8" d="M 416.470,130.059 L 542.137,198.912" fill="none" stroke="hsl(270, 100%, 76.2745098039%)" stroke-width="11"    stroke-linecap="round" stroke-linejoin="round" /><path id="edge-9" class="edgePath" data-edge-id="edge-9" d="M 542.137,198.912 L 663.799,164.485" fill="none" stroke="hsl(270, 100%, 76.2745098039%)" stroke-width="8"    stroke-linecap="round" stroke-linejoin="round" /><path id="edge-10" class="edgePath" data-edge-id="edge-10" d="M 542.137,198.912 L 654.839,233.338" fill="none" stroke="hsl(270, 100%, 76.2745098039%)" stroke-width="8"    stroke-linecap="round" stroke-linejoin="round" /><path d="M9.85 73.13 v-23.85 q0,-5.00 5.00,-5.00 h56.29 q5.00,0 5.00,5.00 v23.85 q0,5.00 -5.00,5.00 h-56.29 q-5.00,0 -5.00,-5.00 Z" fill="hsl(80, 100%, 76.2745098039%)" stroke="none" stroke-width="0" stroke-linejoin="round" stroke-linecap="round"/><line x1="9.85" y1="77.33" x2="76.14" y2="77.33" stroke="hsl(260, 100%, 86.2745098039%)" stroke-width="3.00" stroke-opacity="0.35"/><text x="43.00" y="65.21" text-anchor="middle" font-family="trebuchet ms,verdana,arial,Noto Color Emoji,Apple Color Emoji,Segoe UI Emoji,sans-serif" font-size="16" fill="black"><tspan x="43.00" dy="0.00">API</tspan></text><path d="M113.60 107.56 v-23.85 q0,-5.00 5.00,-5.00 h92.13 q5.00,0 5.00,5.00 v23.85 q0,5.00 -5.00,5.00 h-92.13 q-5.00,0 -5.00,-5.00 Z" fill="hsl(80, 100%, 76.2745098039%)" stroke="none" stroke-width="0" stroke-linejoin="round" stroke-linecap="round"/><line x1="113.60" y1="111.76" x2="215.73" y2="111.76" stroke="hsl(260, 100%, 86.2745098039%)" stroke-width="3.00" stroke-opacity="0.35"/><text x="164.66" y="99.63" text-anchor="middle" font-family="trebuchet ms,verdana,arial,Noto Color Emoji,Apple Color Emoji,Segoe UI Emoji,sans-serif" font-size="16" fill="black"><tspan x="164.66" dy="0.00">Backend</tspan></text><path d="M626.17 176.41 v-23.85 q0,-5.00 5.00,-5.00 h65.25 q5.00,0 5.00,5.00 v23.85 q0,5.00 -5.00,5.00 h-65.25 q-5.00,0 -5.00,-5.00 Z" fill="hsl(270, 100%, 76.2745098039%)" stroke="none" stroke-width="0" stroke-linejoin="round" stroke-linecap="round"/><line x1="626.17" y1="180.61" x2="701.42" y2="180.61" stroke="hsl(90, 100%, 86.2745098039%)" stroke-width="3.00" stroke-opacity="0.35"/><text x="663.80" y="168.49" text-anchor="middle" font-family="trebuchet ms,verdana,arial,Noto Color Emoji,Apple Color Emoji,Segoe UI Emoji,sans-serif" font-size="16" fill="#ffffff"><tspan x="663.80" dy="0.00">Beta</tspan></text><path d="M644.09 107.56 v-23.85 q0,-5.00 5.00,-5.00 h83.17 q5.00,0 5.00,5.00 v23.85 q0,5.00 -5.00,5.00 h-83.17 q-5.00,0 -5.00,-5.00 Z" fill="hsl(60, 100%, 73.5294117647%)" stroke="none" stroke-width="0" stroke-linejoin="round" stroke-linecap="round"/><line x1="644.09" y1="111.76" x2="737.27" y2="111.76" stroke="hsl(240, 100%, 83.5294117647%)" stroke-width="3.00" stroke-opacity="0.35"/><text x="690.68" y="99.63" text-anchor="middle" font-family="trebuchet ms,verdana,arial,Noto Color Emoji,Apple Color Emoji,Segoe UI Emoji,sans-serif" font-size="16" fill="black"><tspan x="690.68" dy="0.00">Budget</tspan></text><path d="M253.18 141.99 v-23.85 q0,-5.00 5.00,-5.00 h74.21 q5.00,0 5.00,5.00 v23.85 q0,5.00 -5.00,5.00 h-74.21 q-5.00,0 -5.00,-5.00 Z" fill="hsl(80, 100%, 76.2745098039%)" stroke="none" stroke-width="0" stroke-linejoin="round" stroke-linecap="round"/><line x1="253.18" y1="146.19" x2="337.39" y2="146.19" stroke="hsl(260, 100%, 86.2745098039%)" stroke-width="3.00" stroke-opacity="0.35"/><text x="295.28" y="134.06" text-anchor="middle" font-family="trebuchet ms,verdana,arial,Noto Color Emoji,Apple Color Emoji,Segoe UI Emoji,sans-serif" font-size="16" fill="black"><tspan x="295.28" dy="0.00">Build</tspan></text><path d="M18.81 141.99 v-23.85 q0,-5.00 5.00,-5.00 h47.33 q5.00,0 5.00,5.00 v23.85 q0,5.00 -5.00,5.00 h-47.33 q-5.00,0 -5.00,-5.00 Z" fill="hsl(80, 100%, 76.2745098039%)" stroke="none" stroke-width="0" stroke-linejoin="round" stroke-linecap="round"/><line x1="18.81" y1="146.19" x2="76.15" y2="146.19" stroke="hsl(260, 100%, 86.2745098039%)" stroke-width="3.00" stroke-opacity="0.35"/><text x="47.48" y="134.06" text-anchor="middle" font-family="trebuchet ms,verdana,arial,Noto Color Emoji,Apple Color Emoji,Segoe UI Emoji,sans-serif" font-size="16" fill="black"><tspan x="47.48" dy="0.00">DB</tspan></text><path d="M104.64 210.84 v-23.85 q0,-5.00 5.00,-5.00 h101.09 q5.00,0 5.00,5.00 v23.85 q0,5.00 -5.00,5.00 h-101.09 q-5.00,0 -5.00,-5.00 Z" fill="hsl(80, 100%, 76.2745098039%)" stroke="none" stroke-width="0" stroke-linejoin="round" stroke-linecap="round"/><line x1="104.64" y1="215.04" x2="215.73" y2="215.04" stroke="hsl(260, 100%, 86.2745098039%)" stroke-width="3.00" stroke-opacity="0.35"/><text x="160.18" y="202.91" text-anchor="middle" font-family="trebuchet ms,verdana,arial,Noto Color Emoji,Apple Color Emoji,Segoe UI Emoji,sans-serif" font-size="16" fill="black"><tspan x="160.18" dy="0.00">Frontend</tspan></text><path d="M626.17 245.26 v-23.85 q0,-5.00 5.00,-5.00 h47.33 q5.00,0 5.00,5.00 v23.85 q0,5.00 -5.00,5.00 h-47.33 q-5.00,0 -5.00,-5.00 Z" fill="hsl(270, 100%, 76.2745098039%)" stroke="none" stroke-width="0" stroke-linejoin="round" stroke-linecap="round"/><line x1="626.17" y1="249.46" x2="683.51" y2="249.46" stroke="hsl(90, 100%, 86.2745098039%)" stroke-width="3.00" stroke-opacity="0.35"/><text x="654.84" y="237.34" text-anchor="middle" font-family="trebuchet ms,verdana,arial,Noto Color Emoji,Apple Color Emoji,Segoe UI Emoji,sans-serif" font-size="16" fill="#ffffff"><tspan x="654.84" dy="0.00">GA</tspan></text><path d="M495.55 210.84 v-23.85 q0,-5.00 5.00,-5.00 h83.17 q5.00,0 5.00,5.00 v23.85 q0,5.00 -5.00,5.00 h-83.17 q-5.00,0 -5.00,-5.00 Z" fill="hsl(270, 100%, 76.2745098039%)" stroke="none" stroke-width="0" stroke-linejoin="round" stroke-linecap="round"/><line x1="495.55" y1="215.04" x2="588.72" y2="215.04" stroke="hsl(90, 100%, 86.2745098039%)" stroke-width="3.00" stroke-opacity="0.35"/><text x="542.14" y="202.91" text-anchor="middle" font-family="trebuchet ms,verdana,arial,Noto Color Emoji,Apple Color Emoji,Segoe UI Emoji,sans-serif" font-size="16" fill="#ffffff"><tspan x="542.14" dy="0.00">Launch</tspan></text><path d="M495.55 73.13 v-23.85 q0,-5.00 5.00,-5.00 h101.09 q5.00,0 5.00,5.00 v23.85 q0,5.00 -5.00,5.00 h-101.09 q-5.00,0 -5.00,-5.00 Z" fill="hsl(60, 100%, 73.5294117647%)" stroke="none" stroke-width="0" stroke-linejoin="round" stroke-linecap="round"/><line x1="495.55" y1="77.33" x2="606.64" y2="77.33" stroke="hsl(240, 100%, 83.5294117647%)" stroke-width="3.00" stroke-opacity="0.35"/><text x="551.10" y="65.21" text-anchor="middle" font-family="trebuchet ms,verdana,arial,Noto Color Emoji,Apple Color Emoji,Segoe UI Emoji,sans-serif" font-size="16" fill="black"><tspan x="551.10" dy="0.00">Planning</tspan></text><path d="M644.09 38.71 v-23.85 q0,-5.00 5.00,-5.00 h74.21 q5.00,0 5.00,5.00 v23.85 q0,5.00 -5.00,5.00 h-74.21 q-5.00,0 -5.00,-5.00 Z" fill="hsl(60, 100%, 73.5294117647%)" stroke="none" stroke-width="0" stroke-linejoin="round" stroke-linecap="round"/><line x1="644.09" y1="42.91" x2="728.30" y2="42.91" stroke="hsl(240, 100%, 83.5294117647%)" stroke-width="3.00" stroke-opacity="0.35"/><text x="686.20" y="30.78" text-anchor="middle" font-family="trebuchet ms,verdana,arial,Noto Color Emoji,Apple Color Emoji,Segoe UI Emoji,sans-serif" font-size="16" fill="black"><tspan x="686.20" dy="0.00">Scope</tspan></text><circle cx="416.47" cy="130.06" r="41.63" fill="hsl(240, 100%, 46.2745098039%)" stroke="none" stroke-width="0" stroke-linejoin="round" stroke-linecap="round"/><text x="416.47" y="134.06" text-anchor="middle" font-family="trebuchet ms,verdana,arial,Noto Color Emoji,Apple Color Emoji,Segoe UI Emoji,sans-serif" font-size="16" fill="#ffffff"><tspan x="416.47" dy="0.00">Project</tspan></text></svg>