<svg xmlns="http://www.w3.org/2000/svg" width="100%" viewBox="-0.000002861023 -0.000002861023 968.3798 535.52997" style="max-width: 968.380px;"><rect x="-0.000002861023" y="-0.000002861023" width="968.3798" height="535.52997" fill="#FFFFFF"/><defs><marker id="arrow-0" viewBox="0 0 10 10" refX="5" refY="5" markerUnits="userSpaceOnUse" markerWidth="8" markerHeight="8" orient="auto"><path d="M 0 0 L 10 5 L 0 10 z" fill="#2F3B4D" stroke="#2F3B4D" stroke-width="1" stroke-dasharray="1,0"/></marker><marker id="arrow-start-0" viewBox="0 0 10 10" refX="4.5" refY="5" markerUnits="userSpaceOnUse" markerWidth="8" markerHeight="8" orient="auto"><path d="M 0 5 L 10 10 L 10 0 z" fill="#2F3B4D" stroke="#2F3B4D" stroke-width="1" stroke-dasharray="1,0"/></marker><marker id="arrow-1" viewBox="0 0 10 10" refX="5" refY="5" markerUnits="userSpaceOnUse" markerWidth="8" markerHeight="8" orient="auto"><path d="M 0 0 L 10 5 L 0 10 z" fill="hsl(60, 100%, 73.5294117647%)" stroke="hsl(60, 100%, 73.5294117647%)" stroke-width="1" stroke-dasharray="1,0"/></marker><marker id="arrow-start-1" viewBox="0 0 10 10" refX="4.5" refY="5" markerUnits="userSpaceOnUse" markerWidth="8" markerHeight="8" orient="auto"><path d="M 0 5 L 10 10 L 10 0 z" fill="hsl(60, 100%, 73.5294117647%)" stroke="hsl(60, 100%, 73.5294117647%)" stroke-width="1" stroke-dasharray="1,0"/></marker><marker id="arrow-2" viewBox="0 0 10 10" refX="5" refY="5" markerUnits="userSpaceOnUse" markerWidth="8" markerHeight="8" orient="auto"><path d="M 0 0 L 10 5 L 0 10 z" fill="hsl(80, 100%, 76.2745098039%)" stroke="hsl(80, 100%, 76.2745098039%)" stroke-width="1" stroke-dasharray="1,0"/></marker><marker id="arrow-start-2" viewBox="0 0 10 10" refX="4.5" refY="5" markerUnits="userSpaceOnUse" markerWidth="8" markerHeight="8" orient="auto"><path d="M 0 5 L 10 10 L 10 0 z" fill="hsl(80, 100%, 76.2745098039%)" stroke="hsl(80, 100%, 76.2745098039%)" stroke-width="1" stroke-dasharray="1,0"/></marker><marker id="arrow-3" viewBox="0 0 10 10" refX="5" refY="5" markerUnits="userSpaceOnUse" markerWidth="8" markerHeight="8" orient="auto"><path d="M 0 0 L 10 5 L 0 10 z" fill="hsl(270, 100%, 76.2745098039%)" stroke="hsl(270, 100%, 76.2745098039%)" stroke-width="1" stroke-dasharray="1,0"/></marker><marker id="arrow-start-3" viewBox="0 0 10 10" refX="4.5" refY="5" markerUnits="userSpaceOnUse" markerWidth="8" markerHeight="8" orient="auto"><path d="M 0 5 L 10 10 L 10 0 z" fill="hsl(270, 100%, 76.2745098039%)" stroke="hsl(270, 100%, 76.2745098039%)" stroke-width="1" stroke-dasharray="1,0"/></marker></defs><path id="edge-0" class="edgePath" data-edge-id="edge-0" d="M 468.880,267.765 L 593.720,164.486" fill="none" stroke="hsl(60, 100%, 73.5294117647%)" stroke-width="11"    stroke-linecap="round" stroke-linejoin="round" /><path id="edge-1" class="edgePath" data-edge-id="edge-1" d="M 593.720,164.486 L 720.340,95.633" fill="none" stroke="hsl(60, 100%, 73.5294117647%)" stroke-width="8"    stroke-linecap="round" stroke-linejoin="round" /><path id="edge-2" class="edgePath" data-edge-id="edge-2" d="M 720.340,95.633 L 854.615,26.779" fill="none" stroke="hsl(60, 100%, 73.5294117647%)" stroke-width="5"    stroke-linecap="round" stroke-linejoin="round" /><path id="edge-3" class="edgePath" data-edge-id="edge-3" d="M 720.340,95.633 L 835.477,95.632" fill="none" stroke="hsl(60, 100%, 73.5294117647%)" stroke-width="5"    stroke-linecap="round" stroke-linejoin="round" /><path id="edge-4" class="edgePath" data-edge-id="edge-4" d="M 720.340,95.633 L 877.580,164.485" fill="none" stroke="hsl(60, 100%, 73.5294117647%)" stroke-width="5"    stroke-linecap="round" stroke-linejoin="round" /><path id="edge-5" class="edgePath" data-edge-id="edge-5" d="M 593.720,164.486 L 727.995,267.765" fill="none" stroke="hsl(60, 100%, 73.5294117647%)" stroke-width="8"    stroke-linecap="round" stroke-linejoin="round" /><path id="edge-6" class="edgePath" data-edge-id="edge-6" d="M 727.995,267.765 L 873.753,233.339" fill="none" stroke="hsl(60, 100%, 73.5294117647%)" stroke-width="5"    stroke-linecap="round" stroke-linejoin="round" /><path id="edge-7" class="edgePath" data-edge-id="edge-7" d="M 727.995,267.765 L 862.270,302.191" fill="none" stroke="hsl(60, 100%, 73.5294117647%)" stroke-width="5"    stroke-linecap="round" stroke-linejoin="round" /><path id="edge-8" class="edgePath" data-edge-id="edge-8" d="M 468.880,267.765 L 347.867,267.765" fill="none" stroke="hsl(80, 100%, 76.2745098039%)" stroke-width="11"    stroke-linecap="round" stroke-linejoin="round" /><path id="edge-9" class="edgePath" data-edge-id="edge-9" d="M 347.867,267.765 L 217.420,198.912" fill="none" stroke="hsl(80, 100%, 76.2745098039%)" stroke-width="8"    stroke-linecap="round" stroke-linejoin="round" /><path id="edge-10" class="edgePath" data-edge-id="edge-10" d="M 217.420,198.912 L 86.972,164.486" fill="none" stroke="hsl(80, 100%, 76.2745098039%)" stroke-width="5"    stroke-linecap="round" stroke-linejoin="round" /><path id="edge-11" class="edgePath" data-edge-id="edge-11" d="M 217.420,198.912 L 75.489,233.339" fill="none" stroke="hsl(80, 100%, 76.2745098039%)" stroke-width="5"    stroke-linecap="round" stroke-linejoin="round" /><path id="edge-12" class="edgePath" data-edge-id="edge-12" d="M 347.867,267.765 L 213.592,336.618" fill="none" stroke="hsl(80, 100%, 76.2745098039%)" stroke-width="8"    stroke-linecap="round" stroke-linejoin="round" /><path id="edge-13" class="edgePath" data-edge-id="edge-13" d="M 213.592,336.618 L 67.834,302.192" fill="none" stroke="hsl(80, 100%, 76.2745098039%)" stroke-width="5"    stroke-linecap="round" stroke-linejoin="round" /><path id="edge-14" class="edgePath" data-edge-id="edge-14" d="M 213.592,336.618 L 86.972,371.044" fill="none" stroke="hsl(80, 100%, 76.2745098039%)" stroke-width="5"    stroke-linecap="round" stroke-linejoin="round" /><path id="edge-15" class="edgePath" data-edge-id="edge-15" d="M 468.880,267.765 L 586.796,439.898" fill="none" stroke="hsl(270, 100%, 76.2745098039%)" stroke-width="11"    stroke-linecap="round" stroke-linejoin="round" /><path id="edge-16" class="edgePath" data-edge-id="edge-16" d="M 586.796,439.898 L 706.491,371.045" fill="none" stroke="hsl(270, 100%, 76.2745098039%)" stroke-width="8"    stroke-linecap="round" stroke-linejoin="round" /><path id="edge-17" class="edgePath" data-edge-id="edge-17" d="M 586.796,439.898 L 710.319,439.898" fill="none" stroke="hsl(270, 100%, 76.2745098039%)" stroke-width="8"    stroke-linecap="round" stroke-linejoin="round" /><path id="edge-18" class="edgePath" data-edge-id="edge-18" d="M 586.796,439.898 L 725.629,508.750" fill="none" stroke="hsl(270, 100%, 76.2745098039%)" stroke-width="8"    stroke-linecap="round" stroke-linejoin="round" /><path d="M301.37 275.89 v-16.25 q0,-8.80 8.80,-8.80 h75.40 q8.80,0 8.80,8.80 v16.25 q0,8.80 -8.80,8.80 h-75.40 q-8.80,0 -8.80,-8.80 Z" fill="hsl(80, 100%, 76.2745098039%)" stroke="none" stroke-width="0" stroke-linejoin="round" stroke-linecap="round"/><line x1="301.37" y1="283.89" x2="394.37" y2="283.89" stroke="hsl(260, 100%, 86.2745098039%)" stroke-width="3.00" stroke-opacity="0.35"/><text x="347.87" y="271.77" text-anchor="middle" font-family="trebuchet ms,verdana,arial,sans-serif" font-size="16" fill="black"><tspan x="347.87" dy="0.00">Backend</tspan></text><path d="M667.65 379.17 v-16.25 q0,-8.80 8.80,-8.80 h60.09 q8.80,0 8.80,8.80 v16.25 q0,8.80 -8.80,8.80 h-60.09 q-8.80,0 -8.80,-8.80 Z" fill="hsl(270, 100%, 76.2745098039%)" stroke="none" stroke-width="0" stroke-linejoin="round" stroke-linecap="round"/><line x1="667.65" y1="387.17" x2="745.33" y2="387.17" stroke="hsl(90, 100%, 86.2745098039%)" stroke-width="3.00" stroke-opacity="0.35"/><text x="706.49" y="375.04" text-anchor="middle" font-family="trebuchet ms,verdana,arial,sans-serif" font-size="16" fill="#ffffff"><tspan x="706.49" dy="0.00">CI/CD</tspan></text><path d="M811.94 241.46 v-16.25 q0,-8.80 8.80,-8.80 h106.02 q8.80,0 8.80,8.80 v16.25 q0,8.80 -8.80,8.80 h-106.02 q-8.80,0 -8.80,-8.80 Z" fill="hsl(60, 100%, 73.5294117647%)" stroke="none" stroke-width="0" stroke-linejoin="round" stroke-linecap="round"/><line x1="811.94" y1="249.46" x2="935.56" y2="249.46" stroke="hsl(240, 100%, 83.5294117647%)" stroke-width="3.00" stroke-opacity="0.35"/><text x="873.75" y="237.34" text-anchor="middle" font-family="trebuchet ms,verdana,arial,sans-serif" font-size="16" fill="black"><tspan x="873.75" dy="0.00">CSS Modules</tspan></text><path d="M796.63 34.91 v-16.25 q0,-8.80 8.80,-8.80 h98.36 q8.80,0 8.80,8.80 v16.25 q0,8.80 -8.80,8.80 h-98.36 q-8.80,0 -8.80,-8.80 Z" fill="hsl(60, 100%, 73.5294117647%)" stroke="none" stroke-width="0" stroke-linejoin="round" stroke-linecap="round"/><line x1="796.63" y1="42.91" x2="912.60" y2="42.91" stroke="hsl(240, 100%, 83.5294117647%)" stroke-width="3.00" stroke-opacity="0.35"/><text x="854.61" y="30.78" text-anchor="middle" font-family="trebuchet ms,verdana,arial,sans-serif" font-size="16" fill="black"><tspan x="854.61" dy="0.00">Components</tspan></text><path d="M163.27 344.74 v-16.25 q0,-8.80 8.80,-8.80 h83.05 q8.80,0 8.80,8.80 v16.25 q0,8.80 -8.80,8.80 h-83.05 q-8.80,0 -8.80,-8.80 Z" fill="hsl(80, 100%, 76.2745098039%)" stroke="none" stroke-width="0" stroke-linejoin="round" stroke-linecap="round"/><line x1="163.27" y1="352.74" x2="263.92" y2="352.74" stroke="hsl(260, 100%, 86.2745098039%)" stroke-width="3.00" stroke-opacity="0.35"/><text x="213.59" y="340.62" text-anchor="middle" font-family="trebuchet ms,verdana,arial,sans-serif" font-size="16" fill="black"><tspan x="213.59" dy="0.00">Database</tspan></text><path d="M543.39 448.02 v-16.25 q0,-8.80 8.80,-8.80 h69.20 q8.80,0 8.80,8.80 v16.25 q0,8.80 -8.80,8.80 h-69.20 q-8.80,0 -8.80,-8.80 Z" fill="hsl(270, 100%, 76.2745098039%)" stroke="none" stroke-width="0" stroke-linejoin="round" stroke-linecap="round"/><line x1="543.39" y1="456.02" x2="630.20" y2="456.02" stroke="hsl(90, 100%, 86.2745098039%)" stroke-width="3.00" stroke-opacity="0.35"/><text x="586.80" y="443.90" text-anchor="middle" font-family="trebuchet ms,verdana,arial,sans-serif" font-size="16" fill="#ffffff"><tspan x="586.80" dy="0.00">DevOps</tspan></text><path d="M667.65 448.02 v-16.25 q0,-8.80 8.80,-8.80 h67.74 q8.80,0 8.80,8.80 v16.25 q0,8.80 -8.80,8.80 h-67.74 q-8.80,0 -8.80,-8.80 Z" fill="hsl(270, 100%, 76.2745098039%)" stroke="none" stroke-width="0" stroke-linejoin="round" stroke-linecap="round"/><line x1="667.65" y1="456.02" x2="752.99" y2="456.02" stroke="hsl(90, 100%, 86.2745098039%)" stroke-width="3.00" stroke-opacity="0.35"/><text x="710.32" y="443.90" text-anchor="middle" font-family="trebuchet ms,verdana,arial,sans-serif" font-size="16" fill="#ffffff"><tspan x="710.32" dy="0.00">Docker</tspan></text><path d="M40.47 172.61 v-16.25 q0,-8.80 8.80,-8.80 h75.40 q8.80,0 8.80,8.80 v16.25 q0,8.80 -8.80,8.80 h-75.40 q-8.80,0 -8.80,-8.80 Z" fill="hsl(80, 100%, 76.2745098039%)" stroke="none" stroke-width="0" stroke-linejoin="round" stroke-linecap="round"/><line x1="40.47" y1="180.61" x2="133.47" y2="180.61" stroke="hsl(260, 100%, 86.2745098039%)" stroke-width="3.00" stroke-opacity="0.35"/><text x="86.97" y="168.49" text-anchor="middle" font-family="trebuchet ms,verdana,arial,sans-serif" font-size="16" fill="black"><tspan x="86.97" dy="0.00">Express</tspan></text><path d="M543.39 172.61 v-16.25 q0,-8.80 8.80,-8.80 h83.05 q8.80,0 8.80,8.80 v16.25 q0,8.80 -8.80,8.80 h-83.05 q-8.80,0 -8.80,-8.80 Z" fill="hsl(60, 100%, 73.5294117647%)" stroke="none" stroke-width="0" stroke-linejoin="round" stroke-linecap="round"/><line x1="543.39" y1="180.61" x2="644.05" y2="180.61" stroke="hsl(240, 100%, 83.5294117647%)" stroke-width="3.00" stroke-opacity="0.35"/><text x="593.72" y="168.49" text-anchor="middle" font-family="trebuchet ms,verdana,arial,sans-serif" font-size="16" fill="black"><tspan x="593.72" dy="0.00">Frontend</tspan></text><path d="M796.63 103.76 v-16.25 q0,-8.80 8.80,-8.80 h60.09 q8.80,0 8.80,8.80 v16.25 q0,8.80 -8.80,8.80 h-60.09 q-8.80,0 -8.80,-8.80 Z" fill="hsl(60, 100%, 73.5294117647%)" stroke="none" stroke-width="0" stroke-linejoin="round" stroke-linecap="round"/><line x1="796.63" y1="111.76" x2="874.32" y2="111.76" stroke="hsl(240, 100%, 83.5294117647%)" stroke-width="3.00" stroke-opacity="0.35"/><text x="835.48" y="99.63" text-anchor="middle" font-family="trebuchet ms,verdana,arial,sans-serif" font-size="16" fill="black"><tspan x="835.48" dy="0.00">Hooks</tspan></text><path d="M667.65 516.88 v-16.25 q0,-8.80 8.80,-8.80 h98.36 q8.80,0 8.80,8.80 v16.25 q0,8.80 -8.80,8.80 h-98.36 q-8.80,0 -8.80,-8.80 Z" fill="hsl(270, 100%, 76.2745098039%)" stroke="none" stroke-width="0" stroke-linejoin="round" stroke-linecap="round"/><line x1="667.65" y1="524.88" x2="783.61" y2="524.88" stroke="hsl(90, 100%, 86.2745098039%)" stroke-width="3.00" stroke-opacity="0.35"/><text x="725.63" y="512.75" text-anchor="middle" font-family="trebuchet ms,verdana,arial,sans-serif" font-size="16" fill="#ffffff"><tspan x="725.63" dy="0.00">Kubernetes</tspan></text><path d="M17.51 241.47 v-16.25 q0,-8.80 8.80,-8.80 h98.36 q8.80,0 8.80,8.80 v16.25 q0,8.80 -8.80,8.80 h-98.36 q-8.80,0 -8.80,-8.80 Z" fill="hsl(80, 100%, 76.2745098039%)" stroke="none" stroke-width="0" stroke-linejoin="round" stroke-linecap="round"/><line x1="17.51" y1="249.47" x2="133.47" y2="249.47" stroke="hsl(260, 100%, 86.2745098039%)" stroke-width="3.00" stroke-opacity="0.35"/><text x="75.49" y="237.34" text-anchor="middle" font-family="trebuchet ms,verdana,arial,sans-serif" font-size="16" fill="black"><tspan x="75.49" dy="0.00">Middleware</tspan></text><path d="M170.92 207.04 v-16.25 q0,-8.80 8.80,-8.80 h75.40 q8.80,0 8.80,8.80 v16.25 q0,8.80 -8.80,8.80 h-75.40 q-8.80,0 -8.80,-8.80 Z" fill="hsl(80, 100%, 76.2745098039%)" stroke="none" stroke-width="0" stroke-linejoin="round" stroke-linecap="round"/><line x1="170.92" y1="215.04" x2="263.92" y2="215.04" stroke="hsl(260, 100%, 86.2745098039%)" stroke-width="3.00" stroke-opacity="0.35"/><text x="217.42" y="202.91" text-anchor="middle" font-family="trebuchet ms,verdana,arial,sans-serif" font-size="16" fill="black"><tspan x="217.42" dy="0.00">Node.js</tspan></text><path d="M9.85 310.32 v-16.25 q0,-8.80 8.80,-8.80 h98.36 q8.80,0 8.80,8.80 v16.25 q0,8.80 -8.80,8.80 h-98.36 q-8.80,0 -8.80,-8.80 Z" fill="hsl(80, 100%, 76.2745098039%)" stroke="none" stroke-width="0" stroke-linejoin="round" stroke-linecap="round"/><line x1="9.85" y1="318.32" x2="125.82" y2="318.32" stroke="hsl(260, 100%, 86.2745098039%)" stroke-width="3.00" stroke-opacity="0.35"/><text x="67.83" y="306.19" text-anchor="middle" font-family="trebuchet ms,verdana,arial,sans-serif" font-size="16" fill="black"><tspan x="67.83" dy="0.00">PostgreSQL</tspan></text><path d="M681.50 103.76 v-16.25 q0,-8.80 8.80,-8.80 h60.09 q8.80,0 8.80,8.80 v16.25 q0,8.80 -8.80,8.80 h-60.09 q-8.80,0 -8.80,-8.80 Z" fill="hsl(60, 100%, 73.5294117647%)" stroke="none" stroke-width="0" stroke-linejoin="round" stroke-linecap="round"/><line x1="681.50" y1="111.76" x2="759.18" y2="111.76" stroke="hsl(240, 100%, 83.5294117647%)" stroke-width="3.00" stroke-opacity="0.35"/><text x="720.34" y="99.63" text-anchor="middle" font-family="trebuchet ms,verdana,arial,sans-serif" font-size="16" fill="black"><tspan x="720.34" dy="0.00">React</tspan></text><path d="M48.13 379.17 v-16.25 q0,-8.80 8.80,-8.80 h60.09 q8.80,0 8.80,8.80 v16.25 q0,8.80 -8.80,8.80 h-60.09 q-8.80,0 -8.80,-8.80 Z" fill="hsl(80, 100%, 76.2745098039%)" stroke="none" stroke-width="0" stroke-linejoin="round" stroke-linecap="round"/><line x1="48.13" y1="387.17" x2="125.82" y2="387.17" stroke="hsl(260, 100%, 86.2745098039%)" stroke-width="3.00" stroke-opacity="0.35"/><text x="86.97" y="375.04" text-anchor="middle" font-family="trebuchet ms,verdana,arial,sans-serif" font-size="16" fill="black"><tspan x="86.97" dy="0.00">Redis</tspan></text><path d="M796.63 172.61 v-16.25 q0,-8.80 8.80,-8.80 h144.29 q8.80,0 8.80,8.80 v16.25 q0,8.80 -8.80,8.80 h-144.29 q-8.80,0 -8.80,-8.80 Z" fill="hsl(60, 100%, 73.5294117647%)" stroke="none" stroke-width="0" stroke-linejoin="round" stroke-linecap="round"/><line x1="796.63" y1="180.61" x2="958.53" y2="180.61" stroke="hsl(240, 100%, 83.5294117647%)" stroke-width="3.00" stroke-opacity="0.35"/><text x="877.58" y="168.49" text-anchor="middle" font-family="trebuchet ms,verdana,arial,sans-serif" font-size="16" fill="black"><tspan x="877.58" dy="0.00">State Management</tspan></text><path d="M681.50 275.89 v-16.25 q0,-8.80 8.80,-8.80 h75.40 q8.80,0 8.80,8.80 v16.25 q0,8.80 -8.80,8.80 h-75.40 q-8.80,0 -8.80,-8.80 Z" fill="hsl(60, 100%, 73.5294117647%)" stroke="none" stroke-width="0" stroke-linejoin="round" stroke-linecap="round"/><line x1="681.50" y1="283.89" x2="774.49" y2="283.89" stroke="hsl(240, 100%, 83.5294117647%)" stroke-width="3.00" stroke-opacity="0.35"/><text x="727.99" y="271.77" text-anchor="middle" font-family="trebuchet ms,verdana,arial,sans-serif" font-size="16" fill="black"><tspan x="727.99" dy="0.00">Styling</tspan></text><path d="M811.94 310.32 v-16.25 q0,-8.80 8.80,-8.80 h83.05 q8.80,0 8.80,8.80 v16.25 q0,8.80 -8.80,8.80 h-83.05 q-8.80,0 -8.80,-8.80 Z" fill="hsl(60, 100%, 73.5294117647%)" stroke="none" stroke-width="0" stroke-linejoin="round" stroke-linecap="round"/><line x1="811.94" y1="318.32" x2="912.60" y2="318.32" stroke="hsl(240, 100%, 83.5294117647%)" stroke-width="3.00" stroke-opacity="0.35"/><text x="862.27" y="306.19" text-anchor="middle" font-family="trebuchet ms,verdana,arial,sans-serif" font-size="16" fill="black"><tspan x="862.27" dy="0.00">Tailwind</tspan></text><circle cx="468.88" cy="267.77" r="37.06" fill="hsl(240, 100%, 46.2745098039%)" stroke="none" stroke-width="0" stroke-linejoin="round" stroke-linecap="round"/><text x="468.88" y="271.77" text-anchor="middle" font-family="trebuchet ms,verdana,arial,sans-serif" font-size="16" fill="#ffffff"><tspan x="468.88" dy="0.00">Project</tspan></text></svg>