<svg xmlns="http://www.w3.org/2000/svg" width="100%" viewBox="-0.000002861023 -0.000002861023 654.6722 254.17847" style="max-width: 654.672px;"><rect x="-0.000002861023" y="-0.000002861023" width="654.6722" height="254.17847" fill="#FFFFFF"/><defs><marker id="arrow-0" viewBox="0 0 10 10" refX="5" refY="5" markerUnits="userSpaceOnUse" markerWidth="8" markerHeight="8" orient="auto"><path d="M 0 0 L 10 5 L 0 10 z" fill="#2F3B4D" stroke="#2F3B4D" stroke-width="1" stroke-dasharray="1,0"/></marker><marker id="arrow-start-0" viewBox="0 0 10 10" refX="4.5" refY="5" markerUnits="userSpaceOnUse" markerWidth="8" markerHeight="8" orient="auto"><path d="M 0 5 L 10 10 L 10 0 z" fill="#2F3B4D" stroke="#2F3B4D" stroke-width="1" stroke-dasharray="1,0"/></marker><marker id="arrow-1" viewBox="0 0 10 10" refX="5" refY="5" markerUnits="userSpaceOnUse" markerWidth="8" markerHeight="8" orient="auto"><path d="M 0 0 L 10 5 L 0 10 z" fill="hsl(60, 100%, 73.5294117647%)" stroke="hsl(60, 100%, 73.5294117647%)" stroke-width="1" stroke-dasharray="1,0"/></marker><marker id="arrow-start-1" viewBox="0 0 10 10" refX="4.5" refY="5" markerUnits="userSpaceOnUse" markerWidth="8" markerHeight="8" orient="auto"><path d="M 0 5 L 10 10 L 10 0 z" fill="hsl(60, 100%, 73.5294117647%)" stroke="hsl(60, 100%, 73.5294117647%)" stroke-width="1" stroke-dasharray="1,0"/></marker><marker id="arrow-2" viewBox="0 0 10 10" refX="5" refY="5" markerUnits="userSpaceOnUse" markerWidth="8" markerHeight="8" orient="auto"><path d="M 0 0 L 10 5 L 0 10 z" fill="hsl(80, 100%, 76.2745098039%)" stroke="hsl(80, 100%, 76.2745098039%)" stroke-width="1" stroke-dasharray="1,0"/></marker><marker id="arrow-start-2" viewBox="0 0 10 10" refX="4.5" refY="5" markerUnits="userSpaceOnUse" markerWidth="8" markerHeight="8" orient="auto"><path d="M 0 5 L 10 10 L 10 0 z" fill="hsl(80, 100%, 76.2745098039%)" stroke="hsl(80, 100%, 76.2745098039%)" stroke-width="1" stroke-dasharray="1,0"/></marker><marker id="arrow-3" viewBox="0 0 10 10" refX="5" refY="5" markerUnits="userSpaceOnUse" markerWidth="8" markerHeight="8" orient="auto"><path d="M 0 0 L 10 5 L 0 10 z" fill="hsl(270, 100%, 76.2745098039%)" stroke="hsl(270, 100%, 76.2745098039%)" stroke-width="1" stroke-dasharray="1,0"/></marker><marker id="arrow-start-3" viewBox="0 0 10 10" refX="4.5" refY="5" markerUnits="userSpaceOnUse" markerWidth="8" markerHeight="8" orient="auto"><path d="M 0 5 L 10 10 L 10 0 z" fill="hsl(270, 100%, 76.2745098039%)" stroke="hsl(270, 100%, 76.2745098039%)" stroke-width="1" stroke-dasharray="1,0"/></marker></defs><path id="edge-0" class="edgePath" data-edge-id="edge-0" d="M 349.132,127.089 L 493.754,85.089" fill="none" stroke="hsl(60, 100%, 73.5294117647%)" stroke-width="11"    stroke-linecap="round" stroke-linejoin="round" /><path id="edge-1" class="edgePath" data-edge-id="edge-1" d="M 493.754,85.089 L 611.312,31.853" fill="none" stroke="hsl(60, 100%, 73.5294117647%)" stroke-width="8"    stroke-linecap="round" stroke-linejoin="round" /><path id="edge-2" class="edgePath" data-edge-id="edge-2" d="M 493.754,85.089 L 611.583,127.089" fill="none" stroke="hsl(60, 100%, 73.5294117647%)" stroke-width="8"    stroke-linecap="round" stroke-linejoin="round" /><path id="edge-3" class="edgePath" data-edge-id="edge-3" d="M 349.132,127.089 L 199.804,127.089" fill="none" stroke="hsl(80, 100%, 76.2745098039%)" stroke-width="11"    stroke-linecap="round" stroke-linejoin="round" /><path id="edge-4" class="edgePath" data-edge-id="edge-4" d="M 199.804,127.089 L 60.179,127.089" fill="none" stroke="hsl(80, 100%, 76.2745098039%)" stroke-width="8"    stroke-linecap="round" stroke-linejoin="round" /><path id="edge-5" class="edgePath" data-edge-id="edge-5" d="M 349.132,127.089 L 498.754,222.325" fill="none" stroke="hsl(270, 100%, 76.2745098039%)" stroke-width="11"    stroke-linecap="round" stroke-linejoin="round" /><path d="M9.85 135.22 v-16.25 q0,-8.80 8.80,-8.80 h83.05 q8.80,0 8.80,8.80 v16.25 q0,8.80 -8.80,8.80 h-83.05 q-8.80,0 -8.80,-8.80 Z" fill="hsl(80, 100%, 76.2745098039%)" stroke="none" stroke-width="0" stroke-linejoin="round" stroke-linecap="round"/><line x1="9.85" y1="143.22" x2="110.51" y2="143.22" stroke="hsl(260, 100%, 86.2745098039%)" stroke-width="3.00" stroke-opacity="0.35"/><text x="60.18" y="131.09" text-anchor="middle" font-family="trebuchet ms,verdana,arial,sans-serif" font-size="16" fill="black"><tspan x="60.18" dy="0.00">))Bang((</tspan></text><path d="M153.31 135.22 v-16.25 q0,-8.80 8.80,-8.80 h75.40 q8.80,0 8.80,8.80 v16.25 q0,8.80 -8.80,8.80 h-75.40 q-8.80,0 -8.80,-8.80 Z" fill="hsl(80, 100%, 76.2745098039%)" stroke="none" stroke-width="0" stroke-linejoin="round" stroke-linecap="round"/><line x1="153.31" y1="143.22" x2="246.30" y2="143.22" stroke="hsl(260, 100%, 86.2745098039%)" stroke-width="3.00" stroke-opacity="0.35"/><text x="199.80" y="131.09" text-anchor="middle" font-family="trebuchet ms,verdana,arial,sans-serif" font-size="16" fill="black"><tspan x="199.80" dy="0.00">)Cloud(</tspan></text><circle cx="611.58" cy="127.09" r="33.24" fill="hsl(60, 100%, 73.5294117647%)" stroke="none" stroke-width="0" stroke-linejoin="round" stroke-linecap="round"/><text x="611.58" y="131.09" text-anchor="middle" font-family="trebuchet ms,verdana,arial,sans-serif" font-size="16" fill="black"><tspan x="611.58" dy="0.00">Circle</tspan></text><polygon points="475.36,200.33 522.15,200.33 545.55,222.33 522.15,244.33 475.36,244.33 451.96,222.33" fill="hsl(270, 100%, 76.2745098039%)" stroke="none" stroke-width="0" stroke-linejoin="round" stroke-linecap="round"/><text x="498.75" y="226.33" text-anchor="middle" font-family="trebuchet ms,verdana,arial,sans-serif" font-size="16" fill="#ffffff"><tspan x="498.75" dy="0.00">Hexagon</tspan></text><rect x="451.96" y="58.09" width="83.59" height="54.00" rx="10" ry="10" fill="hsl(60, 100%, 73.5294117647%)" stroke="none" stroke-width="0" stroke-linejoin="round" stroke-linecap="round"/><text x="493.75" y="89.09" text-anchor="middle" font-family="trebuchet ms,verdana,arial,sans-serif" font-size="16" fill="black"><tspan x="493.75" dy="0.00">Rounded</tspan></text><rect x="578.35" y="9.85" width="65.93" height="44.00" rx="3" ry="3" fill="hsl(60, 100%, 73.5294117647%)" stroke="none" stroke-width="0" stroke-linejoin="round" stroke-linecap="round"/><text x="611.31" y="35.85" text-anchor="middle" font-family="trebuchet ms,verdana,arial,sans-serif" font-size="16" fill="black"><tspan x="611.31" dy="0.00">Square</tspan></text><circle cx="349.13" cy="127.09" r="60.03" fill="hsl(240, 100%, 46.2745098039%)" stroke="none" stroke-width="0" stroke-linejoin="round" stroke-linecap="round"/><text x="349.13" y="131.09" text-anchor="middle" font-family="trebuchet ms,verdana,arial,sans-serif" font-size="16" fill="#ffffff"><tspan x="349.13" dy="0.00">Central Topic</tspan></text></svg>