<svg xmlns="http://www.w3.org/2000/svg" width="100%" viewBox="-0.000002861023 -0.0000009536743 591.7878 76.088005" style="max-width: 591.788px;"><rect x="-0.000002861023" y="-0.0000009536743" width="591.7878" height="76.088005" fill="#FFFFFF"/><defs><marker id="arrow-0" viewBox="0 0 10 10" refX="5" refY="5" markerUnits="userSpaceOnUse" markerWidth="8" markerHeight="8" orient="auto"><path d="M 0 0 L 10 5 L 0 10 z" fill="#2F3B4D" stroke="#2F3B4D" stroke-width="1" stroke-dasharray="1,0"/></marker><marker id="arrow-start-0" viewBox="0 0 10 10" refX="4.5" refY="5" markerUnits="userSpaceOnUse" markerWidth="8" markerHeight="8" orient="auto"><path d="M 0 5 L 10 10 L 10 0 z" fill="#2F3B4D" stroke="#2F3B4D" stroke-width="1" stroke-dasharray="1,0"/></marker><marker id="arrow-1" viewBox="0 0 10 10" refX="5" refY="5" markerUnits="userSpaceOnUse" markerWidth="8" markerHeight="8" orient="auto"><path d="M 0 0 L 10 5 L 0 10 z" fill="hsl(60, 100%, 73.5294117647%)" stroke="hsl(60, 100%, 73.5294117647%)" stroke-width="1" stroke-dasharray="1,0"/></marker><marker id="arrow-start-1" viewBox="0 0 10 10" refX="4.5" refY="5" markerUnits="userSpaceOnUse" markerWidth="8" markerHeight="8" orient="auto"><path d="M 0 5 L 10 10 L 10 0 z" fill="hsl(60, 100%, 73.5294117647%)" stroke="hsl(60, 100%, 73.5294117647%)" stroke-width="1" stroke-dasharray="1,0"/></marker><marker id="arrow-2" viewBox="0 0 10 10" refX="5" refY="5" markerUnits="userSpaceOnUse" markerWidth="8" markerHeight="8" orient="auto"><path d="M 0 0 L 10 5 L 0 10 z" fill="hsl(80, 100%, 76.2745098039%)" stroke="hsl(80, 100%, 76.2745098039%)" stroke-width="1" stroke-dasharray="1,0"/></marker><marker id="arrow-start-2" viewBox="0 0 10 10" refX="4.5" refY="5" markerUnits="userSpaceOnUse" markerWidth="8" markerHeight="8" orient="auto"><path d="M 0 5 L 10 10 L 10 0 z" fill="hsl(80, 100%, 76.2745098039%)" stroke="hsl(80, 100%, 76.2745098039%)" stroke-width="1" stroke-dasharray="1,0"/></marker></defs><path id="edge-0" class="edgePath" data-edge-id="edge-0" d="M 387.150,38.044 L 525.388,38.044" fill="none" stroke="hsl(60, 100%, 73.5294117647%)" stroke-width="11"    stroke-linecap="round" stroke-linejoin="round" /><path id="edge-1" class="edgePath" data-edge-id="edge-1" d="M 387.150,38.044 L 248.912,38.044" fill="none" stroke="hsl(80, 100%, 76.2745098039%)" stroke-width="11"    stroke-linecap="round" stroke-linejoin="round" /><path id="edge-2" class="edgePath" data-edge-id="edge-2" d="M 248.912,38.044 L 74.359,38.044" fill="none" stroke="hsl(80, 100%, 76.2745098039%)" stroke-width="8"    stroke-linecap="round" stroke-linejoin="round" /><path d="M468.84 49.97 v-23.85 q0,-5.00 5.00,-5.00 h103.09 q5.00,0 5.00,5.00 v23.85 q0,5.00 -5.00,5.00 h-103.09 q-5.00,0 -5.00,-5.00 Z" fill="hsl(60, 100%, 73.5294117647%)" stroke="none" stroke-width="0" stroke-linejoin="round" stroke-linecap="round"/><line x1="468.84" y1="54.17" x2="581.93" y2="54.17" stroke="hsl(240, 100%, 83.5294117647%)" stroke-width="3.00" stroke-opacity="0.35"/><text x="525.39" y="42.04" text-anchor="middle" font-family="trebuchet ms,verdana,arial,Noto Color Emoji,Apple Color Emoji,Segoe UI Emoji,sans-serif" font-size="16" fill="black"><tspan x="525.39" dy="0.00">Child A</tspan></text><path d="M192.36 49.97 v-23.85 q0,-5.00 5.00,-5.00 h103.09 q5.00,0 5.00,5.00 v23.85 q0,5.00 -5.00,5.00 h-103.09 q-5.00,0 -5.00,-5.00 Z" fill="hsl(80, 100%, 76.2745098039%)" stroke="none" stroke-width="0" stroke-linejoin="round" stroke-linecap="round"/><line x1="192.36" y1="54.17" x2="305.46" y2="54.17" stroke="hsl(260, 100%, 86.2745098039%)" stroke-width="3.00" stroke-opacity="0.35"/><text x="248.91" y="42.04" text-anchor="middle" font-family="trebuchet ms,verdana,arial,Noto Color Emoji,Apple Color Emoji,Segoe UI Emoji,sans-serif" font-size="16" fill="black"><tspan x="248.91" dy="0.00">Child B</tspan></text><path d="M9.85 49.97 v-23.85 q0,-5.00 5.00,-5.00 h119.01 q5.00,0 5.00,5.00 v23.85 q0,5.00 -5.00,5.00 h-119.01 q-5.00,0 -5.00,-5.00 Z" fill="hsl(80, 100%, 76.2745098039%)" stroke="none" stroke-width="0" stroke-linejoin="round" stroke-linecap="round"/><line x1="9.85" y1="54.17" x2="138.86" y2="54.17" stroke="hsl(260, 100%, 86.2745098039%)" stroke-width="3.00" stroke-opacity="0.35"/><text x="74.36" y="42.04" text-anchor="middle" font-family="trebuchet ms,verdana,arial,Noto Color Emoji,Apple Color Emoji,Segoe UI Emoji,sans-serif" font-size="16" fill="black"><tspan x="74.36" dy="0.00">Grandchild</tspan></text><circle cx="387.15" cy="38.04" r="28.19" fill="hsl(240, 100%, 46.2745098039%)" stroke="none" stroke-width="0" stroke-linejoin="round" stroke-linecap="round"/><text x="387.15" y="42.04" text-anchor="middle" font-family="trebuchet ms,verdana,arial,Noto Color Emoji,Apple Color Emoji,Segoe UI Emoji,sans-serif" font-size="16" fill="#ffffff"><tspan x="387.15" dy="0.00">Root</tspan></text></svg>