<svg xmlns="http://www.w3.org/2000/svg" width="100%" viewBox="0 0 450.2017 360" style="max-width: 450.202px;"><rect x="0" y="0" width="450.2017" height="360" fill="#FFFFFF"/><defs><marker id="arrow-0" viewBox="0 0 10 10" refX="5" refY="5" markerUnits="userSpaceOnUse" markerWidth="8" markerHeight="8" orient="auto"><path d="M 0 0 L 10 5 L 0 10 z" fill="#2F3B4D" stroke="#2F3B4D" stroke-width="1" stroke-dasharray="1,0"/></marker><marker id="arrow-start-0" viewBox="0 0 10 10" refX="4.5" refY="5" markerUnits="userSpaceOnUse" markerWidth="8" markerHeight="8" orient="auto"><path d="M 0 5 L 10 10 L 10 0 z" fill="#2F3B4D" stroke="#2F3B4D" stroke-width="1" stroke-dasharray="1,0"/></marker></defs><path d="M 180.00 180.00 L 332.00 180.00 A 152.00 152.00 0 1 1 104.00 48.36 Z" fill="#ECECFF" stroke="#FFFFFF" stroke-width="2.000" opacity="0.700"/><path d="M 180.00 180.00 L 104.00 48.36 A 152.00 152.00 0 0 1 332.00 180.00 Z" fill="#FFFFDE" stroke="#FFFFFF" stroke-width="2.000" opacity="0.700"/><circle cx="180.00" cy="180.00" r="153.00" fill="none" stroke="#000000" stroke-width="2.000"/><text x="123.00" y="278.73" text-anchor="middle" dominant-baseline="middle" font-family="trebuchet ms,verdana,arial,sans-serif" font-size="17" fill="#333">67%</text><text x="237.00" y="81.27" text-anchor="middle" dominant-baseline="middle" font-family="trebuchet ms,verdana,arial,sans-serif" font-size="17" fill="#333">33%</text><rect x="348.80" y="158.75" width="14.00" height="14.00" fill="#ECECFF" stroke="#ECECFF" stroke-width="2.000"/><text x="365.80" y="165.75" text-anchor="start" font-family="trebuchet ms,verdana,arial,sans-serif" font-size="17" fill="#333"><tspan x="365.80" dy="0.00">Dogs [10]</tspan></text><rect x="348.80" y="180.00" width="14.00" height="14.00" fill="#FFFFDE" stroke="#FFFFDE" stroke-width="2.000"/><text x="365.80" y="187.00" text-anchor="start" font-family="trebuchet ms,verdana,arial,sans-serif" font-size="17" fill="#333"><tspan x="365.80" dy="0.00">Cats [5]</tspan></text><text x="180.00" y="25.00" text-anchor="middle" font-family="trebuchet ms,verdana,arial,sans-serif" font-size="25" fill="#333"><tspan x="180.00" dy="0.00">Pets</tspan></text></svg>