<svg xmlns="http://www.w3.org/2000/svg" width="100%" viewBox="0 0 474.60223 360" style="max-width: 474.602px;"><rect x="0" y="0" width="474.60223" height="360" fill="#FFFFFF"/><defs><marker id="arrow-0" viewBox="0 0 10 10" refX="5" refY="5" markerUnits="userSpaceOnUse" markerWidth="8" markerHeight="8" orient="auto"><path d="M 0 0 L 10 5 L 0 10 z" fill="#2F3B4D" stroke="#2F3B4D" stroke-width="1" stroke-dasharray="1,0"/></marker><marker id="arrow-start-0" viewBox="0 0 10 10" refX="4.5" refY="5" markerUnits="userSpaceOnUse" markerWidth="8" markerHeight="8" orient="auto"><path d="M 0 5 L 10 10 L 10 0 z" fill="#2F3B4D" stroke="#2F3B4D" stroke-width="1" stroke-dasharray="1,0"/></marker></defs><path d="M 180.00 180.00 L 332.00 180.00 A 152.00 152.00 0 0 1 35.44 226.97 Z" fill="#ECECFF" stroke="#FFFFFF" stroke-width="2.000" opacity="0.700"/><path d="M 180.00 180.00 L 35.44 226.97 A 152.00 152.00 0 0 1 133.03 35.44 Z" fill="#FFFFDE" stroke="#FFFFFF" stroke-width="2.000" opacity="0.700"/><path d="M 180.00 180.00 L 133.03 35.44 A 152.00 152.00 0 0 1 302.97 90.66 Z" fill="#ECECFF" stroke="#FFFFFF" stroke-width="2.000" opacity="0.700"/><path d="M 180.00 180.00 L 302.97 90.66 A 152.00 152.00 0 0 1 332.00 180.00 Z" fill="hsl(240.0000000000, 99.9999237061%, 86.2745056152%)" stroke="#FFFFFF" stroke-width="2.000" opacity="0.700"/><circle cx="180.00" cy="180.00" r="153.00" fill="none" stroke="#000000" stroke-width="2.000"/><text x="197.83" y="292.60" text-anchor="middle" dominant-baseline="middle" font-family="trebuchet ms,verdana,arial,sans-serif" font-size="17" fill="#333">45%</text><text x="78.43" y="128.25" text-anchor="middle" dominant-baseline="middle" font-family="trebuchet ms,verdana,arial,sans-serif" font-size="17" fill="#333">25%</text><text x="215.23" y="71.58" text-anchor="middle" dominant-baseline="middle" font-family="trebuchet ms,verdana,arial,sans-serif" font-size="17" fill="#333">20%</text><text x="288.42" y="144.77" text-anchor="middle" dominant-baseline="middle" font-family="trebuchet ms,verdana,arial,sans-serif" font-size="17" fill="#333">10%</text><rect x="348.80" y="137.50" width="14.00" height="14.00" fill="#ECECFF" stroke="#ECECFF" stroke-width="2.000"/><text x="365.80" y="144.50" text-anchor="start" font-family="trebuchet ms,verdana,arial,sans-serif" font-size="17" fill="#333"><tspan x="365.80" dy="0.00">Web [45]</tspan></text><rect x="348.80" y="158.75" width="14.00" height="14.00" fill="#FFFFDE" stroke="#FFFFDE" stroke-width="2.000"/><text x="365.80" y="165.75" text-anchor="start" font-family="trebuchet ms,verdana,arial,sans-serif" font-size="17" fill="#333"><tspan x="365.80" dy="0.00">iOS [25]</tspan></text><rect x="348.80" y="180.00" width="14.00" height="14.00" fill="#ECECFF" stroke="#ECECFF" stroke-width="2.000"/><text x="365.80" y="187.00" text-anchor="start" font-family="trebuchet ms,verdana,arial,sans-serif" font-size="17" fill="#333"><tspan x="365.80" dy="0.00">Android [20]</tspan></text><rect x="348.80" y="201.25" width="14.00" height="14.00" fill="hsl(240.0000000000, 99.9999237061%, 86.2745056152%)" stroke="hsl(240.0000000000, 99.9999237061%, 86.2745056152%)" stroke-width="2.000"/><text x="365.80" y="208.25" text-anchor="start" font-family="trebuchet ms,verdana,arial,sans-serif" font-size="17" fill="#333"><tspan x="365.80" dy="0.00">Desktop [10]</tspan></text><text x="180.00" y="25.00" text-anchor="middle" font-family="trebuchet ms,verdana,arial,sans-serif" font-size="25" fill="#333"><tspan x="180.00" dy="0.00">Platforms</tspan></text></svg>