<svg xmlns="http://www.w3.org/2000/svg" width="100%" viewBox="0 0 466.46872 360" style="max-width: 466.469px;"><rect x="0" y="0" width="466.46872" height="360" fill="#FFFFFF"/><defs><marker id="arrow-0" viewBox="0 0 10 10" refX="5" refY="5" markerUnits="userSpaceOnUse" markerWidth="8" markerHeight="8" orient="auto"><path d="M 0 0 L 10 5 L 0 10 z" fill="#2F3B4D" stroke="#2F3B4D" stroke-width="1" stroke-dasharray="1,0"/></marker><marker id="arrow-start-0" viewBox="0 0 10 10" refX="4.5" refY="5" markerUnits="userSpaceOnUse" markerWidth="8" markerHeight="8" orient="auto"><path d="M 0 5 L 10 10 L 10 0 z" fill="#2F3B4D" stroke="#2F3B4D" stroke-width="1" stroke-dasharray="1,0"/></marker></defs><path d="M 180.00 180.00 L 332.00 180.00 A 152.00 152.00 0 1 1 90.66 57.03 Z" fill="#ECECFF" stroke="#FFFFFF" stroke-width="2.000" opacity="0.700"/><path d="M 180.00 180.00 L 90.66 57.03 A 152.00 152.00 0 0 1 261.45 51.66 Z" fill="#FFFFDE" stroke="#FFFFFF" stroke-width="2.000" opacity="0.700"/><path d="M 180.00 180.00 L 261.45 51.66 A 152.00 152.00 0 0 1 297.12 83.11 Z" fill="#ECECFF" stroke="#FFFFFF" stroke-width="2.000" opacity="0.700"/><path d="M 180.00 180.00 L 297.12 83.11 A 152.00 152.00 0 0 1 317.53 115.28 Z" fill="hsl(240.0000000000, 99.9999237061%, 86.2745056152%)" stroke="#FFFFFF" stroke-width="2.000" opacity="0.700"/><path d="M 180.00 180.00 L 317.53 115.28 A 152.00 152.00 0 0 1 329.31 151.52 Z" fill="hsl(60.0000000000, 100.0000000000%, 83.5294189453%)" stroke="#FFFFFF" stroke-width="2.000" opacity="0.700"/><path d="M 180.00 180.00 L 329.31 151.52 A 152.00 152.00 0 0 1 332.00 180.00 Z" fill="hsl(240.0000000000, 99.9999237061%, 86.2745056152%)" stroke="#FFFFFF" stroke-width="2.000" opacity="0.700"/><circle cx="180.00" cy="180.00" r="153.00" fill="none" stroke="#000000" stroke-width="2.000"/><text x="128.25" y="281.57" text-anchor="middle" dominant-baseline="middle" font-family="trebuchet ms,verdana,arial,sans-serif" font-size="17" fill="#333">65%</text><text x="176.42" y="66.06" text-anchor="middle" dominant-baseline="middle" font-family="trebuchet ms,verdana,arial,sans-serif" font-size="17" fill="#333">19%</text><text x="255.39" y="94.49" text-anchor="middle" dominant-baseline="middle" font-family="trebuchet ms,verdana,arial,sans-serif" font-size="17" fill="#333">5%</text><text x="276.25" y="118.92" text-anchor="middle" dominant-baseline="middle" font-family="trebuchet ms,verdana,arial,sans-serif" font-size="17" fill="#333">4%</text><text x="288.42" y="144.77" text-anchor="middle" dominant-baseline="middle" font-family="trebuchet ms,verdana,arial,sans-serif" font-size="17" fill="#333">4%</text><text x="293.49" y="169.27" text-anchor="middle" dominant-baseline="middle" font-family="trebuchet ms,verdana,arial,sans-serif" font-size="17" fill="#333">3%</text><rect x="348.80" y="116.25" width="14.00" height="14.00" fill="#ECECFF" stroke="#ECECFF" stroke-width="2.000"/><text x="365.80" y="123.25" text-anchor="start" font-family="trebuchet ms,verdana,arial,sans-serif" font-size="17" fill="#333"><tspan x="365.80" dy="0.00">Chrome [65]</tspan></text><rect x="348.80" y="137.50" width="14.00" height="14.00" fill="#FFFFDE" stroke="#FFFFDE" stroke-width="2.000"/><text x="365.80" y="144.50" text-anchor="start" font-family="trebuchet ms,verdana,arial,sans-serif" font-size="17" fill="#333"><tspan x="365.80" dy="0.00">Safari [19]</tspan></text><rect x="348.80" y="158.75" width="14.00" height="14.00" fill="hsl(240.0000000000, 99.9999237061%, 86.2745056152%)" stroke="hsl(240.0000000000, 99.9999237061%, 86.2745056152%)" stroke-width="2.000"/><text x="365.80" y="165.75" text-anchor="start" font-family="trebuchet ms,verdana,arial,sans-serif" font-size="17" fill="#333"><tspan x="365.80" dy="0.00">Firefox [4]</tspan></text><rect x="348.80" y="180.00" width="14.00" height="14.00" fill="hsl(60.0000000000, 100.0000000000%, 83.5294189453%)" stroke="hsl(60.0000000000, 100.0000000000%, 83.5294189453%)" stroke-width="2.000"/><text x="365.80" y="187.00" text-anchor="start" font-family="trebuchet ms,verdana,arial,sans-serif" font-size="17" fill="#333"><tspan x="365.80" dy="0.00">Edge [4]</tspan></text><rect x="348.80" y="201.25" width="14.00" height="14.00" fill="hsl(240.0000000000, 99.9999237061%, 86.2745056152%)" stroke="hsl(240.0000000000, 99.9999237061%, 86.2745056152%)" stroke-width="2.000"/><text x="365.80" y="208.25" text-anchor="start" font-family="trebuchet ms,verdana,arial,sans-serif" font-size="17" fill="#333"><tspan x="365.80" dy="0.00">Opera [3]</tspan></text><rect x="348.80" y="222.50" width="14.00" height="14.00" fill="#ECECFF" stroke="#ECECFF" stroke-width="2.000"/><text x="365.80" y="229.50" text-anchor="start" font-family="trebuchet ms,verdana,arial,sans-serif" font-size="17" fill="#333"><tspan x="365.80" dy="0.00">Other [5]</tspan></text><text x="180.00" y="25.00" text-anchor="middle" font-family="trebuchet ms,verdana,arial,sans-serif" font-size="25" fill="#333"><tspan x="180.00" dy="0.00">Browser Market Share</tspan></text></svg>