<svg xmlns="http://www.w3.org/2000/svg" width="610" height="360" viewBox="0 0 610 360"><rect x="0" y="0" width="610" height="360" fill="#FFFFFF"/><defs><marker id="arrow-0" viewBox="0 0 10 10" refX="5" refY="5" markerUnits="userSpaceOnUse" markerWidth="8" markerHeight="8" orient="auto"><path d="M 0 0 L 10 5 L 0 10 z" fill="#2F3B4D" stroke="#2F3B4D" stroke-width="1" stroke-dasharray="1,0"/></marker><marker id="arrow-start-0" viewBox="0 0 10 10" refX="4.5" refY="5" markerUnits="userSpaceOnUse" markerWidth="8" markerHeight="8" orient="auto"><path d="M 0 5 L 10 10 L 10 0 z" fill="#2F3B4D" stroke="#2F3B4D" stroke-width="1" stroke-dasharray="1,0"/></marker><marker id="arrow-1" viewBox="0 0 10 10" refX="5" refY="5" markerUnits="userSpaceOnUse" markerWidth="8" markerHeight="8" orient="auto"><path d="M 0 0 L 10 5 L 0 10 z" fill="#4e79a7" stroke="#4e79a7" stroke-width="1" stroke-dasharray="1,0"/></marker><marker id="arrow-start-1" viewBox="0 0 10 10" refX="4.5" refY="5" markerUnits="userSpaceOnUse" markerWidth="8" markerHeight="8" orient="auto"><path d="M 0 5 L 10 10 L 10 0 z" fill="#4e79a7" stroke="#4e79a7" stroke-width="1" stroke-dasharray="1,0"/></marker><marker id="arrow-2" viewBox="0 0 10 10" refX="5" refY="5" markerUnits="userSpaceOnUse" markerWidth="8" markerHeight="8" orient="auto"><path d="M 0 0 L 10 5 L 0 10 z" fill="#f28e2c" stroke="#f28e2c" stroke-width="1" stroke-dasharray="1,0"/></marker><marker id="arrow-start-2" viewBox="0 0 10 10" refX="4.5" refY="5" markerUnits="userSpaceOnUse" markerWidth="8" markerHeight="8" orient="auto"><path d="M 0 5 L 10 10 L 10 0 z" fill="#f28e2c" stroke="#f28e2c" stroke-width="1" stroke-dasharray="1,0"/></marker><marker id="arrow-3" viewBox="0 0 10 10" refX="5" refY="5" markerUnits="userSpaceOnUse" markerWidth="8" markerHeight="8" orient="auto"><path d="M 0 0 L 10 5 L 0 10 z" fill="#59a14f" stroke="#59a14f" stroke-width="1" stroke-dasharray="1,0"/></marker><marker id="arrow-start-3" viewBox="0 0 10 10" refX="4.5" refY="5" markerUnits="userSpaceOnUse" markerWidth="8" markerHeight="8" orient="auto"><path d="M 0 5 L 10 10 L 10 0 z" fill="#59a14f" stroke="#59a14f" stroke-width="1" stroke-dasharray="1,0"/></marker><marker id="arrow-4" viewBox="0 0 10 10" refX="5" refY="5" markerUnits="userSpaceOnUse" markerWidth="8" markerHeight="8" orient="auto"><path d="M 0 0 L 10 5 L 0 10 z" fill="#e15759" stroke="#e15759" stroke-width="1" stroke-dasharray="1,0"/></marker><marker id="arrow-start-4" viewBox="0 0 10 10" refX="4.5" refY="5" markerUnits="userSpaceOnUse" markerWidth="8" markerHeight="8" orient="auto"><path d="M 0 5 L 10 10 L 10 0 z" fill="#e15759" stroke="#e15759" stroke-width="1" stroke-dasharray="1,0"/></marker><marker id="arrow-5" viewBox="0 0 10 10" refX="5" refY="5" markerUnits="userSpaceOnUse" markerWidth="8" markerHeight="8" orient="auto"><path d="M 0 0 L 10 5 L 0 10 z" fill="#edc949" stroke="#edc949" stroke-width="1" stroke-dasharray="1,0"/></marker><marker id="arrow-start-5" viewBox="0 0 10 10" refX="4.5" refY="5" markerUnits="userSpaceOnUse" markerWidth="8" markerHeight="8" orient="auto"><path d="M 0 5 L 10 10 L 10 0 z" fill="#edc949" stroke="#edc949" stroke-width="1" stroke-dasharray="1,0"/></marker></defs><g class="nodes"><g class="node" id="node-1" transform="translate(0.000,0.000)" x="0.000" y="0.000"><rect height="115.4527" width="10" fill="#4e79a7"/></g><g class="node" id="node-2" transform="translate(200.000,0.000)" x="200.000" y="0.000"><rect height="360" width="10" fill="#f28e2c"/></g><g class="node" id="node-3" transform="translate(400.000,0.000)" x="400.000" y="0.000"><rect height="112.062126" width="10" fill="#e15759"/></g><g class="node" id="node-4" transform="translate(400.000,0.553)" x="400.000" y="0.553"><rect height="24.86423" width="10" fill="#76b7b2"/></g><g class="node" id="node-5" transform="translate(400.000,25.417)" x="400.000" y="25.417"><rect height="259.474" width="10" fill="#59a14f"/></g><g class="node" id="node-6" transform="translate(400.000,284.891)" x="400.000" y="284.891"><rect height="75.109184" width="10" fill="#edc949"/></g><g class="node" id="node-7" transform="translate(600.000,25.417)" x="600.000" y="25.417"><rect height="0.0009256284" width="10" fill="#af7aa1"/></g><g class="node" id="node-8" transform="translate(600.000,0.000)" x="600.000" y="0.000"><rect height="112.062126" width="10" fill="#ff9da7"/></g><g class="node" id="node-9" transform="translate(600.000,284.891)" x="600.000" y="284.891"><rect height="73.42918" width="10" fill="#9c755f"/></g></g><g class="node-labels" font-size="14" fill="#333333"><text x="16.00" y="52.13" dy="0em" text-anchor="start" font-size="14.0"><tspan x="16.00" dy="0em">Agricultural waste</tspan><tspan x="16.00" dy="1.15em">124.73</tspan></text><text x="160.00" y="174.40" dy="0em" text-anchor="end" font-size="14.0"><tspan x="160.00" dy="0em">Bio-conversion</tspan><tspan x="160.00" dy="1.15em">388.93</tspan></text><text x="360.00" y="52.50" dy="0em" text-anchor="end" font-size="14.0"><tspan x="360.00" dy="0em">Liquid</tspan><tspan x="360.00" dy="1.15em">121.07</tspan></text><text x="360.00" y="15.40" dy="0em" text-anchor="end" font-size="14.0"><tspan x="360.00" dy="0em">Losses</tspan><tspan x="360.00" dy="1.15em">26.86</tspan></text><text x="360.00" y="89.60" dy="0em" text-anchor="end" font-size="14.0"><tspan x="360.00" dy="0em">Solid</tspan><tspan x="360.00" dy="1.15em">280.32</tspan></text><text x="360.00" y="126.70" dy="0em" text-anchor="end" font-size="14.0"><tspan x="360.00" dy="0em">Gas</tspan><tspan x="360.00" dy="1.15em">81.14</tspan></text><text x="594.00" y="19.82" dy="0em" text-anchor="end" font-size="14.0"><tspan x="594.00" dy="0em">Over generation / exports</tspan><tspan x="594.00" dy="1.15em">0</tspan></text><text x="594.00" y="56.92" dy="0em" text-anchor="end" font-size="14.0"><tspan x="594.00" dy="0em">Industry</tspan><tspan x="594.00" dy="1.15em">121.07</tspan></text><text x="594.00" y="94.02" dy="0em" text-anchor="end" font-size="14.0"><tspan x="594.00" dy="0em">Heating and cooling</tspan><tspan x="594.00" dy="1.15em">79.33</tspan></text></g><g class="links" fill="none" stroke-opacity="0.5"><g class="link" style="mix-blend-mode: multiply;"><linearGradient id="sankey-grad-0" gradientUnits="userSpaceOnUse" x1="10" x2="200"><stop offset="0%" stop-color="#4e79a7"/><stop offset="100%" stop-color="#f28e2c"/></linearGradient><path d="M10.000,57.726C105.000,57.726,105.000,57.726,200.000,57.726" stroke="url(#sankey-grad-0)" stroke-width="115.4527"/></g><g class="link" style="mix-blend-mode: multiply;"><linearGradient id="sankey-grad-1" gradientUnits="userSpaceOnUse" x1="210" x2="400"><stop offset="0%" stop-color="#f28e2c"/><stop offset="100%" stop-color="#e15759"/></linearGradient><path d="M210.000,0.276C305.000,0.276,305.000,0.276,400.000,0.276" stroke="url(#sankey-grad-1)" stroke-width="0.55260015"/></g><g class="link" style="mix-blend-mode: multiply;"><linearGradient id="sankey-grad-2" gradientUnits="userSpaceOnUse" x1="210" x2="400"><stop offset="0%" stop-color="#f28e2c"/><stop offset="100%" stop-color="#76b7b2"/></linearGradient><path d="M210.000,12.985C305.000,12.985,305.000,12.985,400.000,12.985" stroke="url(#sankey-grad-2)" stroke-width="24.86423"/></g><g class="link" style="mix-blend-mode: multiply;"><linearGradient id="sankey-grad-3" gradientUnits="userSpaceOnUse" x1="210" x2="400"><stop offset="0%" stop-color="#f28e2c"/><stop offset="100%" stop-color="#59a14f"/></linearGradient><path d="M210.000,155.154C305.000,155.154,305.000,155.154,400.000,155.154" stroke="url(#sankey-grad-3)" stroke-width="259.474"/></g><g class="link" style="mix-blend-mode: multiply;"><linearGradient id="sankey-grad-4" gradientUnits="userSpaceOnUse" x1="210" x2="400"><stop offset="0%" stop-color="#f28e2c"/><stop offset="100%" stop-color="#edc949"/></linearGradient><path d="M210.000,322.445C305.000,322.445,305.000,322.445,400.000,322.445" stroke="url(#sankey-grad-4)" stroke-width="75.109184"/></g><g class="link" style="mix-blend-mode: multiply;"><linearGradient id="sankey-grad-5" gradientUnits="userSpaceOnUse" x1="410" x2="600"><stop offset="0%" stop-color="#59a14f"/><stop offset="100%" stop-color="#af7aa1"/></linearGradient><path d="M410.000,25.417C505.000,25.417,505.000,25.417,600.000,25.417" stroke="url(#sankey-grad-5)" stroke-width="0.0009256284"/></g><g class="link" style="mix-blend-mode: multiply;"><linearGradient id="sankey-grad-6" gradientUnits="userSpaceOnUse" x1="410" x2="600"><stop offset="0%" stop-color="#e15759"/><stop offset="100%" stop-color="#ff9da7"/></linearGradient><path d="M410.000,56.031C505.000,56.031,505.000,56.031,600.000,56.031" stroke="url(#sankey-grad-6)" stroke-width="112.062126"/></g><g class="link" style="mix-blend-mode: multiply;"><linearGradient id="sankey-grad-7" gradientUnits="userSpaceOnUse" x1="410" x2="600"><stop offset="0%" stop-color="#edc949"/><stop offset="100%" stop-color="#9c755f"/></linearGradient><path d="M410.000,321.605C505.000,321.605,505.000,321.605,600.000,321.605" stroke="url(#sankey-grad-7)" stroke-width="73.42918"/></g></g></svg>