<svg xmlns="http://www.w3.org/2000/svg" width="750.7228" height="585.4" viewBox="-50 -10 750.7228 585.4"><rect x="-50" y="-10" width="750.7228" height="585.4" fill="#FFFFFF"/><defs><marker id="arrow-0" viewBox="0 0 10 10" refX="5" refY="5" markerUnits="userSpaceOnUse" markerWidth="8" markerHeight="8" orient="auto"><path d="M 0 0 L 10 5 L 0 10 z" fill="#2F3B4D" stroke="#2F3B4D" stroke-width="1" stroke-dasharray="1,0"/></marker><marker id="arrow-start-0" viewBox="0 0 10 10" refX="4.5" refY="5" markerUnits="userSpaceOnUse" markerWidth="8" markerHeight="8" orient="auto"><path d="M 0 5 L 10 10 L 10 0 z" fill="#2F3B4D" stroke="#2F3B4D" stroke-width="1" stroke-dasharray="1,0"/></marker><marker id="arrow-seq-0" viewBox="-1 0 12 10" refX="7.9" refY="5" markerUnits="userSpaceOnUse" markerWidth="12" markerHeight="12" orient="auto-start-reverse"><path d="M -1 0 L 10 5 L 0 10 z" fill="#2F3B4D" stroke="#2F3B4D" stroke-width="1" stroke-dasharray="1,0"/></marker><marker id="arrow-start-seq-0" viewBox="-1 0 12 10" refX="2.1" refY="5" markerUnits="userSpaceOnUse" markerWidth="12" markerHeight="12" orient="auto"><path d="M 11 0 L 0 5 L 11 10 z" fill="#2F3B4D" stroke="#2F3B4D" stroke-width="1" stroke-dasharray="1,0"/></marker></defs><line x1="75.24" y1="65.00" x2="75.24" y2="499.40" stroke="#999999" stroke-width="0.5"/><line x1="275.24" y1="65.00" x2="275.24" y2="499.40" stroke="#999999" stroke-width="0.5"/><line x1="475.24" y1="65.00" x2="475.24" y2="499.40" stroke="#999999" stroke-width="0.5"/><path d="M 0.00 75.00 L 138.00 75.00 L 150.48 87.48 L 150.48 116.60 L 0.00 116.60 Z" fill="#FFF5AD" stroke="#AAAA33" stroke-width="1.1"/><polyline points="138.00,75.00 138.00,87.48 150.48,87.48" fill="none" stroke="#AAAA33" stroke-width="1.0"/><text x="75.24" y="99.80" text-anchor="middle" font-family="trebuchet ms,verdana,arial,Noto Color Emoji,Apple Color Emoji,Segoe UI Emoji,sans-serif" font-size="16" fill="#333333"><tspan x="75.24" dy="0.00">Alice starts</tspan></text><path d="M 50.24 172.60 L 287.76 172.60 L 300.24 185.08 L 300.24 214.20 L 50.24 214.20 Z" fill="#FFF5AD" stroke="#AAAA33" stroke-width="1.1"/><polyline points="287.76,172.60 287.76,185.08 300.24,185.08" fill="none" stroke="#AAAA33" stroke-width="1.0"/><text x="175.24" y="197.40" text-anchor="middle" font-family="trebuchet ms,verdana,arial,Noto Color Emoji,Apple Color Emoji,Segoe UI Emoji,sans-serif" font-size="16" fill="#333333"><tspan x="175.24" dy="0.00">Handshake</tspan></text><path d="M 500.24 292.20 L 638.24 292.20 L 650.72 304.68 L 650.72 333.80 L 500.24 333.80 Z" fill="#FFF5AD" stroke="#AAAA33" stroke-width="1.1"/><polyline points="638.24,292.20 638.24,304.68 650.72,304.68" fill="none" stroke="#AAAA33" stroke-width="1.0"/><text x="575.48" y="317.00" text-anchor="middle" font-family="trebuchet ms,verdana,arial,Noto Color Emoji,Apple Color Emoji,Segoe UI Emoji,sans-serif" font-size="16" fill="#333333"><tspan x="575.48" dy="0.00">Carol thinks</tspan></text><path d="M 50.24 411.80 L 487.44 411.80 L 500.24 424.60 L 500.24 477.40 L 50.24 477.40 Z" fill="#FFF5AD" stroke="#AAAA33" stroke-width="1.1"/><polyline points="487.44,411.80 487.44,424.60 500.24,424.60" fill="none" stroke="#AAAA33" stroke-width="1.0"/><text x="275.24" y="436.60" text-anchor="middle" font-family="trebuchet ms,verdana,arial,Noto Color Emoji,Apple Color Emoji,Segoe UI Emoji,sans-serif" font-size="16" fill="#333333"><tspan x="275.24" dy="0.00">All</tspan><tspan x="275.24" dy="24.00">connected</tspan></text><path id="edge-0" class="edgePath" data-edge-id="edge-0" d="M 75.241,162.600 L 275.241,162.600" fill="none" stroke="#2F3B4D" stroke-width="1.5" marker-end="url(#arrow-seq-0)"   stroke-linecap="round" stroke-linejoin="round" /><rect class="edgeLabel sequenceEdgeLabel" data-edge-id="edge-0" data-label-kind="center" x="125.44" y="131.80" width="99.60" height="28.00" rx="2" ry="2" fill="rgba(248,250,252, 0.92)" fill-opacity="0.00" stroke="#7B88A8" stroke-opacity="0.00" stroke-width="0.8"/><g class="edgeLabel" data-edge-id="edge-0" data-label-kind="center"><text x="175.24" y="149.80" text-anchor="middle" font-family="trebuchet ms,verdana,arial,Noto Color Emoji,Apple Color Emoji,Segoe UI Emoji,sans-serif" font-size="16" fill="#333333"><tspan x="175.24" dy="0.00">Hello Bob</tspan></text></g><path id="edge-1" class="edgePath" data-edge-id="edge-1" d="M 275.241,282.200 L 475.241,282.200" fill="none" stroke="#2F3B4D" stroke-width="1.5" marker-end="url(#arrow-seq-0)"   stroke-linecap="round" stroke-linejoin="round" /><rect class="edgeLabel sequenceEdgeLabel" data-edge-id="edge-1" data-label-kind="center" x="330.92" y="225.00" width="88.64" height="52.00" rx="2" ry="2" fill="rgba(248,250,252, 0.92)" fill-opacity="0.00" stroke="#7B88A8" stroke-opacity="0.00" stroke-width="0.8"/><g class="edgeLabel" data-edge-id="edge-1" data-label-kind="center"><text x="375.24" y="243.00" text-anchor="middle" font-family="trebuchet ms,verdana,arial,Noto Color Emoji,Apple Color Emoji,Segoe UI Emoji,sans-serif" font-size="16" fill="#333333"><tspan x="375.24" dy="0.00">Introduce</tspan><tspan x="375.24" dy="24.00">Alice</tspan></text></g><path id="edge-2" class="edgePath" data-edge-id="edge-2" d="M 475.241,401.800 L 75.241,401.800" fill="none" stroke="#2F3B4D" stroke-width="1.5" marker-end="url(#arrow-seq-0)"  stroke-dasharray="3 3" stroke-linecap="round" stroke-linejoin="round" /><rect class="edgeLabel sequenceEdgeLabel" data-edge-id="edge-2" data-label-kind="center" x="291.34" y="344.60" width="90.64" height="52.00" rx="2" ry="2" fill="rgba(248,250,252, 0.92)" fill-opacity="0.00" stroke="#7B88A8" stroke-opacity="0.00" stroke-width="0.8"/><g class="edgeLabel" data-edge-id="edge-2" data-label-kind="center"><text x="336.66" y="362.60" text-anchor="middle" font-family="trebuchet ms,verdana,arial,Noto Color Emoji,Apple Color Emoji,Segoe UI Emoji,sans-serif" font-size="16" fill="#333333"><tspan x="336.66" dy="0.00">Nice to</tspan><tspan x="336.66" dy="24.00">meet you</tspan></text></g><rect x="0.24" y="0.00" width="150.00" height="65.00" rx="3" ry="3" fill="#EAEAEA" stroke="#666666" stroke-width="1.0"/><text x="75.24" y="36.50" text-anchor="middle" font-family="trebuchet ms,verdana,arial,Noto Color Emoji,Apple Color Emoji,Segoe UI Emoji,sans-serif" font-size="16" fill="#333333"><tspan x="75.24" dy="0.00">Alice</tspan></text><rect x="200.24" y="0.00" width="150.00" height="65.00" rx="3" ry="3" fill="#EAEAEA" stroke="#666666" stroke-width="1.0"/><text x="275.24" y="36.50" text-anchor="middle" font-family="trebuchet ms,verdana,arial,Noto Color Emoji,Apple Color Emoji,Segoe UI Emoji,sans-serif" font-size="16" fill="#333333"><tspan x="275.24" dy="0.00">Bob</tspan></text><rect x="400.24" y="0.00" width="150.00" height="65.00" rx="3" ry="3" fill="#EAEAEA" stroke="#666666" stroke-width="1.0"/><text x="475.24" y="36.50" text-anchor="middle" font-family="trebuchet ms,verdana,arial,Noto Color Emoji,Apple Color Emoji,Segoe UI Emoji,sans-serif" font-size="16" fill="#333333"><tspan x="475.24" dy="0.00">Carol</tspan></text><rect x="0.24" y="499.40" width="150.00" height="65.00" rx="3" ry="3" fill="#EAEAEA" stroke="#666666" stroke-width="1.0"/><text x="75.24" y="535.90" text-anchor="middle" font-family="trebuchet ms,verdana,arial,Noto Color Emoji,Apple Color Emoji,Segoe UI Emoji,sans-serif" font-size="16" fill="#333333"><tspan x="75.24" dy="0.00">Alice</tspan></text><rect x="200.24" y="499.40" width="150.00" height="65.00" rx="3" ry="3" fill="#EAEAEA" stroke="#666666" stroke-width="1.0"/><text x="275.24" y="535.90" text-anchor="middle" font-family="trebuchet ms,verdana,arial,Noto Color Emoji,Apple Color Emoji,Segoe UI Emoji,sans-serif" font-size="16" fill="#333333"><tspan x="275.24" dy="0.00">Bob</tspan></text><rect x="400.24" y="499.40" width="150.00" height="65.00" rx="3" ry="3" fill="#EAEAEA" stroke="#666666" stroke-width="1.0"/><text x="475.24" y="535.90" text-anchor="middle" font-family="trebuchet ms,verdana,arial,Noto Color Emoji,Apple Color Emoji,Segoe UI Emoji,sans-serif" font-size="16" fill="#333333"><tspan x="475.24" dy="0.00">Carol</tspan></text></svg>