<svg xmlns="http://www.w3.org/2000/svg" width="750" height="517.4" viewBox="-50 -10 750 517.4"><rect x="-50" y="-10" width="750" height="517.4" fill="#FFFFFF"/><defs><marker id="arrow-0" viewBox="0 0 10 10" refX="5" refY="5" markerUnits="userSpaceOnUse" markerWidth="8" markerHeight="8" orient="auto"><path d="M 0 0 L 10 5 L 0 10 z" fill="#2F3B4D" stroke="#2F3B4D" stroke-width="1" stroke-dasharray="1,0"/></marker><marker id="arrow-start-0" viewBox="0 0 10 10" refX="4.5" refY="5" markerUnits="userSpaceOnUse" markerWidth="8" markerHeight="8" orient="auto"><path d="M 0 5 L 10 10 L 10 0 z" fill="#2F3B4D" stroke="#2F3B4D" stroke-width="1" stroke-dasharray="1,0"/></marker><marker id="arrow-seq-0" viewBox="-1 0 12 10" refX="7.9" refY="5" markerUnits="userSpaceOnUse" markerWidth="12" markerHeight="12" orient="auto-start-reverse"><path d="M -1 0 L 10 5 L 0 10 z" fill="#2F3B4D" stroke="#2F3B4D" stroke-width="1" stroke-dasharray="1,0"/></marker><marker id="arrow-start-seq-0" viewBox="-1 0 12 10" refX="2.1" refY="5" markerUnits="userSpaceOnUse" markerWidth="12" markerHeight="12" orient="auto"><path d="M 11 0 L 0 5 L 11 10 z" fill="#2F3B4D" stroke="#2F3B4D" stroke-width="1" stroke-dasharray="1,0"/></marker></defs><line x1="75.00" y1="65.00" x2="75.00" y2="431.40" stroke="#999999" stroke-width="0.5"/><line x1="275.00" y1="65.00" x2="275.00" y2="431.40" stroke="#999999" stroke-width="0.5"/><line x1="475.00" y1="65.00" x2="475.00" y2="431.40" stroke="#999999" stroke-width="0.5"/><path d="M 0.00 75.00 L 137.52 75.00 L 150.00 87.48 L 150.00 116.60 L 0.00 116.60 Z" fill="#FFF5AD" stroke="#AAAA33" stroke-width="1.1"/><polyline points="137.52,75.00 137.52,87.48 150.00,87.48" fill="none" stroke="#AAAA33" stroke-width="1.0"/><text x="75.00" y="99.80" text-anchor="middle" font-family="trebuchet ms,verdana,arial,sans-serif" font-size="16" fill="#333333"><tspan x="75.00" dy="0.00">Alice starts</tspan></text><path d="M 50.00 172.60 L 287.52 172.60 L 300.00 185.08 L 300.00 214.20 L 50.00 214.20 Z" fill="#FFF5AD" stroke="#AAAA33" stroke-width="1.1"/><polyline points="287.52,172.60 287.52,185.08 300.00,185.08" fill="none" stroke="#AAAA33" stroke-width="1.0"/><text x="175.00" y="197.40" text-anchor="middle" font-family="trebuchet ms,verdana,arial,sans-serif" font-size="16" fill="#333333"><tspan x="175.00" dy="0.00">Handshake</tspan></text><path d="M 500.00 270.20 L 637.52 270.20 L 650.00 282.68 L 650.00 311.80 L 500.00 311.80 Z" fill="#FFF5AD" stroke="#AAAA33" stroke-width="1.1"/><polyline points="637.52,270.20 637.52,282.68 650.00,282.68" fill="none" stroke="#AAAA33" stroke-width="1.0"/><text x="575.00" y="295.00" text-anchor="middle" font-family="trebuchet ms,verdana,arial,sans-serif" font-size="16" fill="#333333"><tspan x="575.00" dy="0.00">Carol thinks</tspan></text><path d="M 50.00 367.80 L 487.52 367.80 L 500.00 380.28 L 500.00 409.40 L 50.00 409.40 Z" fill="#FFF5AD" stroke="#AAAA33" stroke-width="1.1"/><polyline points="487.52,367.80 487.52,380.28 500.00,380.28" fill="none" stroke="#AAAA33" stroke-width="1.0"/><text x="275.00" y="392.60" text-anchor="middle" font-family="trebuchet ms,verdana,arial,sans-serif" font-size="16" fill="#333333"><tspan x="275.00" dy="0.00">All connected</tspan></text><path id="edge-0" class="edgePath" data-edge-id="edge-0" d="M 75.000,162.600 L 275.000,162.600" fill="none" stroke="#2F3B4D" stroke-width="1.5" marker-end="url(#arrow-seq-0)"   stroke-linecap="round" stroke-linejoin="round" /><rect class="edgeLabel sequenceEdgeLabel" data-edge-id="edge-0" data-label-kind="center" x="136.55" y="131.80" width="76.90" height="28.00" rx="2" ry="2" fill="rgba(248,250,252, 0.92)" fill-opacity="0.00" stroke="#7B88A8" stroke-opacity="0.00" stroke-width="0.8"/><g class="edgeLabel" data-edge-id="edge-0" data-label-kind="center"><text x="175.00" y="149.80" text-anchor="middle" font-family="trebuchet ms,verdana,arial,sans-serif" font-size="16" fill="#333333"><tspan x="175.00" dy="0.00">Hello Bob</tspan></text></g><path id="edge-1" class="edgePath" data-edge-id="edge-1" d="M 275.000,260.200 L 475.000,260.200" fill="none" stroke="#2F3B4D" stroke-width="1.5" marker-end="url(#arrow-seq-0)"   stroke-linecap="round" stroke-linejoin="round" /><rect class="edgeLabel sequenceEdgeLabel" data-edge-id="edge-1" data-label-kind="center" x="313.59" y="229.40" width="122.83" height="28.00" rx="2" ry="2" fill="rgba(248,250,252, 0.92)" fill-opacity="0.00" stroke="#7B88A8" stroke-opacity="0.00" stroke-width="0.8"/><g class="edgeLabel" data-edge-id="edge-1" data-label-kind="center"><text x="375.00" y="247.40" text-anchor="middle" font-family="trebuchet ms,verdana,arial,sans-serif" font-size="16" fill="#333333"><tspan x="375.00" dy="0.00">Introduce Alice</tspan></text></g><path id="edge-2" class="edgePath" data-edge-id="edge-2" d="M 475.000,357.800 L 75.000,357.800" fill="none" stroke="#2F3B4D" stroke-width="1.5" marker-end="url(#arrow-seq-0)"  stroke-dasharray="3 3" stroke-linecap="round" stroke-linejoin="round" /><rect class="edgeLabel sequenceEdgeLabel" data-edge-id="edge-2" data-label-kind="center" x="209.76" y="327.00" width="130.48" height="28.00" rx="2" ry="2" fill="rgba(248,250,252, 0.92)" fill-opacity="0.00" stroke="#7B88A8" stroke-opacity="0.00" stroke-width="0.8"/><g class="edgeLabel" data-edge-id="edge-2" data-label-kind="center"><text x="275.00" y="345.00" text-anchor="middle" font-family="trebuchet ms,verdana,arial,sans-serif" font-size="16" fill="#333333"><tspan x="275.00" dy="0.00">Nice to meet you</tspan></text></g><rect x="0.00" y="0.00" width="150.00" height="65.00" rx="3" ry="3" fill="#EAEAEA" stroke="#666666" stroke-width="1.0"/><text x="75.00" y="36.50" text-anchor="middle" font-family="trebuchet ms,verdana,arial,sans-serif" font-size="16" fill="#333333"><tspan x="75.00" dy="0.00">Alice</tspan></text><rect x="200.00" y="0.00" width="150.00" height="65.00" rx="3" ry="3" fill="#EAEAEA" stroke="#666666" stroke-width="1.0"/><text x="275.00" y="36.50" text-anchor="middle" font-family="trebuchet ms,verdana,arial,sans-serif" font-size="16" fill="#333333"><tspan x="275.00" dy="0.00">Bob</tspan></text><rect x="400.00" y="0.00" width="150.00" height="65.00" rx="3" ry="3" fill="#EAEAEA" stroke="#666666" stroke-width="1.0"/><text x="475.00" y="36.50" text-anchor="middle" font-family="trebuchet ms,verdana,arial,sans-serif" font-size="16" fill="#333333"><tspan x="475.00" dy="0.00">Carol</tspan></text><rect x="0.00" y="431.40" width="150.00" height="65.00" rx="3" ry="3" fill="#EAEAEA" stroke="#666666" stroke-width="1.0"/><text x="75.00" y="467.90" text-anchor="middle" font-family="trebuchet ms,verdana,arial,sans-serif" font-size="16" fill="#333333"><tspan x="75.00" dy="0.00">Alice</tspan></text><rect x="200.00" y="431.40" width="150.00" height="65.00" rx="3" ry="3" fill="#EAEAEA" stroke="#666666" stroke-width="1.0"/><text x="275.00" y="467.90" text-anchor="middle" font-family="trebuchet ms,verdana,arial,sans-serif" font-size="16" fill="#333333"><tspan x="275.00" dy="0.00">Bob</tspan></text><rect x="400.00" y="431.40" width="150.00" height="65.00" rx="3" ry="3" fill="#EAEAEA" stroke="#666666" stroke-width="1.0"/><text x="475.00" y="467.90" text-anchor="middle" font-family="trebuchet ms,verdana,arial,sans-serif" font-size="16" fill="#333333"><tspan x="475.00" dy="0.00">Carol</tspan></text></svg>