<svg xmlns="http://www.w3.org/2000/svg" width="256.44818" height="485.76" viewBox="0 0 256.44818 485.76"><rect x="0" y="0" width="256.44818" height="485.76" fill="#FFFFFF"/><defs><marker id="arrow-0" viewBox="0 0 10 10" refX="5" refY="5" markerUnits="userSpaceOnUse" markerWidth="8" markerHeight="8" orient="auto"><path d="M 0 0 L 10 5 L 0 10 z" fill="#2F3B4D" stroke="#2F3B4D" stroke-width="1" stroke-dasharray="1,0"/></marker><marker id="arrow-start-0" viewBox="0 0 10 10" refX="4.5" refY="5" markerUnits="userSpaceOnUse" markerWidth="8" markerHeight="8" orient="auto"><path d="M 0 5 L 10 10 L 10 0 z" fill="#2F3B4D" stroke="#2F3B4D" stroke-width="1" stroke-dasharray="1,0"/></marker><marker id="arrow-state-0" viewBox="0 0 20 14" refX="19" refY="7" markerUnits="userSpaceOnUse" markerWidth="20" markerHeight="14" orient="auto"><path d="M 19 7 L 9 13 L 14 7 L 9 1 Z" fill="#2F3B4D" stroke="#2F3B4D" stroke-width="1" stroke-dasharray="1,0"/></marker></defs><rect x="17.60" y="47.20" width="205.49" height="36.00" rx="6" ry="6" fill="hsl(240.0000000000, 99.9999237061%, 92.2745056152%)" stroke="none"/><rect x="17.60" y="83.20" width="205.49" height="335.52" fill="hsl(240.0000000000, 87.9999237061%, 100.0000000000%)" stroke="none"/><line x1="17.60" y1="83.20" x2="223.09" y2="83.20" stroke="#7B88A8" stroke-width="1"/><rect x="17.60" y="47.20" width="205.49" height="371.52" rx="6" ry="6" fill="none" stroke="#7B88A8" stroke-width="1"/><text x="27.20" y="68.60" text-anchor="start" font-family="trebuchet ms,verdana,arial,sans-serif" font-size="13.6" fill="#333333" font-weight="600"><tspan x="27.20" dy="0.00">Active</tspan></text><rect x="46.40" y="122.40" width="147.89" height="36.00" rx="6" ry="6" fill="hsl(240.0000000000, 99.9999237061%, 92.2745056152%)" stroke="none"/><rect x="46.40" y="158.40" width="147.89" height="189.68" fill="hsl(240.0000000000, 87.9999237061%, 100.0000000000%)" stroke="none"/><line x1="46.40" y1="158.40" x2="194.29" y2="158.40" stroke="#7B88A8" stroke-width="1"/><rect x="46.40" y="122.40" width="147.89" height="225.68" rx="6" ry="6" fill="none" stroke="#7B88A8" stroke-width="1"/><text x="56.00" y="143.80" text-anchor="start" font-family="trebuchet ms,verdana,arial,sans-serif" font-size="13.6" fill="#333333" font-weight="600"><tspan x="56.00" dy="0.00">Running</tspan></text><path id="edge-0" class="edgePath" data-edge-id="edge-0" d="M 159.851,22.984 L 159.851,28.984 L 120.343,41.200 L 120.343,47.200" fill="none" stroke="#2F3B4D" stroke-width="1" marker-end="url(#arrow-state-0)"   stroke-linecap="round" stroke-linejoin="round" /><path id="edge-1" class="edgePath" data-edge-id="edge-1" d="M 61.384,92.600 L 67.384,92.600 L 113.343,123.400 L 119.343,123.400" fill="none" stroke="#2F3B4D" stroke-width="1" marker-end="url(#arrow-state-0)"   stroke-linecap="round" stroke-linejoin="round" /><path id="edge-2" class="edgePath" data-edge-id="edge-2" d="M 120.343,348.080 L 120.343,354.080 L 103.502,349.680 L 103.502,355.680" fill="none" stroke="#2F3B4D" stroke-width="1" marker-end="url(#arrow-state-0)"   stroke-linecap="round" stroke-linejoin="round" /><rect data-edge-id="edge-2" data-label-kind="center" x="92.66" y="340.08" width="38.53" height="23.60" rx="2" ry="2" fill="rgba(248,250,252, 0.92)" fill-opacity="0.70" stroke="#7B88A8" stroke-opacity="0.25" stroke-width="0.8"/><g class="edgeLabel" data-edge-id="edge-2" data-label-kind="center"><text x="111.92" y="355.28" text-anchor="middle" font-family="trebuchet ms,verdana,arial,sans-serif" font-size="13.6" fill="#333333"><tspan x="111.92" dy="0.00">pause</tspan></text></g><path id="edge-3" class="edgePath" data-edge-id="edge-3" d="M 128.604,379.200 L 134.604,379.200 L 216.686,379.200 L 216.686,123.400 L 127.343,123.400 L 121.343,123.400" fill="none" stroke="#2F3B4D" stroke-width="1" marker-end="url(#arrow-state-0)"   stroke-linecap="round" stroke-linejoin="round" /><rect data-edge-id="edge-3" data-label-kind="center" x="194.17" y="235.87" width="45.04" height="23.60" rx="2" ry="2" fill="rgba(248,250,252, 0.92)" fill-opacity="0.70" stroke="#7B88A8" stroke-opacity="0.25" stroke-width="0.8"/><g class="edgeLabel" data-edge-id="edge-3" data-label-kind="center"><text x="216.69" y="251.07" text-anchor="middle" font-family="trebuchet ms,verdana,arial,sans-serif" font-size="13.6" fill="#333333"><tspan x="216.69" dy="0.00">resume</tspan></text></g><path id="edge-4" class="edgePath" data-edge-id="edge-4" d="M 71.800,173.384 L 71.800,179.384 L 104.343,191.600 L 104.343,197.600" fill="none" stroke="#2F3B4D" stroke-width="1" marker-end="url(#arrow-state-0)"   stroke-linecap="round" stroke-linejoin="round" /><path id="edge-5" class="edgePath" data-edge-id="edge-5" d="M 120.343,244.640 L 120.343,253.040 L 107.712,276.640 L 107.712,285.040" fill="none" stroke="#2F3B4D" stroke-width="1" marker-end="url(#arrow-state-0)"   stroke-linecap="round" stroke-linejoin="round" /><rect data-edge-id="edge-5" data-label-kind="center" x="94.76" y="253.04" width="38.53" height="23.60" rx="2" ry="2" fill="rgba(248,250,252, 0.92)" fill-opacity="0.70" stroke="#7B88A8" stroke-opacity="0.25" stroke-width="0.8"/><g class="edgeLabel" data-edge-id="edge-5" data-label-kind="center"><text x="114.03" y="268.24" text-anchor="middle" font-family="trebuchet ms,verdana,arial,sans-serif" font-size="13.6" fill="#333333"><tspan x="114.03" dy="0.00">yield</tspan></text></g><path id="edge-6" class="edgePath" data-edge-id="edge-6" d="M 153.024,308.560 L 161.424,308.560 L 161.424,283.440 L 186.686,283.440 L 186.686,221.120 L 178.286,221.120" fill="none" stroke="#2F3B4D" stroke-width="1" marker-end="url(#arrow-state-0)"   stroke-linecap="round" stroke-linejoin="round" /><rect data-edge-id="edge-6" data-label-kind="center" x="170.67" y="265.67" width="32.03" height="23.60" rx="2" ry="2" fill="rgba(248,250,252, 0.92)" fill-opacity="0.70" stroke="#7B88A8" stroke-opacity="0.25" stroke-width="0.8"/><g class="edgeLabel" data-edge-id="edge-6" data-label-kind="center"><text x="186.69" y="280.87" text-anchor="middle" font-family="trebuchet ms,verdana,arial,sans-serif" font-size="13.6" fill="#333333"><tspan x="186.69" dy="0.00">wake</tspan></text></g><path id="edge-7" class="edgePath" data-edge-id="edge-7" d="M 121.343,417.720 L 127.343,417.720 L 192.984,417.720 L 192.984,460.640 L 151.824,460.640 L 157.824,460.640" fill="none" stroke="#2F3B4D" stroke-width="1" marker-end="url(#arrow-state-0)"   stroke-linecap="round" stroke-linejoin="round" /><rect data-edge-id="edge-7" data-label-kind="center" x="176.97" y="415.14" width="32.03" height="23.60" rx="2" ry="2" fill="rgba(248,250,252, 0.92)" fill-opacity="0.70" stroke="#7B88A8" stroke-opacity="0.25" stroke-width="0.8"/><g class="edgeLabel" data-edge-id="edge-7" data-label-kind="center"><text x="192.98" y="430.34" text-anchor="middle" font-family="trebuchet ms,verdana,arial,sans-serif" font-size="13.6" fill="#333333"><tspan x="192.98" dy="0.00">stop</tspan></text></g><path id="edge-8" class="edgePath" data-edge-id="edge-8" d="M 157.824,440.834 L 8.000,440.834 L 8.000,48.200 L 113.343,48.200 L 119.343,48.200" fill="none" stroke="#2F3B4D" stroke-width="1" marker-end="url(#arrow-state-0)"   stroke-linecap="round" stroke-linejoin="round" /><rect data-edge-id="edge-8" data-label-kind="center" x="4.02" y="251.96" width="51.55" height="23.60" rx="2" ry="2" fill="rgba(248,250,252, 0.92)" fill-opacity="0.70" stroke="#7B88A8" stroke-opacity="0.25" stroke-width="0.8"/><g class="edgeLabel" data-edge-id="edge-8" data-label-kind="center"><text x="29.79" y="267.16" text-anchor="middle" font-family="trebuchet ms,verdana,arial,sans-serif" font-size="13.6" fill="#333333"><tspan x="29.79" dy="0.00">restart</tspan></text></g><path id="edge-9" class="edgePath" data-edge-id="edge-9" d="M 157.824,450.737 L 151.824,450.737 L 175.044,436.520 L 169.044,436.520" fill="none" stroke="#2F3B4D" stroke-width="1" marker-end="url(#arrow-state-0)"   stroke-linecap="round" stroke-linejoin="round" /><rect x="46.40" y="355.68" width="82.20" height="47.04" rx="10" ry="10" fill="#ECECFF" stroke="#7B88A8" stroke-width="1" stroke-linejoin="round" stroke-linecap="round"/><text x="87.50" y="382.60" text-anchor="middle" font-family="trebuchet ms,verdana,arial,sans-serif" font-size="13.6" fill="#333333"><tspan x="87.50" dy="0.00">Paused</tspan></text><rect x="62.40" y="197.60" width="115.89" height="47.04" rx="10" ry="10" fill="#ECECFF" stroke="#7B88A8" stroke-width="1" stroke-linejoin="round" stroke-linecap="round"/><text x="120.34" y="224.52" text-anchor="middle" font-family="trebuchet ms,verdana,arial,sans-serif" font-size="13.6" fill="#333333"><tspan x="120.34" dy="0.00">Processing</tspan></text><rect x="157.82" y="430.72" width="90.62" height="47.04" rx="10" ry="10" fill="#ECECFF" stroke="#7B88A8" stroke-width="1" stroke-linejoin="round" stroke-linecap="round"/><text x="203.14" y="457.64" text-anchor="middle" font-family="trebuchet ms,verdana,arial,sans-serif" font-size="13.6" fill="#333333"><tspan x="203.14" dy="0.00">Stopped</tspan></text><rect x="62.40" y="285.04" width="90.62" height="47.04" rx="10" ry="10" fill="#ECECFF" stroke="#7B88A8" stroke-width="1" stroke-linejoin="round" stroke-linecap="round"/><text x="107.71" y="311.96" text-anchor="middle" font-family="trebuchet ms,verdana,arial,sans-serif" font-size="13.6" fill="#333333"><tspan x="107.71" dy="0.00">Waiting</tspan></text><circle cx="161.66" cy="438.32" r="7.60" fill="#7B88A8" stroke="#7B88A8" stroke-width="1" stroke-linejoin="round" stroke-linecap="round"/><circle cx="161.66" cy="438.32" r="3.60" fill="#FFFFFF" stroke="#FFFFFF" stroke-width="1.2" stroke-linejoin="round" stroke-linecap="round"/><circle cx="54.00" cy="90.80" r="7.60" fill="#2F3B4D" stroke="#2F3B4D" stroke-width="1" stroke-linejoin="round" stroke-linecap="round"/><circle cx="70.00" cy="166.00" r="7.60" fill="#2F3B4D" stroke="#2F3B4D" stroke-width="1" stroke-linejoin="round" stroke-linecap="round"/><circle cx="161.65" cy="15.60" r="7.60" fill="#2F3B4D" stroke="#2F3B4D" stroke-width="1" stroke-linejoin="round" stroke-linecap="round"/></svg>