<svg xmlns="http://www.w3.org/2000/svg" width="242.32767" height="465.5626" viewBox="0 0 242.32767 465.5626"><rect x="0" y="0" width="242.32767" height="465.5626" fill="#FFFFFF"/><defs><marker id="arrow-0" viewBox="0 0 10 10" refX="5" refY="5" markerUnits="userSpaceOnUse" markerWidth="8" markerHeight="8" orient="auto"><path d="M 0 0 L 10 5 L 0 10 z" fill="#2F3B4D" stroke="#2F3B4D" stroke-width="1" stroke-dasharray="1,0"/></marker><marker id="arrow-start-0" viewBox="0 0 10 10" refX="4.5" refY="5" markerUnits="userSpaceOnUse" markerWidth="8" markerHeight="8" orient="auto"><path d="M 0 5 L 10 10 L 10 0 z" fill="#2F3B4D" stroke="#2F3B4D" stroke-width="1" stroke-dasharray="1,0"/></marker><marker id="arrow-state-0" viewBox="0 0 20 14" refX="19" refY="7" markerUnits="userSpaceOnUse" markerWidth="20" markerHeight="14" orient="auto"><path d="M 19 7 L 9 13 L 14 7 L 9 1 Z" fill="#2F3B4D" stroke="#2F3B4D" stroke-width="1" stroke-dasharray="1,0"/></marker></defs><path id="edge-0" class="edgePath" data-edge-id="edge-0" d="M 129.339,23.200 L 129.339,29.200 L 129.397,45.438 L 129.397,51.438" fill="none" stroke="#2F3B4D" stroke-width="1" marker-end="url(#arrow-state-0)"   stroke-linecap="round" stroke-linejoin="round" /><path id="edge-1" class="edgePath" data-edge-id="edge-1" d="M 129.397,98.478 L 129.397,108.362 L 125.279,131.326 L 125.279,141.209" fill="none" stroke="#2F3B4D" stroke-width="1" marker-end="url(#arrow-state-0)"   stroke-linecap="round" stroke-linejoin="round" /><rect data-edge-id="edge-1" data-label-kind="center" x="104.82" y="108.04" width="45.04" height="23.60" rx="2" ry="2" fill="rgba(248,250,252, 0.92)" fill-opacity="0.70" stroke="#7B88A8" stroke-opacity="0.25" stroke-width="0.8"/><g class="edgeLabel" data-edge-id="edge-1" data-label-kind="center"><text x="127.34" y="123.24" text-anchor="middle" font-family="trebuchet ms,verdana,arial,sans-serif" font-size="13.6" fill="#333333"><tspan x="127.34" dy="0.00">submit</tspan></text></g><path id="edge-2" class="edgePath" data-edge-id="edge-2" d="M 109.279,188.249 L 109.279,198.133 L 73.522,221.097 L 73.522,230.980" fill="none" stroke="#2F3B4D" stroke-width="1" marker-end="url(#arrow-state-0)"   stroke-linecap="round" stroke-linejoin="round" /><rect data-edge-id="edge-2" data-label-kind="center" x="65.63" y="197.81" width="51.55" height="23.60" rx="2" ry="2" fill="rgba(248,250,252, 0.92)" fill-opacity="0.70" stroke="#7B88A8" stroke-opacity="0.25" stroke-width="0.8"/><g class="edgeLabel" data-edge-id="edge-2" data-label-kind="center"><text x="91.40" y="213.01" text-anchor="middle" font-family="trebuchet ms,verdana,arial,sans-serif" font-size="13.6" fill="#333333"><tspan x="91.40" dy="0.00">approve</tspan></text></g><path id="edge-3" class="edgePath" data-edge-id="edge-3" d="M 141.279,188.249 L 141.279,198.133 L 168.805,221.097 L 168.805,230.980" fill="none" stroke="#2F3B4D" stroke-width="1" marker-end="url(#arrow-state-0)"   stroke-linecap="round" stroke-linejoin="round" /><rect data-edge-id="edge-3" data-label-kind="center" x="132.52" y="197.81" width="45.04" height="23.60" rx="2" ry="2" fill="rgba(248,250,252, 0.92)" fill-opacity="0.70" stroke="#7B88A8" stroke-opacity="0.25" stroke-width="0.8"/><g class="edgeLabel" data-edge-id="edge-3" data-label-kind="center"><text x="155.04" y="213.01" text-anchor="middle" font-family="trebuchet ms,verdana,arial,sans-serif" font-size="13.6" fill="#333333"><tspan x="155.04" dy="0.00">reject</tspan></text></g><path id="edge-4" class="edgePath" data-edge-id="edge-4" d="M 57.522,278.020 L 57.522,287.904 L 65.368,310.868 L 65.368,320.752" fill="none" stroke="#2F3B4D" stroke-width="1" marker-end="url(#arrow-state-0)"   stroke-linecap="round" stroke-linejoin="round" /><rect data-edge-id="edge-4" data-label-kind="center" x="35.67" y="287.59" width="51.55" height="23.60" rx="2" ry="2" fill="rgba(248,250,252, 0.92)" fill-opacity="0.70" stroke="#7B88A8" stroke-opacity="0.25" stroke-width="0.8"/><g class="edgeLabel" data-edge-id="edge-4" data-label-kind="center"><text x="61.44" y="302.79" text-anchor="middle" font-family="trebuchet ms,verdana,arial,sans-serif" font-size="13.6" fill="#333333"><tspan x="61.44" dy="0.00">publish</tspan></text></g><path id="edge-5" class="edgePath" data-edge-id="edge-5" d="M 135.283,254.500 L 125.400,254.500 L 125.640,254.500 L 125.640,205.640 L 61.640,205.640 L 61.640,77.640 L 77.640,77.640 L 77.640,74.958 L 82.622,74.958 L 92.505,74.958" fill="none" stroke="#2F3B4D" stroke-width="1" marker-end="url(#arrow-state-0)"   stroke-linecap="round" stroke-linejoin="round" /><rect data-edge-id="edge-5" data-label-kind="center" x="39.12" y="174.56" width="45.04" height="23.60" rx="2" ry="2" fill="rgba(248,250,252, 0.92)" fill-opacity="0.70" stroke="#7B88A8" stroke-opacity="0.25" stroke-width="0.8"/><g class="edgeLabel" data-edge-id="edge-5" data-label-kind="center"><text x="61.64" y="189.76" text-anchor="middle" font-family="trebuchet ms,verdana,arial,sans-serif" font-size="13.6" fill="#333333"><tspan x="61.64" dy="0.00">revise</tspan></text></g><path id="edge-6" class="edgePath" data-edge-id="edge-6" d="M 81.368,367.792 L 81.368,377.675 L 81.424,400.639 L 81.424,410.523" fill="none" stroke="#2F3B4D" stroke-width="1" marker-end="url(#arrow-state-0)"   stroke-linecap="round" stroke-linejoin="round" /><rect data-edge-id="edge-6" data-label-kind="center" x="55.62" y="377.36" width="51.55" height="23.60" rx="2" ry="2" fill="rgba(248,250,252, 0.92)" fill-opacity="0.70" stroke="#7B88A8" stroke-opacity="0.25" stroke-width="0.8"/><g class="edgeLabel" data-edge-id="edge-6" data-label-kind="center"><text x="81.40" y="392.56" text-anchor="middle" font-family="trebuchet ms,verdana,arial,sans-serif" font-size="13.6" fill="#333333"><tspan x="81.40" dy="0.00">archive</tspan></text></g><path id="edge-7" class="edgePath" data-edge-id="edge-7" d="M 97.368,367.792 L 97.368,373.792 L 97.368,364.033 L 142.196,364.033 L 142.196,422.046 L 142.196,428.046" fill="none" stroke="#2F3B4D" stroke-width="1" marker-end="url(#arrow-state-0)"   stroke-linecap="round" stroke-linejoin="round" /><path id="edge-8" class="edgePath" data-edge-id="edge-8" d="M 130.946,434.043 L 136.946,434.043 L 130.407,435.026 L 136.407,435.026" fill="none" stroke="#2F3B4D" stroke-width="1" marker-end="url(#arrow-state-0)"   stroke-linecap="round" stroke-linejoin="round" /><rect x="8.00" y="230.98" width="99.04" height="47.04" rx="10" ry="10" fill="#ECECFF" stroke="#7B88A8" stroke-width="1" stroke-linejoin="round" stroke-linecap="round"/><text x="57.52" y="257.90" text-anchor="middle" font-family="trebuchet ms,verdana,arial,sans-serif" font-size="13.6" fill="#333333"><tspan x="57.52" dy="0.00">Approved</tspan></text><rect x="31.90" y="410.52" width="99.04" height="47.04" rx="10" ry="10" fill="#ECECFF" stroke="#7B88A8" stroke-width="1" stroke-linejoin="round" stroke-linecap="round"/><text x="81.42" y="437.44" text-anchor="middle" font-family="trebuchet ms,verdana,arial,sans-serif" font-size="13.6" fill="#333333"><tspan x="81.42" dy="0.00">Archived</tspan></text><rect x="92.51" y="51.44" width="73.78" height="47.04" rx="10" ry="10" fill="#ECECFF" stroke="#7B88A8" stroke-width="1" stroke-linejoin="round" stroke-linecap="round"/><text x="129.40" y="78.36" text-anchor="middle" font-family="trebuchet ms,verdana,arial,sans-serif" font-size="13.6" fill="#333333"><tspan x="129.40" dy="0.00">Draft</tspan></text><rect x="27.64" y="320.75" width="107.47" height="47.04" rx="10" ry="10" fill="#ECECFF" stroke="#7B88A8" stroke-width="1" stroke-linejoin="round" stroke-linecap="round"/><text x="81.37" y="347.67" text-anchor="middle" font-family="trebuchet ms,verdana,arial,sans-serif" font-size="13.6" fill="#333333"><tspan x="81.37" dy="0.00">Published</tspan></text><rect x="135.28" y="230.98" width="99.04" height="47.04" rx="10" ry="10" fill="#ECECFF" stroke="#7B88A8" stroke-width="1" stroke-linejoin="round" stroke-linecap="round"/><text x="184.81" y="257.90" text-anchor="middle" font-family="trebuchet ms,verdana,arial,sans-serif" font-size="13.6" fill="#333333"><tspan x="184.81" dy="0.00">Rejected</tspan></text><rect x="84.18" y="141.21" width="82.20" height="47.04" rx="10" ry="10" fill="#ECECFF" stroke="#7B88A8" stroke-width="1" stroke-linejoin="round" stroke-linecap="round"/><text x="125.28" y="168.13" text-anchor="middle" font-family="trebuchet ms,verdana,arial,sans-serif" font-size="13.6" fill="#333333"><tspan x="125.28" dy="0.00">Review</tspan></text><circle cx="144.00" cy="435.43" r="7.60" fill="#7B88A8" stroke="#7B88A8" stroke-width="1" stroke-linejoin="round" stroke-linecap="round"/><circle cx="144.00" cy="435.43" r="3.60" fill="#FFFFFF" stroke="#FFFFFF" stroke-width="1.2" stroke-linejoin="round" stroke-linecap="round"/><circle cx="129.33" cy="15.60" r="7.60" fill="#2F3B4D" stroke="#2F3B4D" stroke-width="1" stroke-linejoin="round" stroke-linecap="round"/></svg>