<svg xmlns="http://www.w3.org/2000/svg" width="285.33777" height="501.6976" viewBox="0 0 285.33777 501.6976"><rect x="0" y="0" width="285.33777" height="501.6976" fill="#FFFFFF"/><defs><marker id="arrow-0" viewBox="0 0 10 10" refX="5" refY="5" markerUnits="userSpaceOnUse" markerWidth="8" markerHeight="8" orient="auto"><path d="M 0 0 L 10 5 L 0 10 z" fill="#2F3B4D" stroke="#2F3B4D" stroke-width="1" stroke-dasharray="1,0"/></marker><marker id="arrow-start-0" viewBox="0 0 10 10" refX="4.5" refY="5" markerUnits="userSpaceOnUse" markerWidth="8" markerHeight="8" orient="auto"><path d="M 0 5 L 10 10 L 10 0 z" fill="#2F3B4D" stroke="#2F3B4D" stroke-width="1" stroke-dasharray="1,0"/></marker><marker id="arrow-state-0" viewBox="0 0 20 14" refX="19" refY="7" markerUnits="userSpaceOnUse" markerWidth="20" markerHeight="14" orient="auto"><path d="M 19 7 L 9 13 L 14 7 L 9 1 Z" fill="#2F3B4D" stroke="#2F3B4D" stroke-width="1" stroke-dasharray="1,0"/></marker></defs><rect x="18.11" y="48.64" width="219.84" height="36.00" rx="6" ry="6" fill="hsl(240.0000000000, 99.9999237061%, 92.2745056152%)" stroke="none"/><rect x="18.11" y="84.64" width="219.84" height="341.29" fill="hsl(240.0000000000, 87.9999237061%, 100.0000000000%)" stroke="none"/><line x1="18.11" y1="84.64" x2="237.95" y2="84.64" stroke="#7B88A8" stroke-width="1"/><rect x="18.11" y="48.64" width="219.84" height="377.29" rx="6" ry="6" fill="none" stroke="#7B88A8" stroke-width="1"/><text x="27.71" y="70.04" text-anchor="start" font-family="trebuchet ms,verdana,arial,Noto Color Emoji,Apple Color Emoji,Segoe UI Emoji,sans-serif" font-size="13.6" fill="#333333" font-weight="600"><tspan x="27.71" dy="0.00">Active</tspan></text><rect x="46.91" y="125.29" width="162.24" height="36.00" rx="6" ry="6" fill="hsl(240.0000000000, 99.9999237061%, 92.2745056152%)" stroke="none"/><rect x="46.91" y="161.29" width="162.24" height="191.92" fill="hsl(240.0000000000, 87.9999237061%, 100.0000000000%)" stroke="none"/><line x1="46.91" y1="161.29" x2="209.15" y2="161.29" stroke="#7B88A8" stroke-width="1"/><rect x="46.91" y="125.29" width="162.24" height="227.92" rx="6" ry="6" fill="none" stroke="#7B88A8" stroke-width="1"/><text x="56.51" y="146.69" text-anchor="start" font-family="trebuchet ms,verdana,arial,Noto Color Emoji,Apple Color Emoji,Segoe UI Emoji,sans-serif" font-size="13.6" fill="#333333" font-weight="600"><tspan x="56.51" dy="0.00">Running</tspan></text><path id="edge-0" class="edgePath" data-edge-id="edge-0" d="M 167.694,17.400 L 161.694,17.400 L 135.025,49.643 L 129.025,49.643" fill="none" stroke="#2F3B4D" stroke-width="1" marker-end="url(#arrow-state-0)"   stroke-linecap="round" stroke-linejoin="round" /><path id="edge-1" class="edgePath" data-edge-id="edge-1" d="M 61.893,94.027 L 67.893,94.027 L 121.025,126.286 L 127.025,126.286" fill="none" stroke="#2F3B4D" stroke-width="1" marker-end="url(#arrow-state-0)"   stroke-linecap="round" stroke-linejoin="round" /><path id="edge-2" class="edgePath" data-edge-id="edge-2" d="M 128.025,353.203 L 128.025,359.203 L 108.313,356.896 L 108.313,362.896" fill="none" stroke="#2F3B4D" stroke-width="1" marker-end="url(#arrow-state-0)"   stroke-linecap="round" stroke-linejoin="round" /><rect data-edge-id="edge-2" data-label-kind="center" x="96.13" y="346.25" width="44.08" height="23.60" rx="2" ry="2" fill="rgba(248,250,252, 0.92)" fill-opacity="0.70" stroke="#7B88A8" stroke-opacity="0.25" stroke-width="0.8"/><g class="edgeLabel" data-edge-id="edge-2" data-label-kind="center"><text x="118.17" y="361.45" text-anchor="middle" font-family="trebuchet ms,verdana,arial,Noto Color Emoji,Apple Color Emoji,Segoe UI Emoji,sans-serif" font-size="13.6" fill="#333333"><tspan x="118.17" dy="0.00">pause</tspan></text></g><path id="edge-3" class="edgePath" data-edge-id="edge-3" d="M 137.721,386.416 L 143.721,386.416 L 232.050,386.416 L 232.050,126.286 L 135.025,126.286 L 129.025,126.286" fill="none" stroke="#2F3B4D" stroke-width="1" marker-end="url(#arrow-state-0)"   stroke-linecap="round" stroke-linejoin="round" /><rect data-edge-id="edge-3" data-label-kind="center" x="206.20" y="240.20" width="51.70" height="23.60" rx="2" ry="2" fill="rgba(248,250,252, 0.92)" fill-opacity="0.70" stroke="#7B88A8" stroke-opacity="0.25" stroke-width="0.8"/><g class="edgeLabel" data-edge-id="edge-3" data-label-kind="center"><text x="232.05" y="255.40" text-anchor="middle" font-family="trebuchet ms,verdana,arial,Noto Color Emoji,Apple Color Emoji,Segoe UI Emoji,sans-serif" font-size="13.6" fill="#333333"><tspan x="232.05" dy="0.00">resume</tspan></text></g><path id="edge-4" class="edgePath" data-edge-id="edge-4" d="M 72.305,176.270 L 72.305,182.270 L 112.025,195.930 L 112.025,201.930" fill="none" stroke="#2F3B4D" stroke-width="1" marker-end="url(#arrow-state-0)"   stroke-linecap="round" stroke-linejoin="round" /><path id="edge-5" class="edgePath" data-edge-id="edge-5" d="M 128.025,248.970 L 128.025,257.875 L 113.241,281.258 L 113.241,290.163" fill="none" stroke="#2F3B4D" stroke-width="1" marker-end="url(#arrow-state-0)"   stroke-linecap="round" stroke-linejoin="round" /><rect data-edge-id="edge-5" data-label-kind="center" x="98.59" y="257.77" width="44.08" height="23.60" rx="2" ry="2" fill="rgba(248,250,252, 0.92)" fill-opacity="0.70" stroke="#7B88A8" stroke-opacity="0.25" stroke-width="0.8"/><g class="edgeLabel" data-edge-id="edge-5" data-label-kind="center"><text x="120.63" y="272.97" text-anchor="middle" font-family="trebuchet ms,verdana,arial,Noto Color Emoji,Apple Color Emoji,Segoe UI Emoji,sans-serif" font-size="13.6" fill="#333333"><tspan x="120.63" dy="0.00">yield</tspan></text></g><path id="edge-6" class="edgePath" data-edge-id="edge-6" d="M 163.577,313.683 L 172.482,313.683 L 172.482,289.285 L 202.050,289.285 L 202.050,225.450 L 193.145,225.450" fill="none" stroke="#2F3B4D" stroke-width="1" marker-end="url(#arrow-state-0)"   stroke-linecap="round" stroke-linejoin="round" /><rect data-edge-id="edge-6" data-label-kind="center" x="183.82" y="272.55" width="36.46" height="23.60" rx="2" ry="2" fill="rgba(248,250,252, 0.92)" fill-opacity="0.70" stroke="#7B88A8" stroke-opacity="0.25" stroke-width="0.8"/><g class="edgeLabel" data-edge-id="edge-6" data-label-kind="center"><text x="202.05" y="287.75" text-anchor="middle" font-family="trebuchet ms,verdana,arial,Noto Color Emoji,Apple Color Emoji,Segoe UI Emoji,sans-serif" font-size="13.6" fill="#333333"><tspan x="202.05" dy="0.00">wake</tspan></text></g><path id="edge-7" class="edgePath" data-edge-id="edge-7" d="M 129.025,424.936 L 135.025,424.936 L 205.457,424.936 L 205.457,468.577 L 162.666,468.577 L 168.666,468.577" fill="none" stroke="#2F3B4D" stroke-width="1" marker-end="url(#arrow-state-0)"   stroke-linecap="round" stroke-linejoin="round" /><rect data-edge-id="edge-7" data-label-kind="center" x="187.22" y="421.14" width="36.46" height="23.60" rx="2" ry="2" fill="rgba(248,250,252, 0.92)" fill-opacity="0.70" stroke="#7B88A8" stroke-opacity="0.25" stroke-width="0.8"/><g class="edgeLabel" data-edge-id="edge-7" data-label-kind="center"><text x="205.46" y="436.34" text-anchor="middle" font-family="trebuchet ms,verdana,arial,Noto Color Emoji,Apple Color Emoji,Segoe UI Emoji,sans-serif" font-size="13.6" fill="#333333"><tspan x="205.46" dy="0.00">stop</tspan></text></g><path id="edge-8" class="edgePath" data-edge-id="edge-8" d="M 168.666,448.771 L 8.000,448.771 L 8.000,49.643 L 121.025,49.643 L 127.025,49.643" fill="none" stroke="#2F3B4D" stroke-width="1" marker-end="url(#arrow-state-0)"   stroke-linecap="round" stroke-linejoin="round" /><rect data-edge-id="edge-8" data-label-kind="center" x="4.70" y="258.23" width="59.31" height="23.60" rx="2" ry="2" fill="rgba(248,250,252, 0.92)" fill-opacity="0.70" stroke="#7B88A8" stroke-opacity="0.25" stroke-width="0.8"/><g class="edgeLabel" data-edge-id="edge-8" data-label-kind="center"><text x="34.36" y="273.43" text-anchor="middle" font-family="trebuchet ms,verdana,arial,Noto Color Emoji,Apple Color Emoji,Segoe UI Emoji,sans-serif" font-size="13.6" fill="#333333"><tspan x="34.36" dy="0.00">restart</tspan></text></g><path id="edge-9" class="edgePath" data-edge-id="edge-9" d="M 168.666,458.674 L 162.666,458.674 L 188.473,444.458 L 182.473,444.458" fill="none" stroke="#2F3B4D" stroke-width="1" marker-end="url(#arrow-state-0)"   stroke-linecap="round" stroke-linejoin="round" /><rect x="46.91" y="362.90" width="90.82" height="47.04" rx="10" ry="10" fill="#ECECFF" stroke="#7B88A8" stroke-width="1" stroke-linejoin="round" stroke-linecap="round"/><text x="92.31" y="389.82" text-anchor="middle" font-family="trebuchet ms,verdana,arial,Noto Color Emoji,Apple Color Emoji,Segoe UI Emoji,sans-serif" font-size="13.6" fill="#333333"><tspan x="92.31" dy="0.00">Paused</tspan></text><rect x="62.91" y="201.93" width="130.24" height="47.04" rx="10" ry="10" fill="#ECECFF" stroke="#7B88A8" stroke-width="1" stroke-linejoin="round" stroke-linecap="round"/><text x="128.03" y="228.85" text-anchor="middle" font-family="trebuchet ms,verdana,arial,Noto Color Emoji,Apple Color Emoji,Segoe UI Emoji,sans-serif" font-size="13.6" fill="#333333"><tspan x="128.03" dy="0.00">Processing</tspan></text><rect x="168.67" y="438.66" width="100.67" height="47.04" rx="10" ry="10" fill="#ECECFF" stroke="#7B88A8" stroke-width="1" stroke-linejoin="round" stroke-linecap="round"/><text x="219.00" y="465.58" text-anchor="middle" font-family="trebuchet ms,verdana,arial,Noto Color Emoji,Apple Color Emoji,Segoe UI Emoji,sans-serif" font-size="13.6" fill="#333333"><tspan x="219.00" dy="0.00">Stopped</tspan></text><rect x="62.91" y="290.16" width="100.67" height="47.04" rx="10" ry="10" fill="#ECECFF" stroke="#7B88A8" stroke-width="1" stroke-linejoin="round" stroke-linecap="round"/><text x="113.24" y="317.08" text-anchor="middle" font-family="trebuchet ms,verdana,arial,Noto Color Emoji,Apple Color Emoji,Segoe UI Emoji,sans-serif" font-size="13.6" fill="#333333"><tspan x="113.24" dy="0.00">Waiting</tspan></text><circle cx="175.09" cy="446.26" r="7.60" fill="#7B88A8" stroke="#7B88A8" stroke-width="1" stroke-linejoin="round" stroke-linecap="round"/><circle cx="175.09" cy="446.26" r="3.60" fill="#FFFFFF" stroke="#FFFFFF" stroke-width="1.2" stroke-linejoin="round" stroke-linecap="round"/><circle cx="54.51" cy="92.24" r="7.60" fill="#2F3B4D" stroke="#2F3B4D" stroke-width="1" stroke-linejoin="round" stroke-linecap="round"/><circle cx="70.51" cy="168.89" r="7.60" fill="#2F3B4D" stroke="#2F3B4D" stroke-width="1" stroke-linejoin="round" stroke-linecap="round"/><circle cx="175.08" cy="15.60" r="7.60" fill="#2F3B4D" stroke="#2F3B4D" stroke-width="1" stroke-linejoin="round" stroke-linecap="round"/></svg>