<svg xmlns="http://www.w3.org/2000/svg" width="190.18906" height="212.47998" viewBox="0 0 190.18906 212.47998"><rect x="0" y="0" width="190.18906" height="212.47998" fill="#FFFFFF"/><defs><marker id="arrow-0" viewBox="0 0 10 10" refX="5" refY="5" markerUnits="userSpaceOnUse" markerWidth="8" markerHeight="8" orient="auto"><path d="M 0 0 L 10 5 L 0 10 z" fill="#2F3B4D" stroke="#2F3B4D" stroke-width="1" stroke-dasharray="1,0"/></marker><marker id="arrow-start-0" viewBox="0 0 10 10" refX="4.5" refY="5" markerUnits="userSpaceOnUse" markerWidth="8" markerHeight="8" orient="auto"><path d="M 0 5 L 10 10 L 10 0 z" fill="#2F3B4D" stroke="#2F3B4D" stroke-width="1" stroke-dasharray="1,0"/></marker><marker id="arrow-state-0" viewBox="0 0 20 14" refX="19" refY="7" markerUnits="userSpaceOnUse" markerWidth="20" markerHeight="14" orient="auto"><path d="M 19 7 L 9 13 L 14 7 L 9 1 Z" fill="#2F3B4D" stroke="#2F3B4D" stroke-width="1" stroke-dasharray="1,0"/></marker></defs><path d="M 104.60 121.76 L 170.19 121.76 L 182.19 133.76 L 182.19 161.76 L 104.60 161.76 Z" fill="#FFF5AD" stroke="#AAAA33" stroke-width="1.1"/><polyline points="170.19,121.76 170.19,133.76 182.19,133.76" fill="none" stroke="#AAAA33" stroke-width="1.0"/><text x="143.40" y="145.16" text-anchor="middle" font-family="trebuchet ms,verdana,arial,sans-serif" font-size="13.6" fill="#333333"><tspan x="143.40" dy="0.00">Running</tspan></text><path id="edge-0" class="edgePath" data-edge-id="edge-0" d="M 49.101,23.200 L 49.101,29.200 L 49.101,41.200 L 49.101,47.200" fill="none" stroke="#2F3B4D" stroke-width="1" marker-end="url(#arrow-state-0)"   stroke-linecap="round" stroke-linejoin="round" /><path id="edge-1" class="edgePath" data-edge-id="edge-1" d="M 49.101,94.240 L 49.101,102.640 L 49.102,109.840 L 49.102,118.240" fill="none" stroke="#2F3B4D" stroke-width="1" marker-end="url(#arrow-state-0)"   stroke-linecap="round" stroke-linejoin="round" /><path id="edge-2" class="edgePath" data-edge-id="edge-2" d="M 49.102,165.280 L 49.102,171.280 L 49.102,183.280 L 49.102,189.280" fill="none" stroke="#2F3B4D" stroke-width="1" marker-end="url(#arrow-state-0)"   stroke-linecap="round" stroke-linejoin="round" /><rect x="8.00" y="118.24" width="82.20" height="47.04" rx="10" ry="10" fill="#ECECFF" stroke="#7B88A8" stroke-width="1" stroke-linejoin="round" stroke-linecap="round"/><text x="49.10" y="145.16" text-anchor="middle" font-family="trebuchet ms,verdana,arial,sans-serif" font-size="13.6" fill="#333333"><tspan x="49.10" dy="0.00">Active</tspan></text><rect x="16.42" y="47.20" width="65.36" height="47.04" rx="10" ry="10" fill="#ECECFF" stroke="#7B88A8" stroke-width="1" stroke-linejoin="round" stroke-linecap="round"/><text x="49.10" y="74.12" text-anchor="middle" font-family="trebuchet ms,verdana,arial,sans-serif" font-size="13.6" fill="#333333"><tspan x="49.10" dy="0.00">Idle</tspan></text><circle cx="49.10" cy="196.88" r="7.60" fill="#7B88A8" stroke="#7B88A8" stroke-width="1" stroke-linejoin="round" stroke-linecap="round"/><circle cx="49.10" cy="196.88" r="3.60" fill="#FFFFFF" stroke="#FFFFFF" stroke-width="1.2" stroke-linejoin="round" stroke-linecap="round"/><circle cx="49.10" cy="15.60" r="7.60" fill="#2F3B4D" stroke="#2F3B4D" stroke-width="1" stroke-linejoin="round" stroke-linecap="round"/></svg>