<svg xmlns="http://www.w3.org/2000/svg" width="180.89897" height="224.01064" viewBox="0 0 180.89897 224.01064"><rect x="0" y="0" width="180.89897" height="224.01064" fill="#FFFFFF"/><defs><marker id="arrow-0" viewBox="0 0 10 10" refX="5" refY="5" markerUnits="userSpaceOnUse" markerWidth="8" markerHeight="8" orient="auto"><path d="M 0 0 L 10 5 L 0 10 z" fill="#2F3B4D" stroke="#2F3B4D" stroke-width="1" stroke-dasharray="1,0"/></marker><marker id="arrow-start-0" viewBox="0 0 10 10" refX="4.5" refY="5" markerUnits="userSpaceOnUse" markerWidth="8" markerHeight="8" orient="auto"><path d="M 0 5 L 10 10 L 10 0 z" fill="#2F3B4D" stroke="#2F3B4D" stroke-width="1" stroke-dasharray="1,0"/></marker><marker id="arrow-state-0" viewBox="0 0 20 14" refX="19" refY="7" markerUnits="userSpaceOnUse" markerWidth="20" markerHeight="14" orient="auto"><path d="M 19 7 L 9 13 L 14 7 L 9 1 Z" fill="#2F3B4D" stroke="#2F3B4D" stroke-width="1" stroke-dasharray="1,0"/></marker></defs><path id="edge-0" class="edgePath" data-edge-id="edge-0" d="M 49.070,23.200 L 49.070,29.200 L 49.098,74.647 L 49.098,80.647" fill="none" stroke="#2F3B4D" stroke-width="1" marker-end="url(#arrow-state-0)"   stroke-linecap="round" stroke-linejoin="round" /><path id="edge-1" class="edgePath" data-edge-id="edge-1" d="M 49.098,127.687 L 49.098,136.649 L 49.102,160.008 L 49.102,168.971" fill="none" stroke="#2F3B4D" stroke-width="1" marker-end="url(#arrow-state-0)"   stroke-linecap="round" stroke-linejoin="round" /><rect data-edge-id="edge-1" data-label-kind="center" x="29.83" y="136.53" width="38.53" height="23.60" rx="2" ry="2" fill="rgba(248,250,252, 0.92)" fill-opacity="0.70" stroke="#7B88A8" stroke-opacity="0.25" stroke-width="0.8"/><g class="edgeLabel" data-edge-id="edge-1" data-label-kind="center"><text x="49.10" y="151.73" text-anchor="middle" font-family="trebuchet ms,verdana,arial,sans-serif" font-size="13.6" fill="#333333"><tspan x="49.10" dy="0.00">start</tspan></text></g><path id="edge-2" class="edgePath" data-edge-id="edge-2" d="M 127.587,55.040 L 127.587,64.002 L 65.102,160.008 L 65.102,168.971" fill="none" stroke="#2F3B4D" stroke-width="1" marker-end="url(#arrow-state-0)"   stroke-linecap="round" stroke-linejoin="round" /><rect x="8.00" y="168.97" width="82.20" height="47.04" rx="10" ry="10" fill="#ECECFF" stroke="#7B88A8" stroke-width="1" stroke-linejoin="round" stroke-linecap="round"/><text x="49.10" y="195.89" text-anchor="middle" font-family="trebuchet ms,verdana,arial,sans-serif" font-size="13.6" fill="#333333"><tspan x="49.10" dy="0.00">Active</tspan></text><rect x="16.42" y="80.65" width="65.36" height="47.04" rx="10" ry="10" fill="#ECECFF" stroke="#7B88A8" stroke-width="1" stroke-linejoin="round" stroke-linecap="round"/><text x="49.10" y="107.57" text-anchor="middle" font-family="trebuchet ms,verdana,arial,sans-serif" font-size="13.6" fill="#333333"><tspan x="49.10" dy="0.00">Idle</tspan></text><rect x="82.27" y="8.00" width="90.62" height="47.04" rx="10" ry="10" fill="#ECECFF" stroke="#7B88A8" stroke-width="1" stroke-linejoin="round" stroke-linecap="round"/><text x="127.59" y="34.92" text-anchor="middle" font-family="trebuchet ms,verdana,arial,sans-serif" font-size="13.6" fill="#333333"><tspan x="127.59" dy="0.00">Waiting</tspan></text><circle cx="49.07" cy="15.60" r="7.60" fill="#2F3B4D" stroke="#2F3B4D" stroke-width="1" stroke-linejoin="round" stroke-linecap="round"/></svg>