<svg xmlns="http://www.w3.org/2000/svg" width="340" height="280" viewBox="0 0 340 280"><rect x="0" y="0" width="340" height="280" fill="#FFFFFF"/><defs><marker id="arrow-0" viewBox="0 0 10 10" refX="5" refY="5" markerUnits="userSpaceOnUse" markerWidth="8" markerHeight="8" orient="auto"><path d="M 0 0 L 10 5 L 0 10 z" fill="#2F3B4D" stroke="#2F3B4D" stroke-width="1" stroke-dasharray="1,0"/></marker><marker id="arrow-start-0" viewBox="0 0 10 10" refX="4.5" refY="5" markerUnits="userSpaceOnUse" markerWidth="8" markerHeight="8" orient="auto"><path d="M 0 5 L 10 10 L 10 0 z" fill="#2F3B4D" stroke="#2F3B4D" stroke-width="1" stroke-dasharray="1,0"/></marker></defs><rect x="0" y="0" width="340.00" height="280.00" fill="#FFFFFF"/><text x="170.00" y="50.00" text-anchor="middle" font-family="trebuchet ms,verdana,arial,sans-serif" font-size="16" fill="#333333"><tspan x="170.00" dy="0.00">History</tspan></text><line x1="30.00" y1="130.00" x2="310.00" y2="130.00" stroke="#7B88A8" stroke-width="3"/><circle cx="90.00" cy="130.00" r="8" fill="#ECECFF" stroke="#7B88A8" stroke-width="2"/><line x1="90.00" y1="138.00" x2="90.00" y2="160.00" stroke="#7B88A8" stroke-width="2" stroke-dasharray="4,2"/><rect x="30.00" y="160.00" width="120.00" height="80.00" rx="5" ry="5" fill="#ECECFF" stroke="#7B88A8" stroke-width="1"/><text x="90.00" y="180.00" text-anchor="middle" font-family="trebuchet ms,verdana,arial,sans-serif" font-size="16.0" font-weight="bold" fill="#333333">2020</text><text x="90.00" y="200.00" text-anchor="middle" font-family="trebuchet ms,verdana,arial,sans-serif" font-size="14.4" fill="#333333">Launch</text><circle cx="250.00" cy="130.00" r="8" fill="#ECECFF" stroke="#7B88A8" stroke-width="2"/><line x1="250.00" y1="138.00" x2="250.00" y2="160.00" stroke="#7B88A8" stroke-width="2" stroke-dasharray="4,2"/><rect x="190.00" y="160.00" width="120.00" height="80.00" rx="5" ry="5" fill="#FFE6CC" stroke="#7B88A8" stroke-width="1"/><text x="250.00" y="180.00" text-anchor="middle" font-family="trebuchet ms,verdana,arial,sans-serif" font-size="16.0" font-weight="bold" fill="#333333">2021</text><text x="250.00" y="200.00" text-anchor="middle" font-family="trebuchet ms,verdana,arial,sans-serif" font-size="14.4" fill="#333333">Growth</text></svg>