<svg xmlns="http://www.w3.org/2000/svg" width="1300" height="280" viewBox="0 0 1300 280"><rect x="0" y="0" width="1300" height="280" fill="#FFFFFF"/><defs><marker id="arrow-0" viewBox="0 0 10 10" refX="5" refY="5" markerUnits="userSpaceOnUse" markerWidth="8" markerHeight="8" orient="auto"><path d="M 0 0 L 10 5 L 0 10 z" fill="#2F3B4D" stroke="#2F3B4D" stroke-width="1" stroke-dasharray="1,0"/></marker><marker id="arrow-start-0" viewBox="0 0 10 10" refX="4.5" refY="5" markerUnits="userSpaceOnUse" markerWidth="8" markerHeight="8" orient="auto"><path d="M 0 5 L 10 10 L 10 0 z" fill="#2F3B4D" stroke="#2F3B4D" stroke-width="1" stroke-dasharray="1,0"/></marker></defs><rect x="0" y="0" width="1300.00" height="280.00" fill="#FFFFFF"/><text x="650.00" y="50.00" text-anchor="middle" font-family="trebuchet ms,verdana,arial,sans-serif" font-size="16" fill="#333333"><tspan x="650.00" dy="0.00">History of Computing</tspan></text><line x1="30.00" y1="130.00" x2="1270.00" y2="130.00" stroke="#7B88A8" stroke-width="3"/><circle cx="90.00" cy="130.00" r="8" fill="#ECECFF" stroke="#7B88A8" stroke-width="2"/><line x1="90.00" y1="138.00" x2="90.00" y2="160.00" stroke="#7B88A8" stroke-width="2" stroke-dasharray="4,2"/><rect x="30.00" y="160.00" width="120.00" height="80.00" rx="5" ry="5" fill="#ECECFF" stroke="#7B88A8" stroke-width="1"/><text x="90.00" y="180.00" text-anchor="middle" font-family="trebuchet ms,verdana,arial,sans-serif" font-size="16.0" font-weight="bold" fill="#333333">1940s</text><text x="90.00" y="200.00" text-anchor="middle" font-family="trebuchet ms,verdana,arial,sans-serif" font-size="14.4" fill="#333333">ENIAC built</text><circle cx="250.00" cy="130.00" r="8" fill="#ECECFF" stroke="#7B88A8" stroke-width="2"/><line x1="250.00" y1="138.00" x2="250.00" y2="160.00" stroke="#7B88A8" stroke-width="2" stroke-dasharray="4,2"/><rect x="190.00" y="160.00" width="120.00" height="80.00" rx="5" ry="5" fill="#FFE6CC" stroke="#7B88A8" stroke-width="1"/><text x="250.00" y="180.00" text-anchor="middle" font-family="trebuchet ms,verdana,arial,sans-serif" font-size="16.0" font-weight="bold" fill="#333333">1950s</text><text x="250.00" y="200.00" text-anchor="middle" font-family="trebuchet ms,verdana,arial,sans-serif" font-size="14.4" fill="#333333">FORTRAN created</text><circle cx="410.00" cy="130.00" r="8" fill="#ECECFF" stroke="#7B88A8" stroke-width="2"/><line x1="410.00" y1="138.00" x2="410.00" y2="160.00" stroke="#7B88A8" stroke-width="2" stroke-dasharray="4,2"/><rect x="350.00" y="160.00" width="120.00" height="80.00" rx="5" ry="5" fill="#D5E8D4" stroke="#7B88A8" stroke-width="1"/><text x="410.00" y="180.00" text-anchor="middle" font-family="trebuchet ms,verdana,arial,sans-serif" font-size="16.0" font-weight="bold" fill="#333333">1970s</text><text x="410.00" y="200.00" text-anchor="middle" font-family="trebuchet ms,verdana,arial,sans-serif" font-size="14.4" fill="#333333">Apple II released</text><circle cx="570.00" cy="130.00" r="8" fill="#ECECFF" stroke="#7B88A8" stroke-width="2"/><line x1="570.00" y1="138.00" x2="570.00" y2="160.00" stroke="#7B88A8" stroke-width="2" stroke-dasharray="4,2"/><rect x="510.00" y="160.00" width="120.00" height="80.00" rx="5" ry="5" fill="#F8CECC" stroke="#7B88A8" stroke-width="1"/><text x="570.00" y="180.00" text-anchor="middle" font-family="trebuchet ms,verdana,arial,sans-serif" font-size="16.0" font-weight="bold" fill="#333333">1980s</text><text x="570.00" y="200.00" text-anchor="middle" font-family="trebuchet ms,verdana,arial,sans-serif" font-size="14.4" fill="#333333">IBM PC launched</text><circle cx="730.00" cy="130.00" r="8" fill="#ECECFF" stroke="#7B88A8" stroke-width="2"/><line x1="730.00" y1="138.00" x2="730.00" y2="160.00" stroke="#7B88A8" stroke-width="2" stroke-dasharray="4,2"/><rect x="670.00" y="160.00" width="120.00" height="80.00" rx="5" ry="5" fill="#FFF2CC" stroke="#7B88A8" stroke-width="1"/><text x="730.00" y="180.00" text-anchor="middle" font-family="trebuchet ms,verdana,arial,sans-serif" font-size="16.0" font-weight="bold" fill="#333333">1990s</text><text x="730.00" y="200.00" text-anchor="middle" font-family="trebuchet ms,verdana,arial,sans-serif" font-size="14.4" fill="#333333">World Wide Web</text><circle cx="890.00" cy="130.00" r="8" fill="#ECECFF" stroke="#7B88A8" stroke-width="2"/><line x1="890.00" y1="138.00" x2="890.00" y2="160.00" stroke="#7B88A8" stroke-width="2" stroke-dasharray="4,2"/><rect x="830.00" y="160.00" width="120.00" height="80.00" rx="5" ry="5" fill="#E1D5E7" stroke="#7B88A8" stroke-width="1"/><text x="890.00" y="180.00" text-anchor="middle" font-family="trebuchet ms,verdana,arial,sans-serif" font-size="16.0" font-weight="bold" fill="#333333">2000s</text><text x="890.00" y="200.00" text-anchor="middle" font-family="trebuchet ms,verdana,arial,sans-serif" font-size="14.4" fill="#333333">Google IPO</text><circle cx="1050.00" cy="130.00" r="8" fill="#ECECFF" stroke="#7B88A8" stroke-width="2"/><line x1="1050.00" y1="138.00" x2="1050.00" y2="160.00" stroke="#7B88A8" stroke-width="2" stroke-dasharray="4,2"/><rect x="990.00" y="160.00" width="120.00" height="80.00" rx="5" ry="5" fill="#ECECFF" stroke="#7B88A8" stroke-width="1"/><text x="1050.00" y="180.00" text-anchor="middle" font-family="trebuchet ms,verdana,arial,sans-serif" font-size="16.0" font-weight="bold" fill="#333333">2010s</text><text x="1050.00" y="200.00" text-anchor="middle" font-family="trebuchet ms,verdana,arial,sans-serif" font-size="14.4" fill="#333333">Cloud computing boom</text><circle cx="1210.00" cy="130.00" r="8" fill="#ECECFF" stroke="#7B88A8" stroke-width="2"/><line x1="1210.00" y1="138.00" x2="1210.00" y2="160.00" stroke="#7B88A8" stroke-width="2" stroke-dasharray="4,2"/><rect x="1150.00" y="160.00" width="120.00" height="80.00" rx="5" ry="5" fill="#FFE6CC" stroke="#7B88A8" stroke-width="1"/><text x="1210.00" y="180.00" text-anchor="middle" font-family="trebuchet ms,verdana,arial,sans-serif" font-size="16.0" font-weight="bold" fill="#333333">2020s</text><text x="1210.00" y="200.00" text-anchor="middle" font-family="trebuchet ms,verdana,arial,sans-serif" font-size="14.4" fill="#333333">GPT revolution</text></svg>