<svg xmlns="http://www.w3.org/2000/svg" width="720" height="480" viewBox="0 0 720 480"><rect x="0" y="0" width="720" height="480" fill="#FFFFFF"/><defs><marker id="arrow-0" viewBox="0 0 10 10" refX="5" refY="5" markerUnits="userSpaceOnUse" markerWidth="8" markerHeight="8" orient="auto"><path d="M 0 0 L 10 5 L 0 10 z" fill="#2F3B4D" stroke="#2F3B4D" stroke-width="1" stroke-dasharray="1,0"/></marker><marker id="arrow-start-0" viewBox="0 0 10 10" refX="4.5" refY="5" markerUnits="userSpaceOnUse" markerWidth="8" markerHeight="8" orient="auto"><path d="M 0 5 L 10 10 L 10 0 z" fill="#2F3B4D" stroke="#2F3B4D" stroke-width="1" stroke-dasharray="1,0"/></marker></defs><rect x="0.00" y="0.00" width="720.00" height="480.00" rx="3" ry="3" fill="#ECECFF" stroke="#7B88A8" stroke-width="1" stroke-linejoin="round" stroke-linecap="round"/><text x="6.00" y="20.00" text-anchor="start" font-family="trebuchet ms,verdana,arial,sans-serif" font-size="16" fill="#333333"><tspan x="6.00" dy="0.00">Revenue</tspan></text><rect x="8.00" y="40.00" width="704.00" height="213.00" rx="3" ry="3" fill="#FFFFDE" stroke="#7B88A8" stroke-width="1" stroke-linejoin="round" stroke-linecap="round"/><text x="14.00" y="60.00" text-anchor="start" font-family="trebuchet ms,verdana,arial,sans-serif" font-size="16" fill="#333333"><tspan x="14.00" dy="0.00">Product Sales</tspan><tspan x="14.00" dy="24.00">450</tspan></text><rect x="8.00" y="256.00" width="704.00" height="142.00" rx="3" ry="3" fill="#FFFFDE" stroke="#7B88A8" stroke-width="1" stroke-linejoin="round" stroke-linecap="round"/><text x="14.00" y="276.00" text-anchor="start" font-family="trebuchet ms,verdana,arial,sans-serif" font-size="16" fill="#333333"><tspan x="14.00" dy="0.00">Services</tspan><tspan x="14.00" dy="24.00">300</tspan></text><rect x="323.44" y="104.00" width="380.56" height="141.00" rx="3" ry="3" fill="#ECECFF" stroke="#7B88A8" stroke-width="1" stroke-linejoin="round" stroke-linecap="round"/><text x="329.44" y="124.00" text-anchor="start" font-family="trebuchet ms,verdana,arial,sans-serif" font-size="16" fill="#333333"><tspan x="329.44" dy="0.00">Software</tspan><tspan x="329.44" dy="24.00">250</tspan></text><rect x="8.00" y="401.00" width="704.00" height="71.00" rx="3" ry="3" fill="#FFFFDE" stroke="#7B88A8" stroke-width="1" stroke-linejoin="round" stroke-linecap="round"/><text x="14.00" y="421.00" text-anchor="start" font-family="trebuchet ms,verdana,arial,sans-serif" font-size="16" fill="#333333"><tspan x="14.00" dy="0.00">Licensing</tspan><tspan x="14.00" dy="24.00">150</tspan></text><rect x="16.00" y="104.00" width="304.44" height="141.00" rx="3" ry="3" fill="#ECECFF" stroke="#7B88A8" stroke-width="1" stroke-linejoin="round" stroke-linecap="round"/><text x="22.00" y="124.00" text-anchor="start" font-family="trebuchet ms,verdana,arial,sans-serif" font-size="16" fill="#333333"><tspan x="22.00" dy="0.00">Hardware</tspan><tspan x="22.00" dy="24.00">200</tspan></text><rect x="16.00" y="308.10" width="411.00" height="81.90" rx="3" ry="3" fill="#ECECFF" stroke="#7B88A8" stroke-width="1" stroke-linejoin="round" stroke-linecap="round"/><text x="22.00" y="328.10" text-anchor="start" font-family="trebuchet ms,verdana,arial,sans-serif" font-size="16" fill="#333333"><tspan x="22.00" dy="0.00">Consulting</tspan><tspan x="22.00" dy="24.00">180</tspan></text><rect x="430.00" y="308.10" width="274.00" height="81.90" rx="3" ry="3" fill="#ECECFF" stroke="#7B88A8" stroke-width="1" stroke-linejoin="round" stroke-linecap="round"/><text x="436.00" y="328.10" text-anchor="start" font-family="trebuchet ms,verdana,arial,sans-serif" font-size="16" fill="#333333"><tspan x="436.00" dy="0.00">Support</tspan><tspan x="436.00" dy="24.00">120</tspan></text></svg>