<svg xmlns="http://www.w3.org/2000/svg" width="540" height="370" viewBox="0 0 540 370"><rect x="0" y="0" width="540" height="370" fill="#FFFFFF"/><defs><marker id="arrow-0" viewBox="0 0 10 10" refX="5" refY="5" markerUnits="userSpaceOnUse" markerWidth="8" markerHeight="8" orient="auto"><path d="M 0 0 L 10 5 L 0 10 z" fill="#2F3B4D" stroke="#2F3B4D" stroke-width="1" stroke-dasharray="1,0"/></marker><marker id="arrow-start-0" viewBox="0 0 10 10" refX="4.5" refY="5" markerUnits="userSpaceOnUse" markerWidth="8" markerHeight="8" orient="auto"><path d="M 0 5 L 10 10 L 10 0 z" fill="#2F3B4D" stroke="#2F3B4D" stroke-width="1" stroke-dasharray="1,0"/></marker></defs><rect x="0" y="0" width="540.00" height="370.00" fill="#FFFFFF"/><rect x="100.00" y="40.00" width="400.00" height="250.00" fill="none" stroke="#2F3B4D" stroke-width="1"/><line x1="100.00" y1="290.00" x2="500.00" y2="290.00" stroke="#ccc" stroke-width="1" stroke-dasharray="2,2"/><text x="95.00" y="295.33" text-anchor="end" font-family="trebuchet ms,verdana,arial,sans-serif" font-size="12.8" fill="#333333">0</text><line x1="100.00" y1="240.00" x2="500.00" y2="240.00" stroke="#ccc" stroke-width="1" stroke-dasharray="2,2"/><text x="95.00" y="245.33" text-anchor="end" font-family="trebuchet ms,verdana,arial,sans-serif" font-size="12.8" fill="#333333">4</text><line x1="100.00" y1="190.00" x2="500.00" y2="190.00" stroke="#ccc" stroke-width="1" stroke-dasharray="2,2"/><text x="95.00" y="195.33" text-anchor="end" font-family="trebuchet ms,verdana,arial,sans-serif" font-size="12.8" fill="#333333">8</text><line x1="100.00" y1="140.00" x2="500.00" y2="140.00" stroke="#ccc" stroke-width="1" stroke-dasharray="2,2"/><text x="95.00" y="145.33" text-anchor="end" font-family="trebuchet ms,verdana,arial,sans-serif" font-size="12.8" fill="#333333">12</text><line x1="100.00" y1="90.00" x2="500.00" y2="90.00" stroke="#ccc" stroke-width="1" stroke-dasharray="2,2"/><text x="95.00" y="95.33" text-anchor="end" font-family="trebuchet ms,verdana,arial,sans-serif" font-size="12.8" fill="#333333">16</text><line x1="100.00" y1="40.00" x2="500.00" y2="40.00" stroke="#ccc" stroke-width="1" stroke-dasharray="2,2"/><text x="95.00" y="45.33" text-anchor="end" font-family="trebuchet ms,verdana,arial,sans-serif" font-size="12.8" fill="#333333">20</text><text x="200.00" y="310.00" text-anchor="middle" font-family="trebuchet ms,verdana,arial,sans-serif" font-size="14.4" fill="#333333">Q1</text><text x="400.00" y="310.00" text-anchor="middle" font-family="trebuchet ms,verdana,arial,sans-serif" font-size="14.4" fill="#333333">Q2</text><text x="40.00" y="165.00" text-anchor="middle" font-family="trebuchet ms,verdana,arial,sans-serif" font-size="16.0" fill="#333333" transform="rotate(-90, 40.00, 165.00)">Units</text><rect x="120.00" y="165.00" width="160.00" height="125.00" fill="#4e79a7" stroke="none"/><rect x="320.00" y="40.00" width="160.00" height="250.00" fill="#4e79a7" stroke="none"/></svg>