<svg xmlns="http://www.w3.org/2000/svg" width="540" height="400" viewBox="0 0 540 400"><rect x="0" y="0" width="540" height="400" fill="#FFFFFF"/><defs><marker id="arrow-0" viewBox="0 0 10 10" refX="5" refY="5" markerUnits="userSpaceOnUse" markerWidth="8" markerHeight="8" orient="auto"><path d="M 0 0 L 10 5 L 0 10 z" fill="#2F3B4D" stroke="#2F3B4D" stroke-width="1" stroke-dasharray="1,0"/></marker><marker id="arrow-start-0" viewBox="0 0 10 10" refX="4.5" refY="5" markerUnits="userSpaceOnUse" markerWidth="8" markerHeight="8" orient="auto"><path d="M 0 5 L 10 10 L 10 0 z" fill="#2F3B4D" stroke="#2F3B4D" stroke-width="1" stroke-dasharray="1,0"/></marker></defs><rect x="0" y="0" width="540.00" height="400.00" fill="#FFFFFF"/><text x="270.00" y="60.00" text-anchor="middle" font-family="trebuchet ms,verdana,arial,sans-serif" font-size="16" fill="#333333"><tspan x="270.00" dy="0.00">Monthly Revenue (2024)</tspan></text><rect x="100.00" y="70.00" width="400.00" height="250.00" fill="none" stroke="#2F3B4D" stroke-width="1"/><line x1="100.00" y1="320.00" x2="500.00" y2="320.00" stroke="#ccc" stroke-width="1" stroke-dasharray="2,2"/><text x="95.00" y="325.33" text-anchor="end" font-family="trebuchet ms,verdana,arial,sans-serif" font-size="12.8" fill="#333333">0</text><line x1="100.00" y1="270.00" x2="500.00" y2="270.00" stroke="#ccc" stroke-width="1" stroke-dasharray="2,2"/><text x="95.00" y="275.33" text-anchor="end" font-family="trebuchet ms,verdana,arial,sans-serif" font-size="12.8" fill="#333333">100</text><line x1="100.00" y1="220.00" x2="500.00" y2="220.00" stroke="#ccc" stroke-width="1" stroke-dasharray="2,2"/><text x="95.00" y="225.33" text-anchor="end" font-family="trebuchet ms,verdana,arial,sans-serif" font-size="12.8" fill="#333333">200</text><line x1="100.00" y1="170.00" x2="500.00" y2="170.00" stroke="#ccc" stroke-width="1" stroke-dasharray="2,2"/><text x="95.00" y="175.33" text-anchor="end" font-family="trebuchet ms,verdana,arial,sans-serif" font-size="12.8" fill="#333333">300</text><line x1="100.00" y1="120.00" x2="500.00" y2="120.00" stroke="#ccc" stroke-width="1" stroke-dasharray="2,2"/><text x="95.00" y="125.33" text-anchor="end" font-family="trebuchet ms,verdana,arial,sans-serif" font-size="12.8" fill="#333333">400</text><line x1="100.00" y1="70.00" x2="500.00" y2="70.00" stroke="#ccc" stroke-width="1" stroke-dasharray="2,2"/><text x="95.00" y="75.33" text-anchor="end" font-family="trebuchet ms,verdana,arial,sans-serif" font-size="12.8" fill="#333333">500</text><text x="116.67" y="340.00" text-anchor="middle" font-family="trebuchet ms,verdana,arial,sans-serif" font-size="14.4" fill="#333333">Jan</text><text x="150.00" y="340.00" text-anchor="middle" font-family="trebuchet ms,verdana,arial,sans-serif" font-size="14.4" fill="#333333">Feb</text><text x="183.33" y="340.00" text-anchor="middle" font-family="trebuchet ms,verdana,arial,sans-serif" font-size="14.4" fill="#333333">Mar</text><text x="216.67" y="340.00" text-anchor="middle" font-family="trebuchet ms,verdana,arial,sans-serif" font-size="14.4" fill="#333333">Apr</text><text x="250.00" y="340.00" text-anchor="middle" font-family="trebuchet ms,verdana,arial,sans-serif" font-size="14.4" fill="#333333">May</text><text x="283.33" y="340.00" text-anchor="middle" font-family="trebuchet ms,verdana,arial,sans-serif" font-size="14.4" fill="#333333">Jun</text><text x="316.67" y="340.00" text-anchor="middle" font-family="trebuchet ms,verdana,arial,sans-serif" font-size="14.4" fill="#333333">Jul</text><text x="350.00" y="340.00" text-anchor="middle" font-family="trebuchet ms,verdana,arial,sans-serif" font-size="14.4" fill="#333333">Aug</text><text x="383.33" y="340.00" text-anchor="middle" font-family="trebuchet ms,verdana,arial,sans-serif" font-size="14.4" fill="#333333">Sep</text><text x="416.67" y="340.00" text-anchor="middle" font-family="trebuchet ms,verdana,arial,sans-serif" font-size="14.4" fill="#333333">Oct</text><text x="450.00" y="340.00" text-anchor="middle" font-family="trebuchet ms,verdana,arial,sans-serif" font-size="14.4" fill="#333333">Nov</text><text x="483.33" y="340.00" text-anchor="middle" font-family="trebuchet ms,verdana,arial,sans-serif" font-size="14.4" fill="#333333">Dec</text><text x="40.00" y="195.00" text-anchor="middle" font-family="trebuchet ms,verdana,arial,sans-serif" font-size="16.0" fill="#333333" transform="rotate(-90, 40.00, 195.00)">Revenue ($K)</text><path d="M 116.67,260.00 L 150.00,247.50 L 183.33,240.00 L 216.67,225.00 L 250.00,210.00 L 283.33,195.00 L 316.67,180.00 L 350.00,165.00 L 383.33,175.00 L 416.67,155.00 L 450.00,135.00 L 483.33,110.00" fill="none" stroke="#4e79a7" stroke-width="2" stroke-linecap="round" stroke-linejoin="round"/><circle cx="116.67" cy="260.00" r="4" fill="#4e79a7" stroke="white" stroke-width="1"/><circle cx="150.00" cy="247.50" r="4" fill="#4e79a7" stroke="white" stroke-width="1"/><circle cx="183.33" cy="240.00" r="4" fill="#4e79a7" stroke="white" stroke-width="1"/><circle cx="216.67" cy="225.00" r="4" fill="#4e79a7" stroke="white" stroke-width="1"/><circle cx="250.00" cy="210.00" r="4" fill="#4e79a7" stroke="white" stroke-width="1"/><circle cx="283.33" cy="195.00" r="4" fill="#4e79a7" stroke="white" stroke-width="1"/><circle cx="316.67" cy="180.00" r="4" fill="#4e79a7" stroke="white" stroke-width="1"/><circle cx="350.00" cy="165.00" r="4" fill="#4e79a7" stroke="white" stroke-width="1"/><circle cx="383.33" cy="175.00" r="4" fill="#4e79a7" stroke="white" stroke-width="1"/><circle cx="416.67" cy="155.00" r="4" fill="#4e79a7" stroke="white" stroke-width="1"/><circle cx="450.00" cy="135.00" r="4" fill="#4e79a7" stroke="white" stroke-width="1"/><circle cx="483.33" cy="110.00" r="4" fill="#4e79a7" stroke="white" stroke-width="1"/></svg>