<svg xmlns="http://www.w3.org/2000/svg" width="540" height="400" viewBox="0 0 540 400"><rect x="0" y="0" width="540" height="400" fill="#FFFFFF"/><defs><marker id="arrow-0" viewBox="0 0 10 10" refX="5" refY="5" markerUnits="userSpaceOnUse" markerWidth="8" markerHeight="8" orient="auto"><path d="M 0 0 L 10 5 L 0 10 z" fill="#2F3B4D" stroke="#2F3B4D" stroke-width="1" stroke-dasharray="1,0"/></marker><marker id="arrow-start-0" viewBox="0 0 10 10" refX="4.5" refY="5" markerUnits="userSpaceOnUse" markerWidth="8" markerHeight="8" orient="auto"><path d="M 0 5 L 10 10 L 10 0 z" fill="#2F3B4D" stroke="#2F3B4D" stroke-width="1" stroke-dasharray="1,0"/></marker></defs><rect x="0" y="0" width="540.00" height="400.00" fill="#FFFFFF"/><text x="270.00" y="60.00" text-anchor="middle" font-family="trebuchet ms,verdana,arial,sans-serif" font-size="16" fill="#333333"><tspan x="270.00" dy="0.00">Sales</tspan></text><rect x="100.00" y="70.00" width="400.00" height="250.00" fill="none" stroke="#2F3B4D" stroke-width="1"/><line x1="100.00" y1="320.00" x2="500.00" y2="320.00" stroke="#ccc" stroke-width="1" stroke-dasharray="2,2"/><text x="95.00" y="325.33" text-anchor="end" font-family="trebuchet ms,verdana,arial,sans-serif" font-size="12.8" fill="#333333">0</text><line x1="100.00" y1="270.00" x2="500.00" y2="270.00" stroke="#ccc" stroke-width="1" stroke-dasharray="2,2"/><text x="95.00" y="275.33" text-anchor="end" font-family="trebuchet ms,verdana,arial,sans-serif" font-size="12.8" fill="#333333">20</text><line x1="100.00" y1="220.00" x2="500.00" y2="220.00" stroke="#ccc" stroke-width="1" stroke-dasharray="2,2"/><text x="95.00" y="225.33" text-anchor="end" font-family="trebuchet ms,verdana,arial,sans-serif" font-size="12.8" fill="#333333">40</text><line x1="100.00" y1="170.00" x2="500.00" y2="170.00" stroke="#ccc" stroke-width="1" stroke-dasharray="2,2"/><text x="95.00" y="175.33" text-anchor="end" font-family="trebuchet ms,verdana,arial,sans-serif" font-size="12.8" fill="#333333">60</text><line x1="100.00" y1="120.00" x2="500.00" y2="120.00" stroke="#ccc" stroke-width="1" stroke-dasharray="2,2"/><text x="95.00" y="125.33" text-anchor="end" font-family="trebuchet ms,verdana,arial,sans-serif" font-size="12.8" fill="#333333">80</text><line x1="100.00" y1="70.00" x2="500.00" y2="70.00" stroke="#ccc" stroke-width="1" stroke-dasharray="2,2"/><text x="95.00" y="75.33" text-anchor="end" font-family="trebuchet ms,verdana,arial,sans-serif" font-size="12.8" fill="#333333">100</text><text x="150.00" y="340.00" text-anchor="middle" font-family="trebuchet ms,verdana,arial,sans-serif" font-size="14.4" fill="#333333">Q1</text><text x="250.00" y="340.00" text-anchor="middle" font-family="trebuchet ms,verdana,arial,sans-serif" font-size="14.4" fill="#333333">Q2</text><text x="350.00" y="340.00" text-anchor="middle" font-family="trebuchet ms,verdana,arial,sans-serif" font-size="14.4" fill="#333333">Q3</text><text x="450.00" y="340.00" text-anchor="middle" font-family="trebuchet ms,verdana,arial,sans-serif" font-size="14.4" fill="#333333">Q4</text><text x="40.00" y="195.00" text-anchor="middle" font-family="trebuchet ms,verdana,arial,sans-serif" font-size="16.0" fill="#333333" transform="rotate(-90, 40.00, 195.00)">Units</text><rect x="110.00" y="270.00" width="80.00" height="50.00" fill="#4e79a7" stroke="none"/><rect x="210.00" y="245.00" width="80.00" height="75.00" fill="#4e79a7" stroke="none"/><rect x="310.00" y="220.00" width="80.00" height="100.00" fill="#4e79a7" stroke="none"/><rect x="410.00" y="170.00" width="80.00" height="150.00" fill="#4e79a7" stroke="none"/><path d="M 150.00,282.50 L 250.00,257.50 L 350.00,232.50 L 450.00,195.00" fill="none" stroke="#f28e2c" stroke-width="2" stroke-linecap="round" stroke-linejoin="round"/><circle cx="150.00" cy="282.50" r="4" fill="#f28e2c" stroke="white" stroke-width="1"/><circle cx="250.00" cy="257.50" r="4" fill="#f28e2c" stroke="white" stroke-width="1"/><circle cx="350.00" cy="232.50" r="4" fill="#f28e2c" stroke="white" stroke-width="1"/><circle cx="450.00" cy="195.00" r="4" fill="#f28e2c" stroke="white" stroke-width="1"/></svg>